<svg id="Grupo_1100573" data-name="Grupo 1100573" xmlns="http://www.w3.org/2000/svg" xmlns:xlink="http://www.w3.org/1999/xlink" width="190" height="97" viewBox="0 0 190 97">
  <defs>
    <clipPath id="clip-path">
      <path id="path3150" d="M0-682.665H82v82H0Z" transform="translate(0 682.665)" fill="#fff"/>
    </clipPath>
  </defs>
  <rect id="Rectángulo_402374" data-name="Rectángulo 402374" width="190" height="97" rx="7" fill="#484a90"/>
  <g id="g3144" transform="translate(54 8)">
    <g id="g3146">
      <g id="g3148" clip-path="url(#clip-path)">
        <g id="g3154" transform="translate(0 0)">
          <path id="path3156" d="M-631.665-341.333a41.047,41.047,0,0,1,41,41A41.137,41.137,0,0,1-620.54-260.86a1.2,1.2,0,0,1-1.482-.831,1.2,1.2,0,0,1,.831-1.482,38.726,38.726,0,0,0,28.123-37.16,38.642,38.642,0,0,0-38.6-38.6,38.406,38.406,0,0,0-21.519,6.551l-.054.034-.052.037a38.593,38.593,0,0,0-16.972,31.975,38.642,38.642,0,0,0,38.6,38.6,39,39,0,0,0,6.5-.545,1.2,1.2,0,0,1,1.385.984,1.2,1.2,0,0,1-.984,1.385,41.406,41.406,0,0,1-6.9.578,41.047,41.047,0,0,1-41-41A40.993,40.993,0,0,1-654.638-334.3l.057-.037.055-.04A40.8,40.8,0,0,1-631.665-341.333Z" transform="translate(672.665 341.333)" fill="#fff"/>
        </g>
        <g id="g3158" transform="translate(35.857 48.154)">
          <path id="path3160" d="M-3.948-75.7h0A8.912,8.912,0,0,1-12.5-82.015a8.9,8.9,0,0,1,.639-6.825,8.9,8.9,0,0,1,5.278-4.374,8.957,8.957,0,0,1,2.643-.4A8.912,8.912,0,0,1,4.612-87.3a8.9,8.9,0,0,1-.639,6.825A8.9,8.9,0,0,1-1.305-76.1,8.957,8.957,0,0,1-3.948-75.7Zm0-2.4a6.556,6.556,0,0,0,1.935-.293,6.511,6.511,0,0,0,3.862-3.2,6.511,6.511,0,0,0,.468-4.994,6.521,6.521,0,0,0-6.26-4.624,6.557,6.557,0,0,0-1.935.293,6.511,6.511,0,0,0-3.862,3.2,6.511,6.511,0,0,0-.468,4.994A6.521,6.521,0,0,0-3.948-78.1Z" transform="translate(12.906 93.614)" fill="#fff"/>
        </g>
        <g id="g3162" transform="translate(35.419 4.455)">
          <path id="path3164" d="M-7.293-22.481h0a2.672,2.672,0,0,1,1.872.769L23.693,6.659a2.7,2.7,0,0,1-1.883,4.629H-7.3a2.7,2.7,0,0,1-2.7-2.7V-19.78a2.66,2.66,0,0,1,.845-1.965A2.755,2.755,0,0,1-7.293-22.481ZM21.81,8.886a.295.295,0,0,0,.206-.506L-7.1-19.992a.27.27,0,0,0-.2-.087h0a.332.332,0,0,0-.221.088.268.268,0,0,0-.084.21V8.591a.3.3,0,0,0,.3.3Z" transform="translate(10 22.481)" fill="#fff"/>
        </g>
        <g id="g3166" transform="translate(40.259 19.004)">
          <path id="path3168" d="M-45-3.25a1.2,1.2,0,0,1-.849-.352,1.2,1.2,0,0,1,0-1.7L-41.5-9.648a1.2,1.2,0,0,1,1.7,0,1.2,1.2,0,0,1,0,1.7L-44.149-3.6A1.2,1.2,0,0,1-45-3.25Z" transform="translate(46.2 10)" fill="#fff"/>
        </g>
        <g id="g3170" transform="translate(44.259 23.004)">
          <path id="path3172" d="M-45-3.249a1.2,1.2,0,0,1-.849-.352,1.2,1.2,0,0,1,0-1.7L-41.5-9.648a1.2,1.2,0,0,1,1.7,0,1.2,1.2,0,0,1,0,1.7L-44.149-3.6A1.2,1.2,0,0,1-45-3.249Z" transform="translate(46.2 10)" fill="#fff"/>
        </g>
        <g id="g3174" transform="translate(48.259 27.004)">
          <path id="path3176" d="M-45-3.249a1.2,1.2,0,0,1-.849-.352,1.2,1.2,0,0,1,0-1.7L-41.5-9.648a1.2,1.2,0,0,1,1.7,0,1.2,1.2,0,0,1,0,1.7L-44.149-3.6A1.2,1.2,0,0,1-45-3.249Z" transform="translate(46.2 10)" fill="#fff"/>
        </g>
        <g id="g3178" transform="translate(9.732 12.643)">
          <path id="path3180" d="M-45.3-313.43a5.485,5.485,0,0,1-.962-.086,5.554,5.554,0,0,1-.838-.218c-5.747-1.987-6.937-13.123-2.709-25.353,3.721-10.762,10.421-18.573,15.93-18.573a5.674,5.674,0,0,1,1.859.308,5.563,5.563,0,0,1,.794.346,5.492,5.492,0,0,1,2.747,3.558,5.641,5.641,0,0,1-.845,4.539,63.262,63.262,0,0,0-6.908,14.517,63.268,63.268,0,0,0-3.534,15.683A5.584,5.584,0,0,1-45.3-313.43Zm11.421-41.827c-3.833,0-9.99,6.342-13.66,16.956-4.041,11.687-2.63,20.965,1.223,22.3a3.149,3.149,0,0,0,.476.124,3.073,3.073,0,0,0,.541.048,3.179,3.179,0,0,0,3.137-3.019A65.7,65.7,0,0,1-38.5-335.176a65.7,65.7,0,0,1,7.2-15.1,3.237,3.237,0,0,0,.484-2.6,3.047,3.047,0,0,0-1.541-2,3.161,3.161,0,0,0-.451-.2A3.277,3.277,0,0,0-33.878-355.257Z" transform="translate(52.337 357.659)" fill="#fff"/>
        </g>
        <g id="g3182" transform="translate(18.186 31.249)">
          <path id="path3184" d="M-7.79-20.537a3.044,3.044,0,0,1,1.007.17l3.454,1.194a1.2,1.2,0,0,1,.693.622,1.2,1.2,0,0,1,.041.93q-.318.86-.624,1.746t-.587,1.758a1.2,1.2,0,0,1-.607.706,1.2,1.2,0,0,1-.929.061L-8.8-14.545a3.06,3.06,0,0,1-1.764-1.564,3.06,3.06,0,0,1-.141-2.354A3.082,3.082,0,0,1-7.79-20.537ZM-5.266-17.3l-2.3-.8a.678.678,0,0,0-.222-.038.679.679,0,0,0-.641.457.674.674,0,0,0,.031.518.674.674,0,0,0,.388.344l2.3.8q.108-.32.219-.642T-5.266-17.3Z" transform="translate(10.872 20.538)" fill="#fff"/>
        </g>
        <g id="g3186" transform="translate(16.842 40.097)">
          <path id="path3188" d="M-7.791-20.537a3.1,3.1,0,0,1,1.007.17l2.168.75a1.2,1.2,0,0,1,.771,1.432c-.316,1.24-.591,2.459-.819,3.623a1.2,1.2,0,0,1-.579.81,1.2,1.2,0,0,1-.992.094L-8.8-14.545a3.06,3.06,0,0,1-1.764-1.565,3.061,3.061,0,0,1-.141-2.354A3.082,3.082,0,0,1-7.791-20.537Zm1.353,2.831L-7.569-18.1a.678.678,0,0,0-.222-.038.679.679,0,0,0-.641.457.674.674,0,0,0,.031.518.673.673,0,0,0,.388.344l1.271.439Q-6.6-17.034-6.437-17.706Z" transform="translate(10.872 20.537)" fill="#fff"/>
        </g>
        <g id="g3190" transform="translate(22.594 23.461)">
          <path id="path3192" d="M-49.024-18.239a3.067,3.067,0,0,1,1.007.17l2.562.886a1.2,1.2,0,0,1,.722.687,1.2,1.2,0,0,1-.045,1c-.542,1.059-1.078,2.188-1.594,3.355a1.2,1.2,0,0,1-1.491.65l-2.168-.75a3.06,3.06,0,0,1-1.764-1.564,3.06,3.06,0,0,1-.141-2.354A3.082,3.082,0,0,1-49.024-18.239Zm1.493,2.879L-48.8-15.8a.678.678,0,0,0-.222-.038.678.678,0,0,0-.641.457.674.674,0,0,0,.031.518.674.674,0,0,0,.388.344l1.132.391Q-47.825-14.753-47.531-15.36Z" transform="translate(52.106 18.239)" fill="#fff"/>
        </g>
        <g id="g3194" transform="translate(19.728 39.799)">
          <path id="path3196" d="M-73.027-229.953a16.9,16.9,0,0,1-5.561-.941,12.153,12.153,0,0,0-4-.681,11.722,11.722,0,0,0-2.048.18,1.2,1.2,0,0,1-1.393-.972,1.2,1.2,0,0,1,.972-1.393,14.132,14.132,0,0,1,2.469-.217,14.549,14.549,0,0,1,4.787.815,14.5,14.5,0,0,0,4.772.808,15.131,15.131,0,0,0,9.071-3.105,13.333,13.333,0,0,0,2.893-2.921,41.714,41.714,0,0,1,3.322-3.787,7.074,7.074,0,0,0,1.951-5.9,7.022,7.022,0,0,0-2.426-4.4,25.846,25.846,0,0,1-3.443-3.565A14.73,14.73,0,0,0-73.047-261.5a14.53,14.53,0,0,0-4.288.649L-84.64-258.6a7.042,7.042,0,0,0-4.648,8.8,4.056,4.056,0,0,1-.291,3.111,4.056,4.056,0,0,1-2.406,1.994,5.323,5.323,0,0,0-3.157,2.617A5.322,5.322,0,0,0-95.525-238a7.021,7.021,0,0,0,6.581,4.96,1.2,1.2,0,0,1,1.177,1.224,1.2,1.2,0,0,1-1.224,1.177,9.419,9.419,0,0,1-8.83-6.654,7.709,7.709,0,0,1,.554-5.913A7.71,7.71,0,0,1-92.693-247a1.682,1.682,0,0,0,1.11-2.1,9.447,9.447,0,0,1,6.235-11.8l7.306-2.254a16.93,16.93,0,0,1,5-.756,17.153,17.153,0,0,1,13.26,6.366,23.441,23.441,0,0,0,3.12,3.234,9.421,9.421,0,0,1,3.255,5.9,9.491,9.491,0,0,1-2.618,7.921,39.606,39.606,0,0,0-3.15,3.593,15.632,15.632,0,0,1-3.342,3.357A17.515,17.515,0,0,1-73.027-229.953Z" transform="translate(98.169 263.906)" fill="#fff"/>
        </g>
        <g id="g3198" transform="translate(15.264 11.546)">
          <path id="path3200" d="M-446.147-193.786a1.2,1.2,0,0,1-.825-.328,29.98,29.98,0,0,1-5.113-6.362,1.2,1.2,0,0,1,.007-1.247,1.2,1.2,0,0,1,1.11-.569c.073.005.146.008.218.008a3.178,3.178,0,0,0,3.136-3.018,65.7,65.7,0,0,1,3.661-16.325,65.7,65.7,0,0,1,7.2-15.1,3.241,3.241,0,0,0,.5-2.541,3.056,3.056,0,0,0-1.45-2.006,1.2,1.2,0,0,1-.593-1.126,1.2,1.2,0,0,1,.752-1.027,29.615,29.615,0,0,1,6.457-1.764,1.2,1.2,0,0,1,.965.275,1.2,1.2,0,0,1,.419.912v22.779a.3.3,0,0,0,.3.3h29.113a.274.274,0,0,0,.273-.184.274.274,0,0,0-.067-.322l-22.146-21.582a1.2,1.2,0,0,1-.229-1.411,1.2,1.2,0,0,1,1.282-.631,29.769,29.769,0,0,1,24.447,29.308,29.8,29.8,0,0,1-6.971,19.128,1.2,1.2,0,0,1-1.516.27,1.2,1.2,0,0,1-.536-1.444,7.058,7.058,0,0,0,.34-3.321,7.022,7.022,0,0,0-2.426-4.4,25.831,25.831,0,0,1-3.443-3.566,14.729,14.729,0,0,0-11.386-5.467,14.53,14.53,0,0,0-4.288.649l-7.306,2.254a6.988,6.988,0,0,0-4.145,3.435,6.988,6.988,0,0,0-.5,5.36,4.087,4.087,0,0,1-2.7,5.1,5.331,5.331,0,0,0-3.418,3.194,1.2,1.2,0,0,1-.856.739A1.2,1.2,0,0,1-446.147-193.786Zm-2.876-6.376a27.57,27.57,0,0,0,2.574,3.173,7.712,7.712,0,0,1,4.132-3.055,1.682,1.682,0,0,0,1.11-2.1,9.375,9.375,0,0,1,.674-7.191,9.375,9.375,0,0,1,5.561-4.608l7.306-2.254a16.93,16.93,0,0,1,5-.756,17.152,17.152,0,0,1,13.26,6.366,23.427,23.427,0,0,0,3.12,3.234,9.421,9.421,0,0,1,3.227,5.714,27.378,27.378,0,0,0,3.93-14.113,27.619,27.619,0,0,0-.159-2.966,2.706,2.706,0,0,1-1,.19H-429.4a2.7,2.7,0,0,1-2.7-2.7v-21.341a27.236,27.236,0,0,0-2.732.718,5.546,5.546,0,0,1,.928,2.059,5.651,5.651,0,0,1-.869,4.431,63.267,63.267,0,0,0-6.908,14.517,63.266,63.266,0,0,0-3.534,15.683A5.616,5.616,0,0,1-449.023-200.162Zm31.756-41.375,16.284,15.869A27.378,27.378,0,0,0-417.267-241.537Z" transform="translate(452.256 245.207)" fill="#fff"/>
        </g>
      </g>
    </g>
  </g>
</svg>
