<svg xmlns="http://www.w3.org/2000/svg" width="88.049" height="79.511" viewBox="0 0 88.049 79.511">
  <g id="Grupo_1099871" data-name="Grupo 1099871" transform="translate(-255 -2844)">
    <g id="Grupo_1099778" data-name="Grupo 1099778" transform="translate(255 2839.438)">
      <g id="Grupo_78348" data-name="Grupo 78348" transform="translate(0 6.296)">
        <path id="Trazado_113319" data-name="Trazado 113319" d="M1570.662,1089.269v-6.956h-7.011v-4.8h7.011v-6.956h4.674v6.956h7.029v4.8h-7.029v6.956Z" transform="translate(-1563.651 -1070.555)" fill="#787cf0"/>
      </g>
      <g id="maiz" transform="translate(-2.591 1.899)">
        <path id="Trazado_874503" data-name="Trazado 874503" d="M69.942,36.652C76.269,23.788,80.858,9.594,75.4,5.681s-17.426,5-27.573,15.133c-1.347-1.875-4.072-3.9-9.53-3.5a1.143,1.143,0,0,0-.242,2.236.762.762,0,0,1,.433.523,5.364,5.364,0,0,1-.8,4.211c-.337.5-.673,1.032-1.007,1.568a12.368,12.368,0,0,0-6.987-.87,1.143,1.143,0,0,0-.135,2.246,2.115,2.115,0,0,1,1.365,1.266,2.65,2.65,0,0,1-.223,2.433C22.57,44.1,17.081,62.711,22.482,71.972l-3.288,4.589a1.144,1.144,0,0,0,.261,1.6l5.3,3.8a1.141,1.141,0,0,0,.666.214,1.2,1.2,0,0,0,.186-.015,1.145,1.145,0,0,0,.743-.463L29.645,77.1a13.78,13.78,0,0,0,2.672.254c10.071,0,23.98-9.644,33.54-21.221A2.654,2.654,0,0,1,68.1,55.128a2.126,2.126,0,0,1,1.643.889,1.143,1.143,0,0,0,2.082-.849,12.378,12.378,0,0,0-3.075-6.341c.4-.487.784-.972,1.153-1.447a5.428,5.428,0,0,1,3.7-2.115h.044c.474.01.6.186.638.243a1.143,1.143,0,0,0,2.039-.949C74.945,39.25,72.15,37.322,69.942,36.652ZM48.352,23.5a1.156,1.156,0,0,0,.1-.1c.363-.37.725-.733,1.087-1.094l1.948,1.4a1.144,1.144,0,0,0,1.332-1.86L51.2,20.681q1.535-1.475,3.037-2.817l.949.68a1.144,1.144,0,0,0,1.332-1.859L56,16.314C64.26,9.24,71.312,5.563,74.067,7.537s1.54,9.839-2.5,19.935l-.514-.368a1.144,1.144,0,1,0-1.332,1.86l.947.678q-.79,1.854-1.691,3.782l-1.62-1.161a1.144,1.144,0,0,0-1.332,1.86l1.948,1.4c-.223.457-.448.91-.679,1.368a1.1,1.1,0,0,0-.088.172Q66.67,38.12,66.1,39.2a1.154,1.154,0,0,0-.176-.156l-2.26-1.619a1.144,1.144,0,0,0-1.331,1.857l2.26,1.619a1.111,1.111,0,0,0,.491.187q-1.147,2.1-2.4,4.216a1.139,1.139,0,0,0-.457-1.1l-2.26-1.62a1.146,1.146,0,0,0-1.334,1.863l2.26,1.62a1.13,1.13,0,0,0,1.351-.022l-.331.551a10.36,10.36,0,0,0-1.8.392c-.653.2-1.787.582-3.272,1.168l-.571-.409a1.141,1.141,0,0,0-1.719,1.367c-1.441.636-3.071,1.417-4.84,2.367a1.141,1.141,0,0,0-.476-.968l-2.26-1.623a1.144,1.144,0,1,0-1.332,1.859l2.26,1.62c.035.024.074.035.11.055-1.213.7-2.474,1.467-3.765,2.319l-.966-.691A1.142,1.142,0,0,0,41.947,55.9l.293.21a67.83,67.83,0,0,0-7.209,5.9A67.988,67.988,0,0,0,38.3,53.294l.3.216a1.144,1.144,0,1,0,1.334-1.858l-.98-.7c.392-1.5.712-2.936.98-4.309a1.037,1.037,0,0,0,.1.09l2.26,1.619a1.145,1.145,0,0,0,1.338-1.859l-2.26-1.62a1.144,1.144,0,0,0-1.088-.131c.333-1.982.557-3.8.7-5.364.025,0,.051.012.076.012a1.143,1.143,0,0,0,.666-2.071l-.57-.408c.08-1.626.073-2.826.056-3.473A10.4,10.4,0,0,0,41,31.611l.416-.491a1.142,1.142,0,0,0,.416,1.283l2.26,1.62a1.144,1.144,0,0,0,1.332-1.86l-2.26-1.619a1.138,1.138,0,0,0-1.19-.081q1.6-1.862,3.213-3.617a1.13,1.13,0,0,0,.34.4l2.26,1.619A1.144,1.144,0,1,0,49.12,27l-2.26-1.62a1.152,1.152,0,0,0-.2-.116C47.22,24.667,47.788,24.076,48.352,23.5ZM39.6,25.545a7.731,7.731,0,0,0,1.136-5.96c2.57.209,4.422,1.192,5.455,2.891-2.165,2.231-4.221,4.488-6.083,6.654a7.742,7.742,0,0,0-1.536-1.981c.34-.547.68-1.087,1.028-1.6Zm-6.938,6.561a4.978,4.978,0,0,0,.376-4.5c-.065-.15-.131-.295-.208-.435a6.919,6.919,0,0,1,4.06,1.529,6.542,6.542,0,0,1,2.035,4.794,63.8,63.8,0,0,1-2.363,17.59,1.092,1.092,0,0,0-.032.118,64.085,64.085,0,0,1-7.9,17.792c-.506.642-1,1.307-1.495,1.982.035-8.3,3.021-17.927,5.083-24.568,1.221-3.932,2.1-6.772,2.145-8.392a1.143,1.143,0,0,0-1.111-1.173h-.031a1.143,1.143,0,0,0-1.142,1.111c-.034,1.3-.965,4.3-2.044,7.775-2.144,6.9-5.257,16.956-5.178,25.724-.018-.025-.038-.049-.055-.074C19.993,64.29,23.441,47.047,32.659,32.107ZM25.165,79.435l-3.446-2.471L23.9,73.916A10.314,10.314,0,0,0,25.441,75.3l.009.007c.012.008.024.019.035.028h0a10.152,10.152,0,0,0,1.859,1.045ZM68.259,52.847a4.98,4.98,0,0,0-4.154,1.817C53.767,67.186,38.262,77.275,29.358,74.7c8.333-2.744,16.858-8.927,22.71-13.18,2.94-2.138,5.48-3.986,6.7-4.435a1.144,1.144,0,1,0-.793-2.146c-1.518.561-3.925,2.31-7.253,4.73-5.677,4.126-13.93,10.117-21.845,12.783A65.871,65.871,0,0,1,57.129,50.495c.028-.012.057-.02.084-.035,1.643-.663,2.891-1.081,3.579-1.3a6.541,6.541,0,0,1,5.2.388,6.931,6.931,0,0,1,2.754,3.355,4.79,4.79,0,0,0-.487-.06ZM68.1,45.976c-.376.488-.776.985-1.185,1.483a7.75,7.75,0,0,0-2.37-.817c1.454-2.463,2.931-5.131,4.35-7.9,1.939.431,3.463,1.87,4.49,4.243A7.743,7.743,0,0,0,68.1,45.976Z" transform="translate(0 0)" fill="#30169a"/>
        <path id="Trazado_874504" data-name="Trazado 874504" d="M84.911,20.541l2.261,1.619A1.144,1.144,0,1,0,88.5,20.3l-2.261-1.62a1.144,1.144,0,0,0-1.332,1.86Z" transform="translate(-22.694 -4.764)" fill="#30169a"/>
        <path id="Trazado_874505" data-name="Trazado 874505" d="M93.474,26.675l2.26,1.62a1.144,1.144,0,0,0,1.332-1.86l-2.26-1.619a1.144,1.144,0,0,0-1.332,1.859Z" transform="translate(-25.654 -6.885)" fill="#30169a"/>
        <path id="Trazado_874506" data-name="Trazado 874506" d="M79.247,28.428l2.26,1.62a1.144,1.144,0,0,0,1.334-1.86l-2.26-1.619a1.144,1.144,0,1,0-1.334,1.859Z" transform="translate(-20.723 -7.492)" fill="#30169a"/>
        <path id="Trazado_874507" data-name="Trazado 874507" d="M91.419,34.335l-2.26-1.62a1.144,1.144,0,0,0-1.332,1.86l2.26,1.619a1.144,1.144,0,1,0,1.332-1.859Z" transform="translate(-23.704 -9.628)" fill="#30169a"/>
        <path id="Trazado_874508" data-name="Trazado 874508" d="M94.835,15.7l2.26,1.619a1.144,1.144,0,0,0,1.332-1.86l-2.26-1.619a1.144,1.144,0,1,0-1.332,1.86Z" transform="translate(-26.118 -3.075)" fill="#30169a"/>
        <path id="Trazado_874509" data-name="Trazado 874509" d="M73.587,36.325l2.26,1.617a1.143,1.143,0,1,0,1.331-1.859l-2.26-1.619a1.143,1.143,0,1,0-1.331,1.86Z" transform="translate(-18.761 -10.229)" fill="#30169a"/>
        <path id="Trazado_874510" data-name="Trazado 874510" d="M85.751,42.228l-2.26-1.619a1.144,1.144,0,0,0-1.332,1.859l2.26,1.62a1.144,1.144,0,0,0,1.332-1.86Z" transform="translate(-21.732 -12.358)" fill="#30169a"/>
        <path id="Trazado_874511" data-name="Trazado 874511" d="M67.919,44.213l2.26,1.62a1.143,1.143,0,1,0,1.331-1.86l-2.26-1.618a1.143,1.143,0,1,0-1.331,1.859Z" transform="translate(-16.789 -12.958)" fill="#30169a"/>
        <path id="Trazado_874512" data-name="Trazado 874512" d="M80.105,50.135l-2.26-1.62a1.144,1.144,0,0,0-1.332,1.86l2.26,1.619a1.144,1.144,0,0,0,1.332-1.859Z" transform="translate(-19.783 -15.104)" fill="#30169a"/>
        <path id="Trazado_874513" data-name="Trazado 874513" d="M62.272,52.116l2.26,1.618a1.143,1.143,0,1,0,1.331-1.859L63.6,50.257a1.143,1.143,0,1,0-1.331,1.86Z" transform="translate(-14.84 -15.702)" fill="#30169a"/>
        <path id="Trazado_874514" data-name="Trazado 874514" d="M74.441,58.017,72.18,56.4a1.144,1.144,0,1,0-1.334,1.859l2.26,1.62a1.144,1.144,0,0,0,1.334-1.86Z" transform="translate(-17.812 -17.831)" fill="#30169a"/>
        <path id="Trazado_874515" data-name="Trazado 874515" d="M60.207,59.772l-2.26-1.619a1.144,1.144,0,1,0-1.332,1.859l2.26,1.62a1.144,1.144,0,1,0,1.332-1.86Z" transform="translate(-12.879 -18.439)" fill="#30169a"/>
        <path id="Trazado_874516" data-name="Trazado 874516" d="M68.791,65.921l-2.26-1.62a1.144,1.144,0,0,0-1.332,1.86l2.26,1.619a1.144,1.144,0,0,0,1.332-1.859Z" transform="translate(-15.862 -20.576)" fill="#30169a"/>
      </g>
    </g>
    <rect id="Rectángulo_402041" data-name="Rectángulo 402041" width="88" height="76" transform="translate(255.049 2844)" fill="none"/>
  </g>
</svg>
