<svg xmlns="http://www.w3.org/2000/svg" width="89.001" height="89" viewBox="0 0 89.001 89">
  <g id="Grupo_1101081" data-name="Grupo 1101081" transform="translate(-913.999 -1681)">
    <rect id="Rect치ngulo_400907" data-name="Rect치ngulo 400907" width="89" height="89" rx="44.5" transform="translate(914 1681)" fill="none"/>
    <g id="Grupo_1099003" data-name="Grupo 1099003" transform="translate(0 85)">
      <rect id="Rect치ngulo_400898" data-name="Rect치ngulo 400898" width="89" height="89" rx="44.5" transform="translate(913.999 1596)" fill="#fff"/>
      <g id="outline" transform="translate(917 1599.006)">
        <path id="Trazado_873080" data-name="Trazado 873080" d="M25.258,345.679H57.242a9.269,9.269,0,0,0,9.258-9.258.842.842,0,0,0-.842-.842h-7.72a2.525,2.525,0,1,0-4.76,0H41.846a5.892,5.892,0,1,0-11.292,0H16.842a.842.842,0,0,0-.842.842,9.269,9.269,0,0,0,9.258,9.258Zm29.458-10.942a.842.842,0,1,1,.842.842A.842.842,0,0,1,54.717,334.737Zm-15.6.842a3.345,3.345,0,0,0,.346-.842h.863a4.2,4.2,0,0,1-.267.842Zm-6.281-2.525h-.757a4.183,4.183,0,0,1,.614-1.477l.61.61a3.348,3.348,0,0,0-.363.874A.859.859,0,0,0,32.833,333.054Zm7.49,0H39.46a3.347,3.347,0,0,0-.361-.867l.61-.61a4.183,4.183,0,0,1,.615,1.477ZM37.909,331a3.346,3.346,0,0,0-.867-.361v-.864a4.183,4.183,0,0,1,1.477.614Zm-2.55-.361a3.346,3.346,0,0,0-.867.361l-.61-.61a4.183,4.183,0,0,1,1.477-.614Zm-.842,3.26a1.683,1.683,0,1,1,1.683,1.683A1.683,1.683,0,0,1,34.517,333.9Zm-2.44.842h.756a.86.86,0,0,0,.105-.007,3.344,3.344,0,0,0,.348.849h-.942A4.2,4.2,0,0,1,32.077,334.737Zm32.693,2.525A7.586,7.586,0,0,1,57.242,344H25.258a7.586,7.586,0,0,1-7.529-6.733Z" transform="translate(0 -279.184)" fill="#30169a"/>
        <path id="Trazado_873081" data-name="Trazado 873081" d="M80.842,433.683h7.575a.842.842,0,0,0,0-1.683H80.842a.842.842,0,0,0,0,1.683Z" transform="translate(-57.267 -372.238)" fill="#30169a"/>
        <path id="Trazado_873082" data-name="Trazado 873082" d="M184.842,433.683h1.683a.842.842,0,0,0,0-1.683h-1.683a.842.842,0,0,0,0,1.683Z" transform="translate(-150.325 -372.238)" fill="#30169a"/>
        <path id="Trazado_873083" data-name="Trazado 873083" d="M300.891,187.92a7.249,7.249,0,0,0-1.539,3.406,5.316,5.316,0,0,0-1.195,1.482c-.868,1.577-.972,3.094-.306,4.149a.277.277,0,0,1-.049.068l-.022.023-4.176,4.508a1.985,1.985,0,0,0,2.8,2.816l4.3-3.936.027-.025a.3.3,0,0,1,.265-.081c.079.013.159.025.24.034a4.239,4.239,0,0,0,4.387-.1,5.316,5.316,0,0,0,1.481-1.195,7.238,7.238,0,0,0,3.406-1.539,5.889,5.889,0,0,0,2.582-4.318,4.182,4.182,0,0,0,.758-1.092,4.036,4.036,0,0,0,.328-2.568c.5-1.915.229-3.515-.778-4.522s-2.607-1.28-4.522-.779a4.037,4.037,0,0,0-2.568.328,4.185,4.185,0,0,0-1.092.758A5.892,5.892,0,0,0,300.891,187.92Zm4.444-.878a.842.842,0,0,0,.853-.287,2.451,2.451,0,0,1,.84-.656,2.331,2.331,0,0,1,1.629-.166.842.842,0,0,0,.46,0c1.4-.4,2.492-.3,3.084.291s.695,1.687.291,3.083a.843.843,0,0,0,0,.46,2.331,2.331,0,0,1-.166,1.629,2.451,2.451,0,0,1-.657.84.842.842,0,0,0-.287.853c.164.67-.508,2.019-1.914,3.117a5.282,5.282,0,0,1-2.832,1.216.842.842,0,0,0-.659.353,3.508,3.508,0,0,1-1.171,1.016,2.621,2.621,0,0,1-2.7.123.842.842,0,0,0-.505-.206,3.083,3.083,0,0,1-.328-.036,1.987,1.987,0,0,0-1.72.535l-4.288,3.929a.3.3,0,0,1-.423-.431l4.17-4.5a2,2,0,0,0,.562-1.526.842.842,0,0,0-.206-.5c-.422-.483-.316-1.486.272-2.553a3.508,3.508,0,0,1,1.016-1.171.842.842,0,0,0,.353-.659,5.281,5.281,0,0,1,1.216-2.832c1.1-1.406,2.447-2.078,3.118-1.914Z" transform="translate(-247.914 -150.336)" fill="#30169a"/>
        <path id="Trazado_873084" data-name="Trazado 873084" d="M365.043,219.858l-1.5,1.5a.842.842,0,1,0,1.19,1.191l1.5-1.5,2.276.252a.855.855,0,0,0,.094.005.842.842,0,0,0,.092-1.678l-.938-.1.824-.824,2.534.507a.842.842,0,1,0,.33-1.651l-1.434-.287.939-.939,1.48.341a.842.842,0,1,0,.379-1.64l-.455-.105,1.307-1.307a.842.842,0,0,0-1.19-1.19l-1.307,1.307-.105-.455a.842.842,0,1,0-1.64.379l.342,1.48-.939.939-.287-1.434a.842.842,0,0,0-1.651.33l.507,2.534-.824.824-.1-.938a.842.842,0,1,0-1.673.186Z" transform="translate(-310.758 -175.548)" fill="#30169a"/>
        <path id="Trazado_873085" data-name="Trazado 873085" d="M33.905,291.008a4.181,4.181,0,0,0,2.554,1.962,4.208,4.208,0,1,0,1.446-8.258,3.577,3.577,0,0,0,.161-1.294l-.012-.2a.842.842,0,1,0-1.68.1l.012.2a1.875,1.875,0,0,1-.308,1.15l-.742-1.287a.842.842,0,0,0-1.458.841l.742,1.287a1.874,1.874,0,0,1-1.15-.309l-.166-.11a.842.842,0,0,0-.928,1.4l.166.109a3.58,3.58,0,0,0,1.2.511A4.206,4.206,0,0,0,33.905,291.008Zm5.833-3.364a2.525,2.525,0,0,1-4.375,2.523h0a2.525,2.525,0,0,1,4.375-2.523Z" transform="translate(-14.316 -238.403)" fill="#30169a"/>
        <path id="Trazado_873086" data-name="Trazado 873086" d="M300.417,114.358a.842.842,0,0,0-.869.813l-.007.2a3.58,3.58,0,0,0,.2,1.292,4.206,4.206,0,0,0-3.235,2.174h0a4.208,4.208,0,1,0,7.456.116,3.577,3.577,0,0,0,1.19-.541l.163-.114a.842.842,0,1,0-.965-1.38l-.163.114a1.875,1.875,0,0,1-1.142.339l.708-1.306a.842.842,0,1,0-1.48-.8l-.708,1.306a1.874,1.874,0,0,1-.338-1.142l.007-.2A.842.842,0,0,0,300.417,114.358Zm2,7.688a2.525,2.525,0,0,1-4.439-2.408h0a2.528,2.528,0,0,1,3.423-1.016h0A2.528,2.528,0,0,1,302.42,122.046Z" transform="translate(-250.533 -88.014)" fill="#30169a"/>
        <path id="Trazado_873087" data-name="Trazado 873087" d="M25.961,26.278a5.88,5.88,0,0,0,1.224.843,6.681,6.681,0,0,0,1.979,3.151,6.774,6.774,0,0,0,1.084.791,7.574,7.574,0,0,0,7.16,5.132q.215,0,.431-.012a7.516,7.516,0,0,0,4.628-1.918l2.859,2.557a.842.842,0,0,0,1.122-1.255L43.589,33.01a7.574,7.574,0,0,0-4.541-11.787,6.774,6.774,0,0,0-.906-.989,6.682,6.682,0,0,0-3.352-1.617,5.892,5.892,0,1,0-8.829,7.661Zm.791-7.2a4.181,4.181,0,0,1,2.9-1.4c.08,0,.16-.007.24-.007a4.208,4.208,0,0,1,3.656,2.133.842.842,0,0,0,.643.422,5.012,5.012,0,0,1,2.827,1.256,5.069,5.069,0,0,1,.837.963.842.842,0,0,0,.558.362,5.892,5.892,0,0,1,3.91,9.066l-2.129-1.9.365-2.558A.842.842,0,0,0,38.9,27.18l-.206,1.447L37.06,27.17l.365-2.558a.842.842,0,1,0-1.666-.238l-.207,1.447-1.629-1.456.365-2.558a.842.842,0,0,0-1.667-.238l-.206,1.447L30.45,21.26a.842.842,0,1,0-1.122,1.255l1.965,1.757-1.415.366a.842.842,0,1,0,.422,1.63l2.5-.647,1.629,1.457-1.416.366a.842.842,0,1,0,.421,1.63l2.5-.647,1.629,1.457-1.415.366a.842.842,0,1,0,.421,1.63l2.5-.647,2.129,1.9a5.891,5.891,0,0,1-9.445-2.878.842.842,0,0,0-.422-.515,5.064,5.064,0,0,1-1.05-.725,5.012,5.012,0,0,1-1.562-2.671.842.842,0,0,0-.491-.592,4.208,4.208,0,0,1-1.481-6.674Z" transform="translate(-7.156 0)" fill="#30169a"/>
        <path id="Trazado_873088" data-name="Trazado 873088" d="M241.573,24.346l4.2,2.8a.842.842,0,0,0,1.167-.233l1.288-1.932a3.788,3.788,0,0,0,2.1-6.938l-2.1-1.4a3.787,3.787,0,0,0-5.6,4.6l-1.288,1.932A.842.842,0,0,0,241.573,24.346Zm2.725-2.571a.842.842,0,0,0,.022-.9,2.1,2.1,0,0,1,2.972-2.833l2.1,1.4a2.1,2.1,0,0,1-1.472,3.833.842.842,0,0,0-.821.366l-1.091,1.637-2.8-1.867Z" transform="translate(-201.505 -0.011)" fill="#30169a"/>
        <path id="Trazado_873089" data-name="Trazado 873089" d="M218.168,231.991a.842.842,0,0,0,.379.521l4.307,2.636a.842.842,0,0,0,1.157-.278l1.212-1.981a3.787,3.787,0,0,0,1.826-7.015l-2.154-1.318a3.787,3.787,0,0,0-5.416,4.818l-1.212,1.981A.842.842,0,0,0,218.168,231.991Zm3-2.153a.842.842,0,0,0-.013-.9,2.1,2.1,0,0,1,2.86-2.946l2.154,1.318a2.1,2.1,0,0,1-1.323,3.887.843.843,0,0,0-.807.4l-1.027,1.678-2.871-1.757Z" transform="translate(-180.878 -186.121)" fill="#30169a"/>
        <path id="Trazado_873090" data-name="Trazado 873090" d="M242.525,133.05A2.525,2.525,0,1,0,240,130.525,2.525,2.525,0,0,0,242.525,133.05Zm0-3.367a.842.842,0,1,1-.842.842A.842.842,0,0,1,242.525,129.683Z" transform="translate(-200.433 -100.222)" fill="#30169a"/>
        <path id="Trazado_873091" data-name="Trazado 873091" d="M45.4,204.567a4.9,4.9,0,0,0,2.855.923h.085l1.462-.026a.842.842,0,0,0,.789-1.092l-.435-1.4a4.9,4.9,0,0,0-1.8-2.5,2.52,2.52,0,0,0-2.353-.322l-.009,0a2.525,2.525,0,0,0-.6,4.412Zm1.178-2.833.006,0a.84.84,0,0,1,.787.106,3.209,3.209,0,0,1,1.178,1.638l.1.324-.34.006a3.216,3.216,0,0,1-1.925-.6.842.842,0,0,1,.193-1.469Z" transform="translate(-25.371 -164.641)" fill="#30169a"/>
        <path id="Trazado_873092" data-name="Trazado 873092" d="M117.05,234.1a5.05,5.05,0,1,0-5.05-5.05A5.05,5.05,0,0,0,117.05,234.1Zm0-8.417a3.367,3.367,0,1,1-3.367,3.367A3.367,3.367,0,0,1,117.05,225.683Z" transform="translate(-85.9 -186.122)" fill="#30169a"/>
        <path id="Trazado_873093" data-name="Trazado 873093" d="M136.842,252.208a.839.839,0,0,0,.376-.089l1.307-.653,1.307.653a.842.842,0,1,0,.753-1.506L139.366,250v-1.163a.842.842,0,1,0-1.683,0V250l-1.218.609a.842.842,0,0,0,.377,1.594Z" transform="translate(-107.375 -207.597)" fill="#30169a"/>
      </g>
    </g>
  </g>
</svg>
