<svg xmlns="http://www.w3.org/2000/svg" width="89.001" height="89" viewBox="0 0 89.001 89">
  <g id="Grupo_1101082" data-name="Grupo 1101082" transform="translate(-1227.999 -1681)">
    <rect id="Rect치ngulo_400898" data-name="Rect치ngulo 400898" width="89" height="89" rx="44.5" transform="translate(1227.999 1681)" fill="#fff"/>
    <rect id="Rect치ngulo_400907" data-name="Rect치ngulo 400907" width="89" height="89" rx="44.5" transform="translate(1228 1681)" fill="none"/>
    <g id="Grupo_1099005" data-name="Grupo 1099005" transform="translate(8245.5 11612.5)">
      <path id="path1179" d="M-73.826-35.841a34.851,34.851,0,0,1-34.811-34.811A34.563,34.563,0,0,1-98.274-95.434a1.02,1.02,0,0,1,1.442.01,1.02,1.02,0,0,1-.01,1.442A32.538,32.538,0,0,0-106.6-70.653,32.809,32.809,0,0,0-73.826-37.881,32.809,32.809,0,0,0-41.054-70.653a32.809,32.809,0,0,0-32.772-32.772,32.508,32.508,0,0,0-19.461,6.4,1.02,1.02,0,0,1-1.426-.214,1.02,1.02,0,0,1,.214-1.426,34.534,34.534,0,0,1,20.674-6.8A34.851,34.851,0,0,1-39.015-70.653,34.851,34.851,0,0,1-73.826-35.841Z" transform="translate(-6898.863 -9816.036)" fill="#30169a"/>
      <path id="path1183" d="M5.673,23.89A1.021,1.021,0,0,1,4.722,22.5,23.453,23.453,0,0,0,6.117,11.246,23.361,23.361,0,0,0-9.325-8.022a1.02,1.02,0,0,1-.618-1.3,1.02,1.02,0,0,1,1.3-.618A25.389,25.389,0,0,1,8.142,11,25.5,25.5,0,0,1,6.625,23.237,1.02,1.02,0,0,1,5.673,23.89Z" transform="translate(-6955.562 -9900.72)" fill="#30169a"/>
      <path id="path1187" d="M-8.982-25.5a1.02,1.02,0,0,1-.937-.617,1.02,1.02,0,0,1,.533-1.34,25.447,25.447,0,0,1,6.995-1.886,25.471,25.471,0,0,1,6.785.08A1.02,1.02,0,0,1,5.254-28.1a1.02,1.02,0,0,1-1.157.861,23.431,23.431,0,0,0-6.241-.073,23.409,23.409,0,0,0-6.434,1.735A1.017,1.017,0,0,1-8.982-25.5Z" transform="translate(-6973.421 -9882.606)" fill="#30169a"/>
      <path id="path1191" d="M-307.864-162.95a3.289,3.289,0,0,1-2.205-.844l-.524-.47a8.948,8.948,0,0,1-2.747-8.547,12.58,12.58,0,0,0-6.369-2.6c-5.547-.63-13.311-2.414-18.793-7.336a30.83,30.83,0,0,1-9.26-14.764c-1.278-4.828-.9-9.128.977-11.222s6.116-2.928,11.053-2.176a30.829,30.829,0,0,1,15.673,7.623c3.477,3.122,6.189,7.605,8.06,13.325a1.02,1.02,0,0,1-.652,1.286,1.02,1.02,0,0,1-1.286-.652c-1.759-5.376-4.277-9.562-7.484-12.442-9.394-8.435-21.085-8.676-23.845-5.6s-1.266,14.672,8.128,23.106c5.081,4.562,12.408,6.231,17.66,6.827a14.6,14.6,0,0,1,7.957,3.479,1.02,1.02,0,0,1,.308,1.066,6.9,6.9,0,0,0,1.983,7.106l.524.47a1.269,1.269,0,0,0,1.79-.1,1.272,1.272,0,0,0,.271-.468l1.2-3.748a3.739,3.739,0,0,1,2.074-2.288l3.493-1.513a1.278,1.278,0,0,0,.44-.317,1.259,1.259,0,0,0,.322-.915,1.259,1.259,0,0,0-.419-.875l-.524-.47a6.827,6.827,0,0,0-7.161-1.258,1.02,1.02,0,0,1-1.063-.187A14.678,14.678,0,0,1-312.7-184.8a1.02,1.02,0,0,1,.738-1.239,1.02,1.02,0,0,1,1.239.738,12.662,12.662,0,0,0,3.37,5.921,8.845,8.845,0,0,1,8.662,1.858l.524.47a3.286,3.286,0,0,1,1.093,2.283,3.286,3.286,0,0,1-.842,2.387,3.332,3.332,0,0,1-1.147.825l-3.493,1.513A1.7,1.7,0,0,0-303.5-169l-1.2,3.748a3.283,3.283,0,0,1-.688,1.2A3.314,3.314,0,0,1-307.864-162.95Z" transform="translate(-6647.447 -9699.385)" fill="#30169a"/>
      <path id="path1195" d="M-44.013-39.195a3.19,3.19,0,0,1-2.134-.818A3.174,3.174,0,0,1-47.2-42.219a3.175,3.175,0,0,1,.813-2.307,3.2,3.2,0,0,1,2.379-1.061,3.19,3.19,0,0,1,2.134.818,3.175,3.175,0,0,1,1.056,2.206,3.174,3.174,0,0,1-.813,2.307A3.2,3.2,0,0,1-44.013-39.195Zm0-4.351a1.143,1.143,0,0,0-.861.384,1.148,1.148,0,0,0-.294.834,1.148,1.148,0,0,0,.382.8,1.153,1.153,0,0,0,.772.3,1.143,1.143,0,0,0,.861-.384,1.148,1.148,0,0,0,.294-.834,1.149,1.149,0,0,0-.382-.8A1.153,1.153,0,0,0-44.012-43.546Z" transform="translate(-6941.476 -9860.706)" fill="#30169a"/>
      <path id="path1199" d="M-156.842,8.833a1.02,1.02,0,0,1-.952-.653,1.02,1.02,0,0,1,.585-1.318A23.909,23.909,0,0,0-142.748-9.245a1.02,1.02,0,0,1,1.248-.723,1.02,1.02,0,0,1,.723,1.248,25.955,25.955,0,0,1-15.7,17.484A1.018,1.018,0,0,1-156.842,8.833Z" transform="translate(-6834.311 -9898.087)" fill="#30169a"/>
      <path id="path1203" d="M1.373-10.308A1.019,1.019,0,0,1,.5-10.8a1.02,1.02,0,0,1,.352-1.4L3.6-13.846A2.309,2.309,0,0,0,4.624-15.16a3.05,3.05,0,0,0-1.378-3.528l-6.862-4.03A3.7,3.7,0,0,0-8.221-22a1.02,1.02,0,0,1-1.44.077,1.02,1.02,0,0,1-.077-1.44,5.742,5.742,0,0,1,7.156-1.111l6.862,4.03a5.084,5.084,0,0,1,2.3,5.88A4.344,4.344,0,0,1,4.644-12.1L1.9-10.452A1.015,1.015,0,0,1,1.373-10.308Z" transform="translate(-6963.769 -9882.634)" fill="#30169a"/>
      <path id="path1207" d="M-42.409-157.28a16.361,16.361,0,0,1-6.705-1.444,1.02,1.02,0,0,1-.51-1.349,1.02,1.02,0,0,1,1.349-.51,14.3,14.3,0,0,0,6.373,1.254,14.377,14.377,0,0,0,10.7-5.415l-24.69-13.532a14.27,14.27,0,0,0,3.846,15.211,1.02,1.02,0,0,1,.063,1.441,1.02,1.02,0,0,1-1.441.063,16.308,16.308,0,0,1-3.928-18.575,1.02,1.02,0,0,1,.605-.556,1.02,1.02,0,0,1,.819.071L-29.2-165.975a1.02,1.02,0,0,1,.5.653,1.02,1.02,0,0,1-.145.81,16.414,16.414,0,0,1-12.983,7.22Q-42.117-157.28-42.409-157.28Z" transform="translate(-6936.531 -9702.089)" fill="#30169a"/>
      <path id="path1211" d="M-111.761-143.32a12.262,12.262,0,0,1-5.875-1.508,12.159,12.159,0,0,1-5.866-7.3,12.1,12.1,0,0,1,.381-7.97,1.02,1.02,0,0,1,.6-.58,1.02,1.02,0,0,1,.834.066l19.531,10.7a1.02,1.02,0,0,1,.5.669,1.02,1.02,0,0,1-.167.821,12.354,12.354,0,0,1-9.5,5.092Q-111.539-143.32-111.761-143.32Zm-9.838-14.922a10.081,10.081,0,0,0,.055,5.54,10.132,10.132,0,0,0,4.888,6.086,10.207,10.207,0,0,0,5.264,1.25,10.305,10.305,0,0,0,7.187-3.343Z" transform="translate(-6867.174 -9720.123)" fill="#30169a"/>
      <path id="path1215" d="M-8.98-54.248a1.019,1.019,0,0,1-.862-.473,1.02,1.02,0,0,1,.314-1.408l8.275-5.257a1.02,1.02,0,0,1,1.408.314,1.02,1.02,0,0,1-.314,1.408l-8.275,5.257A1.015,1.015,0,0,1-8.98-54.248Z" transform="translate(-6978.901 -9813.894)" fill="#30169a"/>
      <path id="path1219" d="M-11.151-94.663a1.02,1.02,0,0,1-1.019-.994l-.247-9.847a1.02,1.02,0,0,1,.994-1.045,1.02,1.02,0,0,1,1.045.994l.247,9.847a1.02,1.02,0,0,1-.994,1.045Z" transform="translate(-6968.21 -9768.89)" fill="#30169a"/>
      <path id="path1223" d="M-134.655-3.736a1.02,1.02,0,0,1-1.018-.98,1.02,1.02,0,0,1,.979-1.059c.64-.025,1.288-.078,1.927-.155a23.154,23.154,0,0,0,10.355-3.893A1.02,1.02,0,0,1-121-9.556a1.02,1.02,0,0,1-.267,1.417,25.523,25.523,0,0,1-11.259,4.233c-.694.084-1.4.141-2.093.169Z" transform="translate(-6837.125 -9857.422)" fill="#30169a"/>
      <path id="path1227" d="M-35.451-211.106a1.02,1.02,0,0,1-.895-.529,25.31,25.31,0,0,1-2.943-9.158,25.326,25.326,0,0,1,2.713-14.877,1.02,1.02,0,0,1,1.377-.43,1.02,1.02,0,0,1,.43,1.377,23.3,23.3,0,0,0-2.5,13.684,23.279,23.279,0,0,0,2.706,8.423,1.02,1.02,0,0,1-.4,1.385A1.015,1.015,0,0,1-35.451-211.106Z" transform="translate(-6958.749 -9662.76)" fill="#30169a"/>
    </g>
  </g>
</svg>
