<svg xmlns="http://www.w3.org/2000/svg" width="52" height="52" viewBox="0 0 52 52">
  <g id="Grupo_1101081" data-name="Grupo 1101081" transform="translate(-224 -1477)">
    <rect id="Rect치ngulo_400898" data-name="Rect치ngulo 400898" width="52" height="52" rx="26" transform="translate(224 1477)" fill="#30169a"/>
    <g id="Grupo_1101078" data-name="Grupo 1101078">
      <rect id="Rect치ngulo_400907" data-name="Rect치ngulo 400907" width="52" height="52" rx="26" transform="translate(224 1477)" fill="none"/>
      <g id="familia" transform="translate(233 1482.44)">
        <g id="Grupo_1101077" data-name="Grupo 1101077" transform="translate(0 3.56)">
          <path id="Trazado_876886" data-name="Trazado 876886" d="M104.478,247.005a.676.676,0,0,0-.47,1.163,2.327,2.327,0,0,0,3.208,0,.676.676,0,1,0-.94-.973.963.963,0,0,1-1.328,0A.674.674,0,0,0,104.478,247.005Z" transform="translate(-96.781 -230.54)" fill="#fff"/>
          <path id="Trazado_876887" data-name="Trazado 876887" d="M34.608,115.664a.676.676,0,0,0-.444-.8,4.536,4.536,0,0,1-3.512-4.4v-1.419a7.788,7.788,0,0,0-1.49-5.089,5.033,5.033,0,0,0-4.022-1.759,5.02,5.02,0,0,0-3.948,1.752,7.744,7.744,0,0,0-1.564,5.1v1.419a4.131,4.131,0,0,1-1.733,3.509,4.326,4.326,0,0,0-4.9,2.719c-.181-.051-1.127-.306-1.406-.388v-.45a5.8,5.8,0,0,0,3.036-5.1v-2.686a5.8,5.8,0,1,0-11.6,0v2.686a5.8,5.8,0,0,0,3.037,5.1v.45c-.279.082-.569.16-.87.241-2.291.618-5.142,1.386-5.2,4.882v5.927a.677.677,0,0,0,.676.676H9.822v.962s0,0,0,0a.676.676,0,0,0,.676.676h3.51a.676.676,0,0,0,0-1.353H11.174v-.405a3.944,3.944,0,0,1,.191-1.238c.425-1.219,1.526-1.543,3.026-1.986l.213-.063a2.548,2.548,0,0,0,2.39,1.674,2.577,2.577,0,0,0,2.5-1.672l.208.061c1.914.565,3.179.937,3.217,3.223v.405H20.081a.676.676,0,1,0,0,1.353H23.6a.676.676,0,0,0,.676-.676s0,0,0-.005v-.962H33.3a.676.676,0,0,0,.676-.676v-5.916s0-.007,0-.011a4.144,4.144,0,0,0-1.223-3.077,3.527,3.527,0,0,0,1.859-2.679Zm-9.468-12.12a3.677,3.677,0,0,1,2.982,1.271,6.088,6.088,0,0,1,1.164,3.683,3.043,3.043,0,0,1-3.542-1.57.683.683,0,0,0-1.207,0A3.043,3.043,0,0,1,21,108.5c.157-3.114,1.68-4.954,4.144-4.954Zm-4.159,6.32a6.083,6.083,0,0,0,.839.06,4.182,4.182,0,0,0,3.319-1.466,4.181,4.181,0,0,0,3.319,1.466,6.084,6.084,0,0,0,.839-.06v.593a4.159,4.159,0,1,1-8.317,0v-.593Zm5.568,5.921v1.01a1.409,1.409,0,0,1-2.817,0v-1.01a5.5,5.5,0,0,0,2.817,0Zm-6.2-2.616a5.555,5.555,0,0,0,2.035,2.056V116.3c-.281.082-.573.161-.875.242l-.422.115a4.361,4.361,0,0,0-1.763-2.124A5.372,5.372,0,0,0,20.345,113.169Zm-6.054,3.922a2.974,2.974,0,0,1,5.677.559,6.774,6.774,0,0,0-5.842,0A2.964,2.964,0,0,1,14.291,117.091Zm-9.906-9.026a4.445,4.445,0,1,1,8.89,0v.7a9.7,9.7,0,0,1-5.671-1.283.676.676,0,0,0-.92.148,2.961,2.961,0,0,1-2.3,1.058v-.623Zm0,2.686v-.7a4.72,4.72,0,0,0,2.963-1.135,11.542,11.542,0,0,0,5.927,1.2v.633a4.445,4.445,0,0,1-8.89,0Zm5.854,5.623v.415s0,0,0,.006a1.409,1.409,0,0,1-2.817,0s0,0,0,0v-.418a5.793,5.793,0,0,0,2.818,0Zm4.211,6.883c-.148.045-.3.089-.442.132-1.669.492-3.53,1.041-4.048,3.283H4.972v-2.736a.676.676,0,0,0-1.353,0v2.736H1.353v-5.234c.041-2.306,1.614-2.9,4.2-3.593.218-.059.439-.119.659-.181a2.761,2.761,0,0,0,5.241,0c.22.062,1.076.295,1.274.351,0,.065,0,.131,0,.2v.956a4.323,4.323,0,0,0,1.731,3.46Zm3.84.494v0a1.245,1.245,0,0,1-2.487,0v-.44a4.16,4.16,0,0,0,.505.119,4.317,4.317,0,0,0,1.353.02,4.157,4.157,0,0,0,.63-.138Zm.36-2.077a2.974,2.974,0,0,1-4.576-2.441,5.437,5.437,0,0,1,5.947,0A2.976,2.976,0,0,1,18.651,121.673Zm13.969,5H30.353v-2.736a.676.676,0,0,0-1.353,0v2.736H24.134c-.518-2.242-2.379-2.791-4.048-3.283-.146-.043-.294-.087-.442-.132v-.628a4.325,4.325,0,0,0,1.733-3.462v-.945c0-.082,0-.163-.007-.244l.488-.133c.219-.059.442-.119.664-.182a2.761,2.761,0,0,0,5.241,0c.22.062.441.122.659.181,2.585.7,4.158,1.287,4.2,3.593v5.234Zm-1.332-9.3a15.55,15.55,0,0,0-2.515-.836c-.3-.081-.591-.159-.87-.241v-1.073a5.554,5.554,0,0,0,2.03-2.049,6.225,6.225,0,0,0,3.2,2.741A1.938,1.938,0,0,1,31.287,117.374Z" transform="translate(0 -95.52)" fill="#fff"/>
          <path id="Trazado_876888" data-name="Trazado 876888" d="M187.874,12.135a.676.676,0,0,0,.939,0l3.579-3.454a2.979,2.979,0,0,0-4.049-4.37,2.979,2.979,0,0,0-4.049,4.37Zm-2.683-6.729a1.617,1.617,0,0,1,1.143-.494h.03a1.612,1.612,0,0,1,1.128.453l.382.368a.676.676,0,0,0,.939,0l.382-.368a1.635,1.635,0,0,1,2.3.041,1.629,1.629,0,0,1-.042,2.3l-3.11,3-3.11-3a1.63,1.63,0,0,1-.043-2.3Z" transform="translate(-170.983 -3.56)" fill="#fff"/>
          <path id="Trazado_876889" data-name="Trazado 876889" d="M242.693,488.441a.676.676,0,0,0,0,1.353h0a.676.676,0,1,0,0-1.353Z" transform="translate(-225.649 -455.647)" fill="#fff"/>
        </g>
      </g>
    </g>
  </g>
</svg>
