<svg xmlns="http://www.w3.org/2000/svg" width="84" height="84" viewBox="0 0 84 84">
  <g id="Grupo_1099817" data-name="Grupo 1099817" transform="translate(-303.049 -398)">
    <circle id="Elipse_11475" data-name="Elipse 11475" cx="42" cy="42" r="42" transform="translate(303.049 398)" fill="#30169a"/>
    <g id="plato" transform="translate(312.468 407.42)">
      <g id="Grupo_1099799" data-name="Grupo 1099799" transform="translate(34.345 16.092)">
        <g id="Grupo_1099798" data-name="Grupo 1099798">
          <path id="Trazado_874433" data-name="Trazado 874433" d="M267.266,125.565l-.689-2.268a4.926,4.926,0,0,0-9.328,0l-.689,2.268a12.738,12.738,0,0,0-.355,5.9,5.552,5.552,0,0,0,2.859,3.869l-.772,17.25a3.4,3.4,0,0,0,.859,2.642,3.749,3.749,0,0,0,5.3.237q.124-.113.237-.237a3.353,3.353,0,0,0,.859-2.57l-.776-17.324a5.551,5.551,0,0,0,2.855-3.867A12.738,12.738,0,0,0,267.266,125.565Zm-1.759,5.529a3.4,3.4,0,0,1-2.227,2.564,1.073,1.073,0,0,0-.694,1.053l.816,18.117a1.242,1.242,0,0,1-.322.972,1.658,1.658,0,0,1-2.333,0,1.288,1.288,0,0,1-.316-1.043l.809-18.046a1.073,1.073,0,0,0-.694-1.053,3.4,3.4,0,0,1-2.227-2.564,10.584,10.584,0,0,1,.3-4.9l.689-2.269a2.783,2.783,0,0,1,5.22,0l.689,2.269A10.6,10.6,0,0,1,265.507,131.095Z" transform="translate(-256.012 -119.955)" fill="#fff"/>
        </g>
      </g>
      <g id="Grupo_1099801" data-name="Grupo 1099801" transform="translate(18.245 16.098)">
        <g id="Grupo_1099800" data-name="Grupo 1099800">
          <path id="Trazado_874434" data-name="Trazado 874434" d="M146.732,120a1.073,1.073,0,0,0-1.073,1.073v9.215l-2.905,2.905a1.073,1.073,0,0,0-.314.812l.939,18.781a1.462,1.462,0,0,1-.406,1.094,1.511,1.511,0,0,1-2.137.009l-.009-.009a1.461,1.461,0,0,1-.406-1.094l.945-18.781a1.073,1.073,0,0,0-.313-.812l-2.906-2.905v-9.215a1.073,1.073,0,0,0-2.146,0v9.659a1.073,1.073,0,0,0,.314.759l2.883,2.884-.915,18.308a3.625,3.625,0,0,0,7.242.353q.009-.176,0-.353l-.915-18.308,2.883-2.884a1.073,1.073,0,0,0,.314-.759v-9.659A1.073,1.073,0,0,0,146.732,120Z" transform="translate(-136 -120)" fill="#fff"/>
        </g>
      </g>
      <g id="Grupo_1099803" data-name="Grupo 1099803" transform="translate(21.464 16.098)">
        <g id="Grupo_1099802" data-name="Grupo 1099802">
          <path id="Trazado_874435" data-name="Trazado 874435" d="M161.073,120A1.073,1.073,0,0,0,160,121.073v8.586a1.073,1.073,0,1,0,2.146,0v-8.586A1.073,1.073,0,0,0,161.073,120Z" transform="translate(-160 -120)" fill="#fff"/>
        </g>
      </g>
      <g id="Grupo_1099805" data-name="Grupo 1099805" transform="translate(24.684 16.098)">
        <g id="Grupo_1099804" data-name="Grupo 1099804">
          <path id="Trazado_874436" data-name="Trazado 874436" d="M185.073,120A1.073,1.073,0,0,0,184,121.073v8.586a1.073,1.073,0,1,0,2.146,0v-8.586A1.073,1.073,0,0,0,185.073,120Z" transform="translate(-184 -120)" fill="#fff"/>
        </g>
      </g>
      <g id="Grupo_1099807" data-name="Grupo 1099807">
        <g id="Grupo_1099806" data-name="Grupo 1099806">
          <path id="Trazado_874437" data-name="Trazado 874437" d="M32.2,0a32.2,32.2,0,1,0,32.2,32.2A32.2,32.2,0,0,0,32.2,0Zm0,62.247A30.05,30.05,0,1,1,62.247,32.2,30.05,30.05,0,0,1,32.2,62.247Z" fill="#fff"/>
        </g>
      </g>
      <g id="Grupo_1099809" data-name="Grupo 1099809" transform="translate(28.724 51.373)">
        <g id="Grupo_1099808" data-name="Grupo 1099808">
          <path id="Trazado_874438" data-name="Trazado 874438" d="M221.069,383.918a1.073,1.073,0,0,0-1.172-.964l-.041,0h0a19.718,19.718,0,0,1-4.548,0,1.074,1.074,0,1,0-.25,2.132,21.737,21.737,0,0,0,5.044,0A1.073,1.073,0,0,0,221.069,383.918Z" transform="translate(-214.113 -382.949)" fill="#fff"/>
        </g>
      </g>
      <g id="Grupo_1099811" data-name="Grupo 1099811" transform="translate(45.517 17.983)">
        <g id="Grupo_1099810" data-name="Grupo 1099810">
          <path id="Trazado_874439" data-name="Trazado 874439" d="M342.394,134.436a1.073,1.073,0,0,0-1.512-.133l0,0a1.073,1.073,0,0,0-.129,1.512,19.318,19.318,0,0,1-1.139,26.13,1.073,1.073,0,1,0,1.515,1.521A21.464,21.464,0,0,0,342.394,134.436Z" transform="translate(-339.295 -134.053)" fill="#fff"/>
        </g>
      </g>
      <g id="Grupo_1099814" data-name="Grupo 1099814" transform="translate(23.93 10.736)">
        <g id="Grupo_1099813" data-name="Grupo 1099813">
          <g id="Grupo_1099812" data-name="Grupo 1099812">
            <path id="Trazado_874440" data-name="Trazado 874440" d="M186.357,105.743h0Z" transform="translate(-185.283 -102.293)" fill="#fff"/>
            <path id="Trazado_874441" data-name="Trazado 874441" d="M191.71,80.623a21.654,21.654,0,0,0-12.633.776,1.072,1.072,0,1,0,.752,2.008,19.5,19.5,0,0,1,11.376-.7,1.073,1.073,0,1,0,.5-2.086Z" transform="translate(-178.382 -80.027)" fill="#fff"/>
          </g>
        </g>
      </g>
      <g id="Grupo_1099816" data-name="Grupo 1099816" transform="translate(10.731 19.115)">
        <g id="Grupo_1099815" data-name="Grupo 1099815">
          <path id="Trazado_874442" data-name="Trazado 874442" d="M87.77,169.2a19.316,19.316,0,0,1-1.94-24.993,1.073,1.073,0,1,0-1.716-1.29l-.019.025a21.464,21.464,0,0,0,2.154,27.777,1.075,1.075,0,0,0,1.521-1.52Z" transform="translate(-79.989 -142.488)" fill="#fff"/>
        </g>
      </g>
    </g>
  </g>
</svg>
