<svg xmlns="http://www.w3.org/2000/svg" width="89" height="89" viewBox="0 0 89 89">
  <g id="Grupo_1100890" data-name="Grupo 1100890" transform="translate(-755.052 -6582)">
    <rect id="Rectángulo_400898" data-name="Rectángulo 400898" width="89" height="89" rx="44.5" transform="translate(755.052 6582)" fill="#fff"/>
    <g id="Image" transform="translate(768.052 6594.024)">
      <g id="Grupo_1100889" data-name="Grupo 1100889">
        <path id="Trazado_876675" data-name="Trazado 876675" d="M58.949,36.685c-.444-1.34-4.428-13.159-7.327-15.468a36.987,36.987,0,0,0-13.557-5.909c.244-1.372.937-6.13.937-7.35,0-3.368-1.4-5.575-3.755-5.934-5.914-2.171-8.923-.68-11.468,1.825-2.311,2.277-2.332.64-3.342,1.323-1.427.975.635,5.594,2.492,7.253A8.337,8.337,0,0,0,23.846,17c-3.948,1.319-7.333,3.1-8.941,4.737-2.961,3.032-8.5,11.353-8.738,11.706-.5.755.148,1.313.778,2A15.513,15.513,0,0,0,5,43c0,5.046,10.333,9.946,13.461,13.985A13.812,13.812,0,0,0,20,58.743V62a1,1,0,0,0,2,0V59.867A4.116,4.116,0,0,0,23,60c1.494,0,4-.649,4-5,0-2.486-8.005-9.915-12.679-12.46l.294-.627c1.053.444,1.462-.848,4.277-2.744A25.3,25.3,0,0,1,20,45a1,1,0,0,0,2,0,31.148,31.148,0,0,0-1.593-7.783c-.007-.028-.016-.054-.026-.082a46.993,46.993,0,0,0-2.5-6.6,1,1,0,1,0-1.77.932A41.313,41.313,0,0,1,18.273,37.1L14.936,39.77a38.155,38.155,0,0,1-6.678-5.853c1.371-2.029,5.7-8.349,8.075-10.778C19.06,20.358,27.993,17,35,17c5.692,0,13.307,4.137,15.377,5.782,1.749,1.393,4.771,8.945,6.442,13.843a22.97,22.97,0,0,1-7.027,2.28c.185-2.758.3-5.8.208-8.936a1,1,0,0,0-2,.061,115.314,115.314,0,0,1-.668,14.352C46.733,50.827,47.14,47.073,47,62a1,1,0,0,0,2,0V54.106c7.6-6.059,8-6.783,8-13.106a1,1,0,0,0-2,0c0,5.233-.015,5.741-6,10.547V49c0-1.478.334-4.243.641-8.029,2.223-.427,10.017-2.155,9.308-4.286ZM12.925,40.807c-.107.56-1.764,2.479-.326,3.109C17.2,45.934,24.755,53.568,25,55c0,3-1.351,3-2,3-1.881,0-2.744-2.408-4.63-4.168C16.585,52.165,7,46.26,7,43a14.086,14.086,0,0,1,1.392-6.055A38.854,38.854,0,0,0,12.925,40.807Zm9.18-33.695c3.7-.321,3.748-6.518,12.534-3.18.336.132,2.362.03,2.362,4.026,0,2.813-.505,3.176-.526,3.189-2.314,1.425-6.227,1.127-7.712.948A3.024,3.024,0,0,0,26,10a3.84,3.84,0,0,0-1.966.724,9.153,9.153,0,0,1-1.929-3.612Zm3.71,9.285a6.293,6.293,0,0,1-.887-3.854c2.38-1.746,1.483,1.2,2.9,1.443a17.56,17.56,0,0,0,8.513-.559c-.081.545-.17,1.107-.262,1.619A32.609,32.609,0,0,0,25.815,16.4Z" fill="#30169a"/>
        <path id="Trazado_876676" data-name="Trazado 876676" d="M49.832,15.555c1.035-1.935,3.064-3.494,1.723-4.387S49.6,12.7,48.168,14.445a1,1,0,0,0,1.664,1.11Z" fill="#30169a"/>
        <path id="Trazado_876677" data-name="Trazado 876677" d="M14.168,15.555a1,1,0,1,0,1.664-1.11l-2-3a1,1,0,1,0-1.664,1.11Z" fill="#30169a"/>
        <path id="Trazado_876678" data-name="Trazado 876678" d="M54.707,18.707c1.805-2.142,4.169-3.245,3-4.414s-2.277,1.2-4.414,3A1,1,0,0,0,54.707,18.707Z" fill="#30169a"/>
        <path id="Trazado_876679" data-name="Trazado 876679" d="M9.293,19.707a1,1,0,0,0,1.414-1.414l-3-3a1,1,0,0,0-1.414,1.414Z" fill="#30169a"/>
        <path id="Trazado_876680" data-name="Trazado 876680" d="M30.707,42.293a1,1,0,0,0-1.414,0l-3,3a1,1,0,1,0,1.414,1.414l3-3a1,1,0,0,0,0-1.414Z" fill="#30169a"/>
        <path id="Trazado_876681" data-name="Trazado 876681" d="M34.553,48.1l-4,2a1,1,0,0,0,.894,1.79l4-2a1,1,0,0,0-.894-1.79Z" fill="#30169a"/>
        <path id="Trazado_876682" data-name="Trazado 876682" d="M35.242,57.03l-4-1a1,1,0,0,0-.484,1.941l4,1A.968.968,0,0,0,35,59a1,1,0,0,0,.241-1.971Z" fill="#30169a"/>
      </g>
    </g>
  </g>
</svg>
