<svg xmlns="http://www.w3.org/2000/svg" width="184.079" height="184.079" viewBox="0 0 184.079 184.079">
  <g id="Grupo_1100906" data-name="Grupo 1100906" transform="translate(-1151.052 -7098)">
    <rect id="Rectángulo_400898" data-name="Rectángulo 400898" width="184.079" height="184.079" rx="92" transform="translate(1151.052 7098)" fill="#59836b"/>
    <g id="cerveza" transform="translate(1151.552 7126)">
      <g id="Grupo_1100899" data-name="Grupo 1100899" transform="translate(96.101 113.716)">
        <g id="Grupo_1100898" data-name="Grupo 1100898" transform="translate(0)">
          <path id="Trazado_876686" data-name="Trazado 876686" d="M278.52,451.29a2.52,2.52,0,1,0,2.52,2.52A2.521,2.521,0,0,0,278.52,451.29Z" transform="translate(-276 -451.29)" fill="#fff"/>
        </g>
      </g>
      <g id="Grupo_1100901" data-name="Grupo 1100901" transform="translate(60.698 50.469)">
        <g id="Grupo_1100900" data-name="Grupo 1100900">
          <path id="Trazado_876687" data-name="Trazado 876687" d="M138.02,200.29a2.52,2.52,0,0,0-2.52,2.52v48.128a2.52,2.52,0,0,0,5.04,0V202.81A2.52,2.52,0,0,0,138.02,200.29Z" transform="translate(-135.5 -200.29)" fill="#fff"/>
        </g>
      </g>
      <g id="Grupo_1100903" data-name="Grupo 1100903" transform="translate(80.856 50.469)">
        <g id="Grupo_1100902" data-name="Grupo 1100902">
          <path id="Trazado_876688" data-name="Trazado 876688" d="M218.02,200.29a2.52,2.52,0,0,0-2.52,2.52v48.128a2.52,2.52,0,0,0,5.04,0V202.81A2.52,2.52,0,0,0,218.02,200.29Z" transform="translate(-215.5 -200.29)" fill="#fff"/>
        </g>
      </g>
      <g id="Grupo_1100905" data-name="Grupo 1100905" transform="translate(35.5)">
        <g id="Grupo_1100904" data-name="Grupo 1100904" transform="translate(0)">
          <path id="Trazado_876689" data-name="Trazado 876689" d="M134.024,40.569h-12.6V32.944a12.555,12.555,0,0,0-4.8-22.318,12.739,12.739,0,0,0-7.231.52A12.62,12.62,0,0,0,98.747,5.292,12.433,12.433,0,0,0,94,6.227a22.548,22.548,0,0,0-34.44,4A22.729,22.729,0,0,0,35.5,32.83V63.068a7.632,7.632,0,0,0,7.685,7.559,7.553,7.553,0,0,0,2.646-.477v46.264a12.613,12.613,0,0,0,12.6,12.6h50.4a12.613,12.613,0,0,0,12.6-12.6v-7.559h12.6a12.613,12.613,0,0,0,12.6-12.6V53.168A12.613,12.613,0,0,0,134.024,40.569Zm-17.639,73.326H108.7a2.507,2.507,0,1,0,0,5.014h7.254a7.594,7.594,0,0,1-7.126,5.065H58.43a7.572,7.572,0,0,1-7.126-5.04h37.24a2.52,2.52,0,0,0,0-5.04H50.871V45.232a17.494,17.494,0,0,0,13.138-9.7,1.867,1.867,0,0,1,1.338.524,15.116,15.116,0,0,0,21.465-.274.832.832,0,0,1,.6-.251c3.923,0,6.489.838,7.629,2.49.94,1.362.939,3.254.938,4.775V52.989a7.571,7.571,0,0,0,5.04,7.126v41a2.52,2.52,0,0,0,5.04,0v-41a7.571,7.571,0,0,0,5.04-7.126V35.233a13.37,13.37,0,0,0,5.292,0Zm-6.669-84.426a2.52,2.52,0,0,0-3.662,2.246V52.989a2.52,2.52,0,1,1-5.04,0V42.8c0-1.985,0-4.984-1.83-7.639-2.137-3.1-6.1-4.667-11.777-4.667a5.9,5.9,0,0,0-4.22,1.789,10.076,10.076,0,0,1-14.309.18,6.9,6.9,0,0,0-4.869-1.969,5.063,5.063,0,0,0-4.522,2.823A12.489,12.489,0,0,1,48.329,40.39a2.52,2.52,0,0,0-2.5,2.52V62.948a2.722,2.722,0,0,1-2.646,2.639,2.62,2.62,0,0,1-2.646-2.52V32.83a17.678,17.678,0,0,1,17.741-17.6,17.975,17.975,0,0,1,2.288.146,2.52,2.52,0,0,0,2.518-1.266A17.536,17.536,0,0,1,91.612,11a2.519,2.519,0,0,0,3.225.45,7.294,7.294,0,0,1,3.909-1.114,7.566,7.566,0,0,1,7.134,5.054,2.52,2.52,0,0,0,3.781,1.26,7.56,7.56,0,0,1,11.56,4.5C122.656,27.509,116.13,32.731,109.716,29.468Zm11.709,26.219H131.5V93.736H121.425Zm20.158,40.569a7.568,7.568,0,0,1-7.559,7.559h-12.6v-5.04h12.6a2.52,2.52,0,0,0,2.52-2.52V53.168a2.52,2.52,0,0,0-2.52-2.52h-12.6v-5.04h12.6a7.568,7.568,0,0,1,7.559,7.559Z" transform="translate(-35.5)" fill="#fff"/>
        </g>
      </g>
    </g>
  </g>
</svg>
