<svg xmlns="http://www.w3.org/2000/svg" width="184.079" height="184.079" viewBox="0 0 184.079 184.079">
  <g id="Grupo_1100910" data-name="Grupo 1100910" transform="translate(2321 4602)">
    <g id="Grupo_1098883" data-name="Grupo 1098883" transform="translate(-2321 -4602)">
      <g id="Grupo_1098742" data-name="Grupo 1098742" transform="translate(0 0)">
        <rect id="Rect치ngulo_400898" data-name="Rect치ngulo 400898" width="184.079" height="184.079" rx="92" transform="translate(0)" fill="#59836b"/>
        <rect id="Rect치ngulo_400907" data-name="Rect치ngulo 400907" width="184.079" height="184.079" rx="72" fill="none"/>
      </g>
    </g>
    <g id="Grupo_1100909" data-name="Grupo 1100909" transform="translate(441.715 887.208)">
      <g id="g229" transform="translate(-2677.635 -5461.123)">
        <path id="path231" d="M-128.472-23.011a2.118,2.118,0,0,1-.71-.123,82.009,82.009,0,0,0-27.149-4.527c-1.5,0-3.01.051-4.487.151a2.122,2.122,0,0,1-2.261-1.973,2.122,2.122,0,0,1,1.973-2.261c1.572-.107,3.178-.161,4.775-.161a86.3,86.3,0,0,1,28.57,4.772,2.122,2.122,0,0,1,1.289,2.71A2.123,2.123,0,0,1-128.472-23.011Z" transform="translate(163.084 31.905)" fill="#fff"/>
      </g>
      <g id="g233" transform="translate(-2633.458 -5446.863)">
        <path id="path235" d="M-10.7-332.981a2.123,2.123,0,0,1-2.078-1.7c-1.578-7.829-.832-13,2.28-15.821C5.272-364.778,7.655-372.2,7.655-390.324c0-12.848-4.915-23.378-14.607-31.3a2.122,2.122,0,0,1-.3-2.986,2.122,2.122,0,0,1,2.986-.3c10.576,8.64,16.167,20.6,16.167,34.583,0,18.963-2.826,27.831-19.55,42.966-1.828,1.655-2.172,5.858-.967,11.835a2.122,2.122,0,0,1-1.661,2.5A2.133,2.133,0,0,1-10.7-332.981Z" transform="translate(13.581 425.386)" fill="#fff"/>
      </g>
      <g id="g237" transform="translate(-2732.715 -5435.276)">
        <path id="path239" d="M-15.324,100.95a7.525,7.525,0,0,1-6.958-4.672c-3.493-8.6-8.052-16.384-17.681-15.079l-2.938.408c-5.588.785-10.414,1.463-13.273.995-6.4-1.047-10.282-4.167-11.538-9.271a10,10,0,0,1,1.33-8.049,8.1,8.1,0,0,0-2.2-.871,2.141,2.141,0,0,1-1.3-.878,5.487,5.487,0,0,1,.32-6.369c-.414-.389-.929-.845-1.552-1.341a4.385,4.385,0,0,1-1.145-6.006,2.139,2.139,0,0,1,.586-.569c1.494-.975,3.015-2.506,3.156-3.161a10.69,10.69,0,0,0-1.2-.481c-4.456-1.37-6.72-3.9-6.728-7.5-.008-3.511,2.5-5.445,4.166-6.725a26.513,26.513,0,0,0,7.589-8.35,1.484,1.484,0,0,0,.079-1.3,16.618,16.618,0,0,0-1.2-2.111c-1.225-1.941-2.614-4.141-2.023-6.679A13.39,13.39,0,0,1-66.8,10.292,15.863,15.863,0,0,0-64.991,4a41.333,41.333,0,0,1,2.8-12.667,2.122,2.122,0,0,1,2.758-1.184,2.122,2.122,0,0,1,1.184,2.758A37.1,37.1,0,0,0-60.756,4.277a20.011,20.011,0,0,1-2.21,7.83A10.611,10.611,0,0,0-63.7,13.9c-.189.811.7,2.213,1.478,3.45a19.858,19.858,0,0,1,1.515,2.7,5.754,5.754,0,0,1-.278,5.059,31.255,31.255,0,0,1-8.7,9.634c-1.974,1.52-2.514,2.24-2.511,3.352,0,.808,0,2.311,3.731,3.456,3.121.96,3.987,2.674,4.164,3.942.412,2.954-2.66,5.611-4.36,6.837a1.868,1.868,0,0,0,.193.176,21.932,21.932,0,0,1,3.562,3.425,2.122,2.122,0,0,1,.416,1.6,2.122,2.122,0,0,1-.859,1.413c-.889.641-1.164,1.2-1.165,1.649a11,11,0,0,1,2.7,1.314,4.072,4.072,0,0,1,1.271,5.211l-.133.237a5.845,5.845,0,0,0-.913,4.962c.835,3.391,3.409,5.328,8.1,6.1,2.222.364,7.191-.334,12-1.009l2.958-.411c14.221-1.927,19.8,11.819,22.184,17.689A3.261,3.261,0,0,0-14.526,96.6L25.233,86.355a3.255,3.255,0,0,0,2.234-4.29c-.365-.985-.736-2.019-1.1-3.086a2.122,2.122,0,0,1,4.017-1.371c.352,1.031.71,2.03,1.062,2.981a7.5,7.5,0,0,1-5.154,9.877l-39.759,10.249A7.441,7.441,0,0,1-15.324,100.95Z" transform="translate(76.444 10.003)" fill="#fff"/>
      </g>
      <g id="g241" transform="translate(-2713.758 -5458.359)">
        <path id="path243" d="M-111.219,8.8a2.113,2.113,0,0,1-1.292-.44,2.122,2.122,0,0,1-.388-2.976C-107.528-1.6-99.581-6.884-89.919-9.905A2.122,2.122,0,0,1-87.26-8.513a2.122,2.122,0,0,1-1.392,2.659c-8.825,2.759-16.047,7.541-20.883,13.83A2.119,2.119,0,0,1-111.219,8.8Z" transform="translate(113.34 10.003)" fill="#fff"/>
      </g>
      <g id="g245" transform="translate(-2686.77 -5417.379)">
        <path id="path247" d="M-44.36-30.407a6.461,6.461,0,0,1,6.453,6.453A6.461,6.461,0,0,1-44.36-17.5a6.461,6.461,0,0,1-6.453-6.453A6.461,6.461,0,0,1-44.36-30.407Zm0,8.662a2.211,2.211,0,0,0,2.209-2.209,2.211,2.211,0,0,0-2.209-2.209,2.211,2.211,0,0,0-2.209,2.209A2.211,2.211,0,0,0-44.36-21.745Z" transform="translate(50.813 30.407)" fill="#fff"/>
      </g>
      <g id="g249" transform="translate(-2674.448 -5424.791)">
        <path id="path251" d="M-7.876-92.925a2.12,2.12,0,0,1-1.761-.934,2.122,2.122,0,0,1,.57-2.947A12.168,12.168,0,0,0-3.7-106.9a12.208,12.208,0,0,0-5.1-9.907,2.122,2.122,0,0,1-.491-2.961,2.122,2.122,0,0,1,2.961-.492A16.462,16.462,0,0,1,.545-106.9,16.408,16.408,0,0,1-6.69-93.289,2.113,2.113,0,0,1-7.876-92.925Z" transform="translate(10.001 120.655)" fill="#fff"/>
      </g>
      <g id="g253" transform="translate(-2696.731 -5424.639)">
        <path id="path255" d="M-28.985,17.459a2.113,2.113,0,0,1-1.212-.382A16.438,16.438,0,0,1-37.233,3.6,16.5,16.5,0,0,1-30.6-9.582a2.122,2.122,0,0,1,2.969.439,2.122,2.122,0,0,1-.439,2.969A12.072,12.072,0,0,0-32.989,3.6a12.19,12.19,0,0,0,5.22,9.992,2.122,2.122,0,0,1,.527,2.955A2.12,2.12,0,0,1-28.985,17.459Z" transform="translate(37.233 10.001)" fill="#fff"/>
      </g>
      <g id="g257" transform="translate(-2668.449 -5432.827)">
        <path id="path259" d="M-31.95-31.464a2.121,2.121,0,0,1-1.806-1,21.954,21.954,0,0,0-5.917-6.318,2.122,2.122,0,0,1-.492-2.961,2.122,2.122,0,0,1,2.961-.492,26.178,26.178,0,0,1,7.055,7.534,2.122,2.122,0,0,1-.685,2.922A2.112,2.112,0,0,1-31.95-31.464Z" transform="translate(40.561 42.635)" fill="#fff"/>
      </g>
      <g id="g261" transform="translate(-2668.979 -5419.799)">
        <path id="path263" d="M-7.876-104.226a2.12,2.12,0,0,1-1.761-.934,2.122,2.122,0,0,1,.571-2.947,21.946,21.946,0,0,0,9.68-18.2A22.007,22.007,0,0,0-.213-132.3a2.122,2.122,0,0,1,1.465-2.62,2.122,2.122,0,0,1,2.62,1.465,26.251,26.251,0,0,1,.986,7.144A26.186,26.186,0,0,1-6.69-104.59,2.112,2.112,0,0,1-7.876-104.226Z" transform="translate(10.001 135.001)" fill="#fff"/>
      </g>
      <g id="g265" transform="translate(-2702.305 -5399.631)">
        <path id="path267" d="M-1.765.406A2.112,2.112,0,0,1-2.977.024a26.223,26.223,0,0,1-6.651-6.7,2.122,2.122,0,0,1,.55-2.951,2.122,2.122,0,0,1,2.951.55A21.993,21.993,0,0,0-.55-3.458,2.122,2.122,0,0,1-.022-.5,2.12,2.12,0,0,1-1.765.406Z" transform="translate(10.001 10.001)" fill="#fff"/>
      </g>
      <g id="g269" transform="translate(-2706.512 -5432.572)">
        <path id="path271" d="M-53.332,18.074a2.123,2.123,0,0,1-2.083-1.729,26.4,26.4,0,0,1-.454-4.883A26.327,26.327,0,0,1-45.277-9.582a2.122,2.122,0,0,1,2.969.438,2.122,2.122,0,0,1-.438,2.969,21.774,21.774,0,0,0-8.878,17.636,22.142,22.142,0,0,0,.381,4.1,2.122,2.122,0,0,1-1.692,2.479A2.135,2.135,0,0,1-53.332,18.074Z" transform="translate(55.869 10.001)" fill="#fff"/>
      </g>
      <g id="g273" transform="translate(-2694.843 -5469.208)">
        <path id="path275" d="M-45.675-154.955a3.672,3.672,0,0,1-3.658-3.458,4.054,4.054,0,0,1,.033-.972l2.055-13.97h-8.033a4.591,4.591,0,0,1-3.677-1.761,4.74,4.74,0,0,1-.795-4.134l5.6-19.628a3.873,3.873,0,0,1,3.748-3.055H-40.03A3.818,3.818,0,0,1-37-200.452a3.817,3.817,0,0,1,.695,3.3,2.125,2.125,0,0,1-.066.214L-40.8-184.892l4.995.1a4.742,4.742,0,0,1,3.926,2.2,4.535,4.535,0,0,1,.338,4.294l-10.783,21.2A3.868,3.868,0,0,1-45.675-154.955Zm-4.4-42.733-5.579,19.559a.513.513,0,0,0,.062.42c.021.027.085.11.316.11h9.992a2.55,2.55,0,0,1,1.931.883,2.551,2.551,0,0,1,.595,2.038l-1.875,12.749,9.256-18.184c-.02.037.011-.054-.079-.194a.519.519,0,0,0-.424-.241l-7.38-.148a2.557,2.557,0,0,1-2.057-1.112,2.557,2.557,0,0,1-.288-2.32l4.989-13.56Z" transform="translate(59.917 201.933)" fill="#fff"/>
      </g>
      <g id="g277" transform="translate(-2669.734 -5461.171)">
        <path id="path279" d="M-136.027-130.369a6.107,6.107,0,0,1-.955-.078,2.122,2.122,0,0,1-1.713-1.523,10.57,10.57,0,0,0-.385-1.126c-.143-.352-.295-.67-.445-.954a2.052,2.052,0,0,1,.086-2.132,10.562,10.562,0,0,1,.658-.894,7.4,7.4,0,0,1,1.206-1.11c2.941-2.258,11.472-8.489,14.959-11.031l-7.676-7.676a5.264,5.264,0,0,1-1.558-4.408,5.453,5.453,0,0,1,2.721-4.006l22.662-12.6a4.179,4.179,0,0,1,5.428.528l9.317,9.317a4.332,4.332,0,0,1,1.3,3.71,4.192,4.192,0,0,1-2.231,3.086l-15.648,7.234,4.958,5.161a5.455,5.455,0,0,1,1.4,4.983,5.19,5.19,0,0,1-3.2,3.75l-4.324,1.411a2.122,2.122,0,0,1-2.675-1.361,2.122,2.122,0,0,1,1.361-2.675l4.22-1.374a.906.906,0,0,0,.474-.664,1.226,1.226,0,0,0-.313-1.121l-6.5-6.763a2.674,2.674,0,0,1-.7-2.344,2.673,2.673,0,0,1,1.5-1.928l17.547-8.108-9.5-9.312c.068-.035-.04-.019-.266.123l-22.72,12.633a1.219,1.219,0,0,0-.613.861,1.019,1.019,0,0,0,.349.863l8.979,8.979a2.667,2.667,0,0,1,.775,2.082,2.666,2.666,0,0,1-1.07,1.947c-.143.1-12.492,9.09-16.259,11.971l14.674-4.78a2.122,2.122,0,0,1,2.675,1.361,2.122,2.122,0,0,1-1.361,2.675l-14.972,4.875-.389.114a6.641,6.641,0,0,1-1.151.262A5.378,5.378,0,0,1-136.027-130.369Z" transform="translate(139.781 178.661)" fill="#fff"/>
      </g>
    </g>
  </g>
</svg>
