<svg id="Grupo_1098886" data-name="Grupo 1098886" xmlns="http://www.w3.org/2000/svg" xmlns:xlink="http://www.w3.org/1999/xlink" width="85" height="85" viewBox="0 0 85 85">
  <defs>
    <clipPath id="clip-path">
      <path id="path1719" d="M0-682.665H66.022v66.022H0Z" transform="translate(0 682.665)" fill="#fff"/>
    </clipPath>
  </defs>
  <g id="Grupo_1098883" data-name="Grupo 1098883">
    <g id="Grupo_1098742" data-name="Grupo 1098742" transform="translate(0 0)">
      <rect id="Rect치ngulo_400898" data-name="Rect치ngulo 400898" width="85" height="85" rx="42.5" transform="translate(0 0)" fill="#30169a" opacity="0.859"/>
      <rect id="Rect치ngulo_400907" data-name="Rect치ngulo 400907" width="85" height="85" rx="42.5" transform="translate(0 0)" fill="none"/>
    </g>
  </g>
  <g id="g1717" transform="translate(9 9)" clip-path="url(#clip-path)">
    <g id="g1723" transform="translate(21.19 6.746)">
      <path id="path1725" d="M-181.038-114.424a2.5,2.5,0,0,1-1.781-.738l-8.093-8.093a6.6,6.6,0,0,1-1.947-4.7,6.6,6.6,0,0,1,1.947-4.7,6.654,6.654,0,0,1,9.4,0l.475.475.475-.475a6.654,6.654,0,0,1,9.4,0,6.6,6.6,0,0,1,1.947,4.7,6.6,6.6,0,0,1-1.947,4.7l-2.358,2.358a.967.967,0,0,1-1.368,0,.967.967,0,0,1,0-1.368l2.358-2.358a4.681,4.681,0,0,0,1.38-3.332,4.681,4.681,0,0,0-1.38-3.332,4.717,4.717,0,0,0-6.664,0l-1.158,1.158a.967.967,0,0,1-1.368,0l-1.158-1.158a4.717,4.717,0,0,0-6.664,0,4.681,4.681,0,0,0-1.38,3.332,4.681,4.681,0,0,0,1.38,3.332l8.093,8.093a.581.581,0,0,0,.413.171.58.58,0,0,0,.413-.171l2.7-2.7a.967.967,0,0,1,1.368,0,.967.967,0,0,1,0,1.368l-2.7,2.7A2.5,2.5,0,0,1-181.038-114.424Z" transform="translate(192.859 134.597)" fill="#fff"/>
    </g>
    <g id="g1727" transform="translate(0 32.009)">
      <path id="path1729" d="M-40.647.93h-2.108A2.247,2.247,0,0,1-45-1.314V-7.756A2.247,2.247,0,0,1-42.755-10h2.108a.967.967,0,0,1,.967.967.967.967,0,0,1-.967.967h-2.108a.31.31,0,0,0-.31.31v6.442a.31.31,0,0,0,.31.31h2.108a.967.967,0,0,1,.967.967A.967.967,0,0,1-40.647.93Z" transform="translate(44.999 10)" fill="#fff"/>
    </g>
    <g id="g1731" transform="translate(60.703 32.009)">
      <path id="path1733" d="M-6.925.93H-9.033A.967.967,0,0,1-10-.037.967.967,0,0,1-9.033-1h2.108a.31.31,0,0,0,.31-.31V-7.756a.31.31,0,0,0-.31-.31H-9.033A.967.967,0,0,1-10-9.033.967.967,0,0,1-9.033-10h2.108A2.247,2.247,0,0,1-4.681-7.756v6.442A2.247,2.247,0,0,1-6.925.93Z" transform="translate(10 10)" fill="#fff"/>
    </g>
    <g id="g1735" transform="translate(25.904 28.253)">
      <path id="path1737" d="M-148.622-279.782a.967.967,0,0,1-.967-.967v-2.329a11.081,11.081,0,0,1,2.878-7.458,5.386,5.386,0,0,0,1.2-2.192l.6-2.2a5.361,5.361,0,0,0,.188-1.409v-8.1a1.084,1.084,0,0,0-1.083-1.083h-.853a1.084,1.084,0,0,0-1.083,1.083.967.967,0,0,1-.967.967.967.967,0,0,1-.967-.967V-306.1a1.084,1.084,0,0,0-1.083-1.083h-.853a1.084,1.084,0,0,0-1.083,1.083.967.967,0,0,1-.967.967.967.967,0,0,1-.967-.967v-.965a1.084,1.084,0,0,0-1.083-1.083h-.853a1.084,1.084,0,0,0-1.083,1.083.967.967,0,0,1-.967.967.967.967,0,0,1-.967-.967v-.723a1.084,1.084,0,0,0-1.083-1.083h-.853a1.084,1.084,0,0,0-1.083,1.083v10.2a.967.967,0,0,1-.967.967.967.967,0,0,1-.967-.967v-10.2a3.021,3.021,0,0,1,3.017-3.017h.853a3.015,3.015,0,0,1,2.429,1.23,3,3,0,0,1,1.671-.506h.853a3.018,3.018,0,0,1,2.545,1.4,3,3,0,0,1,1.556-.433h.853a3.022,3.022,0,0,1,2.823,1.953,3,3,0,0,1,1.277-.284h.853a3.02,3.02,0,0,1,3.017,3.017v8.1a7.3,7.3,0,0,1-.256,1.917l-.6,2.2a7.33,7.33,0,0,1-1.634,2.982,9.15,9.15,0,0,0-2.377,6.158v2.329A.967.967,0,0,1-148.622-279.782Z" transform="translate(164.534 310.809)" fill="#fff"/>
    </g>
    <g id="g1739" transform="translate(18.465 39.228)">
      <path id="path1741" d="M-76.1-8.066h-7.181a.967.967,0,0,1-.967-.967A.967.967,0,0,1-83.286-10H-76.1a.967.967,0,0,1,.967.967A.967.967,0,0,1-76.1-8.066Z" transform="translate(84.253 10)" fill="#fff"/>
    </g>
    <g id="g1743" transform="translate(18.465 33.785)">
      <path id="path1745" d="M-1.852-8.066H-9.033A.967.967,0,0,1-10-9.033.967.967,0,0,1-9.033-10h7.181a.967.967,0,0,1,.967.967A.967.967,0,0,1-1.852-8.066Z" transform="translate(10 10)" fill="#fff"/>
    </g>
    <g id="g1747" transform="translate(20.259 39.228)">
      <path id="path1749" d="M-3.39,10.05a.967.967,0,0,1-.967-.967V2.993A8.9,8.9,0,0,0-5.863-1.97l-3.338-5A5.283,5.283,0,0,1-9.982-8.84a.967.967,0,0,1,.753-1.142.967.967,0,0,1,1.142.753,3.355,3.355,0,0,0,.5,1.189l3.337,4.995A10.832,10.832,0,0,1-2.423,2.993v6.09A.967.967,0,0,1-3.39,10.05Z" transform="translate(10.002 10.002)" fill="#fff"/>
    </g>
    <g id="g1751" transform="translate(9.965 23.71)">
      <path id="path1753" d="M-3.081-112.344h-3.5A3.426,3.426,0,0,1-10-115.766v-11.291a.967.967,0,0,1,.967-.967.967.967,0,0,1,.967.967v11.291a1.49,1.49,0,0,0,1.488,1.488h3.5a1.49,1.49,0,0,0,1.488-1.488v-21.473a1.49,1.49,0,0,0-1.488-1.488h-3.5a1.49,1.49,0,0,0-1.488,1.488v5.884a.967.967,0,0,1-.967.967.967.967,0,0,1-.967-.967v-5.884a3.426,3.426,0,0,1,3.422-3.422h3.5a3.426,3.426,0,0,1,3.422,3.422v21.473A3.426,3.426,0,0,1-3.081-112.344Z" transform="translate(10 140.661)" fill="#fff"/>
    </g>
    <g id="g1755" transform="translate(45.717 23.71)">
      <path id="path1757" d="M-72.747-254.131a.973.973,0,0,1-.154-.012,3.4,3.4,0,0,1-2.879-3.376v-21.473a3.426,3.426,0,0,1,3.422-3.422h3.5a3.426,3.426,0,0,1,3.422,3.422v21.473a3.41,3.41,0,0,1-2.851,3.372.967.967,0,0,1-1.115-.793.967.967,0,0,1,.793-1.115,1.481,1.481,0,0,0,1.238-1.464v-21.473a1.49,1.49,0,0,0-1.488-1.488h-3.5a1.49,1.49,0,0,0-1.488,1.488v21.473a1.479,1.479,0,0,0,1.25,1.466.967.967,0,0,1,.8,1.108A.967.967,0,0,1-72.747-254.131Z" transform="translate(75.78 282.414)" fill="#fff"/>
    </g>
    <g id="g1759" transform="translate(54.123 26.998)">
      <path id="path1761" d="M-46.152-185.689h-1.519a3.426,3.426,0,0,1-3.422-3.422v-14.108a3.426,3.426,0,0,1,3.422-3.422h1.519a3.426,3.426,0,0,1,3.422,3.422v14.108A3.426,3.426,0,0,1-46.152-185.689Zm-1.519-19.018a1.49,1.49,0,0,0-1.488,1.488v14.108a1.49,1.49,0,0,0,1.488,1.488h1.519a1.49,1.49,0,0,0,1.488-1.488v-14.108a1.49,1.49,0,0,0-1.488-1.488Z" transform="translate(51.093 206.641)" fill="#fff"/>
    </g>
    <g id="g1763" transform="translate(3.536 26.998)">
      <path id="path1765" d="M-71.537-41.283h-1.519A3.426,3.426,0,0,1-76.478-44.7V-58.812a3.426,3.426,0,0,1,3.422-3.422h1.519a3.426,3.426,0,0,1,3.422,3.422v2.6a.967.967,0,0,1-.967.967.967.967,0,0,1-.967-.967v-2.6A1.49,1.49,0,0,0-71.537-60.3h-1.519a1.49,1.49,0,0,0-1.488,1.488V-44.7a1.49,1.49,0,0,0,1.488,1.488h1.519A1.49,1.49,0,0,0-70.049-44.7v-7.214a.967.967,0,0,1,.967-.967.967.967,0,0,1,.967.967V-44.7A3.426,3.426,0,0,1-71.537-41.283Z" transform="translate(76.478 62.235)" fill="#fff"/>
    </g>
  </g>
</svg>
