<svg xmlns="http://www.w3.org/2000/svg" width="190" height="164" viewBox="0 0 190 164">
  <g id="Grupo_1100520" data-name="Grupo 1100520" transform="translate(-357.098 -405)">
    <path id="Polígono_1" data-name="Polígono 1" d="M95,0l95,164H0Z" transform="translate(357.098 405)" fill="#59836b"/>
    <g id="piramide" transform="translate(388.127 422.756)">
      <path id="Trazado_876094" data-name="Trazado 876094" d="M122.313,135.46H5.629A5.622,5.622,0,0,1,.67,127.189l7.067-13.225a1.874,1.874,0,0,1,3.305,1.766L3.976,128.955a1.874,1.874,0,0,0,1.653,2.757H82.254v-7.7C73.7,122.89,67.03,114.165,67.03,103.6a1.874,1.874,0,0,1,1.874-1.874c6.629,0,12.388,4.553,15.225,11.192,2.836-6.638,8.6-11.192,15.225-11.192a1.874,1.874,0,0,1,1.874,1.874c0,10.562-6.674,19.286-15.225,20.41v7.7h36.311a1.874,1.874,0,0,0,1.653-2.757l-16.55-30.974H59.651a1.874,1.874,0,1,1,0-3.748h45.762L95.4,75.494H32.541L22.528,94.233h29.42a1.874,1.874,0,1,1,0,3.748A6.466,6.466,0,0,0,45.988,102a16.852,16.852,0,0,1,2.651-.275c6.263,0,10.637,4.721,10.637,11.48,0,5.942-4.647,14.756-11.066,14.756a21.731,21.731,0,0,1-4.568-.745,21.715,21.715,0,0,1-4.568.745c-6.42,0-11.067-8.814-11.067-14.756,0-6.759,4.374-11.48,10.637-11.48a19.513,19.513,0,0,1,3.382.407,10.166,10.166,0,0,1,2.051-4.155H20.526l-6.143,11.5a1.874,1.874,0,0,1-3.305-1.766L59.012,18a5.622,5.622,0,0,1,9.917,0l9.714,18.18a1.874,1.874,0,1,1-3.305,1.766l-9.714-18.18a1.874,1.874,0,0,0-3.306,0L46.56,49.259h3.7a1.874,1.874,0,0,1,0,3.748H44.558L34.544,71.746H73.473L69.725,68h-6.72a9.37,9.37,0,0,1,0-18.739H81.382L78.85,44.52a1.874,1.874,0,1,1,3.305-1.766l45.116,84.435a5.622,5.622,0,0,1-4.959,8.271ZM43.642,123.406a1.882,1.882,0,0,1,.5.069,20.565,20.565,0,0,0,4.064.741c1.645,0,3.441-1.312,4.929-3.6a14.524,14.524,0,0,0,2.389-7.408c0-3.567-1.8-7.732-6.889-7.732a24.73,24.73,0,0,0-4.534.752,1.871,1.871,0,0,1-.925,0,24.755,24.755,0,0,0-4.534-.752c-5.085,0-6.889,4.165-6.889,7.732a14.521,14.521,0,0,0,2.389,7.408c1.488,2.287,3.285,3.6,4.929,3.6a20.579,20.579,0,0,0,4.065-.742,1.87,1.87,0,0,1,.5-.068ZM70.877,105.66c.729,7.473,5.38,13.442,11.277,14.545C81.425,112.732,76.774,106.763,70.877,105.66Zm26.5,0c-5.9,1.1-10.548,7.072-11.277,14.545C92,119.1,96.65,113.133,97.379,105.66ZM78.773,71.746H93.4L83.384,53.007H70.5a9.322,9.322,0,0,1,1.878,5.622v6.72ZM63.005,53.007a5.622,5.622,0,1,0,0,11.244h5.622V58.628A5.628,5.628,0,0,0,63.005,53.007ZM56.787,89.732a1.874,1.874,0,0,1-2.56-.686l-3.748-6.491a1.874,1.874,0,0,1,3.246-1.874l3.748,6.491A1.873,1.873,0,0,1,56.787,89.732Zm9.994,0a1.874,1.874,0,0,1-2.56-.686l-3.748-6.491a1.874,1.874,0,1,1,3.246-1.874l3.748,6.491A1.874,1.874,0,0,1,66.781,89.732Zm9.994,0a1.874,1.874,0,0,1-2.56-.686l-3.748-6.491a1.874,1.874,0,1,1,3.246-1.874l3.748,6.491A1.874,1.874,0,0,1,76.776,89.732ZM63.971,45.511a6.5,6.5,0,0,1-6.488-6.488c0-2.882,3.765-8.869,4.919-10.636a1.874,1.874,0,0,1,3.138,0c1.154,1.766,4.919,7.754,4.919,10.636A6.5,6.5,0,0,1,63.971,45.511Zm0-12.524c-1.5,2.574-2.74,5.149-2.74,6.037a2.74,2.74,0,1,0,5.48,0C66.71,38.135,65.467,35.561,63.971,32.986Z" transform="translate(0)" fill="#fff"/>
    </g>
  </g>
</svg>
