<svg xmlns="http://www.w3.org/2000/svg" xmlns:xlink="http://www.w3.org/1999/xlink" width="420" height="318.45" viewBox="0 0 420 318.45">
  <defs>
    <clipPath id="clip-path">
      <rect id="Rectángulo_402130" data-name="Rectángulo 402130" width="118.967" height="132.762" fill="none"/>
    </clipPath>
  </defs>
  <g id="Grupo_1101079" data-name="Grupo 1101079" transform="translate(-177.195 -457)">
    <rect id="Rectángulo_35205" data-name="Rectángulo 35205" width="420" height="318.233" transform="translate(177.195 457)" fill="#ebebfd"/>
    <g id="Grupo_1098934" data-name="Grupo 1098934" transform="translate(190 509)">
      <g id="Grupo_1098935" data-name="Grupo 1098935">
        <path id="Trazado_873068" data-name="Trazado 873068" d="M97.792,9.6l2.047.6a.507.507,0,0,1,.008.972l-2,.618a10.656,10.656,0,0,0-6.917,6.684L90,21.148a.507.507,0,0,1-.966-.024l-.627-2.141a10.66,10.66,0,0,0-7.236-7.237l-2-.585a.508.508,0,0,1,0-.974l2-.586A10.658,10.658,0,0,0,88.41,2.365l.586-2a.508.508,0,0,1,.974,0l.586,2A10.658,10.658,0,0,0,97.792,9.6" transform="translate(91 -20.851)" fill="#6063c0"/>
        <path id="Trazado_873069" data-name="Trazado 873069" d="M186.387,101.409l4.019,1.177a1,1,0,0,1,.016,1.909l-3.922,1.214a20.927,20.927,0,0,0-13.583,13.126l-1.825,5.251a1,1,0,0,1-1.9-.048l-1.232-4.2a20.934,20.934,0,0,0-14.211-14.213l-3.928-1.148a1,1,0,0,1,0-1.913l3.928-1.15A20.931,20.931,0,0,0,167.962,87.2l1.15-3.929a1,1,0,0,1,1.913,0l1.15,3.929a20.931,20.931,0,0,0,14.211,14.211" transform="translate(203.539 61)" fill="#30169a"/>
        <path id="Trazado_873070" data-name="Trazado 873070" d="M30.973,149.963l3.339.978a.828.828,0,0,1,.013,1.586l-3.258,1.008a17.387,17.387,0,0,0-11.285,10.905L18.265,168.8a.828.828,0,0,1-1.576-.04l-1.023-3.493A17.392,17.392,0,0,0,3.859,153.462l-3.264-.954a.828.828,0,0,1,0-1.59l3.264-.956a17.39,17.39,0,0,0,11.806-11.806l.956-3.264a.828.828,0,0,1,1.59,0l.956,3.264a17.39,17.39,0,0,0,11.806,11.806" transform="translate(-2.036 -85.19)" fill="#30169a"/>
      </g>
    </g>
    <g id="Grupo_1099910" data-name="Grupo 1099910" transform="translate(228.195 468)">
      <g id="Grupo_1099911" data-name="Grupo 1099911">
        <path id="Trazado_874707" data-name="Trazado 874707" d="M0,0H416.745V89.388H0Z" transform="translate(-49 218.062)" fill="#d0d1fa"/>
        <g id="Grupo_1099908" data-name="Grupo 1099908">
          <g id="Grupo_1099912" data-name="Grupo 1099912">
            <g id="Grupo_1099903" data-name="Grupo 1099903" transform="translate(117.961 60.547)" opacity="0.39" style="mix-blend-mode: multiply;isolation: isolate">
              <g id="Grupo_1099902" data-name="Grupo 1099902">
                <g id="Grupo_1099913" data-name="Grupo 1099913">
                  <path id="Trazado_874533" data-name="Trazado 874533" d="M265.53,94.092s-19.723,5.562-21.792,11.554,2.363,27.248-3.1,31.516-17.06,7.207-18.218,17.316.2,15.969-1.031,21.312-3.088,7.288-7.4,8.8-25.33,34.858-29.523,48.4,4.41,27.092,4.41,27.092,75.692,11.132,101.113,10.807c13.488-.172,53.759-4.842,72.9-7.147a6.539,6.539,0,0,0,4.724-10.016Z" transform="translate(-183.315 -94.092)" fill="#d0d1fa"/>
                </g>
              </g>
            </g>
            <path id="Trazado_874534" data-name="Trazado 874534" d="M361.339,144.692c7.367-1.887,9.881-11.957,7.715-18.389-3.2-9.516-12.638-10.659-12.638-10.659,1.906-4.715,3.285-16.372-.6-23.108s-13.692-8.9-13.692-8.9c1.792-7.538-3.374-13.285-10.3-12.757s-30.475,2.382-37.57,3.033-10.908,3.478-10.494,7.878-.077,23.594-1.039,29.258c-.75,4.416-12.565,7.17-16.965,15.518s-.189,17.647,1.944,20.052c0,0-3.533,11.99,5.7,18.415s20.348.3,20.348.3,5.992,9.067,16.883,8.4a21.511,21.511,0,0,0,16.1-8.688s3.675,3.763,8.81,3.044,7.413-6.239,7.413-6.239,10.38,3.319,15.272-2.115c6.99-7.765,3.126-15.04,3.126-15.04" transform="translate(-94.054 -25.256)" fill="#40290a"/>
            <path id="Trazado_874535" data-name="Trazado 874535" d="M299.574,138.254s-15.022,10.628-12.607,30.136c0,0-8.292,8.992-1.214,23.144" transform="translate(-100.854 -49.289)" fill="none" stroke="#613c0e" stroke-linecap="round" stroke-linejoin="round" stroke-width="1"/>
            <path id="Trazado_874536" data-name="Trazado 874536" d="M302.887,149.78s-9.355,2.938-13.612,14.15" transform="translate(-103.13 -53.398)" fill="none" stroke="#613c0e" stroke-linecap="round" stroke-linejoin="round" stroke-width="1"/>
            <path id="Trazado_874537" data-name="Trazado 874537" d="M369.369,150.88s-1.277,9.378,2.4,13.14,16.695,13.577,8.726,26.361" transform="translate(-131.607 -53.79)" fill="none" stroke="#613c0e" stroke-linecap="round" stroke-linejoin="round" stroke-width="1"/>
            <path id="Trazado_874538" data-name="Trazado 874538" d="M375.638,134.7s-1.716,16.661,3.362,20.854,11.6,11.407,6.1,22.879" transform="translate(-133.82 -48.022)" fill="none" stroke="#613c0e" stroke-linecap="round" stroke-linejoin="round" stroke-width="1"/>
            <path id="Trazado_874539" data-name="Trazado 874539" d="M408.842,146.9s-6.582-12.2-18.56-13.2c0,0-2.786-16.174-16.96-18.945" transform="translate(-133.093 -40.911)" fill="none" stroke="#613c0e" stroke-linecap="round" stroke-linejoin="round" stroke-width="1"/>
            <path id="Trazado_874540" data-name="Trazado 874540" d="M282.333,130.241s-15.052,6.691-20.3,15.126-2.354,20.827,5.688,24.492" transform="translate(-92.471 -46.432)" fill="none" stroke="#40290a" stroke-linejoin="round" stroke-width="1"/>
            <path id="Trazado_874541" data-name="Trazado 874541" d="M381.918,85.276S395.225,87,401.162,95.918s-.407,27.638-.407,27.638" transform="translate(-136.158 -30.402)" fill="none" stroke="#40290a" stroke-linejoin="round" stroke-width="1"/>
            <path id="Trazado_874542" data-name="Trazado 874542" d="M356.672,207.029l-22.1-7.208L314.535,197.7,294.5,199.821l-22.1,7.208,7.208,61.265-7.208,20.25h84.274l-7.208-20.25Z" transform="translate(-97.113 -70.481)" fill="#676e20"/>
            <path id="Trazado_874543" data-name="Trazado 874543" d="M317.377,265.07a11.54,11.54,0,0,0-.277,1.764,12.769,12.769,0,0,0,1.93,7.691c2.084,3.351,6.663,6.969,10.735,7.251a11.886,11.886,0,0,0,8.044-2.867c5.889-4.674,9.9-11.516,12.385-18.449,1.082-3.012,2.046-6.2.936-9.473a12.391,12.391,0,0,0-3.4-4.9,15.183,15.183,0,0,0-4.241-2.9c-5.047-2.209-11.313-1.667-15.023,2.27a22.468,22.468,0,0,0-3.773,6.376c-1.075,2.382-1.929,4.91-3.63,6.912a15.082,15.082,0,0,0-3.681,6.319" transform="translate(-113.036 -86.24)" fill="#de5928"/>
            <path id="Trazado_874544" data-name="Trazado 874544" d="M328.462,245.463a22.479,22.479,0,0,0-3.773,6.376c-1.075,2.382-1.929,4.91-3.63,6.912a15.082,15.082,0,0,0-3.681,6.319,11.52,11.52,0,0,0-.277,1.764,12.705,12.705,0,0,0,1.594,7.115,4.243,4.243,0,0,0,3.08-.249,3.9,3.9,0,0,0,2.084-3.594,10.45,10.45,0,0,0,7.315-2.233,24.29,24.29,0,0,0,5.108-5.7,19.651,19.651,0,0,0,2.851-5.231,8.046,8.046,0,0,0-.243-5.925,7.765,7.765,0,0,0,3.2-8.36c-4.762-1.551-10.25-.779-13.624,2.8" transform="translate(-113.036 -86.241)" fill="#db4942"/>
            <path id="Trazado_874545" data-name="Trazado 874545" d="M320.492,251.185a22.6,22.6,0,0,0,3.25-10.9,9.767,9.767,0,0,1,.9,7.009,16.272,16.272,0,0,1-3.2,6.275,9.237,9.237,0,0,1,7.843-4.167l-7.443,6.25,4.2,5.448a20.139,20.139,0,0,1-5.337-3.367,80.391,80.391,0,0,0-5.279,11.215,15.707,15.707,0,0,1,1.828-9.152,22.673,22.673,0,0,0-7.056,7.857,13.16,13.16,0,0,1,3.091-7.044,39.442,39.442,0,0,1,5.661-5.366s-.206-1.245,1.535-4.061" transform="translate(-110.591 -85.665)" fill="#bfae2b"/>
            <path id="Trazado_874546" data-name="Trazado 874546" d="M313.559,261.785a11.314,11.314,0,0,1,6.926,1.173.724.724,0,0,0,.452.124.421.421,0,0,0,.254-.557,1.244,1.244,0,0,0-.459-.539,8.732,8.732,0,0,0-7.28-1.586Z" transform="translate(-111.749 -92.754)" fill="#734d3a"/>
            <path id="Trazado_874547" data-name="Trazado 874547" d="M323.319,280.026a17.551,17.551,0,0,0,7.451,6.948,17.233,17.233,0,0,0,10,1.582" transform="translate(-115.267 -99.832)" fill="none" stroke="#871e1b" stroke-linecap="round" stroke-linejoin="round" stroke-width="1"/>
            <path id="Trazado_874548" data-name="Trazado 874548" d="M353.281,285.215c3.236-.328,9.412-9.293,7.882-13.659" transform="translate(-125.948 -96.813)" fill="none" stroke="#871e1b" stroke-linecap="round" stroke-linejoin="round" stroke-width="1"/>
            <path id="Trazado_874549" data-name="Trazado 874549" d="M349.01,296.521a28.144,28.144,0,0,0,5.614-6.032" transform="translate(-124.426 -103.562)" fill="none" stroke="#871e1b" stroke-linecap="round" stroke-linejoin="round" stroke-width="1"/>
            <path id="Trazado_874550" data-name="Trazado 874550" d="M341.831,254.063a15.175,15.175,0,0,1,7.781,2.661,24.414,24.414,0,0,1,5.927,5.807" transform="translate(-121.866 -90.576)" fill="none" stroke="#871e1b" stroke-linecap="round" stroke-linejoin="round" stroke-width="1"/>
            <path id="Trazado_874551" data-name="Trazado 874551" d="M272.4,325.331l22.1-17.763s6.162.606,8.114-6.684l-23.009,4.2Z" transform="translate(-97.113 -107.268)" fill="#585b16"/>
            <path id="Trazado_874552" data-name="Trazado 874552" d="M247.539,212.2l4.527,38.477L224.4,293.713l-21.73-24.369Z" transform="translate(-72.254 -75.651)" fill="#e79b6f"/>
            <path id="Trazado_874553" data-name="Trazado 874553" d="M336.8,174.31c-.053-7.98,0-13.515,0-13.515l-10.017.772-10.018-.772s.053,5.535,0,13.515-10.017,12.356-10.017,12.356l7.769,1.218a11.738,11.738,0,0,1,9.62,8.954l2.647,11.452,2.646-11.452a11.739,11.739,0,0,1,9.62-8.954l7.768-1.218s-9.964-4.376-10.017-12.356" transform="translate(-109.358 -57.325)" fill="#e79b6f"/>
            <path id="Trazado_874554" data-name="Trazado 874554" d="M322.26,176.216a31.462,31.462,0,0,0,11.053-3.582,1.723,1.723,0,0,0-.938-3.207h-.069c-3.84,0-7.37-2.632-10-5.358.011,2.311.02,6.369-.014,11.407q0,.375-.033.739" transform="translate(-114.889 -58.493)" fill="#cd8054"/>
            <path id="Trazado_874555" data-name="Trazado 874555" d="M400.806,212.2l-4.527,38.477,27.666,43.037,14.746-12.307a13.34,13.34,0,0,0,1.945-18.48Z" transform="translate(-141.278 -75.651)" fill="#e79b6f"/>
            <line id="Línea_562" data-name="Línea 562" y1="8.701" x2="17.114" transform="translate(272.005 192.775)" fill="none" stroke="#a35d3b" stroke-linecap="round" stroke-linejoin="round" stroke-width="1"/>
            <path id="Trazado_874556" data-name="Trazado 874556" d="M413.69,294.084l-2.162-2.728-65.2,33.153-11.7-3.732a10.644,10.644,0,0,0-3.552-.5l-5.891.974A11.767,11.767,0,0,0,320.673,323l-5.87,3.826a1.4,1.4,0,0,0,.57,2.567c.171.021.353.036.546.042a8.087,8.087,0,0,0,2.939-.734l-2.093,1.364a1.53,1.53,0,0,0,.733,2.811l.069,0c2.324.074,7.083-2.84,7.083-2.84l1.123.057-5.614,3.658a1.53,1.53,0,0,0,.732,2.811l.069,0c2.324.074,7.082-2.84,7.082-2.84l1.59.081-4.162,2.712a1.53,1.53,0,0,0,.764,2.812h.037c1.953.062,5.616-1.981,6.738-2.636,2.492.714,10.026,2.335,16.228-1.892l47.869-3.2a23.16,23.16,0,0,0,16.583-37.515" transform="translate(-112.003 -103.872)" fill="#e79b6f"/>
            <path id="Trazado_874557" data-name="Trazado 874557" d="M325.777,345.429a15.433,15.433,0,0,1,3.836-1.967" transform="translate(-116.143 -122.448)" fill="none" stroke="#a35d3b" stroke-linecap="round" stroke-linejoin="round" stroke-width="1"/>
            <path id="Trazado_874558" data-name="Trazado 874558" d="M332.312,350.473a15.434,15.434,0,0,1,3.836-1.967" transform="translate(-118.473 -124.246)" fill="none" stroke="#a35d3b" stroke-linecap="round" stroke-linejoin="round" stroke-width="1"/>
            <path id="Trazado_874559" data-name="Trazado 874559" d="M337.529,356.951a15.433,15.433,0,0,1,3.836-1.967" transform="translate(-120.333 -126.556)" fill="none" stroke="#a35d3b" stroke-linecap="round" stroke-linejoin="round" stroke-width="1"/>
            <path id="Trazado_874560" data-name="Trazado 874560" d="M278.148,283.357c-.438,1.976-2.658,9.253-11.4,9.324L229.333,317.9c-18.912,12.747-41.544-9.948-28.738-28.822l61.775-8.494,8.23-11.924a5.751,5.751,0,0,1,1.01-1.113Z" transform="translate(-70.179 -95.383)" fill="#e79b6f"/>
            <path id="Trazado_874561" data-name="Trazado 874561" d="M318.077,281.01l1.419-1.979s5.558-.64,6.788-1.82,1.045-1.759.713-2.681-3.43-.516-3.43-.516,2.619-.627,3.135-2.324-1.856-2.066-4.254-1.808c0,0,3.024-.713,2.927-2.324-.131-2.143-4.8-1.181-5.755-1.07a37.941,37.941,0,0,0-4.279,1.292l1.869-2.939s4.095-1,4.5-1.869c.675-1.451-1.7-2.853-6.369-1.389-3.828,1.2-6.492,7.71-6.492,7.71" transform="translate(-110.107 -93.036)" fill="#e79b6f"/>
            <path id="Trazado_874562" data-name="Trazado 874562" d="M318.994,276.484s2.1-1.549,6.788-1.66" transform="translate(-113.725 -97.978)" fill="none" stroke="#a35d3b" stroke-linecap="round" stroke-linejoin="round" stroke-width="1"/>
            <path id="Trazado_874563" data-name="Trazado 874563" d="M322.433,282.717a10.349,10.349,0,0,1,5.976-1.476" transform="translate(-114.951 -100.264)" fill="none" stroke="#a35d3b" stroke-linecap="round" stroke-linejoin="round" stroke-width="1"/>
            <path id="Trazado_874564" data-name="Trazado 874564" d="M317.064,268.439l1.205-.676,1.869-2.939s3.64-.787,4.181-1.574.418-2.09-1.918-2.336" transform="translate(-113.037 -93.019)" fill="none" stroke="#a35d3b" stroke-linecap="round" stroke-linejoin="round" stroke-width="1"/>
            <line id="Línea_563" data-name="Línea 563" y1="4.319" x2="31.411" transform="translate(140.026 188.053)" fill="none" stroke="#a35d3b" stroke-linecap="round" stroke-linejoin="round" stroke-width="1"/>
            <path id="Trazado_874565" data-name="Trazado 874565" d="M351.8,214.031a1.833,1.833,0,1,1-1.833-1.833,1.833,1.833,0,0,1,1.833,1.833" transform="translate(-124.113 -75.651)" fill="#e9d5b8"/>
            <path id="Trazado_874566" data-name="Trazado 874566" d="M347.985,230.86a1.833,1.833,0,1,1-1.834-1.833,1.834,1.834,0,0,1,1.834,1.833" transform="translate(-122.753 -81.651)" fill="#e9d5b8"/>
            <path id="Trazado_874567" data-name="Trazado 874567" d="M325.16,81.595v0l-.06,0-.06,0v0c-13.553.7-26.728,11.3-25.013,30.456s13.788,27.622,27.736,27.013v0l.059,0h.06v0c13.942-.712,25.162-10.283,25.057-29.514S338.719,81.01,325.16,81.595" transform="translate(-106.909 -29.08)" fill="#e79b6f"/>
            <path id="Trazado_874568" data-name="Trazado 874568" d="M300.659,131.984c-.793,4.068,2.421,8.118,7.179,9.046s9.259-1.617,10.053-5.685-2.421-8.118-7.179-9.046-9.259,1.617-10.052,5.685" transform="translate(-107.145 -44.959)" fill="#d58a5f"/>
            <path id="Trazado_874569" data-name="Trazado 874569" d="M344.331,113.927a20.059,20.059,0,0,0-2.012,11.291s3.719,2.353,5.554,3.273-2.683,3.513-5.4,5.208" transform="translate(-121.984 -40.616)" fill="none" stroke="#a35d3b" stroke-linecap="round" stroke-linejoin="round" stroke-width="1.321"/>
            <path id="Trazado_874570" data-name="Trazado 874570" d="M372.85,128.532c1.174,3.975-1.642,8.311-6.291,9.685s-9.371-.735-10.545-4.71,1.642-8.311,6.291-9.685,9.371.735,10.545,4.71" transform="translate(-126.828 -43.994)" fill="#d58a5f"/>
            <path id="Trazado_874571" data-name="Trazado 874571" d="M330.741,147.419a10.371,10.371,0,0,0,13.548,1.27" transform="translate(-117.913 -52.556)" fill="none" stroke="#a35d3b" stroke-linecap="round" stroke-linejoin="round" stroke-width="1.321"/>
            <path id="Trazado_874572" data-name="Trazado 874572" d="M331.367,87.119c6.383-1.8,11.755-9.814,11.6-15.682-7.468.572-30.146,2.36-37.087,3-7.094.651-10.908,3.478-10.494,7.878.333,3.533.08,16.607-.53,24.552,3.725-.824,9.518-2.384,13.683-4.816,6.62-3.865,6.955-15.773,6.955-15.773s8.634,2.884,15.876.844" transform="translate(-105.118 -25.468)" fill="#613c0e"/>
            <path id="Trazado_874573" data-name="Trazado 874573" d="M308.359,106.032s-6.885-14.092-8.367-26.363c0,0,.626,19.5,4,28.113" transform="translate(-106.95 -28.403)" fill="none" stroke="#40290a" stroke-linejoin="round" stroke-width="1"/>
            <path id="Trazado_874574" data-name="Trazado 874574" d="M298.358,140.086,294.684,124.3s-3.629-7.092-9.405-3c-6.955,4.931,4.815,21.81,13.08,18.78" transform="translate(-100.952 -42.793)" fill="#e79b6f"/>
            <path id="Trazado_874575" data-name="Trazado 874575" d="M377.812,136.259l2.165-16.059s2.942-7.4,9.08-3.873c7.391,4.252-2.73,22.168-11.245,19.932" transform="translate(-134.694 -41.132)" fill="#e79b6f"/>
            <path id="Trazado_874576" data-name="Trazado 874576" d="M319.477,108.315c.3-2.345,2.327-4.389,4.286-5.5a8.257,8.257,0,0,1,6.94-.786c-1.725,1.084-3.678,1.827-5.456,2.827-1.956,1.1-3.83,2.337-5.771,3.463" transform="translate(-113.897 -36.215)" fill="#40290a"/>
            <path id="Trazado_874577" data-name="Trazado 874577" d="M350.628,103.416c1.832-1.091,4.319-.436,6.018.57a6.4,6.4,0,0,1,3.158,5.155c-1.588-.853-2.893-2.2-4.5-3.028-1.51-.977-3.11-1.818-4.678-2.7" transform="translate(-125.003 -36.668)" fill="#40290a"/>
            <path id="Trazado_874578" data-name="Trazado 874578" d="M327.976,121.524c-.151,1.414-1.111,2.472-2.145,2.362s-1.751-1.346-1.6-2.759,1.11-2.472,2.145-2.362,1.75,1.345,1.6,2.759" transform="translate(-115.585 -42.338)" fill="#40290a"/>
            <path id="Trazado_874579" data-name="Trazado 874579" d="M356.916,122.633c-.15,1.414-1.111,2.472-2.145,2.362s-1.751-1.346-1.6-2.759,1.11-2.472,2.145-2.362,1.751,1.345,1.6,2.759" transform="translate(-125.902 -42.733)" fill="#40290a"/>
            <path id="Trazado_874580" data-name="Trazado 874580" d="M287.429,127.828s5.421-1.12,9.1,9.061" transform="translate(-102.472 -45.559)" fill="none" stroke="#a35d3b" stroke-linecap="round" stroke-linejoin="round" stroke-width="1.321"/>
            <path id="Trazado_874581" data-name="Trazado 874581" d="M291.414,136.519s.671-3.369,2.856-4.763" transform="translate(-103.892 -46.972)" fill="none" stroke="#a35d3b" stroke-linecap="round" stroke-linejoin="round" stroke-width="1.321"/>
            <path id="Trazado_874582" data-name="Trazado 874582" d="M391.442,124.724s-5.421-1.12-9.1,9.061" transform="translate(-136.309 -44.452)" fill="none" stroke="#a35d3b" stroke-linecap="round" stroke-linejoin="round" stroke-width="1.321"/>
            <path id="Trazado_874583" data-name="Trazado 874583" d="M390.916,133.415s-.671-3.369-2.858-4.763" transform="translate(-138.347 -45.866)" fill="none" stroke="#a35d3b" stroke-linecap="round" stroke-linejoin="round" stroke-width="1.321"/>
            <path id="Trazado_874584" data-name="Trazado 874584" d="M348.555,427.053l-8.7,3.456s9.923,6.213,32.309,3.731,35.125-10.118,35.375-13.471-.756-5.533,5.4-3.339,8.7,3.422,12.253,1.015,4.442-.088,2.717-3.122,2.535-11.008-3.678-11.52-29.645-.458-29.645-.458Z" transform="translate(-121.163 -143.796)" fill="#484a90" opacity="0.106"/>
            <path id="Trazado_874585" data-name="Trazado 874585" d="M403.515,383.291s-9.211-9.823-1.083-14.559c1.049-5.495,5.755-6.242,8.275-5.311a5.806,5.806,0,0,1,8.869-.665c3.735-2.883,11.12.154,10.768,6.834-.39,7.387.433,10.658,1.066,15.705s1.546,9.023-2.011,10.113a6.223,6.223,0,0,1-4.495-.008,9.219,9.219,0,0,1-5.407,2.668,5.187,5.187,0,0,1-3.764-.864s-.287,2.388-3.294,2.081-4.147-2.16-5.679-8.226a31.828,31.828,0,0,0-3.244-7.769" transform="translate(-142.277 -128.702)" fill="#c5572c"/>
            <path id="Trazado_874586" data-name="Trazado 874586" d="M412.087,370.753s3.647-3.392,10.206-2.943l-.561,2.1s-4.972-.08-7.524,2.026c0,0-1.057-1.263-2.121-1.188" transform="translate(-146.913 -131.113)" fill="#60661e"/>
            <path id="Trazado_874587" data-name="Trazado 874587" d="M431.416,378.5c-.178.266-.367.526-.568.777a7.151,7.151,0,0,1-5.713,2.916,10.369,10.369,0,0,1-15.588,4.878,6.7,6.7,0,0,1-6.511-.2c-.138-.08-.381-.238-.685-.445a22.008,22.008,0,0,0,2.329,3.1,31.841,31.841,0,0,1,3.244,7.77c1.532,6.066,2.671,7.918,5.678,8.225s3.294-2.081,3.294-2.081a5.186,5.186,0,0,0,3.765.865,9.219,9.219,0,0,0,5.407-2.668,6.227,6.227,0,0,0,4.5.007c3.557-1.09,2.643-5.066,2.01-10.113-.551-4.394-1.246-7.443-1.159-13.035" transform="translate(-143.443 -134.938)" fill="#a84a26"/>
            <path id="Trazado_874588" data-name="Trazado 874588" d="M405.67,372.506a7.1,7.1,0,0,1,6.42.9" transform="translate(-144.626 -132.662)" fill="none" stroke="#8c442d" stroke-linecap="round" stroke-linejoin="round" stroke-width="1"/>
            <path id="Trazado_874589" data-name="Trazado 874589" d="M429.987,364.01a7.106,7.106,0,0,0-2.912,4.564" transform="translate(-152.257 -129.773)" fill="none" stroke="#8c442d" stroke-linecap="round" stroke-linejoin="round" stroke-width="1"/>
            <path id="Trazado_874590" data-name="Trazado 874590" d="M412.585,375.688a3.43,3.43,0,0,1,1.589-2.227,11.546,11.546,0,0,1,10.39-1.578" transform="translate(-147.091 -132.368)" fill="none" stroke="#8c442d" stroke-linecap="round" stroke-linejoin="round" stroke-width="1"/>
            <path id="Trazado_874591" data-name="Trazado 874591" d="M412.383,381.081c-.308,3.815,1.148,7.544,2.872,10.962s3.761,6.73,4.761,10.422" transform="translate(-147.004 -135.859)" fill="none" stroke="#8c442d" stroke-linecap="round" stroke-linejoin="round" stroke-width="1"/>
            <path id="Trazado_874592" data-name="Trazado 874592" d="M432.168,372.973c2.875,3.176,3.977,7.587,4.193,11.858s-.353,8.544-.344,12.82a.126.126,0,0,0,.079.114" transform="translate(-154.072 -132.969)" fill="none" stroke="#8c442d" stroke-linecap="round" stroke-linejoin="round" stroke-width="1"/>
            <path id="Trazado_874593" data-name="Trazado 874593" d="M417.07,364.542a1.729,1.729,0,0,1-2-1.206,13.647,13.647,0,0,0-2.36-4.891c-1.909-2.165-3.406-3.609-3.406-3.609s.1-1.491,4-2.259a3.414,3.414,0,0,1,3.03,1.009s2.134,5.706,2.137,9.255a1.735,1.735,0,0,1-1.4,1.7" transform="translate(-145.921 -125.676)" fill="#60661e"/>
            <path id="Trazado_874594" data-name="Trazado 874594" d="M440.337,395.85a9.483,9.483,0,0,1,1.458-3.123,2.42,2.42,0,0,1,3.086-.658c.841.613.938,1.808.958,2.849a7.957,7.957,0,0,1,1.421-3.109,2.9,2.9,0,0,1,3.076-1,1.809,1.809,0,0,1,.791,2.786,8.441,8.441,0,0,1,5.629-3.725,4.148,4.148,0,0,1,2.595.262,2.1,2.1,0,0,1,1.18,2.171,2.967,2.967,0,0,1-.92,1.411,15.07,15.07,0,0,1-5.882,3.594,6.2,6.2,0,0,1,3.334.859,2.142,2.142,0,0,1,.575,3.029,3.014,3.014,0,0,1-2.214.642,41.735,41.735,0,0,1-6.22-.418,6.23,6.23,0,0,1,2.681,2.262c.553,1.05.263,2.629-.862,3.008a2.966,2.966,0,0,1-1.628-.066c-3.607-.864-7.163-2.358-10.867-2.14-3.634.214-6.815,2.044-9.946,3.722,4.391-4.2,9.495-6.089,11.756-12.351" transform="translate(-152.794 -138.96)" fill="#60661e"/>
            <path id="Trazado_874595" data-name="Trazado 874595" d="M460.634,392.734a224.048,224.048,0,0,0-28.212,14.807" transform="translate(-154.163 -140.014)" fill="none" stroke="#848c29" stroke-linecap="round" stroke-linejoin="round" stroke-width="1"/>
            <path id="Trazado_874596" data-name="Trazado 874596" d="M458.941,392.112c-1.394,1.257-1.829,3.243-2.837,4.827a15.022,15.022,0,0,1-2.056,2.4" transform="translate(-161.873 -139.792)" fill="none" stroke="#848c29" stroke-linecap="round" stroke-linejoin="round" stroke-width="1"/>
            <path id="Trazado_874597" data-name="Trazado 874597" d="M471.472,390.621a24.337,24.337,0,0,0-3.495,3.743" transform="translate(-166.839 -139.261)" fill="none" stroke="#848c29" stroke-linecap="round" stroke-linejoin="round" stroke-width="1"/>
            <path id="Trazado_874598" data-name="Trazado 874598" d="M469.53,398.092c-1.727.524-3.611-.322-5.382.028" transform="translate(-165.474 -141.903)" fill="none" stroke="#848c29" stroke-linecap="round" stroke-linejoin="round" stroke-width="1"/>
            <path id="Trazado_874599" data-name="Trazado 874599" d="M466.278,404.5c-3.8.081-7.409-2.271-11.184-1.842" transform="translate(-162.246 -143.532)" fill="none" stroke="#848c29" stroke-linecap="round" stroke-linejoin="round" stroke-width="1"/>
            <path id="Trazado_874600" data-name="Trazado 874600" d="M449.624,394.618c-1.272,1.746-1.519,4.023-2.435,5.98a9.448,9.448,0,0,1-2.148,2.935" transform="translate(-158.662 -140.686)" fill="none" stroke="#848c29" stroke-linecap="round" stroke-linejoin="round" stroke-width="1"/>
            <path id="Trazado_874601" data-name="Trazado 874601" d="M455.522,411.083a12.448,12.448,0,0,1-5.123-1.774c-1.633-.814-3.444-1.557-5.233-1.2a12.211,12.211,0,0,0-2.939,1.138" transform="translate(-157.659 -145.462)" fill="none" stroke="#848c29" stroke-linecap="round" stroke-linejoin="round" stroke-width="1"/>
            <path id="Trazado_874602" data-name="Trazado 874602" d="M443.169,402.278c.949-1.205,1.843-2.571,3.248-3.187a2.054,2.054,0,0,1,1.807-.043c1.258.712.681,2.623-.048,3.871a9.641,9.641,0,0,1,5.839-4.445c.971-.254,2.231-.233,2.709.649.551,1.019-.414,2.178-1.325,2.892a9.125,9.125,0,0,1,4.646-1.5c1.647.084,3.346,1.427,3.183,3.068a3.135,3.135,0,0,1-2.187,2.448,9.224,9.224,0,0,1-3.432.3,5.971,5.971,0,0,1,2.476.949,2.048,2.048,0,0,1,.75,2.359c-.555,1.17-2.216,1.125-3.483.856a59.233,59.233,0,0,1-6.379-1.728c.748.643,1.668,1.069,2.394,1.737a2.484,2.484,0,0,1,.864,2.638,2.253,2.253,0,0,1-2.313,1.16,7.229,7.229,0,0,1-2.576-.966,31.934,31.934,0,0,0-11.008-3.619,21.385,21.385,0,0,0-11.06,1.741c5.885-2.7,11.692-3.851,15.895-9.187" transform="translate(-152.328 -142.011)" fill="#757c24"/>
            <path id="Trazado_874603" data-name="Trazado 874603" d="M465.146,405.887a76.245,76.245,0,0,0-28.727,5.941" transform="translate(-155.588 -144.703)" fill="none" stroke="#848c29" stroke-linecap="round" stroke-linejoin="round" stroke-width="1"/>
            <path id="Trazado_874604" data-name="Trazado 874604" d="M467.164,399.547c-2.865.972-4.644,3.809-7.187,5.448" transform="translate(-163.987 -142.443)" fill="none" stroke="#848c29" stroke-linecap="round" stroke-linejoin="round" stroke-width="1"/>
            <path id="Trazado_874605" data-name="Trazado 874605" d="M471.152,412.755c-3.311-.6-6.228-2.469-9.28-3.885a6.373,6.373,0,0,0-2.851-.771" transform="translate(-163.646 -145.491)" fill="none" stroke="#848c29" stroke-linecap="round" stroke-linejoin="round" stroke-width="1"/>
            <path id="Trazado_874606" data-name="Trazado 874606" d="M455.578,400.773c-2.066,1.794-3.449,4.245-5.37,6.192" transform="translate(-160.504 -142.88)" fill="none" stroke="#848c29" stroke-linecap="round" stroke-linejoin="round" stroke-width="1"/>
            <path id="Trazado_874607" data-name="Trazado 874607" d="M459.564,416.5c-4.23-1.338-7.6-4.965-11.994-5.594" transform="translate(-159.563 -146.491)" fill="none" stroke="#848c29" stroke-linecap="round" stroke-linejoin="round" stroke-width="1"/>
            <path id="Trazado_874608" data-name="Trazado 874608" d="M378.115,405.525c5.07-2.646,10.471-5.253,16.186-5.052s11.714,4.21,12.108,9.916c.267,3.867-2.08,7.546-5.178,9.876s-6.87,3.547-10.58,4.668c-9.073,2.741-18.495,3.167-27.962,3.2q-5.744.018-11.481-.331c-.068,0-9.161-1.23-7.345-2.549,10.562-7.668,22.7-13.694,34.253-19.724" transform="translate(-122.505 -142.769)" fill="#e4eae2"/>
            <path id="Trazado_874609" data-name="Trazado 874609" d="M404.938,400.472c-5.715-.2-11.116,2.407-16.186,5.052-5.047,2.634-10.205,5.267-15.294,8.037a32.973,32.973,0,0,0,7.8,1.183,78.289,78.289,0,0,0,12.276-.767c5.241-.627,10.565-1.362,15.356-3.577a28.886,28.886,0,0,0,6.816-4.067,13.539,13.539,0,0,0-10.773-5.862" transform="translate(-133.142 -142.769)" fill="#fcfcfc"/>
            <path id="Trazado_874610" data-name="Trazado 874610" d="M427.906,403.414a14.642,14.642,0,0,1,3.356,16.733" transform="translate(-152.553 -143.821)" fill="none" stroke="#c3c2cb" stroke-linecap="round" stroke-linejoin="round" stroke-width="1"/>
            <path id="Trazado_874611" data-name="Trazado 874611" d="M404.913,411.329a20.689,20.689,0,0,1,5.2,7.45,12.7,12.7,0,0,1,.2,8.959" transform="translate(-144.356 -146.643)" fill="none" stroke="#c3c2cb" stroke-linecap="round" stroke-linejoin="round" stroke-width="1"/>
            <path id="Trazado_874612" data-name="Trazado 874612" d="M419.8,408.656a16.052,16.052,0,0,1,4.212,6.439,10.177,10.177,0,0,1-.38,7.569" transform="translate(-149.665 -145.69)" fill="none" stroke="#c3c2cb" stroke-linecap="round" stroke-linejoin="round" stroke-width="1"/>
            <path id="Trazado_874613" data-name="Trazado 874613" d="M422.2,421.333a10.693,10.693,0,0,1-.284,6.771" transform="translate(-150.419 -150.21)" fill="none" stroke="#c3c2cb" stroke-linecap="round" stroke-linejoin="round" stroke-width="1"/>
            <path id="Trazado_874614" data-name="Trazado 874614" d="M386.173,416.849a15.784,15.784,0,0,1,4.54,15.316" transform="translate(-137.675 -148.611)" fill="none" stroke="#c3c2cb" stroke-linecap="round" stroke-linejoin="round" stroke-width="1"/>
            <path id="Trazado_874615" data-name="Trazado 874615" d="M394.032,425.143a10.483,10.483,0,0,1,1.172,9.031.44.44,0,0,0,.008-.458" transform="translate(-140.477 -151.568)" fill="none" stroke="#c3c2cb" stroke-linecap="round" stroke-linejoin="round" stroke-width="1"/>
            <path id="Trazado_874616" data-name="Trazado 874616" d="M400.613,415.7a14.2,14.2,0,0,1,4.2,13.954q-.077-.159-.154-.319" transform="translate(-142.823 -148.2)" fill="none" stroke="#c3c2cb" stroke-linecap="round" stroke-linejoin="round" stroke-width="1"/>
            <path id="Trazado_874617" data-name="Trazado 874617" d="M373.336,422.535a11.986,11.986,0,0,1,2.051,11.653" transform="translate(-133.098 -150.638)" fill="none" stroke="#c3c2cb" stroke-linecap="round" stroke-linejoin="round" stroke-width="1"/>
            <path id="Trazado_874618" data-name="Trazado 874618" d="M361.845,430.034a8.178,8.178,0,0,1,1.459,6.47" transform="translate(-129.002 -153.312)" fill="none" stroke="#c3c2cb" stroke-linecap="round" stroke-linejoin="round" stroke-width="1"/>
            <path id="Trazado_874619" data-name="Trazado 874619" d="M359.8,432.879a8.148,8.148,0,0,1,.9,5.224" transform="translate(-128.271 -154.326)" fill="none" stroke="#c3c2cb" stroke-linecap="round" stroke-linejoin="round" stroke-width="1"/>
            <path id="Trazado_874620" data-name="Trazado 874620" d="M206.094,400.793c0,12.962-37.528,23.471-83.822,23.471S38.45,413.755,38.45,400.793s37.528-23.471,83.822-23.471,83.822,10.508,83.822,23.471" transform="translate(-13.708 -134.519)" fill="#30169a" opacity="0.163"/>
            <path id="Trazado_874621" data-name="Trazado 874621" d="M204.344,389.078c0,14.7-37.137,26.624-82.947,26.624s-82.948-11.92-82.948-26.624,37.137-26.624,82.948-26.624,82.947,11.92,82.947,26.624" transform="translate(-13.707 -129.219)" fill="#fffdea"/>
            <path id="Trazado_874622" data-name="Trazado 874622" d="M196.448,392.227c0,11.565-29.21,20.942-65.242,20.942s-65.242-9.376-65.242-20.942,29.21-20.942,65.242-20.942,65.242,9.376,65.242,20.942" transform="translate(-23.517 -132.367)" fill="#e6e4bd"/>
            <ellipse id="Elipse_11483" data-name="Elipse 11483" cx="65.242" cy="20.942" rx="65.242" ry="20.942" transform="translate(42.447 238.918)" fill="none" stroke="#bdbf97" stroke-miterlimit="10" stroke-width="0.152"/>
            <path id="Trazado_874623" data-name="Trazado 874623" d="M112.684,357.725a2.863,2.863,0,0,0-1.278-1.62c-3.853-2.932-8.037-5.658-10.756-9.652a14.522,14.522,0,0,0,4.667-6.467c2.031-5.821-.766-13.2-6.531-15.381a12.782,12.782,0,0,0-12.963-14.187,9.533,9.533,0,0,0-11.475-10.374,2.087,2.087,0,0,1-2.8-1.012c-5.743-7.06-17.282-1.32-17.556,6.947a12.523,12.523,0,0,0,3.33,8.569c-.786,3.216-1,6.708.289,9.756s4.393,5.488,7.692,5.215a9.223,9.223,0,0,0,12.152,11.457,11.269,11.269,0,0,0,5.825,8,14.277,14.277,0,0,0,7.888,1.323,17.977,17.977,0,0,0,7.863-2.689c.974.737,2.178,1.49,2.892,2.179l9.185,8.861a1.45,1.45,0,0,0,.348.273c.632.313,1.345-.5,1.225-1.195" transform="translate(-19.248 -105.473)" fill="#60661e"/>
            <path id="Trazado_874624" data-name="Trazado 874624" d="M114.36,374.1c.632.313,1.345-.5,1.225-1.195a2.862,2.862,0,0,0-1.277-1.62c-3.853-2.932-8.037-5.658-10.757-9.652a14.521,14.521,0,0,0,4.667-6.467c2.031-5.821-.765-13.2-6.531-15.381a12.465,12.465,0,0,0,.075-1.351,27.784,27.784,0,0,1-9.856,4.454,23.825,23.825,0,0,1-8.286,1.154,9.78,9.78,0,0,1-7.244-3.722c-3.838,2.066-9.636,3.367-13.9,1.835-.122-.044-.237-.095-.352-.147a7.5,7.5,0,0,0,6.079,2.69,9.223,9.223,0,0,0,12.152,11.457,11.268,11.268,0,0,0,5.825,8,14.277,14.277,0,0,0,7.887,1.323,17.977,17.977,0,0,0,7.863-2.689c.974.737,2.178,1.49,2.892,2.179l9.185,8.861a1.449,1.449,0,0,0,.348.273" transform="translate(-22.149 -120.656)" fill="#60661e"/>
            <path id="Trazado_874625" data-name="Trazado 874625" d="M102.351,348.2a.47.47,0,0,1-.378-.19c-9.118-12.365-39.207-44.31-39.51-44.631a.469.469,0,1,1,.681-.643c.3.322,30.431,32.308,39.583,44.718a.469.469,0,0,1-.377.747" transform="translate(-22.223 -107.874)" fill="#848c29"/>
            <path id="Trazado_874626" data-name="Trazado 874626" d="M62.771,332.525a.312.312,0,0,1-.066-.618l15.3-3.286a.312.312,0,0,1,.131.611l-15.3,3.286a.3.3,0,0,1-.066.007" transform="translate(-22.267 -117.154)" fill="#848c29"/>
            <path id="Trazado_874627" data-name="Trazado 874627" d="M89.6,323.582a.321.321,0,0,1-.069-.008.312.312,0,0,1-.236-.374l3.574-15.749a.312.312,0,1,1,.609.138l-3.574,15.749a.312.312,0,0,1-.3.243" transform="translate(-31.832 -109.523)" fill="#848c29"/>
            <path id="Trazado_874628" data-name="Trazado 874628" d="M58.946,315.185a.312.312,0,0,1-.084-.613l8-2.245a.312.312,0,1,1,.169.6l-8,2.245a.325.325,0,0,1-.085.012" transform="translate(-20.904 -111.344)" fill="#848c29"/>
            <path id="Trazado_874629" data-name="Trazado 874629" d="M75.062,310.66h-.011a.313.313,0,0,1-.3-.323l.337-9.715a.318.318,0,0,1,.323-.3.313.313,0,0,1,.3.323l-.337,9.715a.313.313,0,0,1-.312.3" transform="translate(-26.649 -107.067)" fill="#848c29"/>
            <path id="Trazado_874630" data-name="Trazado 874630" d="M75.936,353.872a.313.313,0,0,1-.124-.6l16.98-7.334a.313.313,0,1,1,.248.574l-16.981,7.335a.321.321,0,0,1-.124.025" transform="translate(-26.96 -123.322)" fill="#848c29"/>
            <path id="Trazado_874631" data-name="Trazado 874631" d="M104.427,340.926a.307.307,0,0,1-.116-.023.312.312,0,0,1-.174-.406l6.017-14.991a.312.312,0,0,1,.58.232l-6.017,14.991a.313.313,0,0,1-.29.2" transform="translate(-37.118 -115.977)" fill="#848c29"/>
            <path id="Trazado_874632" data-name="Trazado 874632" d="M97.894,365.892a.312.312,0,0,1-.106-.606L109.2,361.16a.313.313,0,0,1,.212.589L98,365.874a.322.322,0,0,1-.106.018" transform="translate(-34.789 -128.751)" fill="#848c29"/>
            <path id="Trazado_874633" data-name="Trazado 874633" d="M118.663,358.782a.313.313,0,0,1-.282-.446c1.786-3.766,5.212-11.012,5.4-11.485a.312.312,0,0,1,.58.23c-.242.611-5.2,11.077-5.416,11.523a.312.312,0,0,1-.283.178" transform="translate(-42.193 -123.586)" fill="#848c29"/>
            <path id="Trazado_874634" data-name="Trazado 874634" d="M105.442,309.858a75.81,75.81,0,0,1-8.865-1.47.312.312,0,0,1,.132-.611c2.114.457,7.852,1.605,8.99,1.443a.308.308,0,0,1,.353.264.312.312,0,0,1-.265.354,2.576,2.576,0,0,1-.344.019" transform="translate(-34.343 -109.723)" fill="#848c29"/>
            <path id="Trazado_874635" data-name="Trazado 874635" d="M109.176,303.508a.312.312,0,0,1-.246-.5l3.723-4.757a.312.312,0,1,1,.492.385l-3.723,4.756a.311.311,0,0,1-.246.12" transform="translate(-38.811 -106.285)" fill="#848c29"/>
            <path id="Trazado_874636" data-name="Trazado 874636" d="M135.875,352.99a15.024,15.024,0,0,0-2.633-1.465,11.729,11.729,0,0,1-4.578-5.031l-.042-.083a13.234,13.234,0,0,0,6.505-9.049,14.187,14.187,0,0,0-4.274-12.624,11.406,11.406,0,0,0-5.436-15.825,10.977,10.977,0,0,0-1.755-7.89,6.879,6.879,0,0,0-7.289-2.676,8.922,8.922,0,0,0-8.835-8.45c-5.711.17-9.814,6.816-9.147,12.1a3.5,3.5,0,0,1-.05,1.879,3.34,3.34,0,0,1-.712.9c-4.755,4.892-4.123,13.664,2.564,16.827a4.252,4.252,0,0,1,1.7,1.083,3.728,3.728,0,0,1,.416,2.454c-.182,3.9.68,8.241,3.806,10.581.918.688,1.984,1.162,2.892,1.864,2.086,1.612,3.111,4.221,4.817,6.23a12.147,12.147,0,0,0,12.629,3.537c.2-.063.4-.134.6-.208.324.332.6.613.758.794a80.4,80.4,0,0,0,7.228,7.459c.487.441,1.352.836,1.69.272a2.374,2.374,0,0,0-.853-2.674" transform="translate(-33.703 -103.35)" fill="#ad9f27"/>
            <path id="Trazado_874637" data-name="Trazado 874637" d="M134.619,315.695c-.006-.019-.012-.038-.018-.057a11.558,11.558,0,0,0-6.173-6.726,10.978,10.978,0,0,0-1.755-7.89,6.876,6.876,0,0,0-7.288-2.676,8.922,8.922,0,0,0-8.835-8.45c-3.225.1-5.936,2.257-7.567,5.071a15.422,15.422,0,0,0,.864,2.585,26.814,26.814,0,0,0,5.378,7.533,14.333,14.333,0,0,0,4.322,3.488,21.829,21.829,0,0,1,2.394,1.042,13.254,13.254,0,0,1,2.634,2.6,14.8,14.8,0,0,0,16.044,3.481" transform="translate(-36.714 -103.35)" fill="#bfae2b"/>
            <path id="Trazado_874638" data-name="Trazado 874638" d="M134.007,346.924a.469.469,0,0,1-.429-.279c-.06-.135-6.042-13.572-10.945-23.787-4.925-10.262-9.293-26.391-9.336-26.552a.469.469,0,1,1,.905-.244c.043.161,4.389,16.208,9.276,26.39,4.91,10.228,10.9,23.678,10.957,23.813a.469.469,0,0,1-.237.619.478.478,0,0,1-.19.04" transform="translate(-40.386 -105.425)" fill="#848c29"/>
            <path id="Trazado_874639" data-name="Trazado 874639" d="M123.477,319.778a.312.312,0,0,1-.118-.6c4.38-1.792,8.068-10.093,8.1-10.177a.312.312,0,1,1,.572.252c-.154.351-3.826,8.616-8.44,10.5a.32.32,0,0,1-.118.023" transform="translate(-43.909 -110.095)" fill="#848c29"/>
            <path id="Trazado_874640" data-name="Trazado 874640" d="M112.25,327.975a69.622,69.622,0,0,1-13.591-1.834.313.313,0,0,1,.146-.608c.1.025,10.354,2.461,16.222,1.649a.312.312,0,1,1,.085.619,21.175,21.175,0,0,1-2.862.174" transform="translate(-35.088 -116.053)" fill="#848c29"/>
            <path id="Trazado_874641" data-name="Trazado 874641" d="M131.512,337.982a.313.313,0,0,1-.128-.6c5.441-2.418,10.982-10.36,11.038-10.439a.312.312,0,0,1,.514.355c-.23.333-5.7,8.167-11.3,10.655a.3.3,0,0,1-.126.027" transform="translate(-46.774 -116.511)" fill="#848c29"/>
            <path id="Trazado_874642" data-name="Trazado 874642" d="M116.118,352.986a39.3,39.3,0,0,1-5.87-.416.312.312,0,1,1,.106-.616c.084.014,8.482,1.4,15.354-1.021a.312.312,0,0,1,.208.589,30.168,30.168,0,0,1-9.8,1.464" transform="translate(-39.212 -125.105)" fill="#848c29"/>
            <path id="Trazado_874643" data-name="Trazado 874643" d="M141.154,360.981A.312.312,0,0,1,141,360.4c4.019-2.21,7.913-8.31,7.952-8.372a.313.313,0,0,1,.528.335c-.162.256-4.021,6.3-8.179,8.585a.308.308,0,0,1-.15.039" transform="translate(-50.211 -125.448)" fill="#848c29"/>
            <path id="Trazado_874644" data-name="Trazado 874644" d="M132.446,369.3a38.321,38.321,0,0,1-8.08-1.059.313.313,0,0,1-.228-.379.309.309,0,0,1,.379-.227c.074.019,7.41,1.824,11.416.624a.312.312,0,1,1,.18.6,13.052,13.052,0,0,1-3.666.443" transform="translate(-44.253 -131.062)" fill="#848c29"/>
            <path id="Trazado_874645" data-name="Trazado 874645" d="M181.567,309.726c2.533.19,4.578,2.058,6.9,3.094,3.32,1.483,7.338,1.3,10.289,3.425,2.75,1.978,3.9,5.486,4.537,8.813a49.809,49.809,0,0,1,.213,17.559c-.35,2.094-1.234,4.573-3.324,4.943a5.385,5.385,0,0,1-3.577-1.107,95.29,95.29,0,0,1-16.565-12.758c-5.344-5.145-10.38-11.8-9.681-19.182a3.916,3.916,0,0,1,.791-2.281c.894-1,3.489-.866,4.721-1.176,1.911-.482,3.664-1.481,5.7-1.328" transform="translate(-60.71 -110.415)" fill="#60661e"/>
            <path id="Trazado_874646" data-name="Trazado 874646" d="M110.8,363.677s-4.41-3.3-7.477-14.7,1.7-22.961,1.7-22.961c-1.928-6.66,6.109-14.629,10.34-13.944,5.891-6.64,15.972-7.011,18.88-6.051,7.564-4.1,21.493-3.623,25.02,9.112l-32.477,36.324Z" transform="translate(-36.47 -108.282)" fill="#757c24"/>
            <path id="Trazado_874647" data-name="Trazado 874647" d="M143.152,316.971a10.746,10.746,0,0,1,11.679-4.349c6.851-4.52,14.224-1,15.308,4.484.145,5.6-7.907,8.724-7.907,8.724l-12.749-1.316Z" transform="translate(-51.035 -110.716)" fill="#ad9f27"/>
            <path id="Trazado_874648" data-name="Trazado 874648" d="M160.375,320.452s10.767-4.6,19.415-3.218,13.861,6.425,15.192,8.571c2.764.391,10.185,10.807,8.129,18.475,2.916,8.408.728,15.321-1.356,18.332-2.179,9.334-9.257,14.4-17.829,14.507-10.392-13.057-22.624-56.6-23.55-56.666" transform="translate(-57.175 -113.005)" fill="#757c24"/>
            <path id="Trazado_874649" data-name="Trazado 874649" d="M201.555,333.716c-1.986-4.295-5.018-7.692-6.573-7.912-1.331-2.146-6.544-7.186-15.191-8.571s-19.415,3.218-19.415,3.218c.237.017,1.213,2.878,2.708,7.343a6.953,6.953,0,0,1,.651.333,49.164,49.164,0,0,1,5.838,4.646,23.656,23.656,0,0,0,9.078,4.8,14.776,14.776,0,0,0,10.1-.879,16.161,16.161,0,0,1,2.568-1.218,9.105,9.105,0,0,1,2.222-.283,24.414,24.414,0,0,0,6.134-.66,8.437,8.437,0,0,0,1.88-.822" transform="translate(-57.175 -113.005)" fill="#848c29"/>
            <path id="Trazado_874650" data-name="Trazado 874650" d="M193.163,378.426a.548.548,0,0,1-.429-.889c.083-.1,8.16-10.608,2.4-30.79s-16.865-25.081-16.977-25.128a.548.548,0,0,1,.422-1.011c.476.2,11.692,5.091,17.609,25.837,5.923,20.765-2.248,31.333-2.6,31.773a.546.546,0,0,1-.428.207" transform="translate(-63.396 -114.285)" fill="#ad9f27"/>
            <path id="Trazado_874651" data-name="Trazado 874651" d="M190.816,328.022a.368.368,0,0,1-.351-.261,12.386,12.386,0,0,1-.364-3.391c-.008-.487-.014-.974-.047-1.457-.088-1.317-.469-3.064-1.777-3.916a.364.364,0,0,1,.4-.611c1.562,1.015,2.01,3,2.11,4.477.033.5.04,1,.048,1.5a11.633,11.633,0,0,0,.335,3.192.366.366,0,0,1-.351.47" transform="translate(-67.064 -113.487)" fill="#ad9f27"/>
            <path id="Trazado_874652" data-name="Trazado 874652" d="M201.526,341.608a.366.366,0,0,1-.348-.257,6.223,6.223,0,0,1-.1-3.374,12.04,12.04,0,0,1,1.329-2.949,17.118,17.118,0,0,0,.965-1.889,8.413,8.413,0,0,0-.409-7.092.365.365,0,1,1,.64-.353,9.038,9.038,0,0,1,.446,7.723,17.82,17.82,0,0,1-1.006,1.971,11.282,11.282,0,0,0-1.255,2.767,5.575,5.575,0,0,0,.087,2.979.364.364,0,0,1-.239.458.341.341,0,0,1-.109.017" transform="translate(-71.62 -116.046)" fill="#ad9f27"/>
            <path id="Trazado_874653" data-name="Trazado 874653" d="M207.328,359.968a.366.366,0,0,1-.362-.317c-.584-4.325,2.817-8.261,4.306-9.753.334-.335.68-.658,1.025-.983a17.908,17.908,0,0,0,2.245-2.38,4.945,4.945,0,0,0,1.051-4.139.365.365,0,0,1,.254-.45.359.359,0,0,1,.45.254,5.656,5.656,0,0,1-1.165,4.768,18.409,18.409,0,0,1-2.334,2.48c-.34.319-.681.638-1.008.965-1.412,1.415-4.64,5.137-4.1,9.139a.367.367,0,0,1-.313.412.418.418,0,0,1-.049,0" transform="translate(-73.762 -121.902)" fill="#ad9f27"/>
            <path id="Trazado_874654" data-name="Trazado 874654" d="M208.084,386.207a.327.327,0,0,1-.064-.006.364.364,0,0,1-.295-.423,14.322,14.322,0,0,1,2.235-6.12,16.223,16.223,0,0,1,4.461-3.71c.393-.254.788-.509,1.172-.77,2.506-1.7,3.831-3.342,4.173-5.172a.362.362,0,0,1,.426-.293.366.366,0,0,1,.293.426c-.38,2.036-1.8,3.829-4.481,5.644-.39.264-.787.521-1.186.778a15.707,15.707,0,0,0-4.27,3.531,13.718,13.718,0,0,0-2.1,5.815.365.365,0,0,1-.359.3" transform="translate(-74.054 -131.803)" fill="#ad9f27"/>
            <path id="Trazado_874655" data-name="Trazado 874655" d="M199,385.644l-.039,0a.366.366,0,0,1-.324-.4,9.46,9.46,0,0,0-4.107-8.725,19.331,19.331,0,0,0-2.873-1.452c-.536-.234-1.071-.467-1.594-.726a18.771,18.771,0,0,1-6.006-4.714.365.365,0,1,1,.559-.47,18.041,18.041,0,0,0,5.77,4.528c.513.253,1.038.483,1.562.712a19.679,19.679,0,0,1,2.983,1.512,10.206,10.206,0,0,1,4.432,9.414.366.366,0,0,1-.364.326" transform="translate(-65.586 -131.56)" fill="#ad9f27"/>
            <path id="Trazado_874656" data-name="Trazado 874656" d="M198.2,361.765a.364.364,0,0,1-.362-.323c-.42-3.532-3.183-4.826-6.223-5.942-.361-.133-.726-.261-1.092-.39a18.95,18.95,0,0,1-5.478-2.625,9.639,9.639,0,0,1-3.424-5.3.365.365,0,0,1,.71-.172,8.9,8.9,0,0,0,3.164,4.892,18.37,18.37,0,0,0,5.272,2.512c.368.13.735.26,1.1.393,3.133,1.149,6.23,2.6,6.7,6.542a.364.364,0,0,1-.32.405.315.315,0,0,1-.042,0" transform="translate(-64.745 -123.616)" fill="#ad9f27"/>
            <path id="Trazado_874657" data-name="Trazado 874657" d="M188.84,342.233a.366.366,0,0,1-.29-.144l-1.187-1.548a6.311,6.311,0,0,0-.976-1.089c-1.44-1.167-3.62-.764-5.544-.407l-.108.02a17.166,17.166,0,0,1-5.91.238,8.02,8.02,0,0,1-5.152-2.971.366.366,0,1,1,.592-.431,7.277,7.277,0,0,0,4.685,2.681,16.365,16.365,0,0,0,5.652-.236l.108-.019c2.08-.385,4.438-.82,6.138.558a6.954,6.954,0,0,1,1.1,1.212l1.188,1.55a.366.366,0,0,1-.29.588" transform="translate(-60.465 -119.699)" fill="#ad9f27"/>
            <path id="Trazado_874658" data-name="Trazado 874658" d="M182.564,329.793a.364.364,0,0,1-.3-.152,4.863,4.863,0,0,0-2.891-1.82,6.68,6.68,0,0,0-3.515.245c-.248.082-.5.173-.746.266a5.811,5.811,0,0,1-3.36.527,6.859,6.859,0,0,1-1.7-.721l-.37-.2a.365.365,0,0,1,.337-.649l.38.2a6.218,6.218,0,0,0,1.515.653,5.178,5.178,0,0,0,2.945-.5c.258-.1.514-.19.77-.275a7.423,7.423,0,0,1,3.9-.264,5.6,5.6,0,0,1,3.328,2.106.366.366,0,0,1-.3.58" transform="translate(-60.425 -116.564)" fill="#ad9f27"/>
            <path id="Trazado_874659" data-name="Trazado 874659" d="M113.38,331.539s-7.8,7.243-2.111,18.462c0,0-2.868,5.9.148,15.54s9.724,14.607,22.974,16.7,29.36-1.738,32.884-4.084,1.3-14.986-2.573-18.064c2.6-10.047.506-16.906-5.941-20.361-2.113-11.7-8.266-21.651-25.316-22.725s-20.065,14.527-20.065,14.527" transform="translate(-38.929 -112.999)" fill="#ad9f27"/>
            <path id="Trazado_874660" data-name="Trazado 874660" d="M167.859,349a12.63,12.63,0,0,0-6.731-9.26c-2.113-11.7-8.266-21.65-25.316-22.725-15.482-.976-19.392,11.8-19.98,14.156a14.694,14.694,0,0,0,1.606,5.185,13.566,13.566,0,0,0,8.887,7.077,6.073,6.073,0,0,1,1.581.472,5.985,5.985,0,0,1,1.769,1.887c3.829,5.176,10.626,7.19,17.032,7.831,7.36.736,15.325-.106,21.152-4.624" transform="translate(-41.295 -112.999)" fill="#bfae2b"/>
            <path id="Trazado_874661" data-name="Trazado 874661" d="M161.083,357.453a.366.366,0,0,0-.291-.427.358.358,0,0,0-.427.292c-.68,3.595-3.037,7.164-6.818,10.324a67.983,67.983,0,0,1-6.41,4.56c-1.364.893-2.775,1.817-4.122,2.789a12.1,12.1,0,0,0-3.3,3.185,6.978,6.978,0,0,0-1.037,3.268,48.542,48.542,0,0,1-7.787-14.54c.012-.035.042-.062.041-.1a9,9,0,0,1,3.333-6.5,29.846,29.846,0,0,1,5.226-3.479c.428-.244.856-.487,1.281-.735,7.078-4.133,11.492-8.756,13.491-14.132a.366.366,0,1,0-.686-.255c-1.937,5.212-6.247,9.712-13.175,13.757-.421.247-.847.489-1.273.732a30.4,30.4,0,0,0-5.351,3.569,10.487,10.487,0,0,0-3.409,5.539,60.959,60.959,0,0,1-2.434-13.24c-.223-2.966-.328-5.66-.361-8.138A4.558,4.558,0,0,1,129.619,342c.755-.442,1.518-.871,2.283-1.3a40.4,40.4,0,0,0,7.421-4.914c3.326-2.994,5.075-6.871,4.679-10.369a.353.353,0,0,0-.4-.32.363.363,0,0,0-.321.4c.369,3.264-1.291,6.907-4.443,9.742a39.815,39.815,0,0,1-7.29,4.82c-.768.431-1.536.862-2.294,1.306a7.61,7.61,0,0,0-1.694,1.272c-.036-12.024,1.817-17.933,1.84-18a.547.547,0,0,0-.351-.69.541.541,0,0,0-.69.352,47.707,47.707,0,0,0-1.591,9.836,17.727,17.727,0,0,0-2.349-2.416c-.21-.19-.419-.379-.624-.569-1.867-1.735-2.719-3.241-2.683-4.743a.364.364,0,0,0-.356-.373h-.009a.365.365,0,0,0-.364.357c-.057,2.267,1.635,4.108,2.914,5.3.207.192.419.384.631.575a12.976,12.976,0,0,1,2.746,3.069,118.944,118.944,0,0,0,.174,16.812c.023.3.06.584.086.882a13.326,13.326,0,0,0-4.2-2.912c-.355-.171-.715-.338-1.075-.506a15.993,15.993,0,0,1-4.854-2.992c-1.613-1.65-2.43-3.988-3.151-6.051a.365.365,0,1,0-.69.24c.746,2.136,1.592,4.555,3.319,6.322a16.521,16.521,0,0,0,5.067,3.143c.357.166.714.331,1.067.5a10.836,10.836,0,0,1,4.654,3.637,58.679,58.679,0,0,0,3.839,15.7,14.129,14.129,0,0,0-4.289-1.386l-.12-.025a25.782,25.782,0,0,1-8.315-2.876,10.01,10.01,0,0,1-4.907-6.782.35.35,0,0,0-.412-.31.364.364,0,0,0-.31.412,10.594,10.594,0,0,0,5.248,7.3,26.453,26.453,0,0,0,8.549,2.97l.119.024a10.653,10.653,0,0,1,4.874,1.863.367.367,0,0,0-.113.458.488.488,0,0,0,.441.269c.017,0,.035,0,.053-.005a49.242,49.242,0,0,0,4.338,7.728,14.388,14.388,0,0,0-4.22-.237c-.562.024-1.124.059-1.67.045a16.256,16.256,0,0,1-10.114-3.657.365.365,0,0,0-.465.564,16.782,16.782,0,0,0,10.576,3.825c.588.008,1.133-.022,1.7-.046a10.48,10.48,0,0,1,4.938.555,45.451,45.451,0,0,0,3.767,4.526.548.548,0,1,0,.793-.755c-.667-.7-1.353-1.468-2.046-2.308a.347.347,0,0,0,.059-.159,6.254,6.254,0,0,1,.952-3.528,11.5,11.5,0,0,1,3.109-2.983c1.333-.962,2.737-1.88,4.095-2.77a68.636,68.636,0,0,0,6.479-4.609c3.911-3.271,6.356-6.988,7.068-10.75" transform="translate(-40.124 -115.479)" fill="#e1c77c"/>
            <path id="Trazado_874662" data-name="Trazado 874662" d="M186.954,398.226a.365.365,0,0,0-.481.19,23.44,23.44,0,0,1-11.681,11.912.366.366,0,0,0,.152.7.37.37,0,0,0,.152-.033,24.179,24.179,0,0,0,12.048-12.287.366.366,0,0,0-.19-.481" transform="translate(-62.239 -141.961)" fill="#e1c77c"/>
            <path id="Trazado_874663" data-name="Trazado 874663" d="M215.908,358.24c.357-4.293-1.549-8.482-1.562-12.79-.01-3.391,1.15-6.817.385-10.121-1-4.315-5.122-7.627-5.289-12.052a13.447,13.447,0,0,1,9.9,12.034,7.652,7.652,0,0,0,.335,2.559,7.89,7.89,0,0,0,1.638,2.122,12.074,12.074,0,0,1,2.433,11.668,22.242,22.242,0,0,0-1.014,3.067,17.525,17.525,0,0,0,.2,4.555,17.619,17.619,0,0,1-2.744,10.6,13.931,13.931,0,0,1-3.719,4.139c-.632.429-5.243,2.031-5.269,2.264a37.482,37.482,0,0,1,1.364-7.6c1.168-3.459,3.033-6.741,3.342-10.441" transform="translate(-74.668 -115.252)" fill="#ad9f27"/>
            <path id="Trazado_874664" data-name="Trazado 874664" d="M227.453,360.209a.339.339,0,0,1-.043,0,.477.477,0,0,1-.389-.328.438.438,0,0,1,.037-.3,7.357,7.357,0,0,0-3.287-1.828c-.229-.08-.458-.162-.681-.245-2.174-.81-3.459-2.075-3.62-3.562a.367.367,0,0,1,.324-.4.372.372,0,0,1,.4.324c.174,1.616,2.046,2.545,3.148,2.955.221.083.445.162.671.242a7.4,7.4,0,0,1,3.764,2.244.589.589,0,0,1,.077.7.545.545,0,0,1-.4.2m-.239-.429h0Z" transform="translate(-78.243 -126.042)" fill="#e1c77c"/>
            <path id="Trazado_874665" data-name="Trazado 874665" d="M220.52,336.441a.366.366,0,0,1-.34-.23c-.458-1.154-1.69-1.649-2.993-2.173a8.508,8.508,0,0,1-2.8-1.553.365.365,0,0,1,.5-.529,8,8,0,0,0,2.569,1.405c1.389.558,2.826,1.134,3.4,2.579a.366.366,0,0,1-.2.475.358.358,0,0,1-.135.026" transform="translate(-76.39 -118.31)" fill="#e1c77c"/>
            <path id="Trazado_874666" data-name="Trazado 874666" d="M226.462,386.17a.366.366,0,0,1-.26-.109c-1.6-1.627-3.178-3.327-4.674-5.052a.365.365,0,1,1,.553-.478c1.486,1.713,3.048,3.4,4.641,5.017a.366.366,0,0,1-.26.622" transform="translate(-78.945 -135.618)" fill="#e1c77c"/>
            <path id="Trazado_874667" data-name="Trazado 874667" d="M251.537,375.145c0,12.218-10.319,22.123-23.048,22.123s-23.049-9.905-23.049-22.123,10.319-22.123,23.049-22.123,23.048,9.905,23.048,22.123" transform="translate(-73.242 -125.856)" fill="#e07f1f"/>
            <path id="Trazado_874668" data-name="Trazado 874668" d="M234.946,353.023a23.71,23.71,0,0,0-10.962,2.658,19.391,19.391,0,0,0,.426,9.758c1.787,5.588,6.057,10.155,11.083,13.181a32.7,32.7,0,0,0,15.3,4.631,18.387,18.387,0,0,0,5.834-.6,21.278,21.278,0,0,0,1.362-7.508c0-12.219-10.318-22.123-23.048-22.123" transform="translate(-79.698 -125.856)" fill="#e69623"/>
            <path id="Trazado_874669" data-name="Trazado 874669" d="M254.634,361.011a1.616,1.616,0,1,1-1.557-1.183,1.409,1.409,0,0,1,1.557,1.183" transform="translate(-89.67 -128.283)" fill="#734d3a"/>
            <path id="Trazado_874670" data-name="Trazado 874670" d="M245.907,360.982a5.34,5.34,0,0,1,5.933,4.2l-.179-.36" transform="translate(-87.668 -128.678)" fill="none" stroke="#c1571f" stroke-linecap="round" stroke-linejoin="round" stroke-width="1"/>
            <path id="Trazado_874671" data-name="Trazado 874671" d="M253.665,363.479a6.043,6.043,0,0,1,3.874-1.124.071.071,0,1,1-.082,0" transform="translate(-90.434 -129.18)" fill="none" stroke="#c1571f" stroke-linecap="round" stroke-linejoin="round" stroke-width="1"/>
            <path id="Trazado_874672" data-name="Trazado 874672" d="M220.963,361.066l-.077.077a.553.553,0,0,0,.782.782l.077-.077a.553.553,0,0,0-.782-.782l-.077.077a.553.553,0,0,0,.782.782l.077-.077a.553.553,0,0,0-.782-.782" transform="translate(-78.69 -128.666)" fill="#e69623"/>
            <path id="Trazado_874673" data-name="Trazado 874673" d="M216.568,365.5a.553.553,0,0,0,0-1.106.553.553,0,0,0,0,1.106" transform="translate(-77.018 -129.909)" fill="#e69623"/>
            <path id="Trazado_874674" data-name="Trazado 874674" d="M218.7,370.142a.553.553,0,0,0,0-1.106.553.553,0,0,0,0,1.106" transform="translate(-77.778 -131.565)" fill="#e69623"/>
            <path id="Trazado_874675" data-name="Trazado 874675" d="M221.215,365.882a.553.553,0,0,0,0-1.106.553.553,0,0,0,0,1.106" transform="translate(-78.675 -130.047)" fill="#e69623"/>
            <path id="Trazado_874676" data-name="Trazado 874676" d="M221.661,369.318a.443.443,0,0,0,0-.885.443.443,0,0,0,0,.885" transform="translate(-78.872 -131.35)" fill="#e69623"/>
            <path id="Trazado_874677" data-name="Trazado 874677" d="M214.885,371.254a.443.443,0,0,0,0-.885.443.443,0,0,0,0,.885" transform="translate(-76.456 -132.04)" fill="#e69623"/>
            <path id="Trazado_874678" data-name="Trazado 874678" d="M222.629,375.127a.443.443,0,0,0,0-.885.443.443,0,0,0,0,.885" transform="translate(-79.217 -133.421)" fill="#e69623"/>
            <path id="Trazado_874679" data-name="Trazado 874679" d="M225.92,364.561a.443.443,0,0,0,0,.885.443.443,0,0,0,0-.885" transform="translate(-80.391 -129.97)" fill="#e07f1f"/>
            <path id="Trazado_874680" data-name="Trazado 874680" d="M225.146,358.946a.443.443,0,0,0,0,.885.443.443,0,0,0,0-.885" transform="translate(-80.115 -127.968)" fill="#e07f1f"/>
            <path id="Trazado_874681" data-name="Trazado 874681" d="M229.018,357.01a.443.443,0,0,0,0,.885.443.443,0,0,0,0-.885" transform="translate(-81.495 -127.278)" fill="#e07f1f"/>
            <path id="Trazado_874682" data-name="Trazado 874682" d="M227.545,361.507a.664.664,0,0,0,0,1.328.664.664,0,0,0,0-1.328" transform="translate(-80.894 -128.881)" fill="#e07f1f"/>
            <path id="Trazado_874683" data-name="Trazado 874683" d="M232.385,356.666a.664.664,0,0,0,0,1.328.664.664,0,0,0,0-1.328" transform="translate(-82.619 -127.155)" fill="#e07f1f"/>
            <path id="Trazado_874684" data-name="Trazado 874684" d="M226.964,370.219a.664.664,0,0,0,0,1.328.664.664,0,0,0,0-1.328" transform="translate(-80.687 -131.987)" fill="#e07f1f"/>
            <path id="Trazado_874685" data-name="Trazado 874685" d="M229.018,366.691a.443.443,0,0,0,0,.885.443.443,0,0,0,0-.885" transform="translate(-81.495 -130.729)" fill="#e07f1f"/>
            <path id="Trazado_874686" data-name="Trazado 874686" d="M231.922,362.431a.443.443,0,0,0,0,.885.443.443,0,0,0,0-.885" transform="translate(-82.53 -129.211)" fill="#e07f1f"/>
            <path id="Trazado_874687" data-name="Trazado 874687" d="M61.719,370.358c-4.1,2.487-5.821,6.5-7.446,12.881-.743,2.918-.2,8.6,3.784,13.592,3.535,4.427,9.359,6.223,14.82,6.811a25.386,25.386,0,0,0,4.136-.08,13.112,13.112,0,0,0,6.3,1.135,12.28,12.28,0,0,0,5.589-1.8,18.212,18.212,0,0,0,14.931-12.737c1.529-5.1.8-7.287.156-9.783-1.443-5.589-6.074-10.177-11.305-12.616-5.569-2.6-10.406-2.2-16.251-1.4-5.409.739-9.775,1-14.711,3.993" transform="translate(-19.248 -130.398)" fill="#c5572c"/>
            <path id="Trazado_874688" data-name="Trazado 874688" d="M104.1,376.141a21.936,21.936,0,0,0-9.513-8.38c-5.569-2.6-10.405-2.2-16.251-1.4-5.409.739-9.775,1-14.711,3.993a12.369,12.369,0,0,0-4.282,4.339,10.09,10.09,0,0,0,4.606,1.54,25.114,25.114,0,0,0,6.626-.511,19.994,19.994,0,0,0,23.7,1.757,4.768,4.768,0,0,1,1.239-.674c1.258-.373,2.522.448,3.8.748a5.41,5.41,0,0,0,4.79-1.415" transform="translate(-21.157 -130.398)" fill="#c5572c"/>
            <path id="Trazado_874689" data-name="Trazado 874689" d="M93.7,352.507a.664.664,0,0,1,.856.246,1.85,1.85,0,0,1,.245.943c.205,2.931.2,6.476-.871,9.246-.6-.938-.414-2.566-.4-3.693.014-.849-.4-6.371.165-6.741" transform="translate(-33.299 -125.645)" fill="#734d3a"/>
            <path id="Trazado_874690" data-name="Trazado 874690" d="M67.144,359.375a35.459,35.459,0,0,1,12.5,4.408c-4.244-.037-8.762.728-12.365,2.974,4.735-.579,9.742-.729,14.477-1.308a9.835,9.835,0,0,1,1.41.018s.728.676,1.465,1.427a20.391,20.391,0,0,0,7.332,5.133l-5.959-6.543a58.678,58.678,0,0,1,15.131,5.233c-2.533-2.686-8.806-5.284-12.2-6.741,4.762.91,5.466.4,12.842,1.518-4.344-2.083-6.977-3.442-8.645-3.608a20.536,20.536,0,0,0-6.019.4,6.21,6.21,0,0,1-3,.146c-2.867-.976-5.45-2.408-8.572-2.957-2.8-.494-5.679.31-8.4-.1" transform="translate(-23.938 -128.098)" fill="#525519"/>
            <path id="Trazado_874691" data-name="Trazado 874691" d="M79.717,372.322a23.634,23.634,0,0,0-6.557,14.636,20.48,20.48,0,0,0,3.266,12.91,16.262,16.262,0,0,0,11.115,7.058A11.214,11.214,0,0,0,97.1,403.9" transform="translate(-26.062 -132.737)" fill="none" stroke="#8c442d" stroke-linecap="round" stroke-linejoin="round" stroke-width="1"/>
            <path id="Trazado_874692" data-name="Trazado 874692" d="M110.924,374.6c3.226,3.058,4.539,7.715,4.479,12.16s-.86,9.527-2.6,13.035" transform="translate(-39.546 -133.55)" fill="none" stroke="#8c442d" stroke-linecap="round" stroke-linejoin="round" stroke-width="1"/>
            <path id="Trazado_874693" data-name="Trazado 874693" d="M75.613,423.166a18.894,18.894,0,0,0,9.026.82" transform="translate(-26.957 -150.863)" fill="none" stroke="#c48d20" stroke-linecap="round" stroke-linejoin="round" stroke-width="1"/>
            <path id="Trazado_874694" data-name="Trazado 874694" d="M149.188,393.166S138.714,382.454,147.645,377c1.039-6.136,6.256-7.076,9.08-6.1a6.459,6.459,0,0,1,9.849-.945c4.087-3.294,12.372-.087,12.136,7.351-.262,8.226.729,11.844,1.551,17.442s1.929,10-2,11.3c-3.138,1.034-5,.1-5,.1a10.255,10.255,0,0,1-5.952,3.093,5.771,5.771,0,0,1-4.208-.875s-.263,2.663-3.615,2.392-4.662-2.306-6.507-9.017a35.417,35.417,0,0,0-3.79-8.565" transform="translate(-51.352 -131.232)" fill="#f2d637"/>
            <path id="Trazado_874695" data-name="Trazado 874695" d="M158.3,379.114s3.977-3.857,11.283-3.51l-.575,2.353s-5.532.026-8.321,2.428c0,0-1.205-1.38-2.387-1.272" transform="translate(-56.436 -133.899)" fill="#734d3a"/>
            <path id="Trazado_874696" data-name="Trazado 874696" d="M180.044,387.021c-.192.3-.4.593-.614.877a7.955,7.955,0,0,1-6.286,3.376,11.535,11.535,0,0,1-17.224,5.788,7.449,7.449,0,0,1-7.246-.068c-.156-.086-.429-.255-.772-.479a24.459,24.459,0,0,0,2.663,3.4,35.459,35.459,0,0,1,3.789,8.566c1.845,6.711,3.154,8.745,6.506,9.017s3.616-2.391,3.616-2.391a5.769,5.769,0,0,0,4.208.874,10.252,10.252,0,0,0,5.951-3.093s1.862.938,5-.1c3.931-1.3,2.822-5.7,2-11.3-.715-4.875-1.559-8.25-1.592-14.471" transform="translate(-52.729 -137.977)" fill="#edba37"/>
            <path id="Trazado_874697" data-name="Trazado 874697" d="M151.172,381.3a7.9,7.9,0,0,1,7.162.855" transform="translate(-53.894 -135.761)" fill="none" stroke="#c48d20" stroke-linecap="round" stroke-linejoin="round" stroke-width="1"/>
            <path id="Trazado_874698" data-name="Trazado 874698" d="M178.075,371.279a7.9,7.9,0,0,0-3.133,5.144" transform="translate(-62.369 -132.365)" fill="none" stroke="#c48d20" stroke-linecap="round" stroke-linejoin="round" stroke-width="1"/>
            <path id="Trazado_874699" data-name="Trazado 874699" d="M158.988,384.6a3.817,3.817,0,0,1,1.716-2.514,12.848,12.848,0,0,1,11.52-2" transform="translate(-56.681 -135.299)" fill="none" stroke="#c48d20" stroke-linecap="round" stroke-linejoin="round" stroke-width="1"/>
            <path id="Trazado_874700" data-name="Trazado 874700" d="M158.844,390.712c-.254,4.251,1.452,8.365,3.449,12.126s4.34,7.4,5.537,11.481" transform="translate(-56.621 -139.293)" fill="none" stroke="#c48d20" stroke-linecap="round" stroke-linejoin="round" stroke-width="1"/>
            <path id="Trazado_874701" data-name="Trazado 874701" d="M180.65,381.235c3.271,3.465,4.6,8.347,4.939,13.091s-.194,9.511-.085,14.267a.138.138,0,0,0,.091.124" transform="translate(-64.404 -135.914)" fill="none" stroke="#c48d20" stroke-linecap="round" stroke-linejoin="round" stroke-width="1"/>
            <path id="Trazado_874702" data-name="Trazado 874702" d="M163.691,372.148a1.925,1.925,0,0,1-2.253-1.295,15.178,15.178,0,0,0-2.739-5.385c-2.174-2.364-3.872-3.936-3.872-3.936s.077-1.66,4.4-2.6a3.8,3.8,0,0,1,3.393,1.051s2.506,6.3,2.593,10.244a1.931,1.931,0,0,1-1.523,1.925" transform="translate(-55.198 -127.933)" fill="#734d3a"/>
            <g id="Grupo_1099906" data-name="Grupo 1099906" transform="translate(14.341 9.483)" opacity="0.61" style="mix-blend-mode: multiply;isolation: isolate">
              <g id="Grupo_1099905" data-name="Grupo 1099905">
                <g id="Grupo_1099904" data-name="Grupo 1099904" clip-path="url(#clip-path)">
                  <rect id="Rectángulo_402129" data-name="Rectángulo 402129" width="118.967" height="132.762" transform="translate(0)" fill="#dde1a4"/>
                </g>
              </g>
            </g>
            <rect id="Rectángulo_402131" data-name="Rectángulo 402131" width="117.403" height="128.688" transform="translate(17.913 7.86)" fill="#fffdea"/>
            <path id="Trazado_874703" data-name="Trazado 874703" d="M27.838,7.978V141.566h119.1V7.978ZM142.592,137.217H32.187V12.327h110.4Z" transform="translate(-9.925 -2.844)" fill="#30169a"/>
            <path id="Trazado_874704" data-name="Trazado 874704" d="M119.248,5.312h-7.3V4.151a3.651,3.651,0,1,1,7.3,0Z" transform="translate(-39.91 -0.178)" fill="none" stroke="#969460" stroke-miterlimit="10" stroke-width="1"/>
            <path id="Trazado_874705" data-name="Trazado 874705" d="M74.447,33.977c-3.162-1.734-6.612-3.524-10.183-3.026a11.6,11.6,0,0,0-6.5,3.622A18.258,18.258,0,0,0,52.882,49.94c.662,4.16,2.759,7.954,3.8,12.036.941,3.7,1.017,7.66,2.625,11.125,2.931,6.315,10.136,9.458,14.269,15.06,2.748,3.725,4,8.362,6.6,12.2,6.581,9.742,25.247,17.431,36.6,12.618a91.845,91.845,0,0,1,8.833,13.271c1.627,2.767,3.327,5.595,5.869,7.554a6.636,6.636,0,0,0,3.454,1.516,3.433,3.433,0,0,0,3.266-1.564,3.685,3.685,0,0,0-.272-3.583,11.464,11.464,0,0,0-2.58-2.712A141.093,141.093,0,0,1,119.4,111.532c3.1-2.142,5.347-5.555,6.173-10.555A32.6,32.6,0,0,0,113.784,70.66c-2.808-2.2-6.006-3.953-8.437-6.567-2.988-3.213-4.569-7.454-6.92-11.158-5.522-8.7-14.942-14-23.98-18.958" transform="translate(-18.777 -11.004)" fill="#484a90"/>
            <path id="Trazado_874706" data-name="Trazado 874706" d="M118.947,111.235c-2.433-3.049-5.5-7.035-8.94-11.573,4.382-8.163,7.867-22.658,8.019-23.294a.764.764,0,0,0-.566-.918.756.756,0,0,0-.919.565c-.035.151-3.4,14.185-7.544,22.31-5.84-7.733-12.626-16.9-19.166-25.805,3.936-8.093,6.042-20.876,6.133-21.442a.763.763,0,1,0-1.506-.243c-.021.132-2.03,12.34-5.652,20.291-4.965-6.767-9.743-13.32-13.8-18.9a66.172,66.172,0,0,0,3.006-14.014.762.762,0,0,0-.686-.831.754.754,0,0,0-.832.687,68.183,68.183,0,0,1-2.584,12.649c-6.237-8.587-10.521-14.533-10.65-14.713a1.525,1.525,0,0,0-2.476,1.782c.116.161,3.521,4.886,8.663,11.974a51.016,51.016,0,0,1-13.759-1.445.762.762,0,1,0-.4,1.47,50.865,50.865,0,0,0,13.349,1.536c.62,0,1.274-.022,1.917-.036,4.9,6.753,11.161,15.344,17.628,24.144-8.833-.163-17.776-.584-25.412-1.207a5.041,5.041,0,0,0-.57-.035.8.8,0,0,0-.748.813.714.714,0,0,0,.773.708l.422.033c8,.652,17.433,1.086,26.671,1.232C95.959,86,102.728,95.118,108.406,102.6c-11.967.053-24.359-1.257-25.425-1.584a.763.763,0,0,0-.651,1.379c.907.463,13.63,1.734,25.375,1.734.622,0,1.232-.013,1.847-.021,2.656,3.484,5.042,6.565,7.011,9.032a1.524,1.524,0,1,0,2.383-1.9" transform="translate(-19.511 -12.611)" fill="#30169a"/>
          </g>
        </g>
      </g>
    </g>
  </g>
</svg>
