<svg xmlns="http://www.w3.org/2000/svg" width="89" height="89" viewBox="0 0 89 89">
  <g id="Grupo_1101079" data-name="Grupo 1101079" transform="translate(-283 -1681)">
    <rect id="Rect치ngulo_400898" data-name="Rect치ngulo 400898" width="89" height="89" rx="44.5" transform="translate(283 1681)" fill="#fff"/>
    <g id="Grupo_1099004" data-name="Grupo 1099004" transform="translate(0 85)">
      <rect id="Rect치ngulo_400907" data-name="Rect치ngulo 400907" width="89" height="89" rx="44.5" transform="translate(283 1596)" fill="none"/>
      <g id="churrasco" transform="translate(299 1612)">
        <path id="Trazado_873094" data-name="Trazado 873094" d="M48.754,8.365A28.566,28.566,0,0,0,.588,22.766a.837.837,0,0,0,1.639.338,26.911,26.911,0,1,1-.554,5.456c0-.567.018-1.14.053-1.7a.837.837,0,0,0-1.67-.1C.019,27.35,0,27.958,0,28.56A28.56,28.56,0,0,0,48.754,48.754a28.56,28.56,0,0,0,0-40.389Z" transform="translate(0)" fill="#30169a"/>
        <path id="Trazado_873095" data-name="Trazado 873095" d="M50.573,91.327A15.224,15.224,0,0,0,54.407,95.6a5.309,5.309,0,0,1,.692,2.865,5.305,5.305,0,0,0,4.049,5.384,8.474,8.474,0,0,1,3.319,1.723,6.183,6.183,0,0,0,3.912,1.4,6.26,6.26,0,0,0,1.159-.111,4.159,4.159,0,0,0,2.387.751A4.214,4.214,0,0,0,73.8,105a11.1,11.1,0,0,0,3.708.641,12.15,12.15,0,0,0,5.213-1.22A.837.837,0,0,0,82,102.912a10.169,10.169,0,0,1-8.219.31,96.2,96.2,0,0,1-13.354-5.8c-4.18-2.141-7.007-4.471-8.4-6.925a7.665,7.665,0,0,1-.123-7.487,15.674,15.674,0,0,1,7.6-7.257c3.361-1.562,6.807-1.862,9.456-.822,3.113,1.223,4.423,3.188,5.81,5.268,1.358,2.037,2.762,4.144,5.851,5.369,8.462,3.356,8.579,7.163,7.931,9.734a11.475,11.475,0,0,1-3.532,5.587.837.837,0,1,0,1.118,1.246,13.613,13.613,0,0,0,3.641-5.182,12.628,12.628,0,0,0,4.283-3.95,7.478,7.478,0,0,0,.575-7.663,6.129,6.129,0,0,0,1-3.31,6.227,6.227,0,0,0-.864-3.231,5.285,5.285,0,0,1-.61-3.851,5.305,5.305,0,0,0-3.052-6.005,8.473,8.473,0,0,1-2.97-2.273,6.222,6.222,0,0,0-6.7-1.823,12.188,12.188,0,0,0-5.132-2.186.837.837,0,1,0-.311,1.644,10.259,10.259,0,0,1,4.766,2.142c2.546,2.17,3.144,4.454,3.778,6.873.62,2.368,1.262,4.817,3.784,6.981,6.908,5.928,5.78,9.566,4.33,11.786A10.272,10.272,0,0,1,90.4,94.526a7.242,7.242,0,0,0-1.584-5.566l.465-.269a2.51,2.51,0,0,0-2.51-4.348l-2.16,1.247A27.862,27.862,0,0,0,81.688,84.2l1.61-.929a2.51,2.51,0,1,0-2.51-4.348l-3.471,2c-.4-.529-.773-1.084-1.149-1.649q-.191-.287-.389-.581L80.737,75.8a2.51,2.51,0,1,0-2.513-4.346l-5.885,3.43a11.931,11.931,0,0,0-2.682-1.48l2.509-1.449a2.51,2.51,0,1,0-2.51-4.348l-6.763,3.9a2.524,2.524,0,0,0-1.2,1.666,17.577,17.577,0,0,0-2.143.73,7.863,7.863,0,0,1,2.466-5.376,15.914,15.914,0,0,1,10.32-4.448.837.837,0,1,0-.1-1.671,17.625,17.625,0,0,0-11.425,4.953c-.082.084-.161.169-.239.254a8.092,8.092,0,0,0-9.782,7.91,8.033,8.033,0,0,0,1.164,4.181A14.8,14.8,0,0,0,50.39,82.3a9.349,9.349,0,0,0,.183,9.024Zm19.351,14.608a2.508,2.508,0,0,1-2.379-3.309c1.732.727,3.213,1.28,4.675,1.81A2.529,2.529,0,0,1,69.924,105.935Zm-3.919-3.973a4.172,4.172,0,0,0,.175,3.326,4.523,4.523,0,0,1-2.658-1.017,10.127,10.127,0,0,0-3.979-2.05,3.632,3.632,0,0,1-2.773-3.685,7.022,7.022,0,0,0-.065-1.308q1.359.864,2.962,1.686C62.184,100.2,64.233,101.178,66.005,101.962ZM87.5,76.68a15.544,15.544,0,0,1-1.292-3.626A1.954,1.954,0,0,1,88.5,74.977,1.942,1.942,0,0,1,87.5,76.68Zm1.923,2.356a8.734,8.734,0,0,1-.971-.973,3.625,3.625,0,0,0-2.685-6.626,12.507,12.507,0,0,0-2.819-5.212c.085-.009.17-.017.256-.021a4.523,4.523,0,0,1,3.677,1.566,10.128,10.128,0,0,0,3.562,2.71,3.632,3.632,0,0,1,2.09,4.111,6.952,6.952,0,0,0,.8,5.066,4.554,4.554,0,0,1,.631,2.363,4.46,4.46,0,0,1-.308,1.593A23.4,23.4,0,0,0,89.426,79.036ZM87.61,85.792a.837.837,0,1,1,.837,1.449l-.807.466a14,14,0,0,0-1.413-1.116Zm-5.986-5.424a.837.837,0,0,1,.837,1.449l-2.6,1.5a8.326,8.326,0,0,1-1.418-1.113Zm-2.561-7.463a.837.837,0,1,1,.834,1.451l-5.1,2.972a14.14,14.14,0,0,0-1.122-1.283Zm-8.572-3.844a.837.837,0,0,1,.837,1.449l-3.951,2.281a12.763,12.763,0,0,0-3.233-.066ZM52.465,75.535A6.422,6.422,0,0,1,58.88,69.12c.17,0,.339.007.507.021a8.962,8.962,0,0,0-1.5,5.555,18.4,18.4,0,0,0-4.78,3.645,6.379,6.379,0,0,1-.645-2.805Z" transform="translate(-43.819 -55.454)" fill="#30169a"/>
        <path id="Trazado_873096" data-name="Trazado 873096" d="M140.086,224.083a.837.837,0,0,0-1.18.087l-5.423,6.289a.837.837,0,1,1-1.261-1.1l9.208-10.68a.837.837,0,1,1,1.261,1.1l-1.235,1.432a.837.837,0,0,0,1.267,1.093l1.232-1.429a2.51,2.51,0,1,0-3.791-3.291l-9.208,10.68a2.493,2.493,0,0,0-.61,1.822,2.393,2.393,0,0,0,.857,1.719,2.594,2.594,0,0,0,3.543-.25l5.425-6.292a.837.837,0,0,0-.087-1.18Z" transform="translate(-115.801 -192.541)" fill="#30169a"/>
        <path id="Trazado_873097" data-name="Trazado 873097" d="M231.219,280.248A2.531,2.531,0,0,0,234.76,280l2.9-3.34a2.51,2.51,0,0,0-3.789-3.294l-2.9,3.34A2.513,2.513,0,0,0,231.219,280.248Zm1.015-2.443,2.9-3.34a.837.837,0,0,1,1.263,1.1l-2.9,3.34a.837.837,0,0,1-1.263-1.1Z" transform="translate(-204.658 -242.103)" fill="#30169a"/>
        <path id="Trazado_873098" data-name="Trazado 873098" d="M99.952,201.144a2.513,2.513,0,0,0-3.541.248l-5.123,5.894a2.51,2.51,0,0,0,3.789,3.293l5.123-5.894A2.513,2.513,0,0,0,99.952,201.144Zm-1.015,2.443-5.123,5.894a.837.837,0,0,1-1.263-1.1l5.123-5.894a.837.837,0,1,1,1.263,1.1Z" transform="translate(-80.556 -178.158)" fill="#30169a"/>
        <path id="Trazado_873099" data-name="Trazado 873099" d="M275.5,303.342a2.51,2.51,0,0,0-4.4-1.472l-6.587,7.578a2.493,2.493,0,0,0-.61,1.822,2.406,2.406,0,0,0,.857,1.719,2.584,2.584,0,0,0,3.541-.248l6.587-7.578A2.494,2.494,0,0,0,275.5,303.342Zm-1.873.724-6.587,7.578a.837.837,0,1,1-1.263-1.1l6.587-7.578a.837.837,0,1,1,1.263,1.1Z" transform="translate(-234.457 -267.428)" fill="#30169a"/>
        <path id="Trazado_873100" data-name="Trazado 873100" d="M196.7,188.091a.837.837,0,0,0-.837-.837h0a.837.837,0,1,0,.838.837Z" transform="translate(-173.265 -166.364)" fill="#30169a"/>
        <path id="Trazado_873101" data-name="Trazado 873101" d="M347.858,377.254a.837.837,0,1,0,.838.837.836.836,0,0,0-.838-.837Z" transform="translate(-308.308 -335.167)" fill="#30169a"/>
        <path id="Trazado_873102" data-name="Trazado 873102" d="M367.859,355.927a.837.837,0,1,0,0-1.673h0a.837.837,0,0,0,0,1.673Z" transform="translate(-326.077 -314.733)" fill="#30169a"/>
        <path id="Trazado_873103" data-name="Trazado 873103" d="M308.859,110.927a.837.837,0,1,0,0-1.673h0a.837.837,0,0,0,0,1.673Z" transform="translate(-273.659 -97.066)" fill="#30169a"/>
        <path id="Trazado_873104" data-name="Trazado 873104" d="M280.7,101.091a.837.837,0,0,0-.837-.837h0a.837.837,0,1,0,.838.837Z" transform="translate(-247.894 -89.07)" fill="#30169a"/>
        <path id="Trazado_873105" data-name="Trazado 873105" d="M219.658,361.866a.837.837,0,0,0,0-1.673h0a.837.837,0,0,0,0,1.673Z" transform="translate(-194.409 -320.01)" fill="#30169a"/>
        <path id="Trazado_873106" data-name="Trazado 873106" d="M201.667,337.275a.837.837,0,1,0,.838.837.836.836,0,0,0-.838-.837Z" transform="translate(-178.426 -299.648)" fill="#30169a"/>
        <path id="Trazado_873107" data-name="Trazado 873107" d="M185.659,361.337a.837.837,0,1,0,.838.837.836.836,0,0,0-.838-.837Z" transform="translate(-164.204 -321.026)" fill="#30169a"/>
      </g>
    </g>
  </g>
</svg>
