<svg xmlns="http://www.w3.org/2000/svg" width="85" height="85" viewBox="0 0 85 85">
  <g id="Grupo_1101067" data-name="Grupo 1101067" transform="translate(-619.098 -3620)">
    <g id="Grupo_1098883" data-name="Grupo 1098883" transform="translate(619.098 3620)">
      <g id="Grupo_1098742" data-name="Grupo 1098742">
        <rect id="Rect치ngulo_400898" data-name="Rect치ngulo 400898" width="85" height="85" rx="42.5" transform="translate(0)" fill="#30169a" opacity="0.859"/>
        <rect id="Rect치ngulo_400907" data-name="Rect치ngulo 400907" width="85" height="85" rx="42.5" fill="none"/>
      </g>
    </g>
    <g id="Grupo_1101066" data-name="Grupo 1101066" transform="translate(-15092.902 11644.262)">
      <g id="g991" transform="translate(15744.881 -7967.448)">
        <path id="path993" d="M-3.764-4.925a1.3,1.3,0,0,1-.73-.223c-.037-.025-3.761-2.537-8.3-5.823a1.306,1.306,0,0,1-.292-1.823,1.306,1.306,0,0,1,1.823-.292c3.324,2.407,6.2,4.392,7.5,5.277,1.29-.881,4.149-2.853,7.451-5.245a1.306,1.306,0,0,1,1.823.291,1.306,1.306,0,0,1-.291,1.823C.7-7.667-3-5.172-3.034-5.147A1.3,1.3,0,0,1-3.764-4.925Z" transform="translate(13.334 13.334)" fill="#fff"/>
      </g>
      <g id="g995" transform="translate(15727.084 -8006.261)">
        <path id="path997" d="M-524.938-224.092a1.306,1.306,0,0,1-1.191-.768,18.919,18.919,0,0,1-1.77-9.132c.426-8.9,6.892-15.878,14.72-15.878,6.061,0,10.7,3.595,12.619,5.366,1.975-1.755,6.747-5.366,12.577-5.366,7.828,0,14.294,6.974,14.72,15.877a18.908,18.908,0,0,1-1.77,9.131,1.306,1.306,0,0,1-1.728.651,1.306,1.306,0,0,1-.651-1.728,16.423,16.423,0,0,0,1.541-7.93c-.353-7.384-5.787-13.391-12.112-13.391-6.392,0-11.6,5.418-11.648,5.473a1.308,1.308,0,0,1-.97.409,1.306,1.306,0,0,1-.956-.438c-.047-.053-4.944-5.444-11.621-5.444-6.325,0-11.758,6.007-12.112,13.391a16.433,16.433,0,0,0,1.541,7.931,1.306,1.306,0,0,1-.652,1.728A1.3,1.3,0,0,1-524.938-224.092Z" transform="translate(527.924 249.869)" fill="#fff"/>
      </g>
      <path id="path999" d="M243.822-290.773h16.743a1.306,1.306,0,0,1,1.306,1.306v7.621a1.306,1.306,0,0,1-.382.923,1.306,1.306,0,0,1-.923.382H243.822a1.306,1.306,0,0,1-1.306-1.306v-7.621A1.306,1.306,0,0,1,243.822-290.773Zm15.437,2.612H245.128v5.01H259.26Z" transform="translate(15502.233 -7686.29)" fill="#fff"/>
      <g id="g1001" transform="translate(15721 -7977.062)">
        <path id="path1003" d="M-75.455-13.333h2.789a1.306,1.306,0,0,1,1.306,1.306v7.621A1.306,1.306,0,0,1-72.666-3.1h-2.789a5.114,5.114,0,0,1-5.1-5.116A5.114,5.114,0,0,1-75.455-13.333Zm1.483,2.612h-1.483a2.5,2.5,0,0,0-2.488,2.5,2.5,2.5,0,0,0,2.488,2.5h1.483Z" transform="translate(80.554 13.333)" fill="#fff"/>
      </g>
      <g id="g1005" transform="translate(15778.661 -7977.062)">
        <path id="path1007" d="M-40.506-13.333h2.789a5.114,5.114,0,0,1,5.1,5.116,5.114,5.114,0,0,1-5.1,5.116h-2.789a1.306,1.306,0,0,1-1.306-1.306v-7.621A1.306,1.306,0,0,1-40.506-13.333Zm2.789,7.621a2.5,2.5,0,0,0,2.488-2.5,2.5,2.5,0,0,0-2.488-2.5H-39.2v5.01Z" transform="translate(41.812 13.333)" fill="#fff"/>
      </g>
      <g id="g1009" transform="translate(15727.583 -7984.309)">
        <path id="path1011" d="M-51.56-214.414a5.613,5.613,0,0,1-5.6-5.616v-13.493a5.613,5.613,0,0,1,5.6-5.616,5.613,5.613,0,0,1,5.6,5.616v13.493A5.613,5.613,0,0,1-51.56-214.414Zm0-22.114a3,3,0,0,0-2.986,3v13.493a3,3,0,0,0,2.986,3,3,3,0,0,0,2.986-3v-13.493A3,3,0,0,0-51.56-236.528Z" transform="translate(57.157 239.139)" fill="#fff"/>
      </g>
      <g id="g1013" transform="translate(15736.167 -7986.125)">
        <path id="path1015" d="M-51.56-247.888a5.613,5.613,0,0,1-5.6-5.616v-17.127a5.613,5.613,0,0,1,5.6-5.616,5.613,5.613,0,0,1,5.6,5.616V-253.5A5.613,5.613,0,0,1-51.56-247.888Zm0-25.748a3,3,0,0,0-2.986,3V-253.5a3,3,0,0,0,2.986,3,3,3,0,0,0,2.986-3v-17.127A3,3,0,0,0-51.56-273.636Z" transform="translate(57.157 276.247)" fill="#fff"/>
      </g>
      <g id="g1017" transform="translate(15770.077 -7984.309)">
        <path id="path1019" d="M-51.56-13.333a5.613,5.613,0,0,1,5.6,5.616V5.776a5.613,5.613,0,0,1-5.6,5.616,5.613,5.613,0,0,1-5.6-5.616V-7.717A5.613,5.613,0,0,1-51.56-13.333Zm0,22.114a3,3,0,0,0,2.986-3V-7.717a3,3,0,0,0-2.986-3,3,3,0,0,0-2.986,3V5.776A3,3,0,0,0-51.56,8.781Z" transform="translate(57.157 13.333)" fill="#fff"/>
      </g>
      <g id="g1021" transform="translate(15761.493 -7986.125)">
        <path id="path1023" d="M-51.56-13.333a5.613,5.613,0,0,1,5.6,5.616V9.41a5.613,5.613,0,0,1-5.6,5.616,5.613,5.613,0,0,1-5.6-5.616V-7.717A5.613,5.613,0,0,1-51.56-13.333Zm0,25.748a3,3,0,0,0,2.986-3V-7.717a3,3,0,0,0-2.986-3,3,3,0,0,0-2.986,3V9.41A3,3,0,0,0-51.56,12.415Z" transform="translate(57.157 13.333)" fill="#fff"/>
      </g>
    </g>
  </g>
</svg>
