<svg xmlns="http://www.w3.org/2000/svg" width="85" height="85" viewBox="0 0 85 85">
  <g id="Grupo_1100075" data-name="Grupo 1100075" transform="translate(-309.195 -2873)">
    <g id="Grupo_1099880" data-name="Grupo 1099880" transform="translate(-400.804 -3088)">
      <rect id="Rect치ngulo_400898" data-name="Rect치ngulo 400898" width="85" height="85" rx="42.5" transform="translate(710 5961)" fill="#fff"/>
      <rect id="Rect치ngulo_400907" data-name="Rect치ngulo 400907" width="85" height="85" rx="42.5" transform="translate(710 5961)" fill="none"/>
    </g>
    <g id="Layer_x0020_1" transform="translate(325.195 2881)">
      <g id="_385810408" transform="translate(0 9)">
        <g id="Grupo_1100074" data-name="Grupo 1100074">
          <g id="_386553976" transform="translate(0 6.602)">
            <path id="Trazado_874996" data-name="Trazado 874996" d="M31.152,117.356H1.857A1.849,1.849,0,0,1,0,115.5V74.857A1.849,1.849,0,0,1,1.857,73h6.7a.775.775,0,0,1,.722.722.705.705,0,0,1-.722.722h-6.7a.444.444,0,0,0-.413.413V115.5a.444.444,0,0,0,.413.413h29.3a.722.722,0,0,1,0,1.444Zm5.57-29.3A.705.705,0,0,1,36,87.338V74.857a.444.444,0,0,0-.413-.413h-6.7a.705.705,0,0,1-.722-.722A.775.775,0,0,1,28.883,73h6.7a1.849,1.849,0,0,1,1.857,1.857V87.338A.705.705,0,0,1,36.723,88.06Z" transform="translate(0 -73)" fill="#30169a" fill-rule="evenodd"/>
          </g>
          <g id="_386553064" transform="translate(7.84)">
            <path id="Trazado_874997" data-name="Trazado 874997" d="M97.043,19.728H76.722A.705.705,0,0,1,76,19.006V13.745a.705.705,0,0,1,.722-.722h7.014V12.2a3.149,3.149,0,0,1,3.2-3.2,3.214,3.214,0,0,1,3.2,3.2c0,.309-.1.619-.1.825h7.014a.705.705,0,0,1,.722.722v5.261A.705.705,0,0,1,97.043,19.728Zm-19.6-1.444H96.321V14.467h-7.53a.691.691,0,0,1-.516-1.135,2.163,2.163,0,0,0,.413-1.135,1.808,1.808,0,0,0-1.754-1.754A1.739,1.739,0,0,0,85.181,12.2a2.079,2.079,0,0,0,.309,1.135.691.691,0,0,1-.516,1.135h-7.53Z" transform="translate(-76 -9)" fill="#30169a" fill-rule="evenodd"/>
          </g>
          <g id="_386553448" transform="translate(18.155 37.238)">
            <path id="Trazado_874998" data-name="Trazado 874998" d="M197.662,383.719H189a13.076,13.076,0,0,1-13-13,.705.705,0,0,1,.722-.722h33.215a.568.568,0,0,1,.516.206.788.788,0,0,1,.206.516A13.076,13.076,0,0,1,197.662,383.719Zm-20.218-12.275A11.685,11.685,0,0,0,189,382.275h8.665a11.685,11.685,0,0,0,11.553-10.831Z" transform="translate(-176 -370)" fill="#30169a" fill-rule="evenodd"/>
          </g>
          <g id="_386553880" transform="translate(23.891 42.871)">
            <path id="Trazado_874999" data-name="Trazado 874999" d="M238.868,429.082a9.663,9.663,0,0,1-7.118-3.3.733.733,0,0,1,1.135-.928,8.017,8.017,0,0,0,5.983,2.785.722.722,0,1,1,0,1.444Z" transform="translate(-231.606 -424.606)" fill="#30169a" fill-rule="evenodd"/>
          </g>
          <g id="_386554048" transform="translate(18.671 40.024)">
            <path id="Trazado_875000" data-name="Trazado 875000" d="M213.906,398.444H181.722a.722.722,0,0,1,0-1.444h32.184a.722.722,0,1,1,0,1.444Z" transform="translate(-181 -397)" fill="#30169a" fill-rule="evenodd"/>
          </g>
          <g id="Grupo_1100069" data-name="Grupo 1100069" transform="translate(4.023 12.997)">
            <g id="_386553280">
              <path id="Trazado_875001" data-name="Trazado 875001" d="M48.387,145.109H39.722a.705.705,0,0,1-.722-.722v-8.665a.705.705,0,0,1,.722-.722h8.665a.705.705,0,0,1,.722.722v8.665A.705.705,0,0,1,48.387,145.109Zm-7.943-1.444h7.221v-7.221H40.444Z" transform="translate(-39 -135)" fill="#30169a" fill-rule="evenodd"/>
            </g>
            <g id="_385810192" transform="translate(0 12.069)">
              <path id="Trazado_875002" data-name="Trazado 875002" d="M48.387,262.109H39.722a.705.705,0,0,1-.722-.722v-8.665a.705.705,0,0,1,.722-.722h8.665a.705.705,0,0,1,.722.722v8.665A.705.705,0,0,1,48.387,262.109Zm-7.943-1.444h7.221v-7.221H40.444Z" transform="translate(-39 -252)" fill="#30169a" fill-rule="evenodd"/>
            </g>
            <g id="_387692448" transform="translate(0 24.138)">
              <path id="Trazado_875003" data-name="Trazado 875003" d="M48.387,379.109H39.722a.705.705,0,0,1-.722-.722v-8.665a.705.705,0,0,1,.722-.722h8.665a.705.705,0,0,1,.722.722v8.665A.705.705,0,0,1,48.387,379.109Zm-7.943-1.444h7.221v-7.221H40.444Z" transform="translate(-39 -369)" fill="#30169a" fill-rule="evenodd"/>
            </g>
            <g id="Grupo_1100067" data-name="Grupo 1100067" transform="translate(2.966 2.966)">
              <g id="_387692568">
                <path id="Trazado_875004" data-name="Trazado 875004" d="M68.5,167.9a.788.788,0,0,1-.516-.206.689.689,0,0,1,0-1.032l2.682-2.682a.729.729,0,0,1,1.032,1.032L69.014,167.7C68.807,167.8,68.7,167.9,68.5,167.9Z" transform="translate(-67.75 -163.75)" fill="#30169a" fill-rule="evenodd"/>
              </g>
              <g id="_387692640">
                <path id="Trazado_875005" data-name="Trazado 875005" d="M71.18,167.9c-.206,0-.309-.1-.516-.206l-2.682-2.682a.729.729,0,0,1,1.032-1.032l2.682,2.682a.689.689,0,0,1,0,1.032A.788.788,0,0,1,71.18,167.9Z" transform="translate(-67.75 -163.75)" fill="#30169a" fill-rule="evenodd"/>
              </g>
            </g>
            <g id="Grupo_1100068" data-name="Grupo 1100068" transform="translate(2.966 15.035)">
              <g id="_387692736">
                <path id="Trazado_875006" data-name="Trazado 875006" d="M68.5,284.9a.788.788,0,0,1-.516-.206.689.689,0,0,1,0-1.032l2.682-2.682a.729.729,0,0,1,1.032,1.032L69.014,284.7C68.807,284.8,68.7,284.9,68.5,284.9Z" transform="translate(-67.75 -280.75)" fill="#30169a" fill-rule="evenodd"/>
              </g>
              <g id="_387692808">
                <path id="Trazado_875007" data-name="Trazado 875007" d="M71.18,284.9c-.206,0-.309-.1-.516-.206l-2.682-2.682a.729.729,0,0,1,1.032-1.032l2.682,2.682a.689.689,0,0,1,0,1.032A.788.788,0,0,1,71.18,284.9Z" transform="translate(-67.75 -280.75)" fill="#30169a" fill-rule="evenodd"/>
              </g>
            </g>
            <g id="_387692520" transform="translate(2.244 26.897)">
              <path id="Trazado_875008" data-name="Trazado 875008" d="M62.633,400.211c-.206,0-.413,0-.516-.206l-1.135-1.135a.689.689,0,0,1,0-1.032.58.58,0,0,1,.928,0l.722.722,2.476-2.579a.729.729,0,1,1,1.032,1.032l-2.991,2.991C63.045,400.211,62.839,400.211,62.633,400.211Z" transform="translate(-60.75 -395.75)" fill="#30169a" fill-rule="evenodd"/>
            </g>
          </g>
          <g id="Grupo_1100070" data-name="Grupo 1100070" transform="translate(16.711 14.751)">
            <g id="_387692976">
              <path id="Trazado_875009" data-name="Trazado 875009" d="M177.06,153.444H162.722a.705.705,0,0,1-.722-.722.775.775,0,0,1,.722-.722H177.06a.775.775,0,0,1,.722.722A.705.705,0,0,1,177.06,153.444Z" transform="translate(-162 -152)" fill="#30169a" fill-rule="evenodd"/>
            </g>
            <g id="_387693048" transform="translate(0 2.888)">
              <path id="Trazado_875010" data-name="Trazado 875010" d="M177.06,181.444H162.722a.775.775,0,0,1-.722-.722.705.705,0,0,1,.722-.722H177.06a.705.705,0,0,1,.722.722A.775.775,0,0,1,177.06,181.444Z" transform="translate(-162 -180)" fill="#30169a" fill-rule="evenodd"/>
            </g>
          </g>
          <g id="Grupo_1100071" data-name="Grupo 1100071" transform="translate(19.774 20.218)">
            <g id="_387692928" transform="translate(0 2.433)">
              <path id="Trazado_875011" data-name="Trazado 875011" d="M201.935,242.142c-4.229,0-8.665-4.126-9.9-7.84-.722-2.373-.309-4.332,1.341-5.57a.79.79,0,0,1,1.135.309,14.366,14.366,0,0,0,7.427,7.737,12.289,12.289,0,0,0,4.951,1.135.642.642,0,0,1,.619.413.881.881,0,0,1,0,.722A6.677,6.677,0,0,1,201.935,242.142Zm-8.355-11.553a3.5,3.5,0,0,0-.1,3.2c1.032,3.3,4.951,6.911,8.459,6.911a5.094,5.094,0,0,0,3.507-1.444,25.763,25.763,0,0,1-4.126-1.135A16.12,16.12,0,0,1,193.579,230.588Z" transform="translate(-191.691 -228.586)" fill="#30169a" fill-rule="evenodd"/>
            </g>
            <g id="_387693216" transform="translate(1.373)">
              <path id="Trazado_875012" data-name="Trazado 875012" d="M205.722,208.817a.705.705,0,0,1-.722-.722l.206-2.373a.705.705,0,0,1,.722-.722.875.875,0,0,1,.722.825l-.206,2.373C206.444,208.61,206.135,208.817,205.722,208.817Z" transform="translate(-205 -205)" fill="#30169a" fill-rule="evenodd"/>
            </g>
          </g>
          <g id="Grupo_1100073" data-name="Grupo 1100073" transform="translate(35.211 18.774)">
            <g id="Grupo_1100072" data-name="Grupo 1100072" transform="translate(0 6.189)">
              <g id="_387693336">
                <path id="Trazado_875013" data-name="Trazado 875013" d="M345.847,264.719H342.03a.567.567,0,0,1-.516-.309.611.611,0,0,1-.1-.722l3.095-9.387c.722-2.166,2.166-3.3,3.92-3.3a4.792,4.792,0,0,1,2.373.619,4.272,4.272,0,0,1,2.269,2.991,4.488,4.488,0,0,1-1.135,3.61l-5.467,6.189A.892.892,0,0,1,345.847,264.719Zm-2.785-1.444h2.476l5.261-5.983a2.621,2.621,0,0,0,.825-2.373,2.464,2.464,0,0,0-1.547-1.96,2.744,2.744,0,0,0-1.65-.619c-1.547,0-2.269,1.754-2.476,2.476Z" transform="translate(-341.343 -251)" fill="#30169a" fill-rule="evenodd"/>
              </g>
              <g id="_387693408" transform="translate(2.952 3.503)">
                <path id="Trazado_875014" data-name="Trazado 875014" d="M371.82,287.027a.62.62,0,0,1-.413-.1l-1.135-.619a.775.775,0,0,1-.206-1.032.672.672,0,0,1,.928-.206l1.135.619a.715.715,0,0,1,.309,1.032A.892.892,0,0,1,371.82,287.027Z" transform="translate(-369.96 -284.959)" fill="#30169a" fill-rule="evenodd"/>
              </g>
              <g id="_387693480" transform="translate(4.602 8.729)">
                <path id="Trazado_875015" data-name="Trazado 875015" d="M388.233,337.933a.62.62,0,0,1-.413-.1L386.273,337a.8.8,0,0,1-.206-1.032.832.832,0,0,1,.928-.309l1.547.928a.715.715,0,0,1,.309,1.032A.735.735,0,0,1,388.233,337.933Z" transform="translate(-385.959 -335.625)" fill="#30169a" fill-rule="evenodd"/>
              </g>
            </g>
            <g id="_387693552" transform="translate(8.419 1.234)">
              <path id="Trazado_875016" data-name="Trazado 875016" d="M423.686,209.875h-.413a.8.8,0,0,1-.206-1.032l3.2-5.57a.672.672,0,0,1,.928-.206.629.629,0,0,1,.309.928l-3.2,5.57A.735.735,0,0,1,423.686,209.875Z" transform="translate(-422.96 -202.959)" fill="#30169a" fill-rule="evenodd"/>
            </g>
            <g id="_387693624" transform="translate(8.423 0)">
              <path id="Trazado_875017" data-name="Trazado 875017" d="M423.722,199.149a.705.705,0,0,1-.722-.722l.1-6.705a.722.722,0,1,1,1.444,0l-.1,6.808A.69.69,0,0,1,423.722,199.149Z" transform="translate(-423 -191)" fill="#30169a" fill-rule="evenodd"/>
            </g>
            <g id="_387693696" transform="translate(8.419 3.297)">
              <path id="Trazado_875018" data-name="Trazado 875018" d="M423.686,227.812a.735.735,0,0,1-.619-.309.8.8,0,0,1,.206-1.032l5.777-3.4a.775.775,0,0,1,1.032.206.8.8,0,0,1-.206,1.032l-5.777,3.4A.78.78,0,0,1,423.686,227.812Z" transform="translate(-422.96 -222.959)" fill="#30169a" fill-rule="evenodd"/>
            </g>
          </g>
          <g id="_387693768" transform="translate(30.946 22.797)">
            <path id="Trazado_875019" data-name="Trazado 875019" d="M303.095,235.983a2.993,2.993,0,1,1,0-5.983,2.991,2.991,0,0,1,0,5.983Zm0-4.539a1.551,1.551,0,1,0,0,3.095,1.547,1.547,0,1,0,0-3.095Z" transform="translate(-300 -230)" fill="#30169a" fill-rule="evenodd"/>
          </g>
          <g id="_387693840" transform="translate(46.007 31.359)">
            <path id="Trazado_875020" data-name="Trazado 875020" d="M448.785,318.57A2.774,2.774,0,0,1,446,315.785a2.734,2.734,0,1,1,5.467,0A2.753,2.753,0,0,1,448.785,318.57Zm0-4.126a1.341,1.341,0,1,0,0,2.682,1.345,1.345,0,0,0,0-2.682Z" transform="translate(-446 -313)" fill="#30169a" fill-rule="evenodd"/>
          </g>
        </g>
      </g>
    </g>
  </g>
</svg>
