<svg xmlns="http://www.w3.org/2000/svg" width="89" height="89" viewBox="0 0 89 89">
  <g id="Grupo_1101080" data-name="Grupo 1101080" transform="translate(-598 -1681)">
    <rect id="Rect치ngulo_400907" data-name="Rect치ngulo 400907" width="89" height="89" rx="44.5" transform="translate(598 1681)" fill="none"/>
    <g id="Grupo_1099006" data-name="Grupo 1099006" transform="translate(-1 85)">
      <rect id="Rect치ngulo_400898" data-name="Rect치ngulo 400898" width="89" height="89" rx="44.5" transform="translate(599 1596)" fill="#fff"/>
      <g id="fruta" transform="translate(611.9 1608.201)">
        <path id="Trazado_873108" data-name="Trazado 873108" d="M62.255,30.929A29.934,29.934,0,0,0,53.43,9.623a.911.911,0,0,0-1.288,0L20.359,41.406c-2.363-1.248-4.523-.886-7-.452a9.406,9.406,0,0,0-4.092-5.708.911.911,0,0,0-.863,1.6,7.441,7.441,0,0,1,2.961,3.86,8.646,8.646,0,0,0-8.18,2.43C.3,32.623,3.768,16.846,17.195,16.865A14.154,14.154,0,0,1,30.41,26.377a.911.911,0,0,0,1.718-.605,16.031,16.031,0,0,0-6.145-8.046A9.526,9.526,0,0,1,27.6,13.967L28.8,12.3a2.024,2.024,0,0,0-2.463-3L23.476,10.6a9.226,9.226,0,0,1,2.041-6.268,1.679,1.679,0,0,0-2.061-2.507c-2.546,1.162-5,2.194-6.368,4.846-1.355-2.631-3.835-3.689-6.368-4.846A1.679,1.679,0,0,0,8.659,4.337,9.23,9.23,0,0,1,10.7,10.6L7.84,9.3a2.024,2.024,0,0,0-2.463,3l1.2,1.671A9.524,9.524,0,0,1,8.2,17.781C-.144,23.459-1.046,36.1,1.816,44.917A14.892,14.892,0,0,0,1.408,58.37a.911.911,0,0,0,1.624-.824c-2.2-4.34-1.542-11.7,3-14.348,1.989-1.158,3.733-.893,5.834-.472A12.076,12.076,0,0,1,12,44.485a.911.911,0,1,0,1.821,0,14.248,14.248,0,0,0-.1-1.745c2.146-.395,3.953-.783,6,.387,5.764,3.291,5.774,14.49-.021,17.723a6.578,6.578,0,0,1-5.36.488,4.891,4.891,0,0,0-3.008,0,6.5,6.5,0,0,1-5.668-.81.911.911,0,1,0-1,1.52,8.4,8.4,0,0,0,7.229,1.024,3.075,3.075,0,0,1,1.894,0,8.435,8.435,0,0,0,6.8-.632,9.074,9.074,0,0,0,1.949-1.468,12.064,12.064,0,0,0,15.41-.478A30.134,30.134,0,0,0,62.255,30.929ZM8.057,12.9l-1.2-1.671q-.1-.314.228-.277c1.362.622,2.775,1.183,4.1,1.892a.911.911,0,0,0,1.342-.8c0-3.124-.085-5.7-2.071-8.338,2.958,1.35,5.727,2.974,5.727,6.716a.911.911,0,1,0,1.821,0c0-3.722,2.769-5.365,5.727-6.715-1.986,2.639-2.071,5.214-2.071,8.338a.911.911,0,0,0,1.342.8c1.32-.71,2.732-1.27,4.095-1.892q.327-.037.228.277l-1.2,1.671a11.354,11.354,0,0,0-1.785,3.851A15.988,15.988,0,0,0,9.853,16.8,11.35,11.35,0,0,0,8.057,12.9ZM23.7,59.575c2.993-4.335,2.854-11.718-.517-15.845a10.164,10.164,0,0,1,6.77-2.552,10.262,10.262,0,1,1-6.252,18.4Zm16.313-1.45A12.029,12.029,0,0,0,41.65,54.46,25.414,25.414,0,0,0,57.011,35.931a.911.911,0,0,0-1.786-.357A23.6,23.6,0,0,1,42,52.325a12.212,12.212,0,0,0-12.051-12.97,11.969,11.969,0,0,0-7.922,2.959L49.416,14.926a23.367,23.367,0,0,1,6.267,16.266.911.911,0,1,0,1.821.02,25.174,25.174,0,0,0-6.8-17.573l2.074-2.074A28.319,28.319,0,0,1,40.009,58.124Z" fill="#30169a"/>
        <path id="Trazado_873109" data-name="Trazado 873109" d="M347.769,324.525a.911.911,0,0,0-1.288,1.288l1.375,1.375a.911.911,0,0,0,1.288-1.288Z" transform="translate(-304.179 -283.418)" fill="#30169a"/>
        <path id="Trazado_873110" data-name="Trazado 873110" d="M377.443,283.619l-1.773-.79a.911.911,0,1,0-.741,1.664l1.773.79a.911.911,0,0,0,.741-1.664Z" transform="translate(-328.932 -246.949)" fill="#30169a"/>
        <path id="Trazado_873111" data-name="Trazado 873111" d="M388.27,233.689l-1.928-.1H386.3a.911.911,0,0,0-.045,1.82l1.928.1h.046a.911.911,0,0,0,.045-1.82Z" transform="translate(-338.595 -203.759)" fill="#30169a"/>
        <path id="Trazado_873112" data-name="Trazado 873112" d="M378.607,180.9a.91.91,0,0,0,.29-.047l1.819-.61a.911.911,0,0,0-.579-1.727l-1.819.61a.911.911,0,0,0,.289,1.774Z" transform="translate(-331.838 -155.33)" fill="#30169a"/>
        <path id="Trazado_873113" data-name="Trazado 873113" d="M119.63,190.715a.908.908,0,0,0,.644-.267l2.006-2.006a.911.911,0,1,0-1.288-1.288l-1.363,1.363-1.363-1.363a.911.911,0,1,0-1.288,1.288l2.006,2.006A.908.908,0,0,0,119.63,190.715Z" transform="translate(-102.543 -162.726)" fill="#30169a"/>
        <path id="Trazado_873114" data-name="Trazado 873114" d="M187.273,190.715a.908.908,0,0,0,.644-.267l2.006-2.006a.911.911,0,1,0-1.288-1.288l-1.363,1.363-1.363-1.363a.911.911,0,1,0-1.288,1.288l2.006,2.006A.908.908,0,0,0,187.273,190.715Z" transform="translate(-161.973 -162.726)" fill="#30169a"/>
        <path id="Trazado_873115" data-name="Trazado 873115" d="M86.844,234.516l-1.363,1.363-1.362-1.363a.911.911,0,0,0-1.288,1.288l2.006,2.006a.911.911,0,0,0,1.288,0l2.006-2.006a.911.911,0,0,0-1.288-1.288Z" transform="translate(-72.54 -204.338)" fill="#30169a"/>
        <path id="Trazado_873116" data-name="Trazado 873116" d="M152.481,237.811a.911.911,0,0,0,1.288,0l2.006-2.006a.911.911,0,0,0-1.288-1.288l-1.363,1.363-1.362-1.363a.911.911,0,1,0-1.288,1.288Z" transform="translate(-131.971 -204.339)" fill="#30169a"/>
        <circle id="Elipse_11473" data-name="Elipse 11473" cx="0.911" cy="0.911" r="0.911" transform="translate(31.076 44.123)" fill="#30169a"/>
      </g>
    </g>
  </g>
</svg>
