<svg xmlns="http://www.w3.org/2000/svg" xmlns:xlink="http://www.w3.org/1999/xlink" width="295" height="460.246" viewBox="0 0 295 460.246">
  <defs>
    <clipPath id="clip-path">
      <path id="Trazado_876519" data-name="Trazado 876519" d="M14,0H281c7.732,0,14,7.157,14,15.985v427.03c0,8.828-6.268,15.985-14,15.985H14c-7.732,0-14-7.157-14-15.985V15.985C0,7.157,6.268,0,14,0Z" transform="translate(967 3353.01)" fill="#d0d1fa"/>
    </clipPath>
    <clipPath id="clip-path-2">
      <rect id="Rectángulo_402587" data-name="Rectángulo 402587" width="232.281" height="457.684" fill="none"/>
    </clipPath>
  </defs>
  <g id="Grupo_1100751" data-name="Grupo 1100751" transform="translate(-967 -3351.764)">
    <path id="Trazado_876367" data-name="Trazado 876367" d="M14,0H281c7.732,0,14,7.157,14,15.985v427.03c0,8.828-6.268,15.985-14,15.985H14c-7.732,0-14-7.157-14-15.985V15.985C0,7.157,6.268,0,14,0Z" transform="translate(967 3353.01)" fill="#d0d1fa"/>
    <g id="Enmascarar_grupo_1098721" data-name="Enmascarar grupo 1098721" clip-path="url(#clip-path)">
      <g id="Grupo_1100750" data-name="Grupo 1100750" transform="translate(531.014 3327.238)">
        <path id="Unión_44" data-name="Unión 44" d="M255.314,131.138,109.98,0,0,122.4,255.251,352.721l.063-.07.063.07L510.629,122.4,400.649,0Z" transform="translate(332.07 510.629) rotate(-90)" fill="#787cf0"/>
        <path id="Unión_45" data-name="Unión 45" d="M0,89.6,187.5,257.875l1.307-1.446L374.816,89.489,294.231.282,187.744,95.85,80.942,0Z" transform="translate(144.06 442.859) rotate(-90)" fill="#787cf0"/>
        <path id="Unión_46" data-name="Unión 46" d="M0,68.109,142.115,196.018l.99-1.1,140.988-126.9L223.013.214,142.3,72.859,61.35,0Z" transform="translate(0 397.498) rotate(-90)" fill="#787cf0"/>
      </g>
    </g>
    <g id="Grupo_1100749" data-name="Grupo 1100749" transform="translate(1005.926 3351.764)">
      <g id="Grupo_1100748" data-name="Grupo 1100748" clip-path="url(#clip-path-2)">
        <path id="Trazado_876452" data-name="Trazado 876452" d="M84.132,391.157l-17.18,18.468c-2.966,3.188-6.135,7.655-4.069,11.487a308.879,308.879,0,0,0,61.836-27.367,33.427,33.427,0,0,0-9.74-15.659c-10.265,4.879-20.8,9.181-30.847,13.071" transform="translate(4.336 26.349)" fill="#071b24"/>
        <path id="Trazado_876453" data-name="Trazado 876453" d="M66.1,415.5l53.963-24.482" transform="translate(4.607 27.25)" fill="none" stroke="#ffefe8" stroke-miterlimit="10" stroke-width="0.5"/>
        <path id="Trazado_876454" data-name="Trazado 876454" d="M79.962,378.926q1.922,6.317,3.227,12.8c10.686-2.158,21.838-4.8,29.957-12.076a2.054,2.054,0,0,0,.711-.965,2.127,2.127,0,0,0-.112-1.076q-1.418-4.979-2.835-9.958c-10.44,4.095-20.928,8.066-30.948,11.273" transform="translate(5.573 25.622)" fill="#d68e6f"/>
        <path id="Trazado_876455" data-name="Trazado 876455" d="M101.46,376.937a4.449,4.449,0,0,1-.919,6.118" transform="translate(7.007 26.269)" fill="none" stroke="#0f0806" stroke-miterlimit="10" stroke-width="0.5"/>
        <path id="Trazado_876456" data-name="Trazado 876456" d="M98.545,283.921a692.406,692.406,0,0,0,20.429,87.246A105.438,105.438,0,0,1,81.181,387.9q-13.7-41.87-27.395-83.74a7.654,7.654,0,0,1-.549-4.042,7.017,7.017,0,0,1,2.029-3.127c11.047-11.368,28.827-15.628,43.278-13.069" transform="translate(3.703 19.737)" fill="#592c22"/>
        <path id="Trazado_876457" data-name="Trazado 876457" d="M95.27,285.289,84.985,420.868c-.254,3.339.142,7.832,2.764,8.4,2.743.6,4.252-3.836,4.732-7.293q9.42-67.869,13.749-136.653a15.167,15.167,0,0,1-10.96-.036" transform="translate(5.918 19.882)" fill="#e0c4a2"/>
        <path id="Trazado_876458" data-name="Trazado 876458" d="M175.163,286.363l10.285,135.579c.254,3.339-.142,7.832-2.764,8.4-2.743.6-4.252-3.835-4.732-7.293Q168.532,355.184,164.2,286.4a15.162,15.162,0,0,0,10.96-.037" transform="translate(11.443 19.957)" fill="#e0c4a2"/>
        <path id="Trazado_876459" data-name="Trazado 876459" d="M181.312,279.732c-3.355.2-6.182-2.892-6.889-6.177s.167-6.681,1.047-9.925q13.149-48.407,29.786-95.775c1.4-3.982,3.717-8.664,7.934-8.848,3.458-.152,6.273,3.176,6.814,6.594s-.59,6.856-1.707,10.132L183.311,278.346c-.358,1.054-1.35,2.355-2,1.385" transform="translate(12.138 11.081)" fill="#75624b"/>
        <path id="Trazado_876460" data-name="Trazado 876460" d="M66.97,292.17V273.507a5.932,5.932,0,0,1,5.931-5.931H192.99a5.932,5.932,0,0,1,5.931,5.931V292.17a5.931,5.931,0,0,1-5.931,5.931H72.9a5.931,5.931,0,0,1-5.931-5.931" transform="translate(4.667 18.648)" fill="#594834"/>
        <path id="Trazado_876461" data-name="Trazado 876461" d="M37.14,402.092,14.189,412.556c-3.962,1.807-8.6,4.716-8.164,9.048a308.793,308.793,0,0,0,67.6-1.554,33.421,33.421,0,0,0-2.988-18.2c-11.349.569-22.733.5-33.5.239" transform="translate(0.418 28.005)" fill="#071b24"/>
        <path id="Trazado_876462" data-name="Trazado 876462" d="M10.726,417.627l59.227-1.909" transform="translate(0.748 28.972)" fill="none" stroke="#ffefe8" stroke-miterlimit="10" stroke-width="0.5"/>
        <path id="Trazado_876463" data-name="Trazado 876463" d="M37.351,389.838q-.648,6.572-1.93,13.06c10.7,2.106,22.009,3.943,32.3.339a2.057,2.057,0,0,0,1.027-.617,2.128,2.128,0,0,0,.309-1.038q.6-5.143,1.2-10.284c-11.212-.222-22.423-.579-32.906-1.46" transform="translate(2.469 27.168)" fill="#d68e6f"/>
        <path id="Trazado_876464" data-name="Trazado 876464" d="M57.712,396.9a4.451,4.451,0,0,1-3.2,5.3" transform="translate(3.799 27.66)" fill="none" stroke="#0f0806" stroke-miterlimit="10" stroke-width="0.5"/>
        <path id="Trazado_876465" data-name="Trazado 876465" d="M120.868,226.046a711,711,0,0,0-61.24,38.08c-5.02,3.488-10.094,7.134-13.642,12.111-4.247,5.956-5.959,13.32-7.183,20.531-2.315,13.647-3.208,27.49-4.073,41.3q-1.9,30.345-3.648,60.7a5.683,5.683,0,0,0,.571,3.549c.853,1.26,2.524,1.61,4.028,1.837a170.568,170.568,0,0,0,44.525.813A890.383,890.383,0,0,1,91.013,304.046S166.567,286.454,177,278.189c6.2-4.913,10.989-12.19,11.1-20.1-22.359-11.25-44.718-22.5-67.233-32.04" transform="translate(2.164 15.753)" fill="#8c4535"/>
        <path id="Trazado_876466" data-name="Trazado 876466" d="M79.756,302.214s1.132-2.265,10.19-3.4" transform="translate(5.558 20.825)" fill="none" stroke="#3b1813" stroke-miterlimit="10" stroke-width="0.5"/>
        <path id="Trazado_876467" data-name="Trazado 876467" d="M66.9,393.966S74.12,293.431,77.729,291.884s85.068-10.827,97.958-35.575" transform="translate(4.662 17.862)" fill="none" stroke="#3b1813" stroke-miterlimit="10" stroke-width="0.5"/>
        <path id="Trazado_876468" data-name="Trazado 876468" d="M31.394,385.564s26.243,5.488,48.43,1.67" transform="translate(2.188 26.87)" fill="none" stroke="#3b1813" stroke-miterlimit="10" stroke-width="0.5"/>
        <path id="Trazado_876469" data-name="Trazado 876469" d="M64.946,74.92c.421,7.112,3.09,14.593,7.328,21.8,6.659,11.348,22.21,21.714,30.821,27.633,5.208-7.982,14.9-21.124,20.472-28.632C116.065,90.694,97.9,72.834,97.9,72.834s18.988-29.4,32.3-43.981c-5.647-4.385-10.672-9.077-16.853-13.026C98.169,25.625,77.909,44.879,69.2,60.759,66.327,66,64.714,70.884,64.946,74.92" transform="translate(4.525 1.103)" fill="#d68e6f"/>
        <path id="Trazado_876470" data-name="Trazado 876470" d="M106.748,19.733c4.353-5.949,8.932-11.655,13.8-17.2A6.431,6.431,0,0,1,124.679.012a1.007,1.007,0,0,1,1.007.395,2.128,2.128,0,0,1-.242,2.365c-1.386,2.419-2.806,4.8-4.226,7.194,2.791-2.547,5.543-5.154,8.3-7.736A5.991,5.991,0,0,1,132.068.594a1.866,1.866,0,0,1,2.311,1.27c.208.96-.388,1.541-.91,2.177-2.346,2.849-4.762,5.571-7.164,8.343,3.178-2.569,6.429-5.308,9.549-7.879,1.106-.911,2.68-1.82,3.724-.645s-.01,2.4-.843,3.379c-2.529,2.974-5.251,5.9-7.865,8.811,2.021-1.6,3.989-3.281,6.01-4.885a4.874,4.874,0,0,1,2.2-1.26c.878-.138,1.772-.068,2.105.95S140.852,12.8,140.1,13.6c-2.394,2.568-4.847,5.244-7.183,7.9A47.144,47.144,0,0,1,139.1,19.4c.649-.155,1.227-.4,1.907.087a1.777,1.777,0,0,1,.317,2.382,6.1,6.1,0,0,1-2.159,1.728,147.411,147.411,0,0,0-14.208,9.029q-9.29-6.2-18.212-12.889" transform="translate(7.439 0)" fill="#d68e6f"/>
        <path id="Trazado_876471" data-name="Trazado 876471" d="M118.613,12.7s2.849,4.642,2.215,8.441" transform="translate(8.266 0.885)" fill="none" stroke="#301c14" stroke-miterlimit="10" stroke-width="0.5"/>
        <path id="Trazado_876472" data-name="Trazado 876472" d="M127.445,20.721s-3.271-4.009-6.859-3.481" transform="translate(8.404 1.198)" fill="none" stroke="#301c14" stroke-miterlimit="10" stroke-width="0.5"/>
        <path id="Trazado_876473" data-name="Trazado 876473" d="M64.946,72.2c.39,6.6,2.737,13.52,6.46,20.242,9.253-9.343,2.292-30.665-.324-37.6-.674,1.078-1.3,2.146-1.882,3.2-2.873,5.245-4.486,10.125-4.254,14.161" transform="translate(4.525 3.822)" fill="#c27a5b"/>
        <path id="Trazado_876474" data-name="Trazado 876474" d="M95.262,67.21a4.282,4.282,0,0,0,1.472,3.071" transform="translate(6.639 4.684)" fill="none" stroke="#301c14" stroke-miterlimit="10" stroke-width="0.5"/>
        <path id="Trazado_876475" data-name="Trazado 876475" d="M144.905,105.989q-17.786-17.751-37.082-33.9Q92.355,92.8,78.351,114.549l37.6,34.181a5.77,5.77,0,0,1,2.278,6.587c-3.739,26.753-7.477,53.506-9.95,79.482A271.256,271.256,0,0,0,188.8,275.489c6.151-23.048,8.6-46.921,10.022-70.733.868-14.537,1.357-29.1,1.381-43.659.016-9.945-1.618-19.719-3.232-29.531-3.365-20.481-28.12-28.915-28.12-28.915s-16.312,3.975-23.943,3.338" transform="translate(5.46 5.024)" fill="#ff7e61"/>
        <path id="Trazado_876476" data-name="Trazado 876476" d="M114.929,140.479a52.825,52.825,0,0,1,.494,16.018" transform="translate(8.009 9.79)" fill="none" stroke="#3b1813" stroke-miterlimit="10" stroke-width="0.5"/>
        <path id="Trazado_876477" data-name="Trazado 876477" d="M133.191,223.358a42.92,42.92,0,0,0,15.268-5.743" transform="translate(9.282 15.166)" fill="none" stroke="#3b1813" stroke-miterlimit="10" stroke-width="0.5"/>
        <path id="Trazado_876478" data-name="Trazado 876478" d="M138.649,226.05a34.509,34.509,0,0,0,7.706-3.534" transform="translate(9.663 15.507)" fill="none" stroke="#3b1813" stroke-miterlimit="10" stroke-width="0.5"/>
        <path id="Trazado_876479" data-name="Trazado 876479" d="M80.914,117.218a461.469,461.469,0,0,1,29.911-41.8" transform="translate(5.639 5.256)" fill="none" stroke="#3b1813" stroke-miterlimit="10" stroke-width="0.5"/>
        <path id="Trazado_876480" data-name="Trazado 876480" d="M162.353,164.5c-1.648,4.142-7.657,18.134-8.351,18.932-1.254,1.443-46.081,21.019-79.82,30.287-3.4.935-17.88-6.936-29.286-.154a23.541,23.541,0,0,0-8.4,9.424c2.454,1.476,22.291.409,33.716.669,19.27.44,38.63.875,57.739-1.847,10.35-1.474,20.6-3.872,31.02-4.571a15.022,15.022,0,0,0,5.247-.94,14.619,14.619,0,0,0,4.622-3.921,212.319,212.319,0,0,0,23.073-31.555A270.5,270.5,0,0,0,162.353,164.5" transform="translate(2.544 11.464)" fill="#d68e6f"/>
        <path id="Trazado_876481" data-name="Trazado 876481" d="M168.842,199.127c-15.554-2.657-23.79,11.845-26.074,16.671,2.925-.41,5.854-.751,8.8-.948a15.033,15.033,0,0,0,5.248-.94,14.643,14.643,0,0,0,4.621-3.922q4.534-5.123,8.739-10.572c-.419-.109-.859-.209-1.334-.29" transform="translate(9.95 13.855)" fill="#c27a5b"/>
        <path id="Trazado_876482" data-name="Trazado 876482" d="M149.821,180.474a42.763,42.763,0,0,1-5.2,3.024" transform="translate(10.079 12.577)" fill="none" stroke="#3b1813" stroke-miterlimit="10" stroke-width="0.5"/>
        <path id="Trazado_876483" data-name="Trazado 876483" d="M177.384,105.229c-5.2.467-7.687,3.669-9.969,8.364a210.248,210.248,0,0,0-17.6,51.991,1.684,1.684,0,0,0,.965,2.3,381.491,381.491,0,0,0,42.85,20.557c1.567-12.169,3.136-24.38,3.061-36.649s-1.847-24.673-6.723-35.932a18.181,18.181,0,0,0-12.583-10.633" transform="translate(10.434 7.333)" fill="#ff6854"/>
        <path id="Trazado_876484" data-name="Trazado 876484" d="M151.347,159.952q20.625,9.589,40.745,20.219" transform="translate(10.547 11.147)" fill="none" stroke="#3b1813" stroke-miterlimit="10" stroke-width="0.5"/>
        <path id="Trazado_876485" data-name="Trazado 876485" d="M124.029,74.169a8.445,8.445,0,0,0-3.053-3.942c-.984-.7-2.379-1.182-3.386-.541a2.874,2.874,0,0,0-1,2.646,9.124,9.124,0,0,0,2.022,5.437,8.19,8.19,0,0,0,5.2,2.908c-.006-2.324.872-4.741.221-6.509" transform="translate(8.125 4.836)" fill="#d68e6f"/>
        <path id="Trazado_876486" data-name="Trazado 876486" d="M118.976,73.691s.712,2.125,3.865,2.106" transform="translate(8.292 5.136)" fill="none" stroke="#301c14" stroke-miterlimit="10" stroke-width="0.5"/>
        <path id="Trazado_876487" data-name="Trazado 876487" d="M166.778,108.658s.885-21.219.647-29.41c-.251-8.658-.579-12.683-5.3-20.153-2.056-3.249-4.887-6.236-8.594-7.639a18.482,18.482,0,0,0-7.56-.957,24.433,24.433,0,0,0-14.139,5.176c-5.415,4.467-7.933,11.4-8.672,18.206-1.078,9.924,2.066,21.884,12.527,27.054l-.513,7.118a32.962,32.962,0,0,0,31.607.605" transform="translate(8.569 3.516)" fill="#d68e6f"/>
        <path id="Trazado_876488" data-name="Trazado 876488" d="M133.148,97.249a13.476,13.476,0,0,0,13.127-2.4" transform="translate(9.279 6.61)" fill="none" stroke="#301c14" stroke-miterlimit="10" stroke-width="0.5"/>
        <path id="Trazado_876489" data-name="Trazado 876489" d="M122.913,78.038a30.173,30.173,0,0,1-1.4-14.708,2.506,2.506,0,0,0,.01-1.123,2.6,2.6,0,0,0-.527-.828,13.86,13.86,0,0,1-3.034-9.33c.076-1.48.538-3.145,1.868-3.8a3.953,3.953,0,0,1,3.355.257,28.013,28.013,0,0,0,3.114,1.548,7.641,7.641,0,0,1-.055-3.909,4.291,4.291,0,0,1,2.5-2.88,5.605,5.605,0,0,1,4.422.662,28.03,28.03,0,0,0,4.072,2.133c.184-1.348-.406-2.95.522-3.944.9-.966,2.5-.541,3.693.026a32.3,32.3,0,0,1,6.98,4.492c-.21-1.231-.162-2.9,1.04-3.237a2.3,2.3,0,0,1,1.676.37c4.446,2.452,6.573,7.922,11.015,10.381,1.79-1.7,4.958-.927,6.511.989s1.861,4.542,1.878,7.009c.048,6.937-1.712,13.751-3.646,20.412A34.48,34.48,0,0,1,157.9,66.086a6.691,6.691,0,0,1-11.157-3.879,7.838,7.838,0,0,1-12.834.086,8.809,8.809,0,0,1-8.575,6.5,21.779,21.779,0,0,1-2.42,9.242" transform="translate(8.22 2.895)" fill="#4a281e"/>
        <path id="Trazado_876490" data-name="Trazado 876490" d="M135.932,69.743s-.6,5.7-1.984,7.482a1.327,1.327,0,0,0-.111,1.578,2.72,2.72,0,0,0,2.626,1.074" transform="translate(9.312 4.86)" fill="#c27a5b"/>
        <path id="Trazado_876491" data-name="Trazado 876491" d="M135.932,69.743s-.6,5.7-1.984,7.482a1.327,1.327,0,0,0-.111,1.578,2.72,2.72,0,0,0,2.626,1.074" transform="translate(9.312 4.86)" fill="none" stroke="#301c14" stroke-miterlimit="10" stroke-width="0.5"/>
        <path id="Trazado_876492" data-name="Trazado 876492" d="M141.862,80.459a3.492,3.492,0,0,1-3.978,1.908" transform="translate(9.609 5.607)" fill="none" stroke="#301c14" stroke-miterlimit="10" stroke-width="0.5"/>
        <path id="Trazado_876493" data-name="Trazado 876493" d="M141.067,74.237a1.06,1.06,0,1,0,1.094-1.025,1.06,1.06,0,0,0-1.094,1.025" transform="translate(9.831 5.102)" fill="#301c14"/>
        <path id="Trazado_876494" data-name="Trazado 876494" d="M145.662,72.2c.241-.47.615-1.325-1.529-2.183-1.912-.764-2.221-.265-2.507.057-.316.354-.712,1.23,1.452,2.193,2.012.9,2.343.406,2.584-.066" transform="translate(9.853 4.852)" fill="#301c14"/>
        <path id="Trazado_876495" data-name="Trazado 876495" d="M128.473,74.4a1.06,1.06,0,1,0,1.094-1.025,1.06,1.06,0,0,0-1.094,1.025" transform="translate(8.953 5.114)" fill="#301c14"/>
        <path id="Trazado_876496" data-name="Trazado 876496" d="M130.711,69.651c-.37-.8-1.491-.732-2.521-.354-1.056.388-2.208.97-1.772,1.9s1.443.653,2.623.214c1.007-.374,2.041-.96,1.671-1.756" transform="translate(8.804 4.811)" fill="#301c14"/>
        <path id="Trazado_876497" data-name="Trazado 876497" d="M125.287,76.818c2.736.09,4.895,1.956,4.822,4.169s-2.349,3.933-5.085,3.843a6.036,6.036,0,0,1-.77-.088,37.139,37.139,0,0,1-1.457-7.451,5.805,5.805,0,0,1,2.49-.473" transform="translate(8.558 5.353)" fill="#c27a5b"/>
        <path id="Trazado_876498" data-name="Trazado 876498" d="M148.473,80.513c-.073,2.212,2.087,4.079,4.822,4.169s5.014-1.63,5.086-3.843-2.087-4.079-4.823-4.169-5.013,1.631-5.085,3.843" transform="translate(10.347 5.343)" fill="#c27a5b"/>
        <path id="Trazado_876499" data-name="Trazado 876499" d="M161.318,76.717a7.494,7.494,0,0,1,3.505-2.224,4.022,4.022,0,0,1,3.934,1.04,3.826,3.826,0,0,1,.774,1.61,6.484,6.484,0,0,1-2.242,6.277,9.83,9.83,0,0,1-6.781,2.125,32.953,32.953,0,0,1,.809-8.828" transform="translate(11.184 5.182)" fill="#d68e6f"/>
        <path id="Trazado_876500" data-name="Trazado 876500" d="M161.6,79.714s3.848.126,5.312-2.577" transform="translate(11.262 5.376)" fill="none" stroke="#301c14" stroke-miterlimit="10" stroke-width="0.5"/>
        <path id="Trazado_876501" data-name="Trazado 876501" d="M133.173,102.666s11.211,12.612,34.18,1.615" transform="translate(9.281 7.155)" fill="none" stroke="#301c14" stroke-miterlimit="10" stroke-width="0.5"/>
        <rect id="Rectángulo_402584" data-name="Rectángulo 402584" width="203.536" height="12.326" transform="translate(0 234.784)" fill="#45271a"/>
        <rect id="Rectángulo_402585" data-name="Rectángulo 402585" width="9.931" height="203.82" transform="translate(185.146 243.072)" fill="#45271a"/>
        <path id="Trazado_876502" data-name="Trazado 876502" d="M179.128,411.361l-21.517,17.655h43.034Z" transform="translate(10.984 28.668)" fill="#45271a"/>
        <rect id="Rectángulo_402586" data-name="Rectángulo 402586" width="9.931" height="203.82" transform="translate(17.807 243.072)" fill="#45271a"/>
        <path id="Trazado_876503" data-name="Trazado 876503" d="M22.691,411.361,1.173,429.016H44.208Z" transform="translate(0.082 28.668)" fill="#45271a"/>
        <path id="Trazado_876504" data-name="Trazado 876504" d="M22.976,190.412a8.079,8.079,0,1,1,8.079,8.079,8.08,8.08,0,0,1-8.079-8.079" transform="translate(1.601 12.707)" fill="#ff6b61"/>
        <path id="Trazado_876505" data-name="Trazado 876505" d="M61.389,193.433a8.079,8.079,0,1,1,8.079,8.079,8.08,8.08,0,0,1-8.079-8.079" transform="translate(4.278 12.917)" fill="#ff6b61"/>
        <path id="Trazado_876506" data-name="Trazado 876506" d="M32.707,192.329l9.277-7.533A7.489,7.489,0,0,1,45,183.054a2.565,2.565,0,0,1,2.948,1.307c.423,1.111-.274,2.308-.941,3.293,3.109-2.744,6.6-5.642,10.748-5.684.893-.01,1.967.261,2.229,1.115a2.117,2.117,0,0,1-.11,1.258,9.03,9.03,0,0,1-2.263,3.644,12.09,12.09,0,0,1,5.65-2.736c1.3-.247,2.829-.2,3.712.786,1.365,1.53.139,4.026-1.525,5.224-3.118,2.245-7.25,2.3-11.093,2.266l-21.185-.184c.111-.528.37-1.025-.458-1.013" transform="translate(2.279 12.682)" fill="#56ba59"/>
        <path id="Trazado_876507" data-name="Trazado 876507" d="M70.408,190.666a15.246,15.246,0,0,1,7.813-5.719,1.98,1.98,0,0,1,1.7.026c.41.283.561.811.866,1.2a2.555,2.555,0,0,0,2.751.627,11.552,11.552,0,0,0,2.615-1.456A14.134,14.134,0,0,1,91.1,183.43c.733-.135,1.657-.124,2.019.527.282.507.06,1.146.178,1.714.226,1.087,1.613,1.532,2.7,1.287a25.048,25.048,0,0,0,3.046-1.326,2.606,2.606,0,0,1,3.04.548c.59.849.259,2.01-.138,2.965a32.243,32.243,0,0,1-2.431,4.714,7.055,7.055,0,0,1-1.746,2.068A7.2,7.2,0,0,1,94.486,197c-6.186.873-12.475.231-18.689-.412-1.736-.18-3.614-.424-4.86-1.645a3.978,3.978,0,0,1-.531-4.279" transform="translate(4.879 12.779)" fill="#56ba59"/>
        <path id="Trazado_876508" data-name="Trazado 876508" d="M17.232,192.267c1.586,8.875,3.576,18.46,10.364,24.392,5.852,5.115,14.07,6.4,21.826,6.891a158.606,158.606,0,0,0,27.884-.682c7.245-.818,14.826-2.319,20.317-7.117,5.983-5.228,8.426-13.619,8.187-21.56a2.522,2.522,0,0,0-.485-1.7,2.6,2.6,0,0,0-1.73-.588,464.014,464.014,0,0,0-86.364.359" transform="translate(1.201 13.246)" fill="#ff9061"/>
        <path id="Trazado_876509" data-name="Trazado 876509" d="M37.2,202.034c-2.942-.333-6.452.677-7.462,3.46-.988,2.722,1.323,5.964,4.2,6.263a6.177,6.177,0,0,0,6.3-4.838c.434-1.961-.436-4.591-3.037-4.885" transform="translate(2.057 14.076)" fill="#ffa47d"/>
        <path id="Trazado_876510" data-name="Trazado 876510" d="M22.387,195.925a571.742,571.742,0,0,1,78.072.08" transform="translate(1.56 13.564)" fill="none" stroke="#c75938" stroke-miterlimit="10" stroke-width="0.5"/>
        <path id="Trazado_876511" data-name="Trazado 876511" d="M191.364,222.6s3.582-30.855,4.7-45.608a147.528,147.528,0,0,0-29.331,1.2c.657,14.279,6.779,44.488,6.779,44.488Z" transform="translate(11.62 12.319)" fill="#fff"/>
        <path id="Trazado_876512" data-name="Trazado 876512" d="M170.846,193.927q2.1,12.62,4.208,25.239,7.357.579,14.755.553,1.718-12.884,2.312-25.859a14.468,14.468,0,0,1-13,1.688c-2.693-.987-5.538-2.823-8.278-1.622" transform="translate(11.906 13.487)" fill="#94dfff"/>
        <path id="Trazado_876513" data-name="Trazado 876513" d="M169.54,214.819a19.333,19.333,0,0,0-2.975-15.469,27.8,27.8,0,0,0-12.634-9.826,33.424,33.424,0,0,0-28.273,1.245c-8.561,4.671-14.667,13.8-15.153,23.544,20.278-.7,40.584-.647,59.035.506" transform="translate(7.701 13.031)" fill="#9c6035"/>
        <path id="Trazado_876514" data-name="Trazado 876514" d="M141.891,190.723c3.159-1.046,6.551.539,9.371,2.307a7.637,7.637,0,0,1,2.227,1.861,2.819,2.819,0,0,1,.425,2.754c-.589,1.27-2.225,1.617-3.624,1.614a15.7,15.7,0,0,1-10.68-4.293,3.176,3.176,0,0,1-.9-1.229,2.394,2.394,0,0,1,.461-2.125c.451-.6,1.08-1.046,2.718-.89" transform="translate(9.661 13.268)" fill="#bd7440"/>
        <path id="Trazado_876515" data-name="Trazado 876515" d="M98.165,196.27l-3.637-4.564s.739-2.536-.37-2.589-1.8,2.007-1.8,2.007-2.272-1.056-2.43.318,3.064,1.373,3.064,1.373l3.117,4.015Z" transform="translate(6.267 13.18)" fill="#fff7ed"/>
        <path id="Trazado_876516" data-name="Trazado 876516" d="M126.244,216.087c2.2-1.2,3.084-4.069,2.565-6.519a12.256,12.256,0,0,0-4.008-6.207,26.579,26.579,0,0,0-20.235-6.814,7.791,7.791,0,0,1-2.2.03c-1.442-.279-2.52-1.436-3.748-2.24s-3.066-1.184-4.022-.071c-.8.936-.493,2.4.152,3.451a20.565,20.565,0,0,1,2.023,3.084c.9,2.323-.426,4.9-.341,7.386.108,3.2,2.6,5.919,5.508,7.255s6.181,1.557,9.373,1.759l6.219.389a17.011,17.011,0,0,0,8.717-1.5" transform="translate(6.559 13.49)" fill="#9c6035"/>
        <path id="Trazado_876517" data-name="Trazado 876517" d="M111.615,200.188c2.262-.83,4.691.428,6.709,1.831a5.627,5.627,0,0,1,1.595,1.478,2.435,2.435,0,0,1,.3,2.186,2.619,2.619,0,0,1-2.6,1.281,10.682,10.682,0,0,1-7.647-3.408,2.528,2.528,0,0,1-.643-.976,2.057,2.057,0,0,1,.331-1.687c.322-.48.773-.831,1.946-.707" transform="translate(7.615 13.933)" fill="#bd7440"/>
        <path id="Trazado_876518" data-name="Trazado 876518" d="M184.418,211.18l-101.789.574c2.681,6.681,11.282,8.252,18.469,8.637,22.828,1.226,45.711.421,68.558-.383,2.954-.1,6-.228,8.683-1.465a12.045,12.045,0,0,0,6.079-7.363" transform="translate(5.758 14.717)" fill="#dba993"/>
      </g>
    </g>
  </g>
</svg>
