<svg xmlns="http://www.w3.org/2000/svg" width="85" height="85" viewBox="0 0 85 85">
  <g id="Grupo_1101069" data-name="Grupo 1101069" transform="translate(-618.098 -3730)">
    <g id="Grupo_1098883" data-name="Grupo 1098883" transform="translate(618.098 3730)">
      <g id="Grupo_1098742" data-name="Grupo 1098742">
        <rect id="Rectángulo_400898" data-name="Rectángulo 400898" width="85" height="85" rx="42.5" transform="translate(0)" fill="#30169a" opacity="0.859"/>
        <rect id="Rectángulo_400907" data-name="Rectángulo 400907" width="85" height="85" rx="42.5" fill="none"/>
      </g>
    </g>
    <g id="Grupo_1101068" data-name="Grupo 1101068" transform="translate(-15074.402 11888.502)">
      <path id="Trazado_876856" data-name="Trazado 876856" d="M166.515,119.619a.865.865,0,0,1-.865-.865v-2.959a3.662,3.662,0,0,1,7.324,0v2.872a.865.865,0,1,1-1.731,0v-2.872a1.932,1.932,0,0,0-3.863,0v2.959A.865.865,0,0,1,166.515,119.619Z" transform="translate(15558.96 -8244.438)" fill="#fff"/>
      <path id="Trazado_876857" data-name="Trazado 876857" d="M220.589,122.492l-.07,0a.865.865,0,0,1-.794-.931V115.8a1.931,1.931,0,0,0-3.862,0v2.872a.865.865,0,1,1-1.731,0V115.8a3.661,3.661,0,0,1,7.323,0v5.744c0,.023,0,.133-.005.156A.865.865,0,0,1,220.589,122.492Z" transform="translate(15516.07 -8244.439)" fill="#fff"/>
      <path id="Trazado_876858" data-name="Trazado 876858" d="M266.27,125.2a3.666,3.666,0,0,1-3.662-3.662v-5.744a3.662,3.662,0,1,1,7.323,0v5.744a3.662,3.662,0,0,1-3.662,3.662Zm0-11.337a1.933,1.933,0,0,0-1.931,1.931v5.744a1.931,1.931,0,0,0,3.862,0v-5.744A1.933,1.933,0,0,0,266.27,113.862Z" transform="translate(15473.188 -8244.437)" fill="#fff"/>
      <path id="Trazado_876859" data-name="Trazado 876859" d="M314.733,131.61a3.666,3.666,0,0,1-3.662-3.662l0-4.908a3.662,3.662,0,1,1,7.323,0l0,4.908A3.666,3.666,0,0,1,314.733,131.61Zm0-10.5a1.933,1.933,0,0,0-1.931,1.931l0,4.908a1.931,1.931,0,1,0,3.862,0l0-4.908A1.933,1.933,0,0,0,314.731,121.11Z" transform="translate(15430.319 -8250.849)" fill="#fff"/>
      <path id="Trazado_876860" data-name="Trazado 876860" d="M196.275,358.877H182.4a3.068,3.068,0,0,1-3.068-3.089l.078-12.923a.865.865,0,1,1,1.73.01l-.078,12.924a1.338,1.338,0,0,0,1.338,1.347h13.872a1.338,1.338,0,0,0,1.338-1.372l-.19-8.357a.865.865,0,1,1,1.73-.039l.19,8.355a3.068,3.068,0,0,1-3.068,3.143Z" transform="translate(15546.855 -8447.79)" fill="#fff"/>
      <path id="Trazado_876861" data-name="Trazado 876861" d="M336.184,252.769a.865.865,0,0,1-.742-1.309l2.015-3.377a4.678,4.678,0,0,0,.66-2.393v-6.161a.865.865,0,0,1,1.731,0v6.161a6.411,6.411,0,0,1-.9,3.28l-2.015,3.378A.865.865,0,0,1,336.184,252.769Z" transform="translate(15408.865 -8356.371)" fill="#fff"/>
      <path id="Trazado_876862" data-name="Trazado 876862" d="M143.677,185.558a.865.865,0,0,1-.865-.865v-2.649l-4.109-7.532a5.793,5.793,0,0,1-.743-2.838v-5.518a4.9,4.9,0,0,1,4.891-4.891h7.3a3.918,3.918,0,0,1,0,7.837h-1.516l2.62,2.513a6.619,6.619,0,0,1,2.028,4.754.865.865,0,1,1-1.731,0,4.88,4.88,0,0,0-1.5-3.505l-4.173-4a.865.865,0,0,1,.6-1.49h3.669a2.188,2.188,0,1,0,0-4.376h-7.3a3.164,3.164,0,0,0-3.16,3.16v5.518a4.072,4.072,0,0,0,.525,2l4.22,7.736a.865.865,0,0,1,.106.414v2.87A.865.865,0,0,1,143.677,185.558Z" transform="translate(15583.456 -8287.902)" fill="#fff"/>
      <path id="Trazado_876863" data-name="Trazado 876863" d="M10.324,107.865H3.335A3.339,3.339,0,0,1,0,104.53V88.947a.865.865,0,1,1,1.731,0V104.53a1.606,1.606,0,0,0,1.6,1.6h6.989a1.606,1.606,0,0,0,1.6-1.6v-23.2a1.606,1.606,0,0,0-1.6-1.6H3.335a1.606,1.606,0,0,0-1.6,1.6v3.556a.865.865,0,1,1-1.731,0V81.326a3.339,3.339,0,0,1,3.335-3.335h6.989a3.339,3.339,0,0,1,3.335,3.335v23.2A3.339,3.339,0,0,1,10.324,107.865Z" transform="translate(15705.5 -8214.234)" fill="#fff"/>
      <path id="Trazado_876864" data-name="Trazado 876864" d="M403.93,107.865h-6.989a3.339,3.339,0,0,1-3.335-3.335v-23.2a3.339,3.339,0,0,1,3.335-3.335h6.989a3.339,3.339,0,0,1,3.335,3.335v23.2A3.339,3.339,0,0,1,403.93,107.865Zm-6.989-28.143a1.606,1.606,0,0,0-1.6,1.6v23.2a1.606,1.606,0,0,0,1.6,1.6h6.989a1.606,1.606,0,0,0,1.6-1.6v-23.2a1.606,1.606,0,0,0-1.6-1.6Z" transform="translate(15357.303 -8214.234)" fill="#fff"/>
      <path id="Trazado_876865" data-name="Trazado 876865" d="M249.618,171.921H230.726a.865.865,0,1,1,0-1.731h18.026v-7.2H245.69a.865.865,0,1,1,0-1.731h3.928a.865.865,0,0,1,.865.865v8.93A.865.865,0,0,1,249.618,171.921Z" transform="translate(15502.158 -8287.898)" fill="#fff"/>
      <path id="Trazado_876866" data-name="Trazado 876866" d="M108.249,171.921H104.26a.865.865,0,0,1-.865-.865v-8.93a.865.865,0,0,1,.865-.865h7.182a.865.865,0,1,1,0,1.731h-6.317v7.2h3.123a.865.865,0,1,1,0,1.731Z" transform="translate(15614.033 -8287.898)" fill="#fff"/>
      <g id="_x3C_Radial_Repeat_x3E__50_" transform="translate(15728.007 -8138.904)">
        <path id="Línea_585" data-name="Línea 585" d="M-4.425-4.195a.861.861,0,0,1-.5-.161L-7.137-5.931a.865.865,0,0,1-.2-1.207.865.865,0,0,1,1.207-.2l2.211,1.575a.865.865,0,0,1,.2,1.207A.864.864,0,0,1-4.425-4.195Z" transform="translate(7.501 7.501)" fill="#fff"/>
      </g>
      <g id="_x3C_Radial_Repeat_x3E__49_" transform="translate(15732.789 -8142.447)">
        <path id="Línea_586" data-name="Línea 586" d="M-5.774-3.2a.866.866,0,0,1-.82-.591l-.863-2.574a.865.865,0,0,1,.545-1.1.865.865,0,0,1,1.1.545l.863,2.574a.865.865,0,0,1-.545,1.1A.864.864,0,0,1-5.774-3.2Z" transform="translate(7.502 7.502)" fill="#fff"/>
      </g>
      <g id="_x3C_Radial_Repeat_x3E__48_" transform="translate(15737.925 -8142.502)">
        <path id="Línea_587" data-name="Línea 587" d="M-6.636-3.182a.865.865,0,0,1-.26-.04.865.865,0,0,1-.566-1.085L-6.647-6.9a.865.865,0,0,1,1.085-.566A.865.865,0,0,1-5-6.377l-.815,2.589A.866.866,0,0,1-6.636-3.182Z" transform="translate(7.502 7.502)" fill="#fff"/>
      </g>
      <g id="_x3C_Radial_Repeat_x3E__47_" transform="translate(15741.405 -8139.048)">
        <path id="Línea_588" data-name="Línea 588" d="M-6.634-4.154a.864.864,0,0,1-.7-.35.865.865,0,0,1,.18-1.21L-4.969-7.33a.865.865,0,0,1,1.21.18.865.865,0,0,1-.18,1.21L-6.12-4.324A.861.861,0,0,1-6.634-4.154Z" transform="translate(7.5 7.5)" fill="#fff"/>
      </g>
    </g>
  </g>
</svg>
