<svg xmlns="http://www.w3.org/2000/svg" xmlns:xlink="http://www.w3.org/1999/xlink" width="400" height="523.467" viewBox="0 0 400 523.467">
  <defs>
    <clipPath id="clip-path">
      <rect id="mujer-forma-tiro-completo-corriendo-al-aire-libre" width="400" height="399.467" rx="19" transform="translate(1020 2336.168)" fill="#daf2e4"/>
    </clipPath>
    <clipPath id="clip-path-2">
      <rect id="Rectángulo_402488" data-name="Rectángulo 402488" width="283.263" height="523.466" fill="none"/>
    </clipPath>
  </defs>
  <g id="Grupo_1100584" data-name="Grupo 1100584" transform="translate(-1020 -2212.168)">
    <rect id="mujer-forma-tiro-completo-corriendo-al-aire-libre-2" data-name="mujer-forma-tiro-completo-corriendo-al-aire-libre" width="400" height="399.467" rx="19" transform="translate(1020 2336.168)" fill="#daf2e4"/>
    <g id="Enmascarar_grupo_1098711" data-name="Enmascarar grupo 1098711" clip-path="url(#clip-path)">
      <g id="Grupo_1100583" data-name="Grupo 1100583" transform="translate(602.195 2298.168)">
        <path id="Unión_44" data-name="Unión 44" d="M255.314,131.138,109.98,0,0,122.4,255.251,352.721l.063-.07.063.07L510.629,122.4,400.649,0Z" transform="translate(332.07 510.629) rotate(-90)" fill="#77af8f"/>
        <path id="Unión_45" data-name="Unión 45" d="M0,89.6,187.5,257.875l1.307-1.446L374.816,89.489,294.231.282,187.744,95.85,80.942,0Z" transform="translate(144.06 442.859) rotate(-90)" fill="#77af8f"/>
        <path id="Unión_46" data-name="Unión 46" d="M0,68.109,142.115,196.018l.99-1.1,140.988-126.9L223.013.214,142.3,72.859,61.35,0Z" transform="translate(0 397.498) rotate(-90)" fill="#77af8f"/>
      </g>
    </g>
    <g id="Grupo_1100582" data-name="Grupo 1100582" transform="translate(1076.195 2212.168)">
      <g id="Grupo_1100581" data-name="Grupo 1100581" clip-path="url(#clip-path-2)">
        <path id="Trazado_876123" data-name="Trazado 876123" d="M39.209,214.363,25.735,385.151c-.332,4.205.186,9.866,3.621,10.585,3.592.752,5.571-4.832,6.2-9.186Q47.9,301.056,53.568,214.409a20.611,20.611,0,0,1-14.359-.046" transform="translate(11.074 92.555)" fill="#e0c4a2"/>
        <path id="Trazado_876124" data-name="Trazado 876124" d="M145.778,214.363q6.735,85.395,13.473,170.788c.332,4.205-.186,9.866-3.62,10.585-3.594.752-5.571-4.832-6.2-9.186q-12.338-85.494-18.013-172.141a20.616,20.616,0,0,0,14.361-.046" transform="translate(56.741 92.555)" fill="#e0c4a2"/>
        <path id="Trazado_876125" data-name="Trazado 876125" d="M37.626,206.413V117.479a7.771,7.771,0,0,1,7.772-7.772H177.229A7.771,7.771,0,0,1,185,117.479v88.934a7.771,7.771,0,0,1-7.772,7.772H45.4a7.771,7.771,0,0,1-7.772-7.772" transform="translate(16.246 47.368)" fill="#75624b"/>
        <path id="Trazado_876126" data-name="Trazado 876126" d="M28.721,227.59V189.666a7.771,7.771,0,0,1,7.772-7.772H193.825a7.771,7.771,0,0,1,7.772,7.772V227.59a7.771,7.771,0,0,1-7.772,7.772H36.493a7.771,7.771,0,0,1-7.772-7.772" transform="translate(12.401 78.536)" fill="#594834"/>
        <path id="Trazado_876127" data-name="Trazado 876127" d="M67.326,161.135A270.34,270.34,0,0,0,48.45,209.582c-2.069,7.332-3.681,15.747.481,22.128,3.813,5.846,11.225,8.012,18.056,9.45a246.466,246.466,0,0,0,72.788,4.277c7.163-.649,14.411-1.639,21-4.519s12.534-7.885,15.128-14.593c3.017-7.8,1.174-16.537-.7-24.686q-4.439-19.282-8.877-38.565c-32.935,1.218-65.911,1.329-99-1.939" transform="translate(20.006 69.573)" fill="#1f7194"/>
        <path id="Trazado_876128" data-name="Trazado 876128" d="M81.918,190.139a38.79,38.79,0,0,0,19.211,6.724" transform="translate(35.369 82.095)" fill="none" stroke="#071b24" stroke-miterlimit="10" stroke-width="0.5"/>
        <path id="Trazado_876129" data-name="Trazado 876129" d="M84.816,195.171s4.952,2.41,7.9,1.834" transform="translate(36.621 84.268)" fill="none" stroke="#071b24" stroke-miterlimit="10" stroke-width="0.5"/>
        <path id="Trazado_876130" data-name="Trazado 876130" d="M70.833,315.725l-34.9,34.753a16.164,16.164,0,0,0-4.093,5.436c-.808,2.139-.508,4.875,1.31,6.261C57.027,353.137,80.9,351.24,104.777,342.2a5.033,5.033,0,0,0,2.06-1.186,4.9,4.9,0,0,0,.913-2.954,169.98,169.98,0,0,0-.5-25.9,123.7,123.7,0,0,1-36.417,3.561" transform="translate(13.565 134.782)" fill="#071b24"/>
        <path id="Trazado_876131" data-name="Trazado 876131" d="M33.471,350.485C56.2,340.8,78.941,338.252,102.1,329.643" transform="translate(14.452 142.329)" fill="none" stroke="#ffefe8" stroke-miterlimit="10" stroke-width="0.5"/>
        <path id="Trazado_876132" data-name="Trazado 876132" d="M44.321,329.218a5.665,5.665,0,0,1,4.788,3.484" transform="translate(19.136 142.145)" fill="none" stroke="#ffefe8" stroke-miterlimit="10" stroke-width="0.5"/>
        <path id="Trazado_876133" data-name="Trazado 876133" d="M47.409,326.181a6.05,6.05,0,0,1,5.229,3.766" transform="translate(20.47 140.834)" fill="none" stroke="#ffefe8" stroke-miterlimit="10" stroke-width="0.5"/>
        <path id="Trazado_876134" data-name="Trazado 876134" d="M74,331.824a11.777,11.777,0,0,1,4.574-10.39,16.592,16.592,0,0,1,11.156-3.219" transform="translate(31.917 137.382)" fill="none" stroke="#ffefe8" stroke-miterlimit="10" stroke-width="0.5"/>
        <path id="Trazado_876135" data-name="Trazado 876135" d="M102.146,368.025c-6.1,2.6-12.269,5.242-18.839,6.171-6.556.913-13.655-.057-18.183-3.071A633.486,633.486,0,0,1,43.842,237.6a156.474,156.474,0,0,1-.157-16.583c.514-9.769,2.471-19.31,7.813-27.367.2-.3.4-.6.614-.885,3.1-4.357,7.342-8.085,12.484-9.484a18.64,18.64,0,0,1,9.828.1,26.49,26.49,0,0,1,13.026,8.54,35.074,35.074,0,0,1,3.084,4.328c3.529,5.784,5.542,12.484,7.213,19.111,12.441,49.719,8.628,101.9,4.4,152.659" transform="translate(18.794 78.872)" fill="#a86245"/>
        <path id="Trazado_876136" data-name="Trazado 876136" d="M90.487,196.253c-7.913,8.442-29.8,20.8-46.849,24.767.514-9.769,2.471-19.31,7.813-27.367.2-.3.4-.6.614-.885a26.309,26.309,0,0,1,12.484-9.484,18.635,18.635,0,0,1,9.826.1,26.477,26.477,0,0,1,13.026,8.54,35.085,35.085,0,0,1,3.085,4.328" transform="translate(18.841 78.872)" fill="#9c5638"/>
        <path id="Trazado_876137" data-name="Trazado 876137" d="M99.3,294.383l-44.559,6.482q2.579,11.06,5.544,22.025c4.522,3.02,11.622,3.992,18.182,3.065S91.2,322.4,97.295,319.788c.7-8.435,1.395-16.909,2-25.405" transform="translate(23.634 127.104)" fill="#ffefe8"/>
        <path id="Trazado_876138" data-name="Trazado 876138" d="M53.551,278.237q-3.136,24.425-6.273,48.85a16.193,16.193,0,0,1-1.813,6.559c-1.2,1.943-3.555,3.375-5.763,2.779-7.391-24.436-20.443-44.518-27.834-68.954a5.041,5.041,0,0,1-.316-2.355,4.909,4.909,0,0,1,1.784-2.526A170.051,170.051,0,0,1,34.171,247.2a123.712,123.712,0,0,0,19.38,31.038" transform="translate(4.968 106.732)" fill="#071b24"/>
        <path id="Trazado_876139" data-name="Trazado 876139" d="M40.616,327.323c-6.181-23.922-18.024-43.5-25.318-67.107" transform="translate(6.605 112.352)" fill="none" stroke="#ffefe8" stroke-miterlimit="10" stroke-width="0.5"/>
        <path id="Trazado_876140" data-name="Trazado 876140" d="M39.955,289.916a5.665,5.665,0,0,0-5.68-1.671" transform="translate(14.799 124.368)" fill="none" stroke="#ffefe8" stroke-miterlimit="10" stroke-width="0.5"/>
        <path id="Trazado_876141" data-name="Trazado 876141" d="M40.628,285.678a6.05,6.05,0,0,0-6.172-1.85" transform="translate(14.877 122.45)" fill="none" stroke="#ffefe8" stroke-miterlimit="10" stroke-width="0.5"/>
        <path id="Trazado_876142" data-name="Trazado 876142" d="M21.357,271.189a11.777,11.777,0,0,0,5.446-9.961,16.58,16.58,0,0,0-4.249-10.806" transform="translate(9.221 108.124)" fill="none" stroke="#ffefe8" stroke-miterlimit="10" stroke-width="0.5"/>
        <path id="Trazado_876143" data-name="Trazado 876143" d="M197.945,202.6a30.415,30.415,0,0,1-1.3,6.47c-.086.272-.172.528-.242.757a46.93,46.93,0,0,1-10.342,16.6,76.264,76.264,0,0,1-6.585,6.284,158.177,158.177,0,0,1-13.241,9.985A633.588,633.588,0,0,1,47.428,307.226c-5.156-1.757-10.241-6.8-13.526-12.541-3.257-5.784-4.928-12.283-6.585-18.7C64.968,241.68,104,206.858,151.01,186.4c6.927-3.014,14.226-5.741,21.724-6.114,1.044-.056,2.086-.056,3.128-.013a26.545,26.545,0,0,1,14.711,5.113,18.722,18.722,0,0,1,6.071,7.727,20.386,20.386,0,0,1,1.3,9.484" transform="translate(11.795 77.824)" fill="#b06748"/>
        <path id="Trazado_876144" data-name="Trazado 876144" d="M154.265,202.6a54.3,54.3,0,0,1-1.3,6.47c-.086.272-.172.528-.242.757-3.1,9.042-3.143,10.4-10.342,16.6-.072.072-.143.129-.229.2-11.755-16.1-15.182-36.48-13.1-46.336,1.044-.056,2.086-.056,3.128-.013a26.545,26.545,0,0,1,14.711,5.113,18.722,18.722,0,0,1,6.071,7.727,20.386,20.386,0,0,1,1.3,9.484" transform="translate(55.474 77.824)" fill="#9c5638"/>
        <path id="Trazado_876145" data-name="Trazado 876145" d="M46.236,235.188q11.013,19.636,22.028,39.273-10.339,4.7-20.838,9.032c-5.15-1.742-10.249-6.778-13.516-12.544s-4.945-12.269-6.592-18.686c6.257-5.7,12.555-11.414,18.918-17.075" transform="translate(11.795 101.546)" fill="#ffefe8"/>
        <path id="Trazado_876146" data-name="Trazado 876146" d="M152.963,83.407q8.713-29.154,16.023-58.7l30.212,13.1a493.685,493.685,0,0,1-13.325,75.951c-1.4,5.451-3.224,11.345-7.9,14.469-3.892,2.6-8.89,2.665-13.566,2.526a279.486,279.486,0,0,1-29.052-2.382c-.574-15.364-1.047-46.111-1.047-46.111s14,.409,18.66,1.147" transform="translate(57.987 10.667)" fill="#b06748"/>
        <path id="Trazado_876147" data-name="Trazado 876147" d="M179.236,88.8c.334-1.916.663-3.831.956-5.754-15.664.989-25.835,14.059-30.663,22.138,2.763.165,5.529.3,8.3.381,4.676.139,9.674.07,13.566-2.526,4.616-3.08,6.449-8.854,7.843-14.239" transform="translate(64.562 35.856)" fill="#9c5638"/>
        <path id="Trazado_876148" data-name="Trazado 876148" d="M158.359,31.436c.017-3.681,2.511-6.122,5.542-8.21.919-.633,1.927-1.13,2.838-1.773,2.169-1.535,3.67-3.811,5.385-5.842s3.87-3.94,6.507-4.264,5.651,1.657,5.5,4.308a4.492,4.492,0,0,1,7.132,4.491c3.385-.975,7.1,2.783,6.088,6.157,1.373-1.805,4.609-.314,5.057,1.91s-.855,4.394-2.175,6.241a83.485,83.485,0,0,1-9.1,10.711,10.129,10.129,0,0,1-3.249,2.415,9.535,9.535,0,0,1-4.892.242,40.192,40.192,0,0,1-15.151-5.489c-4.643-2.848-9.494-8.792-9.481-10.9" transform="translate(68.374 4.885)" fill="#b06748"/>
        <path id="Trazado_876149" data-name="Trazado 876149" d="M175.3,38.911c1.541.944,3.546.3,5.137-.55a21.884,21.884,0,0,0,6.857-5.777" transform="translate(75.688 14.069)" fill="none" stroke="#4a281e" stroke-miterlimit="10" stroke-width="0.5"/>
        <path id="Trazado_876150" data-name="Trazado 876150" d="M197.6,40.144a9.985,9.985,0,0,1-2.571-.729,13.549,13.549,0,0,1-3.741-2.942,297.076,297.076,0,0,1-21.554-23.925,11.493,11.493,0,0,0-3.313-3.127,3.736,3.736,0,0,0-4.257.328,3.761,3.761,0,0,0-.243,4.456,11.6,11.6,0,0,0,3.442,3.272A158.291,158.291,0,0,1,193.373,43.36c.172,2.112,1.039,9.747,4.645,11.5,4.194,2.04,4.194-.113,2.947-1.813s-4.42-5.1-3.966-6.234,6.913,6.8,8.16,5.326-5.441-7.48-4.648-8.727,6.347,6.121,8.048,4.194-4.353-8.921-10.96-7.464" transform="translate(69.648 3.85)" fill="#75624b"/>
        <path id="Trazado_876151" data-name="Trazado 876151" d="M173.984,12.682a59.312,59.312,0,0,0-7.462,8.8c-1.011,1.456-1.836,3.731-.384,4.749,1.017.713,2.414.182,3.488-.438,4.393-2.537,7.936-6.284,11.413-9.977q-3.554,4.145-7.107,8.287c-1.183,1.38-2.438,2.958-2.335,4.774a1.914,1.914,0,0,0,.467,1.244c.64.651,1.722.452,2.58.14,5.024-1.828,8.918-5.8,12.63-9.652q-4.484,4.937-8.97,9.875c-.856.942-1.649,2.59-.58,3.282a1.908,1.908,0,0,0,1.364.153,12.776,12.776,0,0,0,4.755-2.275q4.8-3.213,9.412-6.695a109.326,109.326,0,0,0-8.522,8.662,3.316,3.316,0,0,0-.911,1.532,2.253,2.253,0,0,0,1.827,2.35,5.437,5.437,0,0,0,3.194-.475,21.126,21.126,0,0,0,8.586-6.283" transform="translate(71.394 5.476)" fill="#b06748"/>
        <path id="Trazado_876152" data-name="Trazado 876152" d="M173.984,12.682a59.312,59.312,0,0,0-7.462,8.8c-1.011,1.456-1.836,3.731-.384,4.749,1.017.713,2.414.182,3.488-.438,4.393-2.537,7.936-6.284,11.413-9.977q-3.554,4.145-7.107,8.287c-1.183,1.38-2.438,2.958-2.335,4.774a1.914,1.914,0,0,0,.467,1.244c.64.651,1.722.452,2.58.14,5.024-1.828,8.918-5.8,12.63-9.652q-4.484,4.937-8.97,9.875c-.856.942-1.649,2.59-.58,3.282a1.908,1.908,0,0,0,1.364.153,12.776,12.776,0,0,0,4.755-2.275q4.8-3.213,9.412-6.695a109.326,109.326,0,0,0-8.522,8.662,3.316,3.316,0,0,0-.911,1.532,2.253,2.253,0,0,0,1.827,2.35,5.437,5.437,0,0,0,3.194-.475,21.126,21.126,0,0,0,8.586-6.283" transform="translate(71.394 5.476)" fill="none" stroke="#4a281e" stroke-miterlimit="10" stroke-width="0.5"/>
        <path id="Trazado_876153" data-name="Trazado 876153" d="M163.734,19.6a47.906,47.906,0,0,1,13.234-2.287,4.892,4.892,0,0,1,1.893.2,1.784,1.784,0,0,1,1.2,1.372,2.079,2.079,0,0,1-.468,1.389c-.893,1.253-5.945,4.1-7.379,4.655,2.813,4.059-1.133,8.466-1.133,8.466" transform="translate(70.695 7.473)" fill="#b06748"/>
        <path id="Trazado_876154" data-name="Trazado 876154" d="M163.734,19.6a47.906,47.906,0,0,1,13.234-2.287,4.892,4.892,0,0,1,1.893.2,1.784,1.784,0,0,1,1.2,1.372,2.079,2.079,0,0,1-.468,1.389c-.893,1.253-5.945,4.1-7.379,4.655,2.813,4.059-1.133,8.466-1.133,8.466" transform="translate(70.695 7.473)" fill="none" stroke="#4a281e" stroke-miterlimit="10" stroke-width="0.5"/>
        <path id="Trazado_876155" data-name="Trazado 876155" d="M145.594,65.978s3.572.839,5.179-.461" transform="translate(62.862 28.288)" fill="none" stroke="#3d2119" stroke-miterlimit="10" stroke-width="0.5"/>
        <path id="Trazado_876156" data-name="Trazado 876156" d="M95.679,64.494c-7.124-2.464-15.774.694-22.565,3.969s-12.545,8.329-18,13.529a294.955,294.955,0,0,0-39.059,45.666,115.012,115.012,0,0,0,52.962,29.63c-1.078,22.253-2.259,51.325-3.337,73.577a1128.692,1128.692,0,0,0,120.476-.258c-4.028-28.966-4.683-65.2-2.152-94.339a7.37,7.37,0,0,1,1.329-4.321,7.169,7.169,0,0,1,3.043-1.76A110.162,110.162,0,0,1,210.19,124.6q-10.539-31.923-21.076-63.845l-39.481-.762a60.881,60.881,0,0,0-12.892.666c-4.169.818-8.112,2.5-12.166,3.764-9.981,3.126-20.4,3.007-28.9.069" transform="translate(6.931 25.882)" fill="#0a2530"/>
        <path id="Trazado_876157" data-name="Trazado 876157" d="M49.723,110.412c6.135,11.438,5.279,25.2,4.262,38.139" transform="translate(21.469 47.672)" fill="none" stroke="#165069" stroke-miterlimit="10" stroke-width="0.5"/>
        <path id="Trazado_876158" data-name="Trazado 876158" d="M52.475,107.939a198.292,198.292,0,0,1,.67,26.84" transform="translate(22.657 46.604)" fill="none" stroke="#165069" stroke-miterlimit="10" stroke-width="0.5"/>
        <path id="Trazado_876159" data-name="Trazado 876159" d="M135.314,100.689q-1.432,13.754-2.864,27.506" transform="translate(57.187 43.474)" fill="none" stroke="#165069" stroke-miterlimit="10" stroke-width="0.5"/>
        <path id="Trazado_876160" data-name="Trazado 876160" d="M131.31,100.669q1.488,15.719,2.1,31.5" transform="translate(56.695 43.465)" fill="none" stroke="#165069" stroke-miterlimit="10" stroke-width="0.5"/>
        <path id="Trazado_876161" data-name="Trazado 876161" d="M62.2,129.341a32.25,32.25,0,0,0,8.329,7.186" transform="translate(26.855 55.845)" fill="none" stroke="#165069" stroke-miterlimit="10" stroke-width="0.5"/>
        <path id="Trazado_876162" data-name="Trazado 876162" d="M60.812,133.914l5.372,3.448" transform="translate(26.257 57.819)" fill="none" stroke="#165069" stroke-miterlimit="10" stroke-width="0.5"/>
        <path id="Trazado_876163" data-name="Trazado 876163" d="M121.988,121.1a54.2,54.2,0,0,1-7.491,15.227" transform="translate(49.436 52.287)" fill="none" stroke="#165069" stroke-miterlimit="10" stroke-width="0.5"/>
        <path id="Trazado_876164" data-name="Trazado 876164" d="M122.15,126.641q-1.735,3.247-3.472,6.494" transform="translate(51.241 54.679)" fill="none" stroke="#165069" stroke-miterlimit="10" stroke-width="0.5"/>
        <path id="Trazado_876165" data-name="Trazado 876165" d="M18.2,105.5c15.427,11.016,31.238,22.221,49.436,27.531" transform="translate(7.857 45.55)" fill="none" stroke="#165069" stroke-miterlimit="10" stroke-width="0.5"/>
        <path id="Trazado_876166" data-name="Trazado 876166" d="M133.634,60.848Q142.557,93.007,152,125.02" transform="translate(57.699 26.272)" fill="none" stroke="#165069" stroke-miterlimit="10" stroke-width="0.5"/>
        <path id="Trazado_876167" data-name="Trazado 876167" d="M68.115,133.527a174.67,174.67,0,0,0-1.379,20.081c12.753.895,59.1,12.784,61.695,12.8,2.274.016,18.415-3.6,28.068-.474,14.969,4.849,13.287,13.678,12.916,14.276-.649,1.044-107.749,2.806-136.41,1.893-4.768-.152-4.156-.149-8.112-3.028-4.2-3.061-6.36-8.652-6.7-14.117s.9-10.887,2.254-16.166c2.773-10.824,7.511-33.813,7.511-33.813s24.772,16.263,40.157,18.546" transform="translate(7.831 49.645)" fill="#b06748"/>
        <path id="Trazado_876168" data-name="Trazado 876168" d="M49.716,171.842c.939-17.324-20.659-28.737-29.481-32.656-1.266,5.013-2.362,10.148-2.042,15.324.339,5.464,2.5,11.055,6.7,14.116,3.955,2.879,3.345,2.876,8.112,3.028,4.35.139,10.077.195,16.71.188" transform="translate(7.831 60.096)" fill="#9c5638"/>
        <path id="Trazado_876169" data-name="Trazado 876169" d="M62.089,37.676a11.034,11.034,0,0,0-4.459-4.721c-1.347-.759-3.176-1.171-4.338-.153-.991.865-1.047,2.38-.842,3.678a12.435,12.435,0,0,0,3.4,6.878,10.076,10.076,0,0,0,6.99,2.992c-.377-3.084.345-6.437-.75-8.675" transform="translate(22.605 13.901)" fill="#b06748"/>
        <path id="Trazado_876170" data-name="Trazado 876170" d="M55.088,36.184s2.474,2.709,5.537,2.474" transform="translate(23.785 15.623)" fill="none" stroke="#301c14" stroke-miterlimit="10" stroke-width="0.5"/>
        <path id="Trazado_876171" data-name="Trazado 876171" d="M118.89,84.114a191.733,191.733,0,0,0-1.977-32.736c-1.684-11.447-4.592-23.133-11.706-32.256-3.1-3.969-7.124-7.458-12-8.7a22.2,22.2,0,0,0-9.647-.009,30.415,30.415,0,0,0-16.941,9.231C60.52,26.475,58.454,36.1,58.6,45.25c.215,13.35,6,27.968,18.341,33.052a70.27,70.27,0,0,0-.312,10.219c13.781,5.771,30.435,4.079,42.26-4.407" transform="translate(25.299 4.268)" fill="#b06748"/>
        <path id="Trazado_876172" data-name="Trazado 876172" d="M71,59.121A16.505,16.505,0,0,0,87.109,53.74" transform="translate(30.655 23.203)" fill="none" stroke="#301c14" stroke-miterlimit="10" stroke-width="0.5"/>
        <path id="Trazado_876173" data-name="Trazado 876173" d="M70.58,31.085s.309,5.69-.872,8.223a1.639,1.639,0,0,0,.3,1.933,3.365,3.365,0,0,0,3.463.571" transform="translate(30.019 13.421)" fill="#8f4e32"/>
        <path id="Trazado_876174" data-name="Trazado 876174" d="M70.58,31.085s.309,5.69-.872,8.223a1.639,1.639,0,0,0,.3,1.933,3.365,3.365,0,0,0,3.463.571" transform="translate(30.019 13.421)" fill="none" stroke="#301c14" stroke-miterlimit="10" stroke-width="0.5"/>
        <path id="Trazado_876175" data-name="Trazado 876175" d="M77.409,40.687a4.322,4.322,0,0,1-4.842,2.523" transform="translate(31.332 17.567)" fill="none" stroke="#301c14" stroke-miterlimit="10" stroke-width="0.5"/>
        <path id="Trazado_876176" data-name="Trazado 876176" d="M75.692,33.981A1.312,1.312,0,1,0,77,32.67a1.311,1.311,0,0,0-1.311,1.312" transform="translate(32.681 14.106)" fill="#301c14"/>
        <path id="Trazado_876177" data-name="Trazado 876177" d="M81.167,32.285c.525-1.118-4.351-3.336-5.077-2.465s4.5,3.7,5.077,2.465" transform="translate(32.823 12.79)" fill="#301c14"/>
        <path id="Trazado_876178" data-name="Trazado 876178" d="M63.579,34.518a1.311,1.311,0,1,0,1.312-1.311,1.311,1.311,0,0,0-1.312,1.311" transform="translate(27.451 14.338)" fill="#301c14"/>
        <path id="Trazado_876179" data-name="Trazado 876179" d="M66.822,29.8c-.47-1.143-5.4.959-5.246,2.082s5.764-.822,5.246-2.082" transform="translate(26.585 12.722)" fill="#301c14"/>
        <path id="Trazado_876180" data-name="Trazado 876180" d="M61.484,36.516c3.388,0,6.134,2.221,6.134,4.96s-2.746,4.96-6.134,4.96a7.47,7.47,0,0,1-.956-.079,46.029,46.029,0,0,1-2.1-9.155,7.178,7.178,0,0,1,3.061-.686" transform="translate(25.225 15.766)" fill="#8f4e32"/>
        <path id="Trazado_876181" data-name="Trazado 876181" d="M82.237,40.485c0,2.739,2.746,4.96,6.134,4.96s6.132-2.221,6.132-4.96-2.746-4.96-6.132-4.96-6.134,2.221-6.134,4.96" transform="translate(35.507 15.338)" fill="#8f4e32"/>
        <path id="Trazado_876182" data-name="Trazado 876182" d="M61.314,51.767a40.776,40.776,0,0,1,2.71-16.807c.941-2.411,2.292-4.914,4.665-5.943,3.177-1.377,4.324,1.367,7.742,1.924,4.048.66,10-.611,13.828-2.082,3.372-1.293,7.356-2.843,10.35-.823,1.227.829,2.029,9.007,3.481,13.016,1.93,5.333,9.306,11.785,14.591,13.844a19.1,19.1,0,0,1-.816-6.29A6.477,6.477,0,0,1,121,43.364q-.462-9.5-1.78-18.925c-.566-4.035-1.591-8.573-5.119-10.612s-8.019-.647-11.625,1.247c-.736-3.83-4.7-6.237-8.538-6.935s-7.8-.185-11.665-.69A22.523,22.523,0,0,1,68.366,0a7.691,7.691,0,0,0,2.553,10.332q-3.4-1.482-6.731-3.091C60.909,5.658,57.484,3.8,55.769.593A20.724,20.724,0,0,0,58.4,23.177c-3.445,1.615-2.951,7.071-3.472,10.84s.6,12.9,1.357,13.313a14.324,14.324,0,0,1,5.03,4.437" transform="translate(23.128)" fill="#301c14"/>
        <path id="Trazado_876183" data-name="Trazado 876183" d="M97.35,13.332s.1-8.937-8.621-8.41S72.854,7.024,70.015,6.6" transform="translate(30.23 2.115)" fill="none" stroke="#301c14" stroke-miterlimit="10" stroke-width="0.5"/>
        <path id="Trazado_876184" data-name="Trazado 876184" d="M97.593,34.009a9.621,9.621,0,0,1,4.05-3.536,4.872,4.872,0,0,1,5.107.723,5.142,5.142,0,0,1,1.227,2.006,9.028,9.028,0,0,1-1.824,8.7,12.156,12.156,0,0,1-8.18,3.953,46.492,46.492,0,0,1-.381-11.849" transform="translate(42.042 12.983)" fill="#b06748"/>
        <path id="Trazado_876185" data-name="Trazado 876185" d="M98.034,37.6s4.828-.825,5.418-4.712" transform="translate(42.328 14.202)" fill="none" stroke="#301c14" stroke-miterlimit="10" stroke-width="0.5"/>
        <rect id="Rectángulo_402485" data-name="Rectángulo 402485" width="272.431" height="16.498" transform="translate(0 225.118)" fill="#45271a"/>
        <rect id="Rectángulo_402486" data-name="Rectángulo 402486" width="13.293" height="272.81" transform="translate(247.816 236.211)" fill="#45271a"/>
        <path id="Trazado_876186" data-name="Trazado 876186" d="M186.411,349.1l-28.8,23.631h57.6Z" transform="translate(68.051 150.731)" fill="#45271a"/>
        <rect id="Rectángulo_402487" data-name="Rectángulo 402487" width="13.293" height="272.81" transform="translate(23.835 236.211)" fill="#45271a"/>
        <path id="Trazado_876187" data-name="Trazado 876187" d="M29.974,349.1l-28.8,23.631h57.6Z" transform="translate(0.507 150.731)" fill="#45271a"/>
        <path id="Trazado_876188" data-name="Trazado 876188" d="M22.976,130.89A10.814,10.814,0,1,1,33.79,141.7,10.815,10.815,0,0,1,22.976,130.89" transform="translate(9.92 51.845)" fill="#ff6b61"/>
        <path id="Trazado_876189" data-name="Trazado 876189" d="M61.389,133.911A10.814,10.814,0,1,1,72.2,144.725a10.815,10.815,0,0,1-10.814-10.814" transform="translate(26.506 53.149)" fill="#ff6b61"/>
        <path id="Trazado_876190" data-name="Trazado 876190" d="M32.707,133.579,45.125,123.5a10.024,10.024,0,0,1,4.03-2.332,3.434,3.434,0,0,1,3.946,1.75c.566,1.488-.367,3.09-1.26,4.407,4.161-3.672,8.837-7.551,14.386-7.608,1.2-.013,2.633.349,2.984,1.492a2.833,2.833,0,0,1-.147,1.684,12.086,12.086,0,0,1-3.03,4.878A16.182,16.182,0,0,1,73.6,124.1c1.741-.331,3.787-.269,4.968,1.052,1.827,2.047.186,5.389-2.042,6.993-4.174,3.005-9.7,3.078-14.847,3.032l-28.356-.246c.149-.707.5-1.372-.613-1.356" transform="translate(14.122 51.687)" fill="#56ba59"/>
        <path id="Trazado_876191" data-name="Trazado 876191" d="M70.541,130.881A20.407,20.407,0,0,1,81,123.227a2.651,2.651,0,0,1,2.277.034c.548.379.75,1.085,1.16,1.611a3.42,3.42,0,0,0,3.683.839,15.462,15.462,0,0,0,3.5-1.949A18.919,18.919,0,0,1,98.24,121.2c.981-.18,2.218-.166,2.7.706.378.679.08,1.533.238,2.294.3,1.455,2.159,2.05,3.608,1.722s2.685-1.257,4.078-1.775,3.22-.487,4.069.733c.79,1.137.346,2.69-.185,3.969a43.156,43.156,0,0,1-3.254,6.31,9.443,9.443,0,0,1-2.337,2.768,9.636,9.636,0,0,1-4.388,1.439c-8.28,1.168-16.7.309-25.014-.551-2.324-.241-4.838-.567-6.5-2.2a5.324,5.324,0,0,1-.71-5.727" transform="translate(30.229 52.289)" fill="#56ba59"/>
        <path id="Trazado_876192" data-name="Trazado 876192" d="M17.232,130.753c2.123,11.879,4.786,24.708,13.872,32.649,7.833,6.847,18.832,8.561,29.214,9.223a212.288,212.288,0,0,0,37.322-.913c9.7-1.1,19.844-3.1,27.194-9.526,8.008-7,11.278-18.229,10.959-28.857a3.376,3.376,0,0,0-.649-2.269,3.483,3.483,0,0,0-2.315-.787,621.07,621.07,0,0,0-115.6.481" transform="translate(7.44 55.186)" fill="#ff9061"/>
        <path id="Trazado_876193" data-name="Trazado 876193" d="M39.808,139.8c-3.937-.445-8.636.906-9.988,4.632-1.323,3.644,1.771,7.982,5.625,8.383s7.587-2.692,8.427-6.476c.581-2.624-.584-6.145-4.065-6.539" transform="translate(12.741 60.325)" fill="#ffa47d"/>
        <path id="Trazado_876194" data-name="Trazado 876194" d="M22.387,134.106a765.27,765.27,0,0,1,104.5.107" transform="translate(9.666 57.155)" fill="none" stroke="#c75938" stroke-miterlimit="10" stroke-width="0.5"/>
        <path id="Trazado_876195" data-name="Trazado 876195" d="M199.7,175.858s4.795-41.3,6.293-61.046a197.462,197.462,0,0,0-39.259,1.611c.879,19.113,9.073,59.547,9.073,59.547Z" transform="translate(71.99 49.44)" fill="#fff"/>
        <path id="Trazado_876196" data-name="Trazado 876196" d="M170.846,131.8q2.816,16.891,5.633,33.783,9.847.775,19.75.74,2.3-17.246,3.094-34.611a19.365,19.365,0,0,1-17.4,2.259c-3.605-1.322-7.412-3.778-11.08-2.171" transform="translate(73.765 56.68)" fill="#94dfff"/>
        <path id="Trazado_876197" data-name="Trazado 876197" d="M189.523,161.984c1.85-7.006.072-14.7-3.982-20.7s-10.207-10.4-16.911-13.152c-12.077-4.951-26.386-4.585-37.843,1.667S111.156,148.27,110.5,161.307c27.142-.942,54.321-.866,79.018.677" transform="translate(47.712 53.852)" fill="#9c6035"/>
        <path id="Trazado_876198" data-name="Trazado 876198" d="M143,128.579c4.228-1.4,8.768.722,12.542,3.088a10.223,10.223,0,0,1,2.981,2.491,3.773,3.773,0,0,1,.568,3.687c-.789,1.7-2.978,2.165-4.851,2.161a21.013,21.013,0,0,1-14.295-5.746,4.251,4.251,0,0,1-1.2-1.645,3.2,3.2,0,0,1,.617-2.845c.6-.809,1.446-1.4,3.638-1.191" transform="translate(59.851 55.323)" fill="#bd7440"/>
        <path id="Trazado_876199" data-name="Trazado 876199" d="M100.954,136.435l-4.868-6.109s.989-3.395-.5-3.465-2.4,2.686-2.4,2.686-3.041-1.413-3.253.425,4.1,1.838,4.1,1.838l4.172,5.373Z" transform="translate(38.827 54.773)" fill="#fff7ed"/>
        <path id="Trazado_876200" data-name="Trazado 876200" d="M137.12,161.451c2.942-1.6,4.128-5.446,3.433-8.725s-2.9-6.039-5.365-8.309A35.576,35.576,0,0,0,108.1,135.3a10.428,10.428,0,0,1-2.947.04c-1.93-.374-3.373-1.921-5.017-3s-4.1-1.585-5.383-.094c-1.074,1.253-.66,3.213.2,4.619s2.11,2.589,2.707,4.128c1.206,3.11-.57,6.553-.457,9.886.145,4.278,3.483,7.922,7.372,9.71s8.273,2.085,12.545,2.354l8.324.521c4.421.278,8.8-.451,11.667-2.012" transform="translate(40.635 56.698)" fill="#9c6035"/>
        <path id="Trazado_876201" data-name="Trazado 876201" d="M112.408,138.021c3.028-1.111,6.278.573,8.98,2.451a7.531,7.531,0,0,1,2.135,1.979,3.26,3.26,0,0,1,.408,2.927c-.564,1.349-2.132,1.718-3.473,1.715a14.3,14.3,0,0,1-10.236-4.562,3.384,3.384,0,0,1-.86-1.306,2.753,2.753,0,0,1,.442-2.258c.431-.643,1.035-1.112,2.6-.946" transform="translate(47.18 59.439)" fill="#bd7440"/>
        <path id="Trazado_876202" data-name="Trazado 876202" d="M218.872,148.923l-136.243.769c3.588,8.943,15.1,11.045,24.721,11.56,30.555,1.641,61.184.564,91.763-.513,3.955-.139,8.029-.3,11.622-1.962a16.121,16.121,0,0,0,8.137-9.855" transform="translate(35.676 64.3)" fill="#dba993"/>
      </g>
    </g>
  </g>
</svg>
