<svg xmlns="http://www.w3.org/2000/svg" xmlns:xlink="http://www.w3.org/1999/xlink" width="400" height="148" viewBox="0 0 400 148">
  <defs>
    <clipPath id="clip-path">
      <rect id="mujer-forma-tiro-completo-corriendo-al-aire-libre" width="400" height="148" rx="13" transform="translate(1020 2871)" fill="#ebebfd"/>
    </clipPath>
    <clipPath id="clip-path-2">
      <rect id="Rectángulo_402509" data-name="Rectángulo 402509" width="691.27" height="336.827" fill="none"/>
    </clipPath>
    <clipPath id="clip-path-3">
      <rect id="Rectángulo_402496" data-name="Rectángulo 402496" width="506.5" height="172.279" fill="none"/>
    </clipPath>
    <clipPath id="clip-path-4">
      <rect id="Rectángulo_402494" data-name="Rectángulo 402494" width="199.664" height="189.517" fill="none"/>
    </clipPath>
    <clipPath id="clip-path-5">
      <path id="Trazado_876295" data-name="Trazado 876295" d="M74.388,347.387a94.759,94.759,0,1,0,95.068-94.449,94.759,94.759,0,0,0-95.068,94.449" transform="translate(-74.387 -252.938)" fill="none"/>
    </clipPath>
    <clipPath id="clip-path-6">
      <rect id="Rectángulo_402495" data-name="Rectángulo 402495" width="199.665" height="189.517" fill="none"/>
    </clipPath>
    <clipPath id="clip-path-7">
      <path id="Trazado_876299" data-name="Trazado 876299" d="M1456.213,94.449A94.759,94.759,0,1,0,1551.281,0a94.759,94.759,0,0,0-95.068,94.449" transform="translate(-1456.213 0)" fill="none"/>
    </clipPath>
    <clipPath id="clip-path-8">
      <rect id="Rectángulo_402497" data-name="Rectángulo 402497" width="506.5" height="34.069" fill="none"/>
    </clipPath>
    <clipPath id="clip-path-10">
      <rect id="Rectángulo_402498" data-name="Rectángulo 402498" width="129.02" height="12.891" fill="none"/>
    </clipPath>
    <clipPath id="clip-path-11">
      <rect id="Rectángulo_402499" data-name="Rectángulo 402499" width="78.632" height="95.795" fill="none"/>
    </clipPath>
    <clipPath id="clip-path-12">
      <rect id="Rectángulo_402500" data-name="Rectángulo 402500" width="69.129" height="68.777" fill="none"/>
    </clipPath>
    <clipPath id="clip-path-13">
      <rect id="Rectángulo_402501" data-name="Rectángulo 402501" width="41.988" height="94.172" fill="none"/>
    </clipPath>
    <clipPath id="clip-path-14">
      <rect id="Rectángulo_402502" data-name="Rectángulo 402502" width="24.326" height="56.772" fill="none"/>
    </clipPath>
    <clipPath id="clip-path-15">
      <rect id="Rectángulo_402503" data-name="Rectángulo 402503" width="9.537" height="9.552" fill="none"/>
    </clipPath>
    <clipPath id="clip-path-16">
      <rect id="Rectángulo_402504" data-name="Rectángulo 402504" width="118.037" height="117.435" fill="none"/>
    </clipPath>
    <clipPath id="clip-path-17">
      <rect id="Rectángulo_402505" data-name="Rectángulo 402505" width="102.395" height="84.06" fill="none"/>
    </clipPath>
    <clipPath id="clip-path-18">
      <rect id="Rectángulo_402506" data-name="Rectángulo 402506" width="45.335" height="131.525" fill="none"/>
    </clipPath>
    <clipPath id="clip-path-19">
      <rect id="Rectángulo_402507" data-name="Rectángulo 402507" width="44.097" height="68.576" fill="none"/>
    </clipPath>
  </defs>
  <g id="Enmascarar_grupo_1098712" data-name="Enmascarar grupo 1098712" transform="translate(-1020 -2871)" clip-path="url(#clip-path)">
    <g id="Grupo_1100634" data-name="Grupo 1100634" transform="translate(938.561 2776.587)">
      <g id="Grupo_1100633" data-name="Grupo 1100633" clip-path="url(#clip-path-2)">
        <rect id="Rectángulo_402493" data-name="Rectángulo 402493" width="506.5" height="172.279" transform="translate(73.189 80.972)" fill="#9db4fb"/>
        <g id="Grupo_1100598" data-name="Grupo 1100598" transform="translate(73.189 80.972)">
          <g id="Grupo_1100597" data-name="Grupo 1100597" clip-path="url(#clip-path-3)">
            <path id="Trazado_876290" data-name="Trazado 876290" d="M74.388,347.388a94.759,94.759,0,1,0,95.069-94.449,94.759,94.759,0,0,0-95.069,94.449" transform="translate(-121.946 -246.758)" fill="#9db4fb"/>
            <g id="Grupo_1100591" data-name="Grupo 1100591" transform="translate(-57.704 6.18)" opacity="0.9">
              <g id="Grupo_1100590" data-name="Grupo 1100590" transform="translate(0)">
                <g id="Grupo_1100589" data-name="Grupo 1100589" clip-path="url(#clip-path-4)">
                  <g id="Grupo_1100588" data-name="Grupo 1100588" transform="translate(10.146 0)">
                    <g id="Grupo_1100587" data-name="Grupo 1100587" clip-path="url(#clip-path-5)">
                      <path id="Trazado_876291" data-name="Trazado 876291" d="M430.588,286.754a1.715,1.715,0,0,0,1.383,1.791c.7.1,3.772.411,3.37,1.2s-2.582.489-2.985,2.372-2.79,3.367-3.78,2.272a3.692,3.692,0,0,1-.98-3.64c.4-1.227.109-3.411-1.282-2.622s-3.682,2.173-3.573-.407,2.689-2.574,2.3-4.859,1.594-1.484,1.005-3.273-2.281-1.4-.292-2.483,1.428-1.386,3.348-1.875,3.408.11,3.7,1-1.393.889-1,2.081,2.478,1.3,1.582,2.091-2.776-1-3.776,1.377,1.279,3.083.976,4.969" transform="translate(-302.71 -267.435)" fill="#8ba9f8"/>
                      <path id="Trazado_876292" data-name="Trazado 876292" d="M366.5,265.479a1.986,1.986,0,0,1,.448,2.837c-.134.474,2.509,1.777,1.581,2.054s-3.827-3.189-5.816-2.461-3.174-.462-3.45,2.447,2.106,3.58,1.306,5.166-2.958,1.314-1.355,3.039a6.109,6.109,0,0,1,1.866,2.919c.657,1.457,1.717.667,1.711,2.52s-.007,1.986-.013,4.1.789,1.987-.936,3.305-2.132,4.494-3.852,3.827-2.766-4.377-2.626-6.5-2.014-1.593-3.115-3.849-2.82-2.7-6.389-4.542-5.554-1.851-4.887-3.437,2.784-1.181,1.334-3.04-1.568-2.674-1.432-5.642-.323-3.232-.022-4.819,2.281.4,3.081-1.181,1.33-1.981,4.237-.649,4.227,3.191,5.686,1.475,2.918-1.315,5.031.149,1.716,1.726,3.7,1.6,3.151-.067,3.909.674" transform="translate(-248.973 -258.075)" fill="#8ba9f8"/>
                      <path id="Trazado_876293" data-name="Trazado 876293" d="M372.259,388.348c-.7,1.983,1.869,5.367,3.748,7.36s1.38,3.281,1.171,6.258a9.572,9.572,0,0,0,2.359,6.957c1.483,1.892,5.158,1.605,6.716,2.6s.014,3.871,1.4,5.465.59,1.888,2.072,4.277,5.363-.778,5.658.019-1.792,1.383-2.592,3.564,2.872,1.8,4.358,2.795.492,1.492-.106,2.482.783,3.179-.412,4.367-1.493,1.086-1.4,3.769-5.569,2.761-5.57,3.355,3.17,2,4.466.014,3.284-1.776,4.974-2.961a9.711,9.711,0,0,0,3.788-4.554c1-2.281-.1-1.39,1.5-2.179s-.2-.7.008-2.384,2.484-.487,2.5-4.559,3.492-5.548,3.705-9.618,1.714-7.937,2.919-12.6,6.464-2.56,6.77-5.637,5.686-7.725,6.486-10.105-.686-2.385.619-6.75-2.964-4.377-2.56-6.362.208-2.978.612-5.063,1.6-2.178,2.851-1.48,2.213,1.3,4.7-1.672,1.306-4.662,2.4-6.147,4.871-2.169,5-3.458,1.465-1.287,2.16-1.086,5.769-3.457,6.371-5.44-1.074-5.861.228-8.934.237-11.616,1.326-10.618.255,13.3,1.248,13.209,1.123-9.727.052-15.986-1.859-8.543-3.834-12.024-2.166-5.17-3.743-9.048-11.929-18.982-15.639-24.54c-1.53-2.293-8.186-6.117-10.168-7.446s-3.71.98-4.176,1.774.987,1.591.983,2.849-1.722.39-1.917-.735-1.317-1.79-2.24-2.853-.656-1.922-1.843-3.25-4.031-1.8-5.287-2.534-2.052.127-1.128.857.852,2.519,2.04,3.78,1.717,1,2.705,2.657,3.238,1.136,3.7,2.064-.4.926-1.921.126-1.914-1.4-3.765-2.395-3.033-3.122-3.43-3.322-1.722.524-.865,1.387a26.694,26.694,0,0,0,3.564,3.322c1.782,1.33-.468,1.454-1.925,1.45s-4.1-1.667-3.705-.475,2.441,2.392,4.423,3.654,3.11.209,4.166,1.14.592,1.325,1.516,1.989,2.515.141,3.294.21.211.927.935,1.658,3.834,2.063,5.417,3.392,1.442,4.11.25,4.635-.407,2.779-2.129,3.17-2.055,1.119-1.33,2.245a2.613,2.613,0,0,1-.742,3.705c-1.391.724-2.509-1.993-2.449-4.376s-1.833-1.595-3.418-2.792-.919-2.32-1.509-3.777-2.369-4.774-3.16-5.305-2.653,1.446-3.185,2.239a1.848,1.848,0,0,0-.4,1.985,1.875,1.875,0,0,1-.934,2.114c-.664.4-3.039-1.8-3.5-1.931s-.881,6.087-1.348,7.145-2.988,3.166-2.066,4.692,4.691,2.4,6.543,2.669,2.452-.456,3.773.012,4.5,1.472,4.031,2.263-3.57-1.269-4.433-.543.457,1.789,1.048,3.446-3.648,2.3-3.186,2.967,2.114.866,3.57,1.336.927-.394,1.325-.724,1.261-1.12,3.309.078,3.168,3.12,4.489,3.919,1.053,1.923,2.771,2.923a5.7,5.7,0,0,1,2.833,3.716c.59,1.722.39,2.318,3.163,4.245s-.344,4.1.91,5.166,2.232,5.369,3.888,5.44,1.794-2.31,1.93-3.3.538-2.05,2.657-2.838,2.446.6,3.769.939,1.132-1.784,2.719-1.711,3.5,2.658,3.363,4.047.919,2.32,1.505,5.433-1.115,6.98-1.909,6.977-1.781-2.29-2.373-3.284-3.076-.506-3.773.185.283,4.568.774,6.556-2.588,1.679-3.583,2.173-1,2.678-.515,5.856-3.185,2.571-4.775,2.566-3.183,1.976-3.572.186a2.977,2.977,0,0,0-3.07-2.292c-1.094,0-1,2.478-1.4,2.477s-.493-.994-.887-1.69-.991-.5-2.38-.505-2.885,1.282-4.176,1.476-1.387-.5-2.58-.306-1.2,1.882-2.889,3.167-2.288,1.283-3.684,3.563-2.883.685-6.362,1.965-2.6,5.848-3.3,6.938-2.383-.8-4.668.183-2.688,2.077-5.769,3.059-3.973.583-5.269,2.167-3.875.783-4.576,2.766m56.278-76.33c-.531.725-2.248-.933-3.572-.74s-1.658.987-1.526,1.584,2.174,2.588,2.237,3.779-2.9-3.055-3.37-1.864.722,1.656-.007,2.315,1.449,1.925,1.381,2.852-8.068-2.343-7.4-3.864,4.032,1.469,4.5-.316-1.582-2.257-.517-3.708,2.126-2.508,2.591-3.368.2-.793,2.118.007c2.305.962,4.1,2.6,3.564,3.322" transform="translate(-269.547 -263.573)" fill="#8ba9f8"/>
                      <path id="Trazado_876294" data-name="Trazado 876294" d="M51.727,363.755c-.768-7.548,4.476-32.55,8.248-32.538s6.17-4.548,7.755-3.153-3.594,5.946-5.116,6.139-2.654,1.581-2.666,5.154,3.547,8.549,4.534,10.142,1.976,2.588,3.377-.187,3-6.742,4-9.319,6.583-9.51,6.581-8.715-4.4,8.523-5.8,12.291-3.406,9.321-5.6,12.245-3.369-1.75-4.5-.014,2.087,8.99,6.439,13.771,5.113,15.107,5.7,18.286,4.351,5.375,5.931,7.764,1.57,5.96,4.14,9.544,7.716,8.167,13.073,9.97,4.567.015,3.581-2.371.215-4.963.427-9.133-.584-3.577.815-6.55-3.145-9.343-2.934-13.71,1.6-4.561,2.8-6.543-2.565-5.172-.569-8.541,3.178-.386,4.47-2.567,8.64.823,12.214,1.431,6.158-.774,11.133-4.133,4.6-9.119,2.821-12.653,1.6-3.615,1.807-6-7.318-8.563-7.506-12.138-3.356-5.372-3.552-6.762-1.983-.8-3.175-.606-3.174-.8-4.36-2.2-9.923-1.821-11.114-1.825-.4,1.986-1.015,3.969-2.183,2.376-4.963,2.963a8.091,8.091,0,0,0-4.674,2.269c-1.1.988-.59-1.593-1.38-3.381s-2.482.091-4.668.481-6.555.872-8.042-.026-1.669-5.465-.67-7.35,3.374.508,4.962.613,5.076-3.657,5.08-5.047-1.982-1.1-3.764-3.091-3.774.585-5.461.479-1.684-1.792.009-2.779,1.4-3.471,2.4-4.461,1.585.8,1.681,1.892,2.184-.093,2.585-1.184,2.182.9,2.074,3.482-.012,3.674,2,4.573,1.16,1.493.263,2.483.68,4.867.784,3.478,1.1-1.288,3.285-3.166.706-3.076,2.989-4.459,5.382-4.647,6.772-4.247,0,1.191-1.1,3.074-4.676,2.467-5.476,4.35.885,2.585,2.328.5,3.041-2.572,6.821-4.743,2.483-.389,5.263-.281,1.376,4.471,2.962,5.173,1.084,2.187,1.971,4.276,5.652,2.1,8.04,1.119.9-3.076.412-4.766,1.7-3.172,1.206-4.463-5.759.179-7.046-.819.506-3.176,2.1-4.659,1.395-1.882.7-1.984-2.281-1.1-.984-2.563,2.488-1.9,3.188-3.287-.194-1.292-.09-2.781,3.578-1.08,3.581-2.172-.783-3.775-1.576-3.689-2.192,2.187-3.09,3.773-1.394,1.782-2.692,3.267-1.2,1.882-1.3,2.678-.21,3.373-1.594,1.584-1.584-1.4-2.072-3.88-1.687-.4-2.034-.9.8-2.133.954-2.976a2.056,2.056,0,0,0-.754-2.088c-.662-.532-1.2,1.983-2.4,3.831s-2.647.124-3.834-1.2-3.309-.539-4.628-1.4.139-1.928.675-4.177a2.062,2.062,0,0,0-.829-2.181c-.594-.279-.376-.281,0,0,.116.055.253.118.439.195,2.248.935,3.841-.648,5.708-4.747s2.133-4.626,3.317-2.637-.8,1.852-.8,2.911-1.861,2.375-2.927,4.622-.8,1.717-.41,4.235,1.449,1.858,2.679,1.2,2.226-3.7,3.026-4.89.924.666,1.317,1.99,1.718.537,4.769-1.44,1.6-3.3.016-4.9-1.165-7.948-1.028-9.137-2.375-2.788-3.563-3.322a3.488,3.488,0,0,0-3.977,1.576c-.932,1.454-2.519,1.05-5.165.689s-1.726,1.672-2.055,2.6,1.914-.257,1.911.668,0,0-1.328,1.187-2.523,2.11-4.259,1.708,1.61-1.055,1.747-2.511,1.594-1.98,1.6-3.657-2.524,3.125-3.172,2.064.92-1.32.661-2.91-1.321-1.064.011-3.31,4.771-1.7,5.169-3.954-.393.661-1.582-.005c-.6-.333-.163-.926.634-1.668s1.958-1.631,2.821-2.556c0,0-41.461,8.734-57.329,38.467s.642,71.881-.129,64.335m15.448-48.2c.6-1.984,3.38-1.353,4.189-5.433s6.286-9.885,5.979-6.844c-.2,1.975-.416,5.56-2.405,6.943s-1.2,3.569-3,5.349-5.369,1.97-4.766-.016" transform="translate(-55.087 -258.191)" fill="#8ba9f8"/>
                    </g>
                  </g>
                </g>
              </g>
            </g>
            <path id="Trazado_876296" data-name="Trazado 876296" d="M1456.213,94.45A94.759,94.759,0,1,0,1551.282,0a94.759,94.759,0,0,0-95.069,94.449" transform="translate(-1027.652 -80.972)" fill="#9db4fb"/>
            <g id="Grupo_1100596" data-name="Grupo 1100596" transform="translate(418.416 -80.972)" opacity="0.9">
              <g id="Grupo_1100595" data-name="Grupo 1100595">
                <g id="Grupo_1100594" data-name="Grupo 1100594" clip-path="url(#clip-path-6)">
                  <g id="Grupo_1100593" data-name="Grupo 1100593" transform="translate(10.145 0)">
                    <g id="Grupo_1100592" data-name="Grupo 1100592" clip-path="url(#clip-path-7)">
                      <path id="Trazado_876297" data-name="Trazado 876297" d="M1433.552,110.817c-.768-7.548,4.476-32.55,8.248-32.538s6.17-4.548,7.755-3.153-3.594,5.946-5.116,6.139-2.654,1.581-2.665,5.154,3.547,8.55,4.534,10.142,1.976,2.588,3.377-.187,3-6.742,4-9.319,6.583-9.51,6.581-8.715-4.4,8.523-5.8,12.291-3.406,9.321-5.6,12.245-3.369-1.75-4.5-.014,2.087,8.991,6.439,13.771,5.113,15.107,5.7,18.286,4.351,5.375,5.931,7.764,1.57,5.96,4.14,9.544,7.716,8.167,13.073,9.97,4.567.015,3.581-2.371.215-4.963.427-9.133-.584-3.577.815-6.55-3.146-9.343-2.934-13.71,1.6-4.561,2.8-6.544-2.565-5.171-.568-8.541,3.178-.386,4.469-2.567,8.64.822,12.214,1.43,6.157-.774,11.133-4.133,4.6-9.119,2.821-12.653,1.6-3.615,1.807-6-7.318-8.563-7.506-12.138-3.356-5.372-3.552-6.762-1.983-.8-3.176-.606-3.174-.8-4.36-2.2S1487.7,67.9,1486.511,67.9s-.4,1.986-1.015,3.969-2.183,2.376-4.964,2.963a8.092,8.092,0,0,0-4.674,2.269c-1.1.988-.59-1.593-1.38-3.381s-2.482.091-4.668.481-6.555.872-8.042-.026-1.669-5.465-.669-7.35,3.373.508,4.962.613,5.076-3.657,5.08-5.047-1.982-1.1-3.764-3.091-3.774.585-5.461.479-1.683-1.792.009-2.779,1.4-3.471,2.4-4.461,1.585.8,1.681,1.892,2.185-.093,2.585-1.184,2.182.9,2.074,3.482-.012,3.674,2,4.573,1.161,1.493.263,2.483.68,4.867.784,3.478,1.095-1.288,3.285-3.166.706-3.076,2.989-4.459,5.381-4.647,6.771-4.247,0,1.191-1.1,3.074-4.676,2.467-5.476,4.35.885,2.585,2.328.5,3.041-2.572,6.82-4.743,2.483-.389,5.263-.281,1.376,4.471,2.962,5.173,1.084,2.187,1.971,4.276,5.652,2.1,8.04,1.119.9-3.076.412-4.766,1.7-3.172,1.206-4.463-5.759.179-7.046-.819.506-3.176,2.1-4.659,1.395-1.882.7-1.984-2.281-1.1-.984-2.563,2.488-1.9,3.188-3.287-.194-1.292-.09-2.781,3.578-1.08,3.581-2.172-.783-3.775-1.576-3.688-2.193,2.187-3.09,3.773-1.394,1.783-2.692,3.267-1.2,1.882-1.3,2.678-.21,3.373-1.594,1.584-1.584-1.4-2.072-3.88-1.687-.4-2.034-.9.8-2.133.954-2.976a2.055,2.055,0,0,0-.754-2.088c-.661-.532-1.2,1.983-2.4,3.831s-2.647.124-3.834-1.2-3.309-.539-4.628-1.4.139-1.928.675-4.176a2.062,2.062,0,0,0-.829-2.182c-.594-.279-.376-.281,0,0,.116.055.253.117.438.195,2.248.935,3.842-.648,5.708-4.747s2.133-4.626,3.317-2.637-.8,1.852-.8,2.911-1.861,2.375-2.927,4.622-.8,1.718-.41,4.235,1.448,1.858,2.679,1.2,2.226-3.7,3.026-4.889.924.665,1.316,1.99,1.718.537,4.77-1.44,1.6-3.3.016-4.9-1.165-7.948-1.028-9.137-2.375-2.788-3.564-3.322a3.488,3.488,0,0,0-3.977,1.576c-.932,1.454-2.519,1.05-5.164.689s-1.727,1.672-2.055,2.6,1.914-.257,1.911.668,0,0-1.328,1.187-2.523,2.109-4.259,1.707,1.61-1.055,1.747-2.51,1.594-1.98,1.6-3.657-2.524,3.125-3.172,2.064.92-1.32.661-2.91-1.321-1.064.011-3.31,4.771-1.7,5.169-3.954-.393.661-1.582-.005c-.6-.333-.163-.926.634-1.668s1.958-1.631,2.821-2.556c0,0-41.461,8.734-57.329,38.467s.642,71.881-.129,64.335M1449,62.615c.6-1.984,3.38-1.353,4.189-5.433s6.286-9.885,5.979-6.844c-.2,1.975-.416,5.56-2.405,6.943s-1.2,3.569-3,5.349-5.369,1.97-4.766-.016" transform="translate(-1436.912 -5.253)" fill="#8ba9f8"/>
                      <path id="Trazado_876298" data-name="Trazado 876298" d="M1492.37,370.859c1.981,1.595,4.658,2.3,5.048,4.882s2.163,6.062,3.348,8.349,1.875,3.382,1.276,4.274-5.247-4.386-6.722-8.759-4.931-10.341-2.95-8.746" transform="translate(-1479.52 -242.903)" fill="#8ba9f8"/>
                    </g>
                  </g>
                </g>
              </g>
            </g>
          </g>
        </g>
        <g id="Grupo_1100600" data-name="Grupo 1100600" transform="translate(73.189 219.182)">
          <g id="Grupo_1100599" data-name="Grupo 1100599" clip-path="url(#clip-path-8)">
            <path id="Trazado_876300" data-name="Trazado 876300" d="M697.754,715.14v-7.385a18.486,18.486,0,0,0-22.347-18.086c-10.62,2.275-23.095,2.029-34.2-4.142a18.329,18.329,0,0,0-16.694-.469c-7.99,3.76-20.5,7.082-33.135.742a18.759,18.759,0,0,0-15.847-.511c-23.1,9.936-37.855,5.238-46.484-1.054a18.627,18.627,0,0,0-21.734-.277c-8.9,6.264-22.208,11.133-37.449,1.921a18.341,18.341,0,0,0-16.881-1.059c-8.126,3.588-20.772,6.747-32.993.735a18.583,18.583,0,0,0-15.539-.269c-23.1,9.939-37.861,5.241-46.491-1.051a18.628,18.628,0,0,0-21.734-.277c-8.848,6.226-22.048,11.074-37.173,2.087A18.628,18.628,0,0,0,281.7,685.2c-8,3.7-20.356,6.862-32.833.6a18.759,18.759,0,0,0-15.847-.511c-23.1,9.936-37.855,5.238-46.484-1.054a18.7,18.7,0,0,0-21.8-.232l-.308.214a18.532,18.532,0,0,0-8.036,15.251V715.14a18.494,18.494,0,0,0,18.494,18.494H679.26a18.494,18.494,0,0,0,18.494-18.494" transform="translate(-175.689 -665.274)" fill="#ccdcfd"/>
          </g>
        </g>
        <g id="Grupo_1100632" data-name="Grupo 1100632" transform="translate(73.189 80.972)">
          <g id="Grupo_1100631" data-name="Grupo 1100631" clip-path="url(#clip-path-3)">
            <g id="Grupo_1100603" data-name="Grupo 1100603" transform="translate(289.379 133.981)" opacity="0.3">
              <g id="Grupo_1100602" data-name="Grupo 1100602" transform="translate(0 0)">
                <g id="Grupo_1100601" data-name="Grupo 1100601" clip-path="url(#clip-path-10)">
                  <path id="Trazado_876301" data-name="Trazado 876301" d="M1181.29,630.3c0,3.56-28.88,6.445-64.508,6.445s-64.51-2.885-64.51-6.445,28.881-6.445,64.51-6.445,64.508,2.886,64.508,6.445" transform="translate(-1052.271 -623.851)" fill="#a5d4f6"/>
                </g>
              </g>
            </g>
            <path id="Trazado_876302" data-name="Trazado 876302" d="M1119.583,626.952c0,3.557-24.508,6.445-54.741,6.445s-54.739-2.889-54.739-6.445,24.509-6.445,54.739-6.445,54.741,2.886,54.741,6.445" transform="translate(-735.253 -487.678)" fill="#ccdcfd"/>
            <path id="Trazado_876303" data-name="Trazado 876303" d="M996.125,661.137c0,1.781-8.9,3.222-19.872,3.222s-19.872-1.441-19.872-3.222,8.9-3.218,19.872-3.218,19.872,1.441,19.872,3.218" transform="translate(-700.041 -512.199)" fill="#ccdcfd"/>
            <path id="Trazado_876304" data-name="Trazado 876304" d="M968.941,616.9c0,1.049-5.239,1.9-11.7,1.9s-11.7-.849-11.7-1.9,5.237-1.9,11.7-1.9,11.7.851,11.7,1.9" transform="translate(-692.936 -484.07)" fill="#ccdcfd"/>
            <path id="Trazado_876305" data-name="Trazado 876305" d="M1122.752,310.85c-2.692-7.046,10.422-11.3,5.49-16.235s-12.067,8.741-5.49,16.235" transform="translate(-807.351 -273.389)" fill="#ccdcfd"/>
            <path id="Trazado_876306" data-name="Trazado 876306" d="M1092.359,292.86c-1.65-4.326,6.4-6.939,3.373-9.967s-7.408,5.367-3.373,9.967" transform="translate(-788.101 -265.97)" fill="#ccdcfd"/>
            <path id="Trazado_876307" data-name="Trazado 876307" d="M995.54,325.8c-3.534-3.713-9.987,3.087-11.569-1.38s8.9-4.848,11.569,1.38" transform="translate(-718.019 -291.43)" fill="#ccdcfd"/>
            <path id="Trazado_876308" data-name="Trazado 876308" d="M1043.814,401.61c-5.127.159-4.363,9.5-8.746,7.7s2.32-9.859,8.746-7.7" transform="translate(-750.695 -343.965)" fill="#ccdcfd"/>
            <path id="Trazado_876309" data-name="Trazado 876309" d="M983.9,344.968c-5.456.488-10.5,2.108-14.323,6.491-3.149,3.609-6.725,12.109-.465,14.945s9.686-7.05,11.895-11.723c3.8-8.04,15.145-3.675,15.27-5.056.255-2.851-6.76-5.162-12.378-4.657" transform="translate(-706.129 -307.033)" fill="#ccdcfd"/>
            <path id="Trazado_876310" data-name="Trazado 876310" d="M998.638,436.428A2.43,2.43,0,1,1,996.208,434a2.431,2.431,0,0,1,2.429,2.429" transform="translate(-724.553 -365.433)" fill="#ccdcfd"/>
            <path id="Trazado_876311" data-name="Trazado 876311" d="M1056.527,499.71a3.612,3.612,0,1,1-3.611-3.611,3.61,3.61,0,0,1,3.611,3.611" transform="translate(-760.946 -406.136)" fill="#ccdcfd"/>
            <path id="Trazado_876312" data-name="Trazado 876312" d="M1350.774,411.541a2.348,2.348,0,1,1-2.349-2.351,2.348,2.348,0,0,1,2.349,2.351" transform="translate(-955.465 -349.172)" fill="#ccdcfd"/>
            <path id="Trazado_876313" data-name="Trazado 876313" d="M958.095,298.835a1.731,1.731,0,1,1-1.733-1.732,1.732,1.732,0,0,1,1.733,1.732" transform="translate(-698.895 -275.706)" fill="#ccdcfd"/>
            <path id="Trazado_876314" data-name="Trazado 876314" d="M1188.46,299.927a3.8,3.8,0,1,1-3.8-3.8,3.8,3.8,0,0,1,3.8,3.8" transform="translate(-847.174 -275.067)" fill="#ccdcfd"/>
            <path id="Trazado_876315" data-name="Trazado 876315" d="M1323.907,559.628a3.8,3.8,0,1,1-3.8-3.8,3.8,3.8,0,0,1,3.8,3.8" transform="translate(-935.952 -445.285)" fill="#ccdcfd"/>
            <path id="Trazado_876316" data-name="Trazado 876316" d="M1453.857,455.93a1.9,1.9,0,1,1-1.9-1.9,1.9,1.9,0,0,1,1.9,1.9" transform="translate(-1023.618 -378.561)" fill="#ccdcfd"/>
            <path id="Trazado_876317" data-name="Trazado 876317" d="M1005.615,584.567a2.517,2.517,0,1,1-2.518-2.518,2.518,2.518,0,0,1,2.518,2.518" transform="translate(-729.012 -462.471)" fill="#ccdcfd"/>
            <path id="Trazado_876318" data-name="Trazado 876318" d="M1113.856,347.083c-22.506,2.425-40.522,6.531-40.235,9.165l25.643,91.709a4.963,4.963,0,0,0,5.311,3.6l20.316-2.191,20.315-2.193a4.961,4.961,0,0,0,4.422-4.645l5.491-95.069c-.284-2.634-18.756-2.8-41.264-.372" transform="translate(-776.883 -307.339)" fill="#fff"/>
            <path id="Trazado_876319" data-name="Trazado 876319" d="M1069.043,332.244a31.283,31.283,0,0,1-5.52-5.822c-11.59-16.6-22.125-25.9-29.533-13.684-2.968,6.174,14.985,2.439,14.985,18.2,6.494,2.389,12.919.966,20.067,1.307" transform="translate(-750.693 -282.293)" fill="#ccdcfd"/>
            <path id="Trazado_876320" data-name="Trazado 876320" d="M1064.78,336.116c-9.027,2.909-13.992-5.474-19.591-10.891-2.168-2.168-4.334-1.445-7.224-2.89-2.885-.72-3.248-1.8-3.072-2.883-.306.42-.608.861-.9,1.347-2.968,6.174,14.985,2.439,14.985,18.2,6.494,2.389,12.919.966,20.067,1.307a36.155,36.155,0,0,1-4.264-4.188" transform="translate(-750.693 -290.353)" fill="#ccdcfd"/>
            <path id="Trazado_876321" data-name="Trazado 876321" d="M1144.836,385.691c-9.044,4.138-23.144-7.59-28.726-.66-3.054,3.317-10.628.245-17.284-5.44-7.147-.342-14.221,1.341-20.714-1.044.054.2.118.386.172.595,8.725,33.662,25.971,87.488,25.971,87.488a4.5,4.5,0,0,0,4.814,3.262l18.421-1.988,18.424-1.988a4.494,4.494,0,0,0,4.007-4.212l4.661-80.657a64.008,64.008,0,0,0-9.744,4.642" transform="translate(-779.829 -329.087)" fill="#ccdcfd"/>
            <path id="Trazado_876322" data-name="Trazado 876322" d="M1132.126,397.193c-13.241-1.325-25.255-6.306-32.735-17.137-.189-.157-.378-.306-.565-.464-7.147-.342-14.221,1.341-20.714-1.044.055.2.119.387.172.595,8.725,33.662,25.971,87.488,25.971,87.488a4.5,4.5,0,0,0,4.814,3.262l18.421-1.988,18.423-1.988a4.494,4.494,0,0,0,4.007-4.212l2.882-49.891a43.229,43.229,0,0,1-7.669-1.617c-7.226,0-7.226-13.005-13.006-13.005" transform="translate(-779.828 -329.087)" fill="#ccdcfd"/>
            <path id="Trazado_876323" data-name="Trazado 876323" d="M1087.651,413.933c9.156,33.132,22.856,75.891,22.856,75.891a4.5,4.5,0,0,0,4.814,3.262l18.421-1.988,18.423-1.988a4.493,4.493,0,0,0,4.007-4.211l2.634-45.562c-15.529.075-28.818-6.763-42.1-16.061-6.916-5.762-20.264-3.26-29.052-9.343" transform="translate(-786.081 -352.281)" fill="#ccdcfd"/>
            <path id="Trazado_876324" data-name="Trazado 876324" d="M1155.119,347.455c.287,2.633-17.729,6.737-40.236,9.166s-40.979,2.261-41.262-.373,17.729-6.74,40.235-9.165,40.98-2.262,41.264.372" transform="translate(-776.883 -307.338)" fill="#fff"/>
            <path id="Trazado_876325" data-name="Trazado 876325" d="M1144.582,349.585c-9.118.982-17.63,2.18-24.249,3.4a48.667,48.667,0,0,0,5.52,5.822c5.982-.294,12.081-.846,19.544-1.65,21.726-2.346,39.157-5.942,38.928-8.032s-18.02-1.884-39.743.46" transform="translate(-807.502 -308.858)" fill="#fff"/>
            <path id="Trazado_876326" data-name="Trazado 876326" d="M1184.325,349.126c-.224-2.089-18.02-1.884-39.743.46-9.118.981-17.631,2.18-24.249,3.4.638.78,1.213,1.453,1.757,2.061,2.123-.216,32.655-4.336,42.732-.491,11.788-1.931,19.655-4.023,19.5-5.431" transform="translate(-807.502 -308.859)" fill="#fff"/>
            <g id="Grupo_1100606" data-name="Grupo 1100606" transform="translate(296.736 48.448)" opacity="0.2" style="mix-blend-mode: multiply;isolation: isolate">
              <g id="Grupo_1100605" data-name="Grupo 1100605">
                <g id="Grupo_1100604" data-name="Grupo 1100604" clip-path="url(#clip-path-11)">
                  <path id="Trazado_876327" data-name="Trazado 876327" d="M1084.475,377.886a31.044,31.044,0,0,1-10.732-2.275.716.716,0,0,0-.124.461l25.643,91.709a4.962,4.962,0,0,0,5.311,3.6l20.316-2.191,20.315-2.193a4.962,4.962,0,0,0,4.422-4.645l2.622-45.375c-31.738,10.808-61.222-6.246-67.774-39.087" transform="translate(-1073.617 -375.611)" fill="#a5d4f6"/>
                </g>
              </g>
            </g>
            <g id="Grupo_1100609" data-name="Grupo 1100609" transform="translate(304.164 75.467)" opacity="0.2" style="mix-blend-mode: multiply;isolation: isolate">
              <g id="Grupo_1100608" data-name="Grupo 1100608">
                <g id="Grupo_1100607" data-name="Grupo 1100607" clip-path="url(#clip-path-12)">
                  <path id="Trazado_876328" data-name="Trazado 876328" d="M1095.178,454.027l18.218,65.151a4.963,4.963,0,0,0,5.311,3.6l20.316-2.191,20.315-2.193a4.961,4.961,0,0,0,4.422-4.645l.547-9.49c-34.148,4.69-54.1-22.355-69.129-50.228" transform="translate(-1095.179 -454.027)" fill="#a5d4f6"/>
                </g>
              </g>
            </g>
            <g id="Grupo_1100612" data-name="Grupo 1100612" transform="translate(330.985 45.102)" opacity="0.5">
              <g id="Grupo_1100611" data-name="Grupo 1100611">
                <g id="Grupo_1100610" data-name="Grupo 1100610" clip-path="url(#clip-path-13)">
                  <path id="Trazado_876329" data-name="Trazado 876329" d="M1215.012,365.9s-3.16,74.692-5.5,85.382c-1.389,6.345-36.487,8.79-36.487,8.79s17.735-3.43,24.833-23.972c6.348-18.359,3.13-64.52,3.13-64.52,5.062.215,14.025-5.68,14.025-5.68" transform="translate(-1173.023 -365.901)" fill="#fff"/>
                </g>
              </g>
            </g>
            <path id="Trazado_876330" data-name="Trazado 876330" d="M1257.812,578.924c-.008,9.213-11.922,15.717-11.922,15.717,14.09-3.974,11.922-15.717,11.922-15.717" transform="translate(-889.797 -460.423)" fill="#fff"/>
            <g id="Grupo_1100615" data-name="Grupo 1100615" transform="translate(304.371 61.426)" opacity="0.5">
              <g id="Grupo_1100614" data-name="Grupo 1100614">
                <g id="Grupo_1100613" data-name="Grupo 1100613" clip-path="url(#clip-path-14)">
                  <path id="Trazado_876331" data-name="Trazado 876331" d="M1095.782,413.276s12.828,50.754,15.807,53.645,8.519,4.252,8.519,2-16.363-46.8-17.7-49.211-6.63-6.439-6.63-6.439" transform="translate(-1095.781 -413.276)" fill="#fff"/>
                </g>
              </g>
            </g>
            <g id="Grupo_1100618" data-name="Grupo 1100618" transform="translate(320.744 119.58)" opacity="0.5">
              <g id="Grupo_1100617" data-name="Grupo 1100617">
                <g id="Grupo_1100616" data-name="Grupo 1100616" clip-path="url(#clip-path-15)">
                  <path id="Trazado_876332" data-name="Trazado 876332" d="M1143.333,582.721s2.621,7.98,3.252,8.162,6.051,1.535,6.23,0-.871-6.413-1.563-6.956-8.54-3.049-7.919-1.207" transform="translate(-1143.298 -582.055)" fill="#fff"/>
                </g>
              </g>
            </g>
            <path id="Trazado_876333" data-name="Trazado 876333" d="M447.76,470.7c5.077-8.525-10.961-17-3.457-22.281s13.672,14.05,3.457,22.281" transform="translate(-363.07 -374.298)" fill="#ccdcfd"/>
            <path id="Trazado_876334" data-name="Trazado 876334" d="M500.626,455.248c3.113-5.235-6.733-10.437-2.126-13.679s8.392,8.625,2.126,13.679" transform="translate(-399.108 -370.033)" fill="#ccdcfd"/>
            <path id="Trazado_876335" data-name="Trazado 876335" d="M602.726,519.354c5.418-4.016,12.249,6.253,15.307.819s-10.437-8.288-15.307-.819" transform="translate(-468.241 -418.412)" fill="#ccdcfd"/>
            <path id="Trazado_876336" data-name="Trazado 876336" d="M528.831,605.1c6.609,1.361,3.513,13.3,9.6,11.95s-.785-13.3-9.6-11.95" transform="translate(-419.807 -477.511)" fill="#ccdcfd"/>
            <path id="Trazado_876337" data-name="Trazado 876337" d="M566.924,539.567c6.962,1.863,13.133,5.1,17.1,11.642,3.268,5.387,5.988,17.211-2.766,19.475s-10.965-11.321-12.775-17.875c-3.112-11.277-18.8-8.177-18.653-10,.312-3.753,9.926-5.167,17.093-3.247" transform="translate(-433.571 -434.067)" fill="#ccdcfd"/>
            <path id="Trazado_876338" data-name="Trazado 876338" d="M591.609,662.934a3.2,3.2,0,1,0,3.7-2.6,3.2,3.2,0,0,0-3.7,2.6" transform="translate(-460.923 -513.75)" fill="#ccdcfd"/>
            <path id="Trazado_876339" data-name="Trazado 876339" d="M495.933,731.359a4.752,4.752,0,1,0,5.495-3.867,4.749,4.749,0,0,0-5.495,3.867" transform="translate(-398.197 -557.754)" fill="#ccdcfd"/>
            <path id="Trazado_876340" data-name="Trazado 876340" d="M673.8,547.2a2.278,2.278,0,1,0,2.636-1.854A2.279,2.279,0,0,0,673.8,547.2" transform="translate(-514.801 -438.391)" fill="#ccdcfd"/>
            <path id="Trazado_876341" data-name="Trazado 876341" d="M368.937,442.587a5,5,0,1,0,5.783-4.068,5,5,0,0,0-5.783,4.068" transform="translate(-314.957 -368.347)" fill="#ccdcfd"/>
            <path id="Trazado_876342" data-name="Trazado 876342" d="M246.366,490.234c28.624,8.216,51.051,17.6,50.086,20.947L242.545,624.271a6.528,6.528,0,0,1-7.7,3.465l-25.839-7.418L183.173,612.9a6.527,6.527,0,0,1-4.685-7.017L192.8,481.417c.961-3.35,24.943.6,53.568,8.817" transform="translate(-190.15 -395.73)" fill="#fff"/>
            <path id="Trazado_876343" data-name="Trazado 876343" d="M438.946,509.331a41.131,41.131,0,0,0,8.466-6.3c18.765-18.909,34.515-28.582,41.364-11.08,2.456,8.671-19.973-.216-23.525,20.211-8.955,1.633-16.963-1.66-26.305-2.829" transform="translate(-360.893 -397.401)" fill="#ccdcfd"/>
            <path id="Trazado_876344" data-name="Trazado 876344" d="M445.416,518.611c11.044,5.806,19.369-3.942,27.848-9.7,3.3-2.322,5.943-.9,10.015-2.118,3.9-.284,4.616-1.6,4.632-3.044.3.613.594,1.252.866,1.949,2.456,8.671-19.973-.216-23.525,20.211-8.955,1.633-16.963-1.66-26.305-2.829a47.6,47.6,0,0,0,6.47-4.467" transform="translate(-360.893 -411.149)" fill="#ccdcfd"/>
            <path id="Trazado_876345" data-name="Trazado 876345" d="M213.88,538.738c10.789,7.4,31.708-4.621,37.382,5.619,3.211,4.988,13.72,2.713,23.629-3.156,9.341,1.167,18.131,4.943,27.085,3.316-.115.242-.24.474-.357.733-18.9,41.665-53.381,107.545-53.381,107.545a5.915,5.915,0,0,1-6.975,3.144l-23.428-6.728L194.4,642.481a5.912,5.912,0,0,1-4.245-6.362L202.3,530.525c3.884,2.045,7.521,5.063,11.584,8.213" transform="translate(-197.802 -428.7)" fill="#ccdcfd"/>
            <path id="Trazado_876346" data-name="Trazado 876346" d="M227.762,576.819c17.461,1.266,34.156-2.482,46.293-14.835.28-.162.558-.312.837-.475,9.341,1.167,18.13,4.943,27.084,3.315-.115.243-.24.474-.357.733-18.9,41.665-53.381,107.546-53.381,107.546a5.915,5.915,0,0,1-6.975,3.143l-23.428-6.728L194.4,662.789a5.911,5.911,0,0,1-4.245-6.362l7.509-65.316c3.3.385,7-.127,10.3-.367,9.366,1.629,12.3-15.228,19.789-13.925" transform="translate(-197.802 -449.008)" fill="#ccdcfd"/>
            <path id="Trazado_876347" data-name="Trazado 876347" d="M294.968,614.848c-19.335,40.881-46.729,93.215-46.729,93.215a5.914,5.914,0,0,1-6.975,3.144l-23.428-6.728L194.4,697.75a5.912,5.912,0,0,1-4.245-6.362l6.854-59.65c20.112,3.6,38.878-2.271,58.192-11.328,10.264-5.909,27,.342,39.763-5.562" transform="translate(-197.802 -483.969)" fill="#ccdcfd"/>
            <path id="Trazado_876348" data-name="Trazado 876348" d="M220.042,481.417c-.965,3.349,21.462,12.728,50.087,20.949s52.605,12.167,53.567,8.815-21.461-12.731-50.086-20.947S221,478.066,220.042,481.417" transform="translate(-217.394 -395.73)" fill="#fff"/>
            <path id="Trazado_876349" data-name="Trazado 876349" d="M276.691,493.231c11.6,3.327,22.36,6.8,30.664,9.874a64.113,64.113,0,0,1-8.466,6.3c-7.687-1.729-15.468-3.819-24.96-6.544-27.632-7.937-49.415-16.526-48.647-19.185s23.781,1.62,51.41,9.553" transform="translate(-220.834 -397.478)" fill="#fff"/>
            <path id="Trazado_876350" data-name="Trazado 876350" d="M225.281,483.679c.761-2.658,23.781,1.62,51.41,9.553,11.6,3.327,22.36,6.8,30.664,9.874-1,.867-1.9,1.61-2.742,2.275-2.7-.758-41.348-12.98-55.277-10.267-14.844-5.159-24.569-9.644-24.054-11.435" transform="translate(-220.835 -397.478)" fill="#fff"/>
            <g id="Grupo_1100621" data-name="Grupo 1100621" transform="translate(-11.704 114.825)" opacity="0.2" style="mix-blend-mode: multiply;isolation: isolate">
              <g id="Grupo_1100620" data-name="Grupo 1100620">
                <g id="Grupo_1100619" data-name="Grupo 1100619" clip-path="url(#clip-path-16)">
                  <path id="Trazado_876351" data-name="Trazado 876351" d="M281.972,568.787a40.839,40.839,0,0,0,14.423-.531.94.94,0,0,1,.057.625L242.545,681.972a6.528,6.528,0,0,1-7.7,3.465l-25.839-7.419L183.173,670.6a6.527,6.527,0,0,1-4.685-7.017l6.828-59.4c38.7,21.162,80.761,5.7,96.655-35.388" transform="translate(-178.446 -568.256)" fill="#a5d4f6"/>
                </g>
              </g>
            </g>
            <g id="Grupo_1100624" data-name="Grupo 1100624" transform="translate(-11.704 148.201)" opacity="0.2" style="mix-blend-mode: multiply;isolation: isolate">
              <g id="Grupo_1100623" data-name="Grupo 1100623">
                <g id="Grupo_1100622" data-name="Grupo 1100622" clip-path="url(#clip-path-17)">
                  <path id="Trazado_876352" data-name="Trazado 876352" d="M280.841,665.121l-38.3,80.34a6.529,6.529,0,0,1-7.7,3.465l-25.839-7.419-25.837-7.422a6.527,6.527,0,0,1-4.685-7.017l1.43-12.424c43.2,13.776,75.164-16.782,100.923-49.523" transform="translate(-178.446 -665.121)" fill="#a5d4f6"/>
                </g>
              </g>
            </g>
            <g id="Grupo_1100627" data-name="Grupo 1100627" transform="translate(-3.79 93.335)" opacity="0.5">
              <g id="Grupo_1100626" data-name="Grupo 1100626">
                <g id="Grupo_1100625" data-name="Grupo 1100625" clip-path="url(#clip-path-18)">
                  <path id="Trazado_876353" data-name="Trazado 876353" d="M213.55,505.885s-12.739,97.525-12.114,111.909c.37,8.537,45.313,19.617,45.313,19.617s-22.214-8.443-26.785-36.668c-4.09-25.227,10.485-84.334,10.485-84.334-6.609-.862-16.9-10.523-16.9-10.523" transform="translate(-201.413 -505.885)" fill="#fff"/>
                </g>
              </g>
            </g>
            <g id="Grupo_1100630" data-name="Grupo 1100630" transform="translate(49.489 129.954)" opacity="0.5">
              <g id="Grupo_1100629" data-name="Grupo 1100629" transform="translate(0 0)">
                <g id="Grupo_1100628" data-name="Grupo 1100628" clip-path="url(#clip-path-19)">
                  <path id="Trazado_876354" data-name="Trazado 876354" d="M400.142,612.163s-28.066,62.894-32.578,65.971-12,3.591-11.494.678,31.757-56.976,34.028-59.8,10.045-6.852,10.045-6.852" transform="translate(-356.045 -612.163)" fill="#fff"/>
                </g>
              </g>
            </g>
          </g>
        </g>
      </g>
    </g>
  </g>
</svg>
