<svg xmlns="http://www.w3.org/2000/svg" width="84.999" height="84.999" viewBox="0 0 84.999 84.999">
  <g id="Grupo_1100676" data-name="Grupo 1100676" transform="translate(-709.7 -5960.295)">
    <g id="Grupo_1098883" data-name="Grupo 1098883" transform="translate(709.7 5960.295)">
      <g id="Grupo_1098742" data-name="Grupo 1098742" transform="translate(0 0)">
        <rect id="Rect치ngulo_400898" data-name="Rect치ngulo 400898" width="84.999" height="84.999" rx="42.499" transform="translate(0)" fill="#30169a" opacity="0.859"/>
        <rect id="Rect치ngulo_400907" data-name="Rect치ngulo 400907" width="84.999" height="84.999" rx="42.499" fill="none"/>
      </g>
    </g>
    <g id="vitaminas" transform="translate(703.201 5975.295)">
      <g id="Grupo_1100861" data-name="Grupo 1100861" transform="translate(23.499)">
        <g id="Grupo_1100860" data-name="Grupo 1100860" transform="translate(0)">
          <path id="Trazado_876631" data-name="Trazado 876631" d="M331.762,101.414a8.493,8.493,0,0,0,7.4,4.276c.208,0,.417-.007.627-.022a8.532,8.532,0,0,0,1.16-.163.813.813,0,0,0-.337-1.591,6.938,6.938,0,1,1,2.027-.779.813.813,0,0,0,.812,1.409,8.552,8.552,0,1,0-11.685-3.128Z" transform="translate(-297.319 -78.989)" fill="#fff"/>
          <path id="Trazado_876632" data-name="Trazado 876632" d="M227.359,50.249a.813.813,0,0,0,.986-.591l.308-1.23h2.524l.308,1.23a.813.813,0,1,0,1.577-.395l-1.382-5.522a1.82,1.82,0,0,0-3.531,0l-1.382,5.522A.813.813,0,0,0,227.359,50.249Zm2.368-6.114a.194.194,0,0,1,.377,0l.667,2.666h-1.71Z" transform="translate(-204.71 -37.77)" fill="#fff"/>
          <path id="Trazado_876633" data-name="Trazado 876633" d="M185.645,17.1a8.548,8.548,0,1,0-8.554-8.548A8.561,8.561,0,0,0,185.645,17.1Zm0-15.469a6.922,6.922,0,1,1-6.929,6.922A6.933,6.933,0,0,1,185.645,1.626Z" transform="translate(-160.44)" fill="#fff"/>
          <path id="Trazado_876634" data-name="Trazado 876634" d="M374.415,128.584h-2.5a.813.813,0,0,0-.813.813v6.284a.813.813,0,0,0,.813.813h3.009a2.521,2.521,0,0,0,1.456-4.579,2.246,2.246,0,0,0-1.967-3.331Zm-1.685,1.626h1.685a.621.621,0,0,1,0,1.241H372.73Zm2.2,4.658h-2.2v-1.791h2.2a.9.9,0,0,1,0,1.791Z" transform="translate(-333.42 -114.644)" fill="#fff"/>
          <path id="Trazado_876635" data-name="Trazado 876635" d="M165.8,245.1a.813.813,0,0,0-.065-1.148l-1.6-1.426a.813.813,0,0,0-1.148.065l-1.363,1.528a.813.813,0,0,0,1.214,1.082l.086-.1a8.847,8.847,0,0,0,8.092,7.5q.327.024.652.024a8.878,8.878,0,0,0,7.742-4.555.813.813,0,1,0-1.422-.789,7.246,7.246,0,0,1-6.32,3.718q-.265,0-.532-.02a7.222,7.222,0,0,1-6.567-5.895l.08.071A.813.813,0,0,0,165.8,245.1Z" transform="translate(-146.467 -216.048)" fill="#fff"/>
          <path id="Trazado_876636" data-name="Trazado 876636" d="M434.638,185.615v-.786a.813.813,0,1,0-1.626,0v.786a.813.813,0,1,0,1.626,0Z" transform="translate(-388.617 -164.067)" fill="#fff"/>
          <path id="Trazado_876637" data-name="Trazado 876637" d="M197.519,185.2a.814.814,0,0,0,.569-.232l1.463-1.433a.813.813,0,0,0-1.138-1.162l-.079.077a8.844,8.844,0,0,0-8.147-7.954,8.9,8.9,0,0,0-8.661,5.053.813.813,0,1,0,1.471.692,7.26,7.26,0,0,1,7.069-4.124,7.219,7.219,0,0,1,6.623,6.259l-.087-.089a.813.813,0,1,0-1.162,1.137l1.5,1.53a.813.813,0,0,0,.573.244Z" transform="translate(-164.325 -155.561)" fill="#fff"/>
          <path id="Trazado_876638" data-name="Trazado 876638" d="M367.669,309.068a2.246,2.246,0,0,0-1.967-3.331h-2.5a.813.813,0,0,0-.813.813v6.284a.813.813,0,0,0,.813.813h3.009a2.521,2.521,0,0,0,1.456-4.579Zm-3.652-1.7H365.7a.621.621,0,0,1,0,1.241h-1.685Zm2.2,4.658h-2.2V310.23h2.2a.9.9,0,0,1,0,1.791Z" transform="translate(-325.652 -272.592)" fill="#fff"/>
          <path id="Trazado_876639" data-name="Trazado 876639" d="M229.129,398.3H230.7a.76.76,0,0,1,.76.758.813.813,0,1,0,1.626,0,2.388,2.388,0,0,0-2.386-2.384h-1.572a2.388,2.388,0,0,0-2.385,2.384V402.2a2.388,2.388,0,0,0,2.385,2.384H230.7a2.388,2.388,0,0,0,2.386-2.384.813.813,0,1,0-1.626,0,.76.76,0,0,1-.76.758h-1.572a.76.76,0,0,1-.759-.758v-3.142A.76.76,0,0,1,229.129,398.3Z" transform="translate(-204.709 -353.666)" fill="#fff"/>
          <path id="Trazado_876640" data-name="Trazado 876640" d="M424.14,361.169a.813.813,0,0,0-.813.813v.786a.813.813,0,1,0,1.626,0v-.786A.813.813,0,0,0,424.14,361.169Z" transform="translate(-379.982 -322.015)" fill="#fff"/>
          <path id="Trazado_876641" data-name="Trazado 876641" d="M347.435,272.08a8.547,8.547,0,1,0-.855,6.487A8.492,8.492,0,0,0,347.435,272.08Zm-2.263,5.673a6.931,6.931,0,0,1-12.693-1.669,6.928,6.928,0,1,1,12.693,1.669Z" transform="translate(-297.319 -236.937)" fill="#fff"/>
          <path id="Trazado_876642" data-name="Trazado 876642" d="M442.538,361.169a.813.813,0,0,0-.813.813v.786a.813.813,0,1,0,1.626,0v-.786A.813.813,0,0,0,442.538,361.169Z" transform="translate(-396.385 -322.015)" fill="#fff"/>
          <path id="Trazado_876643" data-name="Trazado 876643" d="M27.78,104.573a8.549,8.549,0,1,0,8.554-14.805,8.592,8.592,0,0,0-9.761.839.813.813,0,0,0,1.041,1.249,6.96,6.96,0,0,1,7.907-.68,6.926,6.926,0,1,1-9.465,2.534.813.813,0,1,0-1.408-.814,8.544,8.544,0,0,0,3.131,11.677Z" transform="translate(-23.499 -79.021)" fill="#fff"/>
          <path id="Trazado_876644" data-name="Trazado 876644" d="M188.752,354.887a.813.813,0,0,0-.59,1.515,6.934,6.934,0,1,1-2.517-.471.813.813,0,0,0,0-1.626,8.543,8.543,0,1,0,3.107.582Z" transform="translate(-160.439 -315.895)" fill="#fff"/>
          <path id="Trazado_876645" data-name="Trazado 876645" d="M81.558,132.565a.813.813,0,0,0,0-1.626H77.627a.813.813,0,0,0-.813.813v6.284a.813.813,0,0,0,.813.813h3.931a.813.813,0,0,0,0-1.626H78.44v-1.791h2.194a.813.813,0,0,0,0-1.626H78.44v-1.241Z" transform="translate(-71.034 -116.744)" fill="#fff"/>
          <path id="Trazado_876646" data-name="Trazado 876646" d="M75.577,308.093H74a.813.813,0,0,0-.813.813v6.284A.813.813,0,0,0,74,316h1.576a3.955,3.955,0,0,0,0-7.91Zm0,6.284h-.763v-4.658h.763a2.329,2.329,0,0,1,0,4.658Z" transform="translate(-67.802 -274.693)" fill="#fff"/>
          <path id="Trazado_876647" data-name="Trazado 876647" d="M39.468,270.017a8.544,8.544,0,1,0,.855,6.487A8.568,8.568,0,0,0,39.468,270.017Zm-.716,6.065a6.921,6.921,0,1,1-.692-5.252A6.877,6.877,0,0,1,38.752,276.082Z" transform="translate(-23.502 -236.936)" fill="#fff"/>
        </g>
      </g>
    </g>
  </g>
</svg>
