<svg xmlns="http://www.w3.org/2000/svg" xmlns:xlink="http://www.w3.org/1999/xlink" width="297" height="618.094" viewBox="0 0 297 618.094">
  <defs>
    <clipPath id="clip-path">
      <rect id="Rectángulo_402016" data-name="Rectángulo 402016" width="289.205" height="525.223" fill="none"/>
    </clipPath>
    <clipPath id="clip-path-3">
      <rect id="Rectángulo_402018" data-name="Rectángulo 402018" width="18.892" height="18.892" fill="none"/>
    </clipPath>
    <clipPath id="clip-path-5">
      <rect id="Rectángulo_402019" data-name="Rectángulo 402019" width="29.116" height="10.702" fill="none"/>
    </clipPath>
    <clipPath id="clip-path-6">
      <rect id="Rectángulo_402020" data-name="Rectángulo 402020" width="63.321" height="20.238" fill="none"/>
    </clipPath>
    <clipPath id="clip-path-7">
      <rect id="Rectángulo_402021" data-name="Rectángulo 402021" width="61.239" height="24.722" fill="none"/>
    </clipPath>
    <clipPath id="clip-path-8">
      <rect id="Rectángulo_402022" data-name="Rectángulo 402022" width="61.545" height="20.544" fill="none"/>
    </clipPath>
    <clipPath id="clip-path-9">
      <rect id="Rectángulo_402023" data-name="Rectángulo 402023" width="40.26" height="18.218" fill="none"/>
    </clipPath>
    <clipPath id="clip-path-10">
      <rect id="Rectángulo_402024" data-name="Rectángulo 402024" width="61.853" height="24.584" fill="none"/>
    </clipPath>
    <clipPath id="clip-path-11">
      <rect id="Rectángulo_402025" data-name="Rectángulo 402025" width="48.048" height="20.347" fill="none"/>
    </clipPath>
    <clipPath id="clip-path-12">
      <rect id="Rectángulo_402026" data-name="Rectángulo 402026" width="20.227" height="5.204" fill="none"/>
    </clipPath>
    <clipPath id="clip-path-13">
      <rect id="Rectángulo_402027" data-name="Rectángulo 402027" width="36.917" height="13.182" fill="none"/>
    </clipPath>
    <clipPath id="clip-path-14">
      <rect id="Rectángulo_402028" data-name="Rectángulo 402028" width="34.555" height="16.355" fill="none"/>
    </clipPath>
    <clipPath id="clip-path-15">
      <rect id="Rectángulo_402029" data-name="Rectángulo 402029" width="20.982" height="9.077" fill="none"/>
    </clipPath>
  </defs>
  <g id="Grupo_1100791" data-name="Grupo 1100791" transform="translate(-1123.049 -1963)">
    <g id="Grupo_1099869" data-name="Grupo 1099869">
      <g id="Grupo_1098861" data-name="Grupo 1098861" transform="translate(1123.049 1963)">
        <path id="Unión_17" data-name="Unión 17" d="M0,71.444,79.379,0l.553.614,78.749,70.878-34.117,37.875L79.483,68.791l-45.216,40.7Z" transform="translate(0 508.607)" fill="#95dbb3"/>
        <rect id="Rectángulo_401079" data-name="Rectángulo 401079" width="217" height="559.562" rx="108.5" transform="translate(42 33.162)" fill="#787cf0"/>
        <path id="Unión_15" data-name="Unión 15" d="M106.081,92.066,45.7,146.553,0,95.695,106.055,0l.026.029L106.107,0,212.162,95.695l-45.7,50.858Z" transform="translate(84.839)" fill="#95dbb3"/>
        <path id="Unión_16" data-name="Unión 16" d="M0,69.916,77.9,0l.543.6,77.286,69.362L122.25,107.028,78.006,67.32,33.631,107.145Z" transform="translate(113.267 188.679)" fill="#95dbb3"/>
      </g>
      <g id="Grupo_1099866" data-name="Grupo 1099866" transform="translate(1127.049 2006)">
        <g id="Grupo_1099867" data-name="Grupo 1099867">
          <g id="Grupo_1099822" data-name="Grupo 1099822">
            <g id="Grupo_1099821" data-name="Grupo 1099821" clip-path="url(#clip-path)">
              <path id="Trazado_874443" data-name="Trazado 874443" d="M126.317,165.2c-.246-.693-1.356-.394-1.107.305a15.082,15.082,0,0,1-3.723,15.736c-.535.513.277,1.325.812.814a16.222,16.222,0,0,0,4.018-16.855" transform="translate(-16.79 78.094)" fill="#3b261f"/>
              <path id="Trazado_874444" data-name="Trazado 874444" d="M128.77,170.71l-4.647,7.175c-.4.622.591,1.2.992.579l4.649-7.175c.4-.622-.594-1.2-.993-.579" transform="translate(-23.453 80.767)" fill="#3b261f"/>
              <path id="Trazado_874445" data-name="Trazado 874445" d="M160.461,191.161a17.621,17.621,0,0,1-7.136,10.165,17.1,17.1,0,0,1-12.762,2.6,17.592,17.592,0,0,1-7.083-3.055.578.578,0,0,0-.864.5,14.744,14.744,0,0,1-12.485,14.106c-.73.1-.42,1.206.305,1.105a15.9,15.9,0,0,0,13.271-14.192,18.821,18.821,0,0,0,12.948,2.774,18.255,18.255,0,0,0,11.561-6.88,18.485,18.485,0,0,0,3.354-6.814.575.575,0,0,0-1.108-.307" transform="translate(-48.825 90.39)" fill="#3b261f"/>
              <path id="Trazado_874446" data-name="Trazado 874446" d="M136.848,128.185c-.324-.665-1.315-.083-.993.579a21.236,21.236,0,0,1,1.291,15.1.575.575,0,0,0,1.108.305,22.458,22.458,0,0,0-1.406-15.984" transform="translate(-50.049 60.603)" fill="#3b261f"/>
              <path id="Trazado_874447" data-name="Trazado 874447" d="M139.244,133.992q-.732,4.156-1.464,8.308c-.128.724.98,1.033,1.107.305q.734-4.154,1.465-8.308c.13-.724-.98-1.033-1.108-.305" transform="translate(-54.211 63.296)" fill="#3b261f"/>
              <path id="Trazado_874448" data-name="Trazado 874448" d="M154.038,110.022c2.862,4.744,5.779,9.937,5.745,15.635a16.388,16.388,0,0,1-6.755,12.879,20.145,20.145,0,0,1-15.2,3.688c-11.719-1.677-19.887-11.052-25.331-20.9a18.1,18.1,0,0,1-27.984,7.467,21.353,21.353,0,0,1-7.433-13.073,31.264,31.264,0,0,1,1.194-15.2,48.923,48.923,0,0,1-16.612,4.469c-10.811.9-22.137-2.046-30.235-9.477C24.1,88.781,19.1,69.435,18.7,69.033c-.618-.619-1.223-1.25-1.832-1.879a43.7,43.7,0,0,1-7.2-4.482C3.022,57.478-2.026,48.558.8,39.983c2.749-8.329,11.073-12.249,18.759-15.175.1-.131.217-.252.31-.394a35.527,35.527,0,0,0,1.953-3.791,32.467,32.467,0,0,1,4.251-6.376C33.462,5.586,44.687,1.312,55.92,1.209A51.99,51.99,0,0,1,85.8,10.616a55.065,55.065,0,0,1,4.809,3.82A21.47,21.47,0,0,1,98.484,3.817,20.06,20.06,0,0,1,111.351.034,21.748,21.748,0,0,1,124,5.1c7.262,6.131,9.054,17.072,4.713,25.4a17.692,17.692,0,0,1,12.305,5.918c7.21,7.791,7.013,19.262,5.355,29.069-.775,4.582-1.873,9.253-2.643,13.943a52.774,52.774,0,0,0,2.2,14,51.06,51.06,0,0,0,3.63,8.948c1.354,2.621,2.952,5.125,4.479,7.652M3.419,53.624c2.461,4.746,6.458,8.184,10.97,10.868-.455-.5-.924-1-1.362-1.512-3.5-4.09-6.687-8.777-7.95-14.086a20.529,20.529,0,0,1,1.182-13.3,14.524,14.524,0,0,1,3.764-5.013c-.674.444-1.334.9-1.969,1.41A17.6,17.6,0,0,0,1.5,41.8,17.883,17.883,0,0,0,3.419,53.624M123.492,33.8a25.857,25.857,0,0,1,20.678,20.47c1.043,5.839.293,11.75-.183,17.614,1.511-7.439,3.011-14.905,1.773-22.472a23.022,23.022,0,0,0-6.155-12.806,16.132,16.132,0,0,0-11.832-4.985.579.579,0,0,1-.5-.864,20.14,20.14,0,0,0,2.043-14.945,18.937,18.937,0,0,0-7.439-10.908A20.489,20.489,0,0,0,109.56,1.157c-8.265.255-15.632,6.289-18,14.112.125.113.261.218.383.333a20.222,20.222,0,0,1,7.595-9.8c7.571-4.849,18.77-2.94,24.055,4.411,4.976,6.951,3.814,17.461-2.318,23.311.734.068,1.48.149,2.215.274" transform="translate(129.422 0)" fill="#343440"/>
              <path id="Trazado_874449" data-name="Trazado 874449" d="M149.134,95.032c-22.229,24.952-40.253,80.552-40.253,80.552L91.21,170.047s15.12-54.186,27.47-66c7.052-6.755,20.333-8.64,30.454-9.019" transform="translate(5.64 45.032)" fill="#c4813f"/>
              <path id="Trazado_874450" data-name="Trazado 874450" d="M163.793,289.923q-1.855-4.055-3.876-8.075l8.628-84s-26.353,6.548-27.79-27.779,19.162-68.179,28.422-70.58l-7.294-2.308-.15.46c-28.317,10.6-27.042,69.454-70.26,60.506-39.013-8.065-5.537-63.161-5.537-63.161q-1.326.018-2.756.068c-22.23,24.952-40.254,80.555-40.254,80.555s-5.64,36.3,7.776,65.043c0,0-7.789,11.154-17.84,30.7,39.072,21.411,87.6,30.79,130.932,18.569" transform="translate(71.596 45.009)" fill="#00883c"/>
            </g>
          </g>
          <g id="Grupo_1099824" data-name="Grupo 1099824" transform="translate(60.385 316.362)">
            <g id="Grupo_1099868" data-name="Grupo 1099868">
              <path id="Trazado_874451" data-name="Trazado 874451" d="M193.593,233.219c-43.334,12.221-91.86,2.842-130.932-18.569C43.286,252.328,15.505,321.208,18.87,401.619c0,0,48.629,27.921,98.446,27.921s100.822-27.921,100.822-27.921,11.947-88.622-24.546-168.4" transform="translate(-18.59 -214.649)" fill="#00883c"/>
              <path id="Trazado_874452" data-name="Trazado 874452" d="M156.079,390.439a23.1,23.1,0,0,1-13.244-9.884,34.941,34.941,0,0,1-5.166-14.839,118.106,118.106,0,0,1-49.766,6.3c-.878-.081-.815-1.436.062-1.353a116.524,116.524,0,0,0,48.945-6.109c-5.03-1.581-9.856-4.035-13.352-7.934-3.21-3.6-5.083-8.183-6.482-12.795a44.6,44.6,0,0,1-2.1-11.5,31.445,31.445,0,0,1,14.7-27.221,72.419,72.419,0,0,1,14.425,35.259c1.027,8.411.088,17.952-5.968,23.748a114.416,114.416,0,0,0,19.075-8.957,158.013,158.013,0,0,1-7.679-19.07c-2.4-7.294-4.28-15.176-2.234-22.585,2.34-8.457,9.3-14.7,15.938-20.441a60.305,60.305,0,0,1,7.862,24.712c1.217,13.349-2.737,27.81-12.643,36.642q3.332-2,6.513-4.239a116.473,116.473,0,0,0,12.593-10.24c-2.193-7.054-1.092-14.836.756-22.053,1.665-6.532,3.982-13.061,8.183-18.335,7.023-8.778,18.24-12.851,28.867-16.531q-.542,7.163-1.1,14.3c-.781,10.254-1.8,21.148-8.074,29.3-6.551,8.5-17.465,12.223-27.961,14.551a117.136,117.136,0,0,1-15.282,12.012,109.341,109.341,0,0,1,16.8-5.506,41.6,41.6,0,0,1,11.863-1.436,40.237,40.237,0,0,1,12.093,2.946,97.377,97.377,0,0,1,13.876,6.588q-7.6,5.321-15.193,10.657c-3.257,2.292-6.64,4.631-10.535,5.49-6.488,1.421-13.122-1.568-18.65-5.25-5.2-3.475-10.024-7.669-15.761-10.071a115.2,115.2,0,0,1-16.669,8c-.952.364-1.906.725-2.873,1.06l.034.15a43.4,43.4,0,0,1,49.542,23.517c-10.324-2.158-21.178,3.726-31.387,1.126" transform="translate(-117.383 -182.255)" fill="#77af8f"/>
              <path id="Trazado_874453" data-name="Trazado 874453" d="M116.415,326.188a23.1,23.1,0,0,1-9.176,13.745,34.934,34.934,0,0,1-14.547,5.935,118.106,118.106,0,0,1,8.9,49.368c-.037.881-1.391.889-1.357.007a116.484,116.484,0,0,0-2.719-29.657,117.6,117.6,0,0,0-5.943-18.9c-1.316,5.105-3.514,10.053-7.223,13.748-3.427,3.394-7.9,5.508-12.439,7.144a44.6,44.6,0,0,1-11.375,2.706,31.442,31.442,0,0,1-27.952-13.253,72.4,72.4,0,0,1,34.453-16.251c8.345-1.468,17.924-1.03,24.027,4.715a114.061,114.061,0,0,0-9.943-18.581,158.03,158.03,0,0,1-18.64,8.669c-7.16,2.775-14.932,5.069-22.439,3.415-8.566-1.9-15.166-8.517-21.247-14.848a60.363,60.363,0,0,1,24.266-9.145c13.266-1.915,27.916,1.276,37.256,10.708q-2.173-3.223-4.576-6.283a116,116,0,0,0-10.886-12.039c-6.93,2.559-14.756,1.867-22.062.4-6.61-1.322-13.251-3.293-18.737-7.21-9.135-6.557-13.789-17.543-18.021-27.964q7.181.166,14.335.346c10.28.243,21.215.687,29.679,6.526,8.833,6.1,13.12,16.8,16,27.162a117.171,117.171,0,0,1,12.8,14.633,109.168,109.168,0,0,1-6.38-16.484A41.676,41.676,0,0,1,70.4,293.029a40.261,40.261,0,0,1,2.31-12.23,97.458,97.458,0,0,1,5.851-14.2q5.71,7.311,11.44,14.613c2.458,3.132,4.971,6.388,6.034,10.233,1.758,6.405-.88,13.185-4.267,18.9-3.2,5.372-7.132,10.41-9.229,16.267A115.452,115.452,0,0,1,91.4,342.837c.411.933.822,1.867,1.209,2.815l.147-.043A43.4,43.4,0,0,1,113.646,294.9c-1.612,10.423,4.83,20.952,2.769,31.284" transform="translate(103.103 -190.033)" fill="#77af8f"/>
              <path id="Trazado_874454" data-name="Trazado 874454" d="M106.31,204.486a23.094,23.094,0,0,1,14.367,8.167,34.893,34.893,0,0,1,6.964,14.083,118.123,118.123,0,0,1,48.6-12.417c.881-.028.986,1.324.1,1.353a116.513,116.513,0,0,0-47.81,12.122c5.187.948,10.28,2.784,14.232,6.22,3.63,3.175,6.059,7.489,8.018,11.894A44.564,44.564,0,0,1,154.3,257.06a31.443,31.443,0,0,1-11.212,28.83,72.391,72.391,0,0,1-18.681-33.2c-2.062-8.22-2.312-17.8,2.979-24.305a114.153,114.153,0,0,0-17.817,11.25,158.254,158.254,0,0,1,9.981,17.971c3.284,6.942,6.128,14.529,5.016,22.137-1.275,8.68-7.408,15.738-13.282,22.257a60.357,60.357,0,0,1-10.864-23.549c-2.861-13.092-.73-27.933,8.007-37.925q-3.06,2.4-5.938,5.016a115.651,115.651,0,0,0-11.226,11.722c3.048,6.727,2.921,14.585,1.984,21.975-.845,6.688-2.338,13.453-5.85,19.207-5.885,9.58-16.51,15.013-26.6,19.981q-.349-7.174-.684-14.324c-.5-10.273-.836-21.207,4.382-30.071,5.447-9.247,15.816-14.291,25.941-17.9a117.326,117.326,0,0,1,13.677-13.814,109.124,109.124,0,0,1-15.984,7.546,41.729,41.729,0,0,1-11.595,2.895,40.315,40.315,0,0,1-12.364-1.427,97.247,97.247,0,0,1-14.585-4.818q6.882-6.223,13.754-12.46c2.951-2.675,6.015-5.415,9.775-6.752,6.264-2.211,13.215-.069,19.157,2.9,5.589,2.8,10.9,6.366,16.889,8.038a115.242,115.242,0,0,1,15.548-10c.9-.478,1.8-.955,2.719-1.408l-.05-.144a43.4,43.4,0,0,1-52.074-17.2c10.512.862,20.551-6.32,31-5.005" transform="translate(-21.227 -219.541)" fill="#77af8f"/>
            </g>
          </g>
          <g id="Grupo_1099864" data-name="Grupo 1099864">
            <g id="Grupo_1099863" data-name="Grupo 1099863" clip-path="url(#clip-path)">
              <path id="Trazado_874456" data-name="Trazado 874456" d="M153.993,383.926q-3.23-15.157-6.461-30.317t-6.46-30.32q-3.232-15.157-6.461-30.317-3.212-15.089-6.43-30.177-.4-1.895-.808-3.791a6.435,6.435,0,0,0-1.045-2.774,6.216,6.216,0,0,0-2.349-1.629c-1.141-.532-2.287-1.045-3.433-1.568l-13.957-6.364q-1.747-.8-3.49-1.592c-.668-.305-1.253.685-.579.992l13.826,6.307q3.427,1.561,6.85,3.125a4.857,4.857,0,0,1,2.489,1.835,12.835,12.835,0,0,1,.88,3.378q3.186,14.949,6.37,29.9t6.373,29.9q3.2,15.016,6.4,30.036,3.188,14.947,6.373,29.9.4,1.895.806,3.789c.155.722,1.262.417,1.108-.305" transform="translate(-15.461 116.104)" fill="#343440"/>
              <path id="Trazado_874457" data-name="Trazado 874457" d="M78.063,355.059q-.975-14.828-2.786-29.585T70.834,296.08q-2.633-14.624-6.089-29.087T57.025,238.3q-.537-1.786-1.086-3.573c-.217-.7-1.325-.4-1.107.305q4.342,14.138,7.891,28.5.995,4.044,1.925,8.1A88.333,88.333,0,0,1,33.6,237.525c-.338-.656-1.331-.078-.992.579a89.781,89.781,0,0,0,32.214,35.02.572.572,0,0,0,.178.066q2.186,9.652,4.025,19.383,2.741,14.6,4.656,29.339t2.986,29.566q1.07,14.75,1.31,29.544.031,1.868.047,3.735a.575.575,0,0,0,1.15,0q-.139-14.861-1.11-29.7" transform="translate(162.077 111.037)" fill="#343440"/>
              <path id="Trazado_874458" data-name="Trazado 874458" d="M122.74,55.779c0,.218-.025.424-.025.619-.286,5.331-1.307,10.856-4.593,15.05a16.437,16.437,0,0,1-8.376,5.618,13.731,13.731,0,0,1-1.356.321h-.874V77.6a34.305,34.305,0,0,1-33.773,34.2H73.32a33.7,33.7,0,0,1-9.548-1.377A34.314,34.314,0,0,1,39.141,77.6V44.808a59.573,59.573,0,0,1,3.782-15.865A18.125,18.125,0,0,0,46.357,33.8a23.636,23.636,0,0,0,16.61,7.26,21.08,21.08,0,0,0,11.166-3.216A19.4,19.4,0,0,0,79.166,33.3a22.136,22.136,0,0,0,5.411,8.04A22.582,22.582,0,0,0,94.57,47a15.236,15.236,0,0,0,7.3.252,9.306,9.306,0,0,0,5.549-3.7.592.592,0,0,0,.1-.093,9.061,9.061,0,0,1,7.537-2.366c3.069.6,5.468,3.17,6.606,6.077a20.936,20.936,0,0,1,1.08,8.6" transform="translate(108.738 13.715)" fill="#c4813f"/>
              <path id="Trazado_874459" data-name="Trazado 874459" d="M127.122,112.832l-.15.458c-28.317,10.6-27.042,69.457-70.259,60.508-39.013-8.065-5.539-63.161-5.539-63.161a106.306,106.306,0,0,1,10.652.357l4.33-16.223a33.6,33.6,0,0,0,9.546,1.38h.426a34.306,34.306,0,0,0,33.773-34.2l5.353,47.122Z" transform="translate(106.355 29.357)" fill="#c4813f"/>
              <path id="Trazado_874460" data-name="Trazado 874460" d="M91.017,74.305A32.167,32.167,0,0,1,53.263,89.2c-.706-.224-1.008.886-.305,1.107A33.324,33.324,0,0,0,92.01,74.885a.575.575,0,0,0-.993-.579" transform="translate(119.653 35.077)" fill="#343440"/>
              <path id="Trazado_874461" data-name="Trazado 874461" d="M51.332,56.276a6.466,6.466,0,0,0-2.274-4.752,4.558,4.558,0,0,0-4.737-.463,18.222,18.222,0,0,1,.165-6.929,4.352,4.352,0,0,1,1.608-2.7,2.266,2.266,0,0,1,2.752.021c.542.5,1.359-.311.814-.812a3.219,3.219,0,0,0-3.212-.635,4.447,4.447,0,0,0-2.66,2.591,12.513,12.513,0,0,0-.811,4.323,22.732,22.732,0,0,0,.361,5.215.575.575,0,0,0,.843.343,3.451,3.451,0,0,1,4.476.209,5.694,5.694,0,0,1,1.54,4.19,7.042,7.042,0,0,1-5.048,6.716.574.574,0,0,0,.3,1.107,8.231,8.231,0,0,0,5.879-8.425" transform="translate(174.554 18.874)" fill="#343440"/>
              <path id="Trazado_874462" data-name="Trazado 874462" d="M90.13,73.954a25.719,25.719,0,0,1-6.983-1.732q-.893-.363-1.749-.794c-.363-.18-1.293-.478-1.44-.868s.336-1.181.473-1.555l.725-1.987q2.662-7.273,5.44-14.509,1.587-4.145,3.213-8.274c.271-.688-.84-.986-1.105-.307q-3.124,7.935-6.112,15.915-1.483,3.96-2.932,7.929c-.24.662-.5,1.318-.722,1.985a1.661,1.661,0,0,0-.015,1.316A2.364,2.364,0,0,0,80.014,72c.6.332,1.225.635,1.856.917A27.188,27.188,0,0,0,90.13,75.1c.735.075.73-1.074,0-1.15" transform="translate(82.396 20.634)" fill="#343440"/>
              <path id="Trazado_874463" data-name="Trazado 874463" d="M76.526,63.622a13.674,13.674,0,0,1-7.943,10.314c-.676.3-.093,1.288.579.992a14.709,14.709,0,0,0,8.47-11c.115-.724-.992-1.035-1.107-.305" transform="translate(110.925 29.95)" fill="#343440"/>
              <g id="Grupo_1099829" data-name="Grupo 1099829" transform="translate(191.975 77.277)" style="mix-blend-mode: soft-light;isolation: isolate">
                <g id="Grupo_1099828" data-name="Grupo 1099828">
                  <g id="Grupo_1099827" data-name="Grupo 1099827" clip-path="url(#clip-path-3)">
                    <g id="Grupo_1099826" data-name="Grupo 1099826" transform="translate(0)">
                      <g id="Grupo_1099825" data-name="Grupo 1099825" clip-path="url(#clip-path-3)">
                        <path id="Trazado_874464" data-name="Trazado 874464" d="M72.043,61.878A9.446,9.446,0,1,1,62.6,52.432a9.446,9.446,0,0,1,9.446,9.446" transform="translate(-53.151 -52.432)" fill="#3b261f"/>
                      </g>
                    </g>
                  </g>
                </g>
              </g>
              <path id="Trazado_874465" data-name="Trazado 874465" d="M94.18,48c0,3-2.038,5.43-4.551,5.43S85.077,51,85.077,48s2.038-5.428,4.551-5.428S94.18,45,94.18,48" transform="translate(69.634 20.174)" fill="#343440"/>
              <path id="Trazado_874466" data-name="Trazado 874466" d="M74.3,48c0,3-2.038,5.43-4.551,5.43S65.2,51,65.2,48s2.038-5.428,4.551-5.428S74.3,45,74.3,48" transform="translate(118.819 20.174)" fill="#343440"/>
              <path id="Trazado_874467" data-name="Trazado 874467" d="M95.176,37.122a43.978,43.978,0,0,0-9.063,1.133,2.9,2.9,0,0,0-2,3.533,2.931,2.931,0,0,0,3.533,2c1.113-.258,2.237-.46,3.368-.625a40.168,40.168,0,0,1,4.167-.3,2.873,2.873,0,0,0,0-5.745" transform="translate(67.359 17.59)" fill="#343440"/>
              <path id="Trazado_874468" data-name="Trazado 874468" d="M74.526,38.2a22.487,22.487,0,0,0-9.151-1.13,3.085,3.085,0,0,0-2.032.843,2.871,2.871,0,0,0,2.032,4.9,20.662,20.662,0,0,1,4.116.069A20.71,20.71,0,0,1,73,43.741a2.892,2.892,0,0,0,3.533-2.006A2.94,2.94,0,0,0,74.526,38.2" transform="translate(120.474 17.529)" fill="#343440"/>
              <path id="Trazado_874469" data-name="Trazado 874469" d="M91.23,184.111Q86.168,201.766,81.1,219.419a.574.574,0,0,0,1.107.3q5.065-17.651,10.128-35.306a.575.575,0,0,0-1.108-.305" transform="translate(77.343 87.051)" fill="#3b261f"/>
              <path id="Trazado_874470" data-name="Trazado 874470" d="M125.524,218.57c21.826-22.975,25.274-53.993,36.761-82.713a11.805,11.805,0,0,1,6.047-7.219,16.872,16.872,0,0,0-2.153.277,21.04,21.04,0,0,0-9.558,4.827c-6.357,5.5-9.468,13.389-11.913,21.212-1.337,4.276-2.578,8.585-4.15,12.775a111.17,111.17,0,0,1-5.528,12.4A112.413,112.413,0,0,1,119.7,202.487c-6.015,6.818-12.979,12.629-19.595,18.836-6.361,5.971-12.507,12.467-16.292,20.434a38.929,38.929,0,0,0-1.39,29.641,34.622,34.622,0,0,1,5.187-12.621c11.487-14.933,25.274-26.42,37.911-40.207" transform="translate(2.748 60.956)" fill="#00703a"/>
              <path id="Trazado_874471" data-name="Trazado 874471" d="M153.77,141.527a27.559,27.559,0,0,0-3.773-5.7,25.231,25.231,0,0,0-3.769-3.819c-2.308,36.743-16.083,71.192-25.269,107.938-6.556,26.223-29.744,49.309-58.682,49.53a39.676,39.676,0,0,0,8.584,3.679,38.431,38.431,0,0,0,22.534-.436c16.873-5.412,28.627-20.024,37.781-34.451a172.492,172.492,0,0,0,19.986-44.443,171.782,171.782,0,0,0,6.775-48.4c-.046-8.069-.536-16.531-4.167-23.9" transform="translate(39.477 62.554)" fill="#00703a"/>
              <path id="Trazado_874472" data-name="Trazado 874472" d="M145.487,241.56c9.187-36.746,22.963-71.195,25.269-107.938a22.7,22.7,0,0,0-6.386-3.713,19.617,19.617,0,0,0-8.24-1.257,11.8,11.8,0,0,0-6.047,7.219c-11.489,28.72-14.935,59.737-36.762,82.713-12.637,13.785-26.42,25.272-37.911,40.207a34.674,34.674,0,0,0-5.187,12.621A36.723,36.723,0,0,0,76.748,282.8a38.052,38.052,0,0,0,10.058,8.293c28.938-.221,52.126-23.308,58.682-49.53" transform="translate(14.95 60.942)" fill="#00703a"/>
              <path id="Trazado_874473" data-name="Trazado 874473" d="M91.806,143.9c-18.45,5.191-21.872-4.308-21.872-4.308,2.469-5.422,8.478-5.273,8.478-5.273-1.643-1.987-2.688-6.386-3.309-10.086a7.719,7.719,0,0,1,7.387-9.076,1.338,1.338,0,0,1,.287,0A7.789,7.789,0,0,1,89.785,125.9a26.117,26.117,0,0,0-1.816,9.076c5.03,1.918,3.836,8.926,3.836,8.926" transform="translate(94.202 54.566)" fill="#9bb120"/>
              <path id="Trazado_874474" data-name="Trazado 874474" d="M82.019,136.282a309.426,309.426,0,0,1-8.162,45.25q-1.627,6.29-3.517,12.51c-.215.707.895,1.011,1.107.305a310.153,310.153,0,0,0,10.122-45.293q.933-6.367,1.6-12.772c.077-.734-1.073-.728-1.15,0" transform="translate(102.402 64.319)" fill="#006030"/>
              <path id="Trazado_874475" data-name="Trazado 874475" d="M102.624,141.055A224.65,224.65,0,0,1,101,166.486a225.918,225.918,0,0,1-4.486,25.059,229.906,229.906,0,0,1-7.253,24.432,226.782,226.782,0,0,1-9.921,23.451,224.407,224.407,0,0,1-12.51,22.2q-.847,1.32-1.714,2.631c-.408.618.585,1.194.992.579A225.051,225.051,0,0,0,78.989,242.7a229.683,229.683,0,0,0,10.258-23.355,229.338,229.338,0,0,0,7.63-24.45,228.129,228.129,0,0,0,4.855-25.145,225.25,225.25,0,0,0,2-25.434q.033-1.632.046-3.265a.575.575,0,0,0-1.15,0" transform="translate(89.598 66.577)" fill="#006030"/>
              <path id="Trazado_874476" data-name="Trazado 874476" d="M124.19,135.668c-4.849,9.772-8.261,20.151-12.031,30.363-3.465,9.386-7.315,18.711-12.818,27.107a63.743,63.743,0,0,1-10.634,12.548c-.55.5.264,1.3.814.811,7.273-6.531,12.647-14.852,16.879-23.6,4.59-9.487,7.878-19.518,11.53-29.384a176.049,176.049,0,0,1,7.254-17.263c.327-.66-.663-1.244-.993-.581" transform="translate(33.485 64.149)" fill="#006030"/>
              <path id="Trazado_874477" data-name="Trazado 874477" d="M91.165,139.511q-4.912,15.31-9.823,30.616-1.4,4.375-2.806,8.75c-.227.706.883,1.008,1.107.305q4.912-15.31,9.823-30.619,1.4-4.373,2.806-8.747c.225-.7-.883-1.007-1.107-.305" transform="translate(81.196 65.92)" fill="#006030"/>
              <path id="Trazado_874478" data-name="Trazado 874478" d="M115.987,175.13A148.7,148.7,0,0,1,97.5,207.148q-3.2,4.216-6.69,8.19c-.486.554.323,1.371.812.814a149.835,149.835,0,0,0,21.079-31.19q2.366-4.682,4.4-9.527c.287-.681-.827-.979-1.108-.305" transform="translate(38.447 82.807)" fill="#006030"/>
              <path id="Trazado_874479" data-name="Trazado 874479" d="M81.621,120.7a7.115,7.115,0,0,1-7.294-2.013c-.5-.55-1.306.265-.812.812a8.256,8.256,0,0,0,8.411,2.308c.7-.217.4-1.325-.305-1.107" transform="translate(98.754 56.153)" fill="#8a9617"/>
              <path id="Trazado_874480" data-name="Trazado 874480" d="M158.331,182.683l-14.846,3.368c-.721.164-.417,1.27.305,1.108q7.422-1.687,14.846-3.368c.721-.165.416-1.272-.305-1.108" transform="translate(-80.712 86.558)" fill="#3b261f"/>
              <path id="Trazado_874481" data-name="Trazado 874481" d="M207.309,325.317C180.383,334.025,104.322,174.938,102.3,149.6c-2.05-25.331,36.955-34.758,36.955-34.758s37.14-15.194,50.31,6.542,44.671,195.229,17.745,203.936" transform="translate(-79.323 51.97)" fill="#ef6034"/>
              <path id="Trazado_874482" data-name="Trazado 874482" d="M222.048,83.174l-13.085,49.651c-10.351,6.444-19.266,6.224-19.266,6.224l-46.135-26.4a4.238,4.238,0,0,1-.847-6.719l.631-.62a4.247,4.247,0,0,1,4.915-.724l35.486,18.438L161,98.557a4.244,4.244,0,0,1,1.322-6.743l5.007-2.311a4.252,4.252,0,0,1,5.135,1.265l20,25.916-7.343-28.972a4.243,4.243,0,0,1,3-5.135l6.65-1.792a4.238,4.238,0,0,1,5.331,3.721l2.859,32.143,10.924-35.8a4.242,4.242,0,0,1,8.158,2.321" transform="translate(-141.428 36.889)" fill="#9bb120"/>
              <g id="Grupo_1099832" data-name="Grupo 1099832" transform="translate(44.932 168.229)" opacity="0.7" style="mix-blend-mode: multiply;isolation: isolate">
                <g id="Grupo_1099831" data-name="Grupo 1099831">
                  <g id="Grupo_1099830" data-name="Grupo 1099830" clip-path="url(#clip-path-5)">
                    <path id="Trazado_874483" data-name="Trazado 874483" d="M174.26,114.242a55.378,55.378,0,0,1-27.725,9.45c-.735.046-.74,1.194,0,1.15a56.546,56.546,0,0,0,28.3-9.607c.607-.414.034-1.41-.579-.993" transform="translate(-145.981 -114.142)" fill="#cc4b29"/>
                  </g>
                </g>
              </g>
              <g id="Grupo_1099835" data-name="Grupo 1099835" transform="translate(26.743 189.755)" opacity="0.7" style="mix-blend-mode: multiply;isolation: isolate">
                <g id="Grupo_1099834" data-name="Grupo 1099834">
                  <g id="Grupo_1099833" data-name="Grupo 1099833" clip-path="url(#clip-path-6)">
                    <path id="Trazado_874484" data-name="Trazado 874484" d="M197.579,128.828a146.357,146.357,0,0,1-47.517,17.222,144.932,144.932,0,0,1-14.4,1.786c-.733.053-.738,1.2,0,1.147a147.008,147.008,0,0,0,25.266-4.088,147.626,147.626,0,0,0,24.285-8.464q6.632-2.978,12.94-6.609a.575.575,0,0,0-.579-.993" transform="translate(-135.115 -128.747)" fill="#cc4b29"/>
                  </g>
                </g>
              </g>
              <g id="Grupo_1099838" data-name="Grupo 1099838" transform="translate(57.718 201.55)" opacity="0.7" style="mix-blend-mode: multiply;isolation: isolate">
                <g id="Grupo_1099837" data-name="Grupo 1099837">
                  <g id="Grupo_1099836" data-name="Grupo 1099836" clip-path="url(#clip-path-7)">
                    <path id="Trazado_874485" data-name="Trazado 874485" d="M175.9,136.835a196.84,196.84,0,0,1-46.132,20.052q-6.853,1.981-13.838,3.462c-.724.155-.417,1.262.305,1.108a198.08,198.08,0,0,0,47.741-16.764q6.374-3.2,12.5-6.865a.575.575,0,0,0-.579-.993" transform="translate(-115.511 -136.75)" fill="#cc4b29"/>
                  </g>
                </g>
              </g>
              <g id="Grupo_1099841" data-name="Grupo 1099841" transform="translate(44.606 233.595)" opacity="0.7" style="mix-blend-mode: multiply;isolation: isolate">
                <g id="Grupo_1099840" data-name="Grupo 1099840">
                  <g id="Grupo_1099839" data-name="Grupo 1099839" clip-path="url(#clip-path-8)">
                    <path id="Trazado_874486" data-name="Trazado 874486" d="M184.88,158.566a174.527,174.527,0,0,1-46.424,16.983q-6.8,1.439-13.711,2.332c-.722.093-.733,1.241,0,1.15a176.075,176.075,0,0,0,48.073-13.318q6.442-2.817,12.641-6.153c.653-.352.072-1.344-.579-.993" transform="translate(-124.2 -158.492)" fill="#cc4b29"/>
                  </g>
                </g>
              </g>
              <g id="Grupo_1099844" data-name="Grupo 1099844" transform="translate(87.899 248.712)" opacity="0.7" style="mix-blend-mode: multiply;isolation: isolate">
                <g id="Grupo_1099843" data-name="Grupo 1099843">
                  <g id="Grupo_1099842" data-name="Grupo 1099842" clip-path="url(#clip-path-9)">
                    <path id="Trazado_874487" data-name="Trazado 874487" d="M148.661,168.822a274.237,274.237,0,0,1-30.108,13.753q-4.417,1.7-8.89,3.251c-.694.24-.4,1.35.305,1.107a277.041,277.041,0,0,0,30.84-12.818q4.254-2.076,8.432-4.3c.654-.349.074-1.341-.579-.993" transform="translate(-109.268 -168.749)" fill="#cc4b29"/>
                  </g>
                </g>
              </g>
              <g id="Grupo_1099847" data-name="Grupo 1099847" transform="translate(65.013 269.236)" opacity="0.7" style="mix-blend-mode: multiply;isolation: isolate">
                <g id="Grupo_1099846" data-name="Grupo 1099846">
                  <g id="Grupo_1099845" data-name="Grupo 1099845" clip-path="url(#clip-path-10)">
                    <path id="Trazado_874488" data-name="Trazado 874488" d="M171.167,182.779A130.416,130.416,0,0,1,124.9,203.634a129.067,129.067,0,0,1-14.207,2.47c-.725.085-.734,1.235,0,1.15a131.211,131.211,0,0,0,25.079-5.439,132.125,132.125,0,0,0,23.655-10.261,130.141,130.141,0,0,0,12.32-7.782c.6-.426.024-1.424-.579-.993" transform="translate(-110.143 -182.674)" fill="#cc4b29"/>
                  </g>
                </g>
              </g>
              <g id="Grupo_1099850" data-name="Grupo 1099850" transform="translate(84.353 294.658)" opacity="0.7" style="mix-blend-mode: multiply;isolation: isolate">
                <g id="Grupo_1099849" data-name="Grupo 1099849">
                  <g id="Grupo_1099848" data-name="Grupo 1099848" clip-path="url(#clip-path-11)">
                    <path id="Trazado_874489" data-name="Trazado 874489" d="M153.594,200.017a135.294,135.294,0,0,1-35.9,16.453q-5.388,1.567-10.892,2.681c-.724.146-.419,1.253.305,1.105a136.385,136.385,0,0,0,37.417-13.527q4.943-2.657,9.648-5.719c.618-.4.044-1.4-.579-.993" transform="translate(-106.391 -199.923)" fill="#cc4b29"/>
                  </g>
                </g>
              </g>
              <g id="Grupo_1099853" data-name="Grupo 1099853" transform="translate(75.867 302.364)" opacity="0.7" style="mix-blend-mode: multiply;isolation: isolate">
                <g id="Grupo_1099852" data-name="Grupo 1099852">
                  <g id="Grupo_1099851" data-name="Grupo 1099851" clip-path="url(#clip-path-12)">
                    <path id="Trazado_874490" data-name="Trazado 874490" d="M150.56,205.194a56.7,56.7,0,0,1-18.982,4.012c-.738.028-.741,1.176,0,1.15a57.649,57.649,0,0,0,19.287-4.053c.681-.271.385-1.382-.305-1.108" transform="translate(-131.023 -205.151)" fill="#cc4b29"/>
                  </g>
                </g>
              </g>
              <g id="Grupo_1099856" data-name="Grupo 1099856" transform="translate(88.207 321.522)" opacity="0.7" style="mix-blend-mode: multiply;isolation: isolate">
                <g id="Grupo_1099855" data-name="Grupo 1099855">
                  <g id="Grupo_1099854" data-name="Grupo 1099854" clip-path="url(#clip-path-13)">
                    <path id="Trazado_874491" data-name="Trazado 874491" d="M147.368,218.212A158.782,158.782,0,0,1,119.835,228.3q-4.021,1.063-8.094,1.913c-.724.153-.419,1.259.305,1.108a159.651,159.651,0,0,0,28.289-8.731q3.849-1.594,7.615-3.381c.665-.318.085-1.31-.582-.993" transform="translate(-111.326 -218.15)" fill="#cc4b29"/>
                  </g>
                </g>
              </g>
              <g id="Grupo_1099859" data-name="Grupo 1099859" transform="translate(102.785 335.005)" opacity="0.7" style="mix-blend-mode: multiply;isolation: isolate">
                <g id="Grupo_1099858" data-name="Grupo 1099858">
                  <g id="Grupo_1099857" data-name="Grupo 1099857" clip-path="url(#clip-path-14)">
                    <path id="Trazado_874492" data-name="Trazado 874492" d="M136.743,227.388a141.658,141.658,0,0,1-25.629,12.544q-3.8,1.4-7.674,2.585c-.7.217-.4,1.325.305,1.108a143.238,143.238,0,0,0,26.468-11.107q3.615-1.965,7.11-4.137c.628-.389.052-1.385-.579-.993" transform="translate(-103.039 -227.298)" fill="#cc4b29"/>
                  </g>
                </g>
              </g>
              <g id="Grupo_1099862" data-name="Grupo 1099862" transform="translate(106.558 350.305)" opacity="0.7" style="mix-blend-mode: multiply;isolation: isolate">
                <g id="Grupo_1099861" data-name="Grupo 1099861">
                  <g id="Grupo_1099860" data-name="Grupo 1099860" clip-path="url(#clip-path-15)">
                    <path id="Trazado_874493" data-name="Trazado 874493" d="M129.8,237.744a139.39,139.39,0,0,1-19.71,7.875c-.7.223-.4,1.329.305,1.108a141.423,141.423,0,0,0,19.984-7.991c.663-.326.083-1.318-.579-.992" transform="translate(-109.689 -237.679)" fill="#cc4b29"/>
                  </g>
                </g>
              </g>
              <path id="Trazado_874494" data-name="Trazado 874494" d="M189.754,98.04s33.857,5.752,36.251,37.849,10.619,167.421-28.7,169.576-116.924-38.8-116.924-38.8-16.447.958-31.669-7.876c0,0-36.46-3.831-37.367-9.474s30.339-2.662,30.339-2.662-34.6-6.759-35.022-12.56,33.319,1.917,33.319,1.917S7.941,227.648,8.153,223.337s36.619,2.768,36.619,2.768-29.433-12.772-28-18.842,44.817,10.858,44.817,10.858S56.3,189.376,62.4,187.78s15.315,40.508,22.82,49.077l97.236,20.224-9.984-63.363s-24.445-14.451-10.183-53.839,27.461-41.84,27.461-41.84" transform="translate(51.017 46.457)" fill="#c4813f"/>
            </g>
          </g>
        </g>
      </g>
    </g>
    <g id="Grupo_1098863" data-name="Grupo 1098863" transform="translate(1280.874 2293.77)">
      <rect id="Rectángulo_401081" data-name="Rectángulo 401081" width="2.46" height="2.459" transform="translate(134.662)" fill="#95dbb3" stroke="#95dbb3" stroke-linejoin="round" stroke-width="2"/>
      <rect id="Rectángulo_401082" data-name="Rectángulo 401082" width="2.46" height="2.46" transform="translate(134.662 14.872)" fill="#95dbb3" stroke="#95dbb3" stroke-linejoin="round" stroke-width="2"/>
      <rect id="Rectángulo_401083" data-name="Rectángulo 401083" width="2.46" height="2.46" transform="translate(134.662 29.745)" fill="#95dbb3" stroke="#95dbb3" stroke-linejoin="round" stroke-width="2"/>
      <rect id="Rectángulo_401084" data-name="Rectángulo 401084" width="2.46" height="2.459" transform="translate(121.196)" fill="#95dbb3" stroke="#95dbb3" stroke-linejoin="round" stroke-width="2"/>
      <rect id="Rectángulo_401085" data-name="Rectángulo 401085" width="2.46" height="2.46" transform="translate(121.196 14.872)" fill="#95dbb3" stroke="#95dbb3" stroke-linejoin="round" stroke-width="2"/>
      <rect id="Rectángulo_401086" data-name="Rectángulo 401086" width="2.46" height="2.46" transform="translate(121.196 29.745)" fill="#95dbb3" stroke="#95dbb3" stroke-linejoin="round" stroke-width="2"/>
      <rect id="Rectángulo_401087" data-name="Rectángulo 401087" width="2.46" height="2.459" transform="translate(107.731)" fill="#95dbb3" stroke="#95dbb3" stroke-linejoin="round" stroke-width="2"/>
      <rect id="Rectángulo_401088" data-name="Rectángulo 401088" width="2.46" height="2.46" transform="translate(107.731 14.872)" fill="#95dbb3" stroke="#95dbb3" stroke-linejoin="round" stroke-width="2"/>
      <rect id="Rectángulo_401089" data-name="Rectángulo 401089" width="2.46" height="2.46" transform="translate(107.731 29.745)" fill="#95dbb3" stroke="#95dbb3" stroke-linejoin="round" stroke-width="2"/>
      <rect id="Rectángulo_401090" data-name="Rectángulo 401090" width="2.46" height="2.459" transform="translate(94.264)" fill="#95dbb3" stroke="#95dbb3" stroke-linejoin="round" stroke-width="2"/>
      <rect id="Rectángulo_401091" data-name="Rectángulo 401091" width="2.46" height="2.46" transform="translate(94.264 14.872)" fill="#95dbb3" stroke="#95dbb3" stroke-linejoin="round" stroke-width="2"/>
      <rect id="Rectángulo_401092" data-name="Rectángulo 401092" width="2.46" height="2.46" transform="translate(94.264 29.745)" fill="#95dbb3" stroke="#95dbb3" stroke-linejoin="round" stroke-width="2"/>
      <rect id="Rectángulo_401093" data-name="Rectángulo 401093" width="2.46" height="2.459" transform="translate(80.798)" fill="#95dbb3" stroke="#95dbb3" stroke-linejoin="round" stroke-width="2"/>
      <rect id="Rectángulo_401094" data-name="Rectángulo 401094" width="2.46" height="2.46" transform="translate(80.798 14.872)" fill="#95dbb3" stroke="#95dbb3" stroke-linejoin="round" stroke-width="2"/>
      <rect id="Rectángulo_401095" data-name="Rectángulo 401095" width="2.46" height="2.46" transform="translate(80.798 29.745)" fill="#95dbb3" stroke="#95dbb3" stroke-linejoin="round" stroke-width="2"/>
      <rect id="Rectángulo_401096" data-name="Rectángulo 401096" width="2.459" height="2.459" transform="translate(67.332)" fill="#95dbb3" stroke="#95dbb3" stroke-linejoin="round" stroke-width="2"/>
      <rect id="Rectángulo_401097" data-name="Rectángulo 401097" width="2.46" height="2.46" transform="translate(67.332 14.872)" fill="#95dbb3" stroke="#95dbb3" stroke-linejoin="round" stroke-width="2"/>
      <rect id="Rectángulo_401098" data-name="Rectángulo 401098" width="2.459" height="2.46" transform="translate(67.332 29.745)" fill="#95dbb3" stroke="#95dbb3" stroke-linejoin="round" stroke-width="2"/>
      <rect id="Rectángulo_401099" data-name="Rectángulo 401099" width="2.459" height="2.459" transform="translate(53.866)" fill="#95dbb3" stroke="#95dbb3" stroke-linejoin="round" stroke-width="2"/>
      <rect id="Rectángulo_401100" data-name="Rectángulo 401100" width="2.46" height="2.46" transform="translate(53.866 14.872)" fill="#95dbb3" stroke="#95dbb3" stroke-linejoin="round" stroke-width="2"/>
      <rect id="Rectángulo_401101" data-name="Rectángulo 401101" width="2.459" height="2.46" transform="translate(53.866 29.745)" fill="#95dbb3" stroke="#95dbb3" stroke-linejoin="round" stroke-width="2"/>
      <rect id="Rectángulo_401102" data-name="Rectángulo 401102" width="2.459" height="2.459" transform="translate(40.4)" fill="#95dbb3" stroke="#95dbb3" stroke-linejoin="round" stroke-width="2"/>
      <rect id="Rectángulo_401103" data-name="Rectángulo 401103" width="2.46" height="2.46" transform="translate(40.399 14.872)" fill="#95dbb3" stroke="#95dbb3" stroke-linejoin="round" stroke-width="2"/>
      <rect id="Rectángulo_401104" data-name="Rectángulo 401104" width="2.459" height="2.46" transform="translate(40.4 29.745)" fill="#95dbb3" stroke="#95dbb3" stroke-linejoin="round" stroke-width="2"/>
      <rect id="Rectángulo_401105" data-name="Rectángulo 401105" width="2.459" height="2.459" transform="translate(26.933)" fill="#95dbb3" stroke="#95dbb3" stroke-linejoin="round" stroke-width="2"/>
      <rect id="Rectángulo_401106" data-name="Rectángulo 401106" width="2.46" height="2.46" transform="translate(26.933 14.872)" fill="#95dbb3" stroke="#95dbb3" stroke-linejoin="round" stroke-width="2"/>
      <rect id="Rectángulo_401107" data-name="Rectángulo 401107" width="2.459" height="2.46" transform="translate(26.933 29.745)" fill="#95dbb3" stroke="#95dbb3" stroke-linejoin="round" stroke-width="2"/>
      <rect id="Rectángulo_401108" data-name="Rectángulo 401108" width="2.46" height="2.459" transform="translate(13.466)" fill="#95dbb3" stroke="#95dbb3" stroke-linejoin="round" stroke-width="2"/>
      <rect id="Rectángulo_401109" data-name="Rectángulo 401109" width="2.46" height="2.46" transform="translate(13.467 14.872)" fill="#95dbb3" stroke="#95dbb3" stroke-linejoin="round" stroke-width="2"/>
      <rect id="Rectángulo_401110" data-name="Rectángulo 401110" width="2.46" height="2.46" transform="translate(13.466 29.745)" fill="#95dbb3" stroke="#95dbb3" stroke-linejoin="round" stroke-width="2"/>
      <rect id="Rectángulo_401111" data-name="Rectángulo 401111" width="2.46" height="2.459" transform="translate(0)" fill="#95dbb3" stroke="#95dbb3" stroke-linejoin="round" stroke-width="2"/>
      <rect id="Rectángulo_401112" data-name="Rectángulo 401112" width="2.46" height="2.46" transform="translate(0 14.872)" fill="#95dbb3" stroke="#95dbb3" stroke-linejoin="round" stroke-width="2"/>
      <rect id="Rectángulo_401113" data-name="Rectángulo 401113" width="2.46" height="2.46" transform="translate(0 29.745)" fill="#95dbb3" stroke="#95dbb3" stroke-linejoin="round" stroke-width="2"/>
    </g>
  </g>
</svg>
