<svg xmlns="http://www.w3.org/2000/svg" width="88.049" height="76" viewBox="0 0 88.049 76">
  <g id="Grupo_1099870" data-name="Grupo 1099870" transform="translate(-255 -2844)">
    <g id="Grupo_1099778" data-name="Grupo 1099778" transform="translate(255 2839.438)">
      <g id="Grupo_78348" data-name="Grupo 78348" transform="translate(0 6.296)">
        <path id="Trazado_113319" data-name="Trazado 113319" d="M1570.662,1089.269v-6.956h-7.011v-4.8h7.011v-6.956h4.674v6.956h7.029v4.8h-7.029v6.956Z" transform="translate(-1563.651 -1070.555)" fill="#787cf0"/>
      </g>
      <g id="_7-rice_bowl" data-name="7-rice bowl" transform="translate(10.049 0.563)">
        <path id="Trazado_874495" data-name="Trazado 874495" d="M8.214,34.071a1.214,1.214,0,0,0,1.214-1.214,2.429,2.429,0,0,1,4.857,0,1.214,1.214,0,1,0,2.429,0,4.857,4.857,0,1,0-9.714,0A1.214,1.214,0,0,0,8.214,34.071Z" transform="translate(1.5 4.286)" fill="#30169a"/>
        <path id="Trazado_874496" data-name="Trazado 874496" d="M49.214,33.071a1.214,1.214,0,0,0,1.214-1.214,2.429,2.429,0,0,1,4.857,0,1.214,1.214,0,0,0,2.429,0,4.857,4.857,0,0,0-9.714,0A1.214,1.214,0,0,0,49.214,33.071Z" transform="translate(10.286 4.071)" fill="#30169a"/>
        <path id="Trazado_874497" data-name="Trazado 874497" d="M33.214,21.071a1.214,1.214,0,0,0,1.214-1.214,2.429,2.429,0,1,1,4.857,0,1.214,1.214,0,0,0,2.429,0,4.857,4.857,0,0,0-9.714,0A1.214,1.214,0,0,0,33.214,21.071Z" transform="translate(6.857 1.5)" fill="#30169a"/>
        <path id="Trazado_874498" data-name="Trazado 874498" d="M41.857,32A4.863,4.863,0,0,0,37,36.857a1.214,1.214,0,1,0,2.429,0,2.429,2.429,0,1,1,4.857,0,1.214,1.214,0,1,0,2.429,0A4.863,4.863,0,0,0,41.857,32Z" transform="translate(7.929 5.143)" fill="#30169a"/>
        <path id="Trazado_874499" data-name="Trazado 874499" d="M39.857,24.429A4.863,4.863,0,0,0,35,29.286a1.214,1.214,0,0,0,2.429,0,2.448,2.448,0,0,1,3.332-2.249,1.214,1.214,0,0,0,1.624-.81,2.42,2.42,0,0,1,4.759.63,1.214,1.214,0,0,0,2.429,0A4.847,4.847,0,0,0,40.5,24.473,4.742,4.742,0,0,0,39.857,24.429Z" transform="translate(7.5 3)" fill="#30169a"/>
        <path id="Trazado_874500" data-name="Trazado 874500" d="M17.214,25.072a1.214,1.214,0,0,0,1.214-1.214,2.42,2.42,0,0,1,4.759-.63,1.214,1.214,0,0,0,1.624.81,2.448,2.448,0,0,1,3.332,2.249,1.214,1.214,0,0,0,2.429,0,4.863,4.863,0,0,0-4.857-4.857,4.742,4.742,0,0,0-.642.044A4.847,4.847,0,0,0,16,23.857,1.214,1.214,0,0,0,17.214,25.072Z" transform="translate(3.429 2.357)" fill="#30169a"/>
        <path id="Trazado_874501" data-name="Trazado 874501" d="M23.5,31.473a4.742,4.742,0,0,0-.642-.044A4.863,4.863,0,0,0,18,36.286a1.214,1.214,0,1,0,2.429,0,2.448,2.448,0,0,1,3.332-2.249,1.214,1.214,0,0,0,1.624-.81,2.42,2.42,0,0,1,4.759.63,1.214,1.214,0,0,0,2.429,0A4.847,4.847,0,0,0,23.5,31.473Z" transform="translate(3.857 4.5)" fill="#30169a"/>
        <rect id="Rectángulo_402031" data-name="Rectángulo 402031" width="2" height="2" transform="translate(32 17)" fill="#30169a"/>
        <rect id="Rectángulo_402032" data-name="Rectángulo 402032" width="2" height="3" transform="translate(62 38)" fill="#30169a"/>
        <rect id="Rectángulo_402033" data-name="Rectángulo 402033" width="2" height="3" transform="translate(55 21)" fill="#30169a"/>
        <rect id="Rectángulo_402034" data-name="Rectángulo 402034" width="3" height="3" transform="translate(63 26)" fill="#30169a"/>
        <rect id="Rectángulo_402035" data-name="Rectángulo 402035" width="3" height="2" transform="translate(52 34)" fill="#30169a"/>
        <rect id="Rectángulo_402036" data-name="Rectángulo 402036" width="3" height="3" transform="translate(13 27)" fill="#30169a"/>
        <rect id="Rectángulo_402037" data-name="Rectángulo 402037" width="2" height="3" transform="translate(39 26)" fill="#30169a"/>
        <rect id="Rectángulo_402038" data-name="Rectángulo 402038" width="3" height="3" transform="translate(40 37)" fill="#30169a"/>
        <rect id="Rectángulo_402039" data-name="Rectángulo 402039" width="3" height="2" transform="translate(30 41)" fill="#30169a"/>
        <rect id="Rectángulo_402040" data-name="Rectángulo 402040" width="3" height="2" transform="translate(23 30)" fill="#30169a"/>
        <path id="Trazado_874502" data-name="Trazado 874502" d="M77.714,35.929a8.555,8.555,0,0,0-6.08-8.139q.008-.181.008-.361a8.5,8.5,0,0,0-9.3-8.46,8.445,8.445,0,0,0-8.5-4.857A8.487,8.487,0,0,0,41.4,10.67a8.491,8.491,0,0,0-13.239,1.1,8.394,8.394,0,0,0-1.443-.126,8.5,8.5,0,0,0-7.752,5.027,8.544,8.544,0,0,0-6.07,4.857A8.5,8.5,0,0,0,6.355,27.71,8.44,8.44,0,0,0,0,35.929c0,.3.325,24.844,23.071,32.769v3.66a1.213,1.213,0,0,0,.844,1.156A47.835,47.835,0,0,0,38.857,76,47.835,47.835,0,0,0,53.8,73.513a1.213,1.213,0,0,0,.844-1.156V68.7C77.389,60.773,77.714,36.224,77.714,35.929ZM2.643,38.92c4.251,3.327,14.756,9.151,36.215,9.151s31.964-5.824,36.215-9.151a38.924,38.924,0,0,1-1.183,5.891c-4.679,4.78-19.075,8.117-35.032,8.117S8.5,49.592,3.825,44.811A38.923,38.923,0,0,1,2.643,38.92Zm4.924-8.983a1.214,1.214,0,0,0,1.014-1.014,6.065,6.065,0,0,1,5.316-5.1,1.214,1.214,0,0,0,1.014-.81,6.089,6.089,0,0,1,5.058-4.047,1.214,1.214,0,0,0,1.014-.81,6.111,6.111,0,0,1,7.427-3.842,1.216,1.216,0,0,0,1.417-.607,6.065,6.065,0,0,1,10.384-.655,1.214,1.214,0,0,0,1.823.2,6.058,6.058,0,0,1,9.881,2.58,1.211,1.211,0,0,0,1.416.81,6.034,6.034,0,0,1,7.084,4.047,1.212,1.212,0,0,0,1.416.81,6.047,6.047,0,0,1,7.28,7.013,1.214,1.214,0,0,0,1.014,1.418,6.089,6.089,0,0,1,5.123,5.576c-1.683,1.764-11.012,10.133-36.39,10.133-25.245,0-34.695-8.388-36.391-10.139a6.012,6.012,0,0,1,5.1-5.566ZM52.214,71.464a44.837,44.837,0,0,1-13.357,2.107A44.837,44.837,0,0,1,25.5,71.464V69.449a49.793,49.793,0,0,0,13.357,1.694,49.793,49.793,0,0,0,13.357-1.694Zm-13.357-2.75c-20.954,0-29.849-10.679-33.63-19.856,6.748,3.966,19.447,6.5,33.63,6.5s26.883-2.533,33.63-6.5C68.706,58.036,59.811,68.714,38.857,68.714Z" transform="translate(0 0)" fill="#30169a"/>
      </g>
    </g>
    <rect id="Rectángulo_402041" data-name="Rectángulo 402041" width="88" height="76" transform="translate(255.049 2844)" fill="none"/>
  </g>
</svg>
