<svg xmlns="http://www.w3.org/2000/svg" width="89" height="89" viewBox="0 0 89 89">
  <g id="Grupo_1100885" data-name="Grupo 1100885" transform="translate(-283.052 -5405)">
    <rect id="Rectángulo_400898" data-name="Rectángulo 400898" width="89" height="89" rx="44.5" transform="translate(283.052 5405)" fill="#fff"/>
    <g id="vitamina" transform="translate(300.074 5395.223)">
      <path id="Trazado_876648" data-name="Trazado 876648" d="M118.861,50.85a1.075,1.075,0,0,1-.932-.538L108.45,33.893a3.428,3.428,0,0,0-5.936,0l-2.539,4.4a1.075,1.075,0,1,1-1.863-1.075l2.539-4.4a5.579,5.579,0,0,1,9.662,0l9.479,16.419a1.076,1.076,0,0,1-.93,1.613Z" transform="translate(-87.432)" fill="#30169a"/>
      <path id="Trazado_876649" data-name="Trazado 876649" d="M18.05,203.232A18.071,18.071,0,0,1,0,185.182,17.769,17.769,0,0,1,2.44,176.2l3.4-5.894a1.075,1.075,0,0,1,1.863,1.075l-3.4,5.894a15.645,15.645,0,0,0-2.152,7.911,15.917,15.917,0,0,0,15.9,15.9,15.666,15.666,0,0,0,11.421-4.836,16.132,16.132,0,0,0,4.477-11.161,1.075,1.075,0,0,1,2.151-.014,18.3,18.3,0,0,1-5.075,12.664A17.8,17.8,0,0,1,18.05,203.232Z" transform="translate(0 -124.707)" fill="#30169a"/>
      <path id="Elipse_11491" data-name="Elipse 11491" d="M-3.311-10A6.7,6.7,0,0,1,3.377-3.311,6.7,6.7,0,0,1-3.311,3.377,6.7,6.7,0,0,1-10-3.311,6.7,6.7,0,0,1-3.311-10Zm0,11.226A4.543,4.543,0,0,0,1.226-3.311,4.543,4.543,0,0,0-3.311-7.849,4.543,4.543,0,0,0-7.849-3.311,4.543,4.543,0,0,0-3.311,1.226Z" transform="translate(51.578 71.311)" fill="#30169a"/>
      <path id="Elipse_11492" data-name="Elipse 11492" d="M-3.311-10A6.7,6.7,0,0,1,3.377-3.311,6.7,6.7,0,0,1-3.311,3.377,6.7,6.7,0,0,1-10-3.311,6.7,6.7,0,0,1-3.311-10Zm0,11.226A4.543,4.543,0,0,0,1.226-3.311,4.543,4.543,0,0,0-3.311-7.849,4.543,4.543,0,0,0-7.849-3.311,4.543,4.543,0,0,0-3.311,1.226Z" transform="translate(51.578 43.865)" fill="#30169a"/>
      <path id="Línea_574" data-name="Línea 574" d="M-4.707-3.632a1.072,1.072,0,0,1-.76-.315L-9.685-8.164a1.075,1.075,0,0,1,0-1.521,1.075,1.075,0,0,1,1.521,0l4.217,4.217a1.075,1.075,0,0,1,0,1.521A1.072,1.072,0,0,1-4.707-3.632Z" transform="translate(48.837 68.618)" fill="#30169a"/>
      <path id="Línea_575" data-name="Línea 575" d="M-8.925-3.632a1.072,1.072,0,0,1-.76-.315,1.075,1.075,0,0,1,0-1.521l4.217-4.217a1.075,1.075,0,0,1,1.521,0,1.075,1.075,0,0,1,0,1.521L-8.164-3.947A1.072,1.072,0,0,1-8.925-3.632Z" transform="translate(48.837 53.64)" fill="#30169a"/>
      <path id="Elipse_11493" data-name="Elipse 11493" d="M-2.808-10A7.2,7.2,0,0,1,4.384-2.808,7.2,7.2,0,0,1-2.808,4.384,7.2,7.2,0,0,1-10-2.808,7.2,7.2,0,0,1-2.808-10Zm0,12.233A5.047,5.047,0,0,0,2.233-2.808,5.047,5.047,0,0,0-2.808-7.849,5.047,5.047,0,0,0-7.849-2.808,5.047,5.047,0,0,0-2.808,2.233Z" transform="translate(38.375 57.085)" fill="#30169a"/>
      <g id="Grupo_1100884" data-name="Grupo 1100884" transform="translate(13.969 50.409)">
        <path id="Trazado_876650" data-name="Trazado 876650" d="M130.97,219.532h3.715a4.018,4.018,0,0,1,0,8.037c-.8,0-3.71.013-3.71.013a1.075,1.075,0,0,1-1.08-1.075v-5.9A1.075,1.075,0,0,1,130.97,219.532Zm1.075,5.894c.916,0,2.156-.008,2.64-.008a1.868,1.868,0,0,0,0-3.735h-2.64Z" transform="translate(-129.895 -219.532)" fill="#30169a"/>
        <path id="Trazado_876651" data-name="Trazado 876651" d="M130.969,274.3h4.364a4.526,4.526,0,0,1,0,9.052h-4.364a1.075,1.075,0,0,1-1.075-1.075v-6.9A1.075,1.075,0,0,1,130.969,274.3Zm4.364,6.9a2.375,2.375,0,0,0,0-4.75h-3.289v4.75Z" transform="translate(-129.894 -268.406)" fill="#30169a"/>
      </g>
      <path id="Línea_576" data-name="Línea 576" transform="translate(9.21 41.948)" fill="#30169a"/>
    </g>
  </g>
</svg>
