<svg xmlns="http://www.w3.org/2000/svg" width="85" height="85" viewBox="0 0 85 85">
  <g id="Grupo_1100565" data-name="Grupo 1100565" transform="translate(-309.195 -2873)">
    <g id="Grupo_1099880" data-name="Grupo 1099880" transform="translate(-400.804 -3088)">
      <rect id="Rect치ngulo_400898" data-name="Rect치ngulo 400898" width="85" height="85" rx="42.5" transform="translate(710 5961)" fill="#fff"/>
      <rect id="Rect치ngulo_400907" data-name="Rect치ngulo 400907" width="85" height="85" rx="42.5" transform="translate(710 5961)" fill="none"/>
    </g>
    <g id="OUTLINE" transform="translate(296.709 2875.022)">
      <path id="Trazado_876360" data-name="Trazado 876360" d="M0,0H1.977V1.768H0Z" transform="translate(45.276 24.901) rotate(-26.565)" fill="#30169a"/>
      <path id="Trazado_876361" data-name="Trazado 876361" d="M130.608,367.072h-8.84V360H120v8.84h.884v6.188h1.768V368.84h7.072v6.188h1.768V368.84h.884V360h-1.768Z" transform="translate(-79.623 -307.788)" fill="#30169a"/>
      <path id="Trazado_876362" data-name="Trazado 876362" d="M426.652,305.578l-2.207,3.31a2.644,2.644,0,0,0-.445,1.471v.349a2.652,2.652,0,1,0,5.3,0v-.349a2.643,2.643,0,0,0-.445-1.471Zm.884,5.129a.884.884,0,1,1-1.768,0v-.349a.882.882,0,0,1,.148-.49l.736-1.1.736,1.1a.882.882,0,0,1,.148.49Z" transform="translate(-350.032 -259.379)" fill="#30169a"/>
      <path id="Trazado_876363" data-name="Trazado 876363" d="M354.652,409.578l-2.207,3.31a2.644,2.644,0,0,0-.445,1.471v.349a2.652,2.652,0,0,0,5.3,0v-.349a2.644,2.644,0,0,0-.445-1.471Zm.884,5.129a.884.884,0,0,1-1.768,0v-.349a.882.882,0,0,1,.148-.49l.736-1.1.736,1.1a.882.882,0,0,1,.148.49Z" transform="translate(-285.987 -351.888)" fill="#30169a"/>
      <path id="Trazado_876364" data-name="Trazado 876364" d="M413.3,174.708v-.349a2.643,2.643,0,0,0-.445-1.471l-2.207-3.31-2.207,3.31a2.644,2.644,0,0,0-.445,1.471v.349a2.652,2.652,0,0,0,5.3,0Zm-3.536,0v-.349a.881.881,0,0,1,.148-.49l.736-1.1.735,1.1a.881.881,0,0,1,.148.49v.349a.884.884,0,1,1-1.768,0Z" transform="translate(-335.799 -138.407)" fill="#30169a"/>
      <path id="Trazado_876365" data-name="Trazado 876365" d="M68.812,30.663l9.2-3.539a2.648,2.648,0,0,0,1.564-3.314l-1.559-4.676a2.652,2.652,0,0,0-3.354-1.677l-18.7,6.233a2.664,2.664,0,0,0-1.677,1.677l-.256.768-3.161-1.9-1.5-6.016a6.2,6.2,0,0,0,.735-2.938V13.978L38.057,16.715A9.724,9.724,0,0,0,30.7,28.2l.177.84a14.194,14.194,0,0,0,9.368,10.5l.7.233.209.7a18.436,18.436,0,0,0-5.191,12.874V67.24h1.768V53.348a16.677,16.677,0,0,1,4.56-11.506L52.52,48.1a9.783,9.783,0,0,1,4.653,8.3V67.24h1.768V56.393a11.308,11.308,0,0,0-.133-1.722l8.981-2.807a6.188,6.188,0,0,0,4.188-7.277Zm-3.426-8.25.27,1.08a.884.884,0,0,1-.547,1.042l-3.739,1.4a.884.884,0,0,1-1.168-.613l-.273-1.091Zm-9.982,6.568V27.6l.559-1.677a.888.888,0,0,1,.559-.559l1.724-.575.24.959a2.653,2.653,0,0,0,3.5,1.84l3.739-1.4a2.651,2.651,0,0,0,1.642-3.126l-.3-1.211,8.154-2.718a.885.885,0,0,1,1.118.559L77.9,24.37a.883.883,0,0,1-.521,1.1l-9.9,3.806-1.8.6a2.652,2.652,0,0,0-3.659-1.414l-.488.244a2.651,2.651,0,0,0-1.407,2.928l.106.5-2.311.462a.883.883,0,0,1-.8-.242L55.644,30.87l-2.179.726-.513-1.8ZM40.314,37.694A12.422,12.422,0,0,1,32.6,28.676l-.177-.84a7.956,7.956,0,0,1,6.022-9.4l9.788-2.224a4.4,4.4,0,0,1-3.329,3.378l-3.2.738A5.278,5.278,0,0,0,37.7,26.539l.184.922h1.206a1.763,1.763,0,0,1,.558,3.436l-1.248.416Zm8.188-.38,1.28,7.038-6.888-4.209L40.58,32.427A3.531,3.531,0,0,0,39.37,25.7a3.517,3.517,0,0,1,2.736-3.651l3.2-.738a6.2,6.2,0,0,0,2.673-1.356l1.355,5.419,4.033,2.42-2.579.86,1.474,5.158a.884.884,0,0,1-.677,1.11l-1.688.338A1.776,1.776,0,0,0,48.5,37.313ZM50.242,37l1.688-.338a2.652,2.652,0,0,0,2.03-3.329l-.009-.033,1.215-.405.713.713a2.648,2.648,0,0,0,2.4.725l2.334-.467,1.518,7.082a.885.885,0,0,1-.679,1.05l-9.91,2.124ZM58.4,52.946a11.559,11.559,0,0,0-4.961-6.358l-1.3-.792,9.007-1.93,2.684,7.382Zm8.858-2.768-1.735.542-2.707-7.445a2.647,2.647,0,0,0,1.035-2.7L61.86,31.267a.884.884,0,0,1,.469-.976l.488-.244a.884.884,0,0,1,1.234.511A1.643,1.643,0,0,0,66.126,31.6l1.008-.336,3.118,13.72a4.443,4.443,0,0,1-2.992,5.2Z" transform="translate(0 0)" fill="#30169a"/>
    </g>
  </g>
</svg>
