<svg xmlns="http://www.w3.org/2000/svg" width="89" height="89" viewBox="0 0 89 89">
  <g id="Grupo_1100883" data-name="Grupo 1100883" transform="translate(-597.052 -5405)">
    <rect id="Rectángulo_400898" data-name="Rectángulo 400898" width="89" height="89" rx="44.5" transform="translate(597.052 5405)" fill="#fff"/>
    <g id="Grupo_1100882" data-name="Grupo 1100882" transform="translate(-313.903 -14.488)">
      <g id="Grupo_1100866" data-name="Grupo 1100866" transform="translate(950.006 5453.205)">
        <g id="Grupo_1100864" data-name="Grupo 1100864">
          <g id="Grupo_1100863" data-name="Grupo 1100863">
            <g id="Grupo_1100862" data-name="Grupo 1100862">
              <path id="Trazado_876648" data-name="Trazado 876648" d="M225.727,231.657a8.618,8.618,0,0,1-8.465-10.2.935.935,0,1,1,1.837.343,6.743,6.743,0,0,0,9.911,7.134.934.934,0,0,1,.912,1.631A8.617,8.617,0,0,1,225.727,231.657Z" transform="translate(-217.116 -214.434)" fill="#30169a"/>
              <path id="Trazado_876649" data-name="Trazado 876649" d="M250.293,173.252a.935.935,0,0,1-.447-1.756,8.635,8.635,0,0,1,6.718-.636.934.934,0,1,1-.566,1.781,6.766,6.766,0,0,0-5.259.5A.93.93,0,0,1,250.293,173.252Z" transform="translate(-245.34 -170.456)" fill="#30169a"/>
              <path id="Trazado_876650" data-name="Trazado 876650" d="M324.492,199.675a.935.935,0,0,1-.808-1.4,6.739,6.739,0,0,0-1.069-8.126.934.934,0,0,1,1.323-1.32,8.608,8.608,0,0,1,1.365,10.38A.934.934,0,0,1,324.492,199.675Z" transform="translate(-309.231 -186.298)" fill="#30169a"/>
            </g>
          </g>
        </g>
        <g id="Grupo_1100865" data-name="Grupo 1100865" transform="translate(5.684 4.254)">
          <path id="Trazado_876651" data-name="Trazado 876651" d="M265.717,213.314h-2.045a.935.935,0,0,1-.935-.935v-6.845a.935.935,0,0,1,.935-.935h2.045a3.387,3.387,0,0,1,3.383,3.383v1.948A3.387,3.387,0,0,1,265.717,213.314Zm-1.111-1.869h1.111a1.516,1.516,0,0,0,1.514-1.514v-1.948a1.516,1.516,0,0,0-1.514-1.514h-1.111Z" transform="translate(-262.737 -204.6)" fill="#30169a"/>
        </g>
      </g>
      <g id="Grupo_1100870" data-name="Grupo 1100870" transform="translate(922.955 5439.904)">
        <g id="Grupo_1100868" data-name="Grupo 1100868" transform="translate(37.072 0.102)">
          <g id="Grupo_1100867" data-name="Grupo 1100867">
            <path id="Trazado_876652" data-name="Trazado 876652" d="M315.589,86.392a8.71,8.71,0,0,1-2.967-.525l-13.411-4.881a2.531,2.531,0,0,1-1.513-3.244L301.9,66.2a2.53,2.53,0,0,1,3.244-1.513l13.411,4.881a8.676,8.676,0,0,1-2.967,16.828ZM304.279,66.4a.664.664,0,0,0-.622.436l-4.2,11.546a.662.662,0,0,0,.4.849l13.411,4.881a6.788,6.788,0,0,0,2.327.413h0a6.807,6.807,0,0,0,2.328-13.2l-13.411-4.881A.66.66,0,0,0,304.279,66.4Z" transform="translate(-297.544 -64.53)" fill="#30169a"/>
          </g>
        </g>
        <g id="Grupo_1100869" data-name="Grupo 1100869">
          <path id="Trazado_876653" data-name="Trazado 876653" d="M105.058,70.571a.935.935,0,0,1-.878-.615l-1.434-3.939a.662.662,0,0,0-.848-.4L95.083,68.1a.934.934,0,0,1-.639-1.756l6.814-2.48a2.531,2.531,0,0,1,3.244,1.513l1.434,3.939a.935.935,0,0,1-.878,1.254Z" transform="translate(-82.139 -63.711)" fill="#30169a"/>
          <path id="Trazado_876654" data-name="Trazado 876654" d="M8.7,113.472A8.675,8.675,0,0,1,5.721,96.645l2.768-1.008a.934.934,0,1,1,.639,1.756L6.36,98.4a6.806,6.806,0,1,0,4.655,12.791l6.709-2.442a.934.934,0,1,1,.639,1.756l-6.709,2.442A8.637,8.637,0,0,1,8.7,113.472Z" transform="translate(-0.013 -91.61)" fill="#30169a"/>
        </g>
      </g>
      <g id="Grupo_1100872" data-name="Grupo 1100872" transform="translate(938.812 5444.896)">
        <g id="Grupo_1100871" data-name="Grupo 1100871">
          <path id="Elipse_11491" data-name="Elipse 11491" d="M1.111-7.5A8.621,8.621,0,0,1,9.722,1.111,8.621,8.621,0,0,1,1.111,9.722,8.621,8.621,0,0,1-7.5,1.111,8.621,8.621,0,0,1,1.111-7.5Zm0,15.353A6.75,6.75,0,0,0,7.853,1.111,6.75,6.75,0,0,0,1.111-5.631,6.75,6.75,0,0,0-5.631,1.111,6.75,6.75,0,0,0,1.111,7.853Z" transform="translate(7.5 7.5)" fill="#30169a"/>
        </g>
        <path id="Trazado_876655" data-name="Trazado 876655" d="M167.263,147.887a4.147,4.147,0,1,1,2.933-7.08.934.934,0,1,1-1.322,1.322,2.278,2.278,0,1,0,0,3.222.935.935,0,1,1,1.322,1.322A4.12,4.12,0,0,1,167.263,147.887Z" transform="translate(-158.651 -135.129)" fill="#30169a"/>
      </g>
      <g id="Grupo_1100876" data-name="Grupo 1100876" transform="translate(935.599 5465.699)">
        <g id="Grupo_1100874" data-name="Grupo 1100874">
          <g id="Grupo_1100873" data-name="Grupo 1100873">
            <path id="Elipse_11492" data-name="Elipse 11492" d="M1.111-7.5A8.621,8.621,0,0,1,9.722,1.111,8.621,8.621,0,0,1,1.111,9.722,8.621,8.621,0,0,1-7.5,1.111,8.621,8.621,0,0,1,1.111-7.5Zm0,15.353A6.75,6.75,0,0,0,7.853,1.111,6.75,6.75,0,0,0,1.111-5.631,6.75,6.75,0,0,0-5.631,1.111,6.75,6.75,0,0,0,1.111,7.853Z" transform="translate(7.5 7.5)" fill="#30169a"/>
          </g>
        </g>
        <g id="Grupo_1100875" data-name="Grupo 1100875" transform="translate(5.685 4.254)">
          <path id="Trazado_876656" data-name="Trazado 876656" d="M150.43,309.948h-2.382a.935.935,0,0,1-.934-.935v-3.2a.935.935,0,0,1,.934-.935h2.382a2.536,2.536,0,0,1,0,5.073Zm-1.448-1.869h1.448a.667.667,0,0,0,0-1.335h-1.448Z" transform="translate(-147.113 -304.875)" fill="#30169a"/>
          <path id="Trazado_876657" data-name="Trazado 876657" d="M150.721,336.1h-2.673a.935.935,0,0,1-.934-.934v-3.641a.934.934,0,0,1,.934-.934h2.673a2.755,2.755,0,1,1,0,5.51Zm-1.739-1.869h1.739a.886.886,0,1,0,0-1.772h-1.739Z" transform="translate(-147.113 -327.385)" fill="#30169a"/>
        </g>
      </g>
      <g id="Grupo_1100881" data-name="Grupo 1100881" transform="translate(955.551 5474.278)">
        <g id="Grupo_1100878" data-name="Grupo 1100878">
          <g id="Grupo_1100877" data-name="Grupo 1100877">
            <path id="Trazado_876658" data-name="Trazado 876658" d="M269.991,356.8a8.6,8.6,0,0,1-8.346-6.483.934.934,0,1,1,1.811-.461,6.744,6.744,0,1,0,.073-3.594.934.934,0,1,1-1.791-.533,8.611,8.611,0,1,1,8.253,11.071Z" transform="translate(-261.616 -339.58)" fill="#30169a"/>
          </g>
        </g>
        <g id="Grupo_1100879" data-name="Grupo 1100879" transform="translate(4.7 4.254)">
          <path id="Trazado_876659" data-name="Trazado 876659" d="M305.748,381.619a.935.935,0,0,1-.876-.609L303.008,376l-1.865,5.011a.934.934,0,1,1-1.752-.652l2.068-5.557a1.652,1.652,0,0,1,3.1,0l2.068,5.557a.935.935,0,0,1-.876,1.261Z" transform="translate(-299.333 -373.725)" fill="#30169a"/>
        </g>
        <g id="Grupo_1100880" data-name="Grupo 1100880" transform="translate(5.662 8.919)">
          <path id="Línea_574" data-name="Línea 574" d="M-3.008-5.631H-6.565A.935.935,0,0,1-7.5-6.565.935.935,0,0,1-6.565-7.5h3.557a.935.935,0,0,1,.935.935A.935.935,0,0,1-3.008-5.631Z" transform="translate(7.5 7.5)" fill="#30169a"/>
        </g>
      </g>
      <path id="Trazado_876660" data-name="Trazado 876660" d="M370.863,259.654h1.454a2.113,2.113,0,0,1,2.111,2.111v.622h.622a2.114,2.114,0,0,1,2.111,2.111v1.454a2.113,2.113,0,0,1-2.111,2.111h-.622v.622a2.113,2.113,0,0,1-2.111,2.111h-1.454a2.113,2.113,0,0,1-2.111-2.111v-.622h-.622a2.113,2.113,0,0,1-2.111-2.111V264.5a2.113,2.113,0,0,1,2.111-2.111h.622v-.622A2.113,2.113,0,0,1,370.863,259.654Zm4.188,6.541a.242.242,0,0,0,.242-.242V264.5a.243.243,0,0,0-.242-.242h-1.557a.934.934,0,0,1-.934-.934v-1.557a.242.242,0,0,0-.242-.242h-1.454a.242.242,0,0,0-.242.242v1.557a.934.934,0,0,1-.934.934h-1.557a.242.242,0,0,0-.242.242v1.454a.242.242,0,0,0,.242.242h1.557a.935.935,0,0,1,.934.935v1.557a.242.242,0,0,0,.242.242h1.454a.242.242,0,0,0,.242-.242v-1.557a.934.934,0,0,1,.934-.935Z" transform="translate(602.542 5204.666)" fill="#30169a"/>
      <path id="Trazado_876661" data-name="Trazado 876661" d="M231.907,20.241h1.454a2.114,2.114,0,0,1,2.111,2.111v.623h.622a2.114,2.114,0,0,1,2.111,2.111V26.54a2.114,2.114,0,0,1-2.111,2.111h-.622v.623a2.114,2.114,0,0,1-2.111,2.111h-1.454a2.113,2.113,0,0,1-2.111-2.111v-.622h-.622a2.114,2.114,0,0,1-2.111-2.111V25.086a2.114,2.114,0,0,1,2.111-2.111h.622v-.623A2.113,2.113,0,0,1,231.907,20.241Zm4.188,6.541a.242.242,0,0,0,.242-.242V25.086a.242.242,0,0,0-.242-.242h-1.557a.935.935,0,0,1-.935-.935V22.352a.242.242,0,0,0-.242-.242h-1.454a.242.242,0,0,0-.242.242v1.557a.935.935,0,0,1-.935.935h-1.557a.242.242,0,0,0-.242.242V26.54a.242.242,0,0,0,.242.242h1.557a.935.935,0,0,1,.935.934v1.557a.242.242,0,0,0,.242.242h1.454a.242.242,0,0,0,.242-.242V27.716a.935.935,0,0,1,.935-.935Z" transform="translate(724.183 5414.247)" fill="#30169a"/>
      <path id="Trazado_876662" data-name="Trazado 876662" d="M48.793,402.327h1.454a2.114,2.114,0,0,1,2.111,2.111v.622h.622a2.114,2.114,0,0,1,2.111,2.111v1.454a2.114,2.114,0,0,1-2.111,2.111h-.623v.623a2.113,2.113,0,0,1-2.111,2.111H48.793a2.113,2.113,0,0,1-2.111-2.111v-.622h-.622a2.113,2.113,0,0,1-2.111-2.111v-1.454a2.114,2.114,0,0,1,2.111-2.111h.622v-.622A2.114,2.114,0,0,1,48.793,402.327Zm4.188,6.541a.242.242,0,0,0,.242-.242v-1.454a.243.243,0,0,0-.242-.242H51.423a.934.934,0,0,1-.935-.934v-1.557a.242.242,0,0,0-.242-.242H48.793a.242.242,0,0,0-.242.242V406a.934.934,0,0,1-.934.934H46.059a.242.242,0,0,0-.242.242v1.454a.242.242,0,0,0,.242.242h1.557a.934.934,0,0,1,.935.934v1.557a.242.242,0,0,0,.242.242h1.454a.242.242,0,0,0,.242-.242V409.8a.935.935,0,0,1,.935-.935Z" transform="translate(884.482 5079.769)" fill="#30169a"/>
    </g>
  </g>
</svg>
