<svg xmlns="http://www.w3.org/2000/svg" width="52" height="52" viewBox="0 0 52 52">
  <g id="Grupo_1101071" data-name="Grupo 1101071" transform="translate(-224 -1019)">
    <rect id="Rectángulo_400898" data-name="Rectángulo 400898" width="52" height="52" rx="26" transform="translate(224 1019)" fill="#30169a"/>
    <path id="agricultura" d="M55.131,29.346a18.22,18.22,0,1,0,5.346,12.893A18.081,18.081,0,0,0,55.131,29.346Zm2.862,19.229a18.085,18.085,0,0,0-9.473,3.844A18.333,18.333,0,0,0,46.7,49.141a17.09,17.09,0,0,1,12.02-2.791A17.111,17.111,0,0,1,57.992,48.575ZM43.763,47.6a16.976,16.976,0,0,1,4.89,10.361,16.343,16.343,0,0,1-2.744.857A18.242,18.242,0,0,0,25.5,45.123q-.106-.613-.165-1.25A16.9,16.9,0,0,1,43.763,47.6Zm2.178.542a18.416,18.416,0,0,0-1.289-1.431c-.432-.432-.888-.841-1.352-1.226a17.013,17.013,0,0,1,15.841-1.6c-.039.417-.094.833-.165,1.242a18.293,18.293,0,0,0-13.034,3.019Zm-3.7-22.884a17,17,0,0,1,16.98,16.98c0,.11,0,.212-.008.322a18.272,18.272,0,0,0-16.344,1.7V37.294a7.838,7.838,0,0,0,5.071-1.934c2.107-2.107,1.942-5.589,1.934-5.731a.622.622,0,0,0-.59-.59c-.008,0-.1-.008-.267-.008a8.141,8.141,0,0,0-5.464,1.942,6.942,6.942,0,0,0-1.769,3.64,5.573,5.573,0,0,0-.865-1.124,8.141,8.141,0,0,0-5.464-1.942c-.165,0-.259.008-.267.008a.622.622,0,0,0-.59.59c-.008.149-.173,3.624,1.934,5.731a7.929,7.929,0,0,0,5.078,1.934v4.45a18.24,18.24,0,0,0-16.344-1.7c0-.11-.008-.212-.008-.322A17,17,0,0,1,42.238,25.258Zm.637,10.778a6.547,6.547,0,0,1,1.564-4.174A6.592,6.592,0,0,1,48.614,30.3a6.547,6.547,0,0,1-1.564,4.174A6.577,6.577,0,0,1,42.875,36.036Zm-1.281,2.516a6.547,6.547,0,0,1-4.174-1.564,6.563,6.563,0,0,1-1.557-4.174,6.547,6.547,0,0,1,4.174,1.564A6.639,6.639,0,0,1,41.594,38.551ZM27.1,49.919a16.987,16.987,0,0,1,12.688,9.119A17.016,17.016,0,0,1,27.1,49.919Zm14.158,9.269a18.252,18.252,0,0,0-14.771-10.6,16.235,16.235,0,0,1-.723-2.217,16.976,16.976,0,0,1,18.906,12.68,16.546,16.546,0,0,1-2.437.173C41.908,59.219,41.578,59.211,41.256,59.187Zm8.6-1.777a18.5,18.5,0,0,0-.865-3.758,16.749,16.749,0,0,1,8.388-3.734A17.113,17.113,0,0,1,49.856,57.411Z" transform="translate(208 1003)" fill="#fff"/>
  </g>
</svg>
