<svg xmlns="http://www.w3.org/2000/svg" width="89" height="89" viewBox="0 0 89 89">
  <g id="Grupo_1098867" data-name="Grupo 1098867" transform="translate(-338 -2380)">
    <rect id="Rect치ngulo_400898" data-name="Rect치ngulo 400898" width="89" height="89" rx="44.5" transform="translate(338 2380)" fill="#fff"/>
    <rect id="Rect치ngulo_400907" data-name="Rect치ngulo 400907" width="89" height="89" rx="44.5" transform="translate(338 2380)" fill="none"/>
    <g id="alimento" transform="translate(351 2345.713)">
      <path id="Trazado_874517" data-name="Trazado 874517" d="M312.472,223.087h1.706v1.949h-1.706Z" transform="translate(-259.159 -137.512)" fill="#30169a"/>
      <path id="Trazado_874518" data-name="Trazado 874518" d="M295.154,177.7v1.819h1.706V177.7a5.275,5.275,0,0,0-5.269-5.269v1.706A3.567,3.567,0,0,1,295.154,177.7Z" transform="translate(-241.841 -95.5)" fill="#30169a"/>
      <path id="Trazado_874519" data-name="Trazado 874519" d="M59.748,95.911H58.273V81.689a7.837,7.837,0,0,0-7.828-7.828H30.2L19.955,66.55,7.815,57.882A3.2,3.2,0,0,0,4.1,63.089l11.434,8.163-.009.012,3.335,2.381a.559.559,0,0,1,.161.18L15,73.788h-.073A7.837,7.837,0,0,0,7.1,81.544L7.1,82.1H3.671A3.675,3.675,0,0,0,0,85.773a4.688,4.688,0,0,0,4.683,4.683H7.129v5.454H5.886a3.5,3.5,0,0,0-3.5,3.5v1.575H63.246V99.409A3.5,3.5,0,0,0,59.748,95.911ZM56.567,81.689V95.9H41.431V89.93a7.8,7.8,0,0,0-.366-2.365,6.692,6.692,0,0,0,1.678-1.644,2.524,2.524,0,0,0-.588-3.521l-.759-.542H41.4a7.821,7.821,0,0,0-3.079-6.291H50.445a6.129,6.129,0,0,1,6.122,6.122ZM33.631,75.665a6.123,6.123,0,0,1,5.941,4.891l-6.862-4.9ZM4.742,59.618a1.483,1.483,0,0,1,.969-.6,1.5,1.5,0,0,1,.249-.021,1.482,1.482,0,0,1,.864.278l11.434,8.163.735.524-1.734,2.429L5.089,61.7a1.494,1.494,0,0,1-.347-2.082Zm13.9,11.773,1.743-2.441,9.165,6.543v.074h.1l11.516,8.221a.818.818,0,0,1,.19,1.141,5.008,5.008,0,0,1-1,1.043A7.831,7.831,0,0,0,33.6,82.1H28.76l-8.25-5.89a.565.565,0,0,1-.132-.788,2.274,2.274,0,0,0-.529-3.168Zm-3.71,4.1h.057l3.595.033a2.262,2.262,0,0,0,.939,2.074l6.3,4.5H8.8l0-.542a6.129,6.129,0,0,1,6.121-6.066ZM1.706,85.773a1.967,1.967,0,0,1,1.965-1.965H27.407a7.884,7.884,0,0,0-1.777,2.015A6.286,6.286,0,0,1,20.3,88.75H4.683a2.981,2.981,0,0,1-2.977-2.977Zm7.129,4.683H20.3a8,8,0,0,0,6.785-3.737,6.088,6.088,0,0,1,5.213-2.911H33.6a6.129,6.129,0,0,1,6.122,6.122v5.981H8.835ZM4.1,99.279a1.8,1.8,0,0,1,1.788-1.662H59.748a1.8,1.8,0,0,1,1.788,1.662Z" transform="translate(0 0)" fill="#30169a"/>
    </g>
  </g>
</svg>
