<svg xmlns="http://www.w3.org/2000/svg" width="89" height="89" viewBox="0 0 89 89">
  <g id="Grupo_1098867" data-name="Grupo 1098867" transform="translate(-338 -2380)">
    <rect id="Rect치ngulo_400898" data-name="Rect치ngulo 400898" width="89" height="89" rx="44.5" transform="translate(338 2380)" fill="#fff"/>
    <rect id="Rect치ngulo_400907" data-name="Rect치ngulo 400907" width="89" height="89" rx="44.5" transform="translate(338 2380)" fill="none"/>
    <g id="g9569" transform="translate(304.55 3073.665)">
      <g id="Grupo_1099872" data-name="Grupo 1099872" transform="translate(49.45 -682.665)">
        <g id="g9577" transform="translate(0 45.986)">
          <path id="path9579" d="M-139.354-109.777a.975.975,0,0,1-.162-.014,19.364,19.364,0,0,1-6.156-2.079,22,22,0,0,1-8.549-9.275.969.969,0,0,1,.035-.868.969.969,0,0,1,.717-.491,23.136,23.136,0,0,1,9.043.859.969.969,0,0,1,.64,1.212.969.969,0,0,1-1.212.64,21.554,21.554,0,0,0-6.773-.886,19.756,19.756,0,0,0,7.034,7.113,17.436,17.436,0,0,0,5.542,1.865.969.969,0,0,1,.8,1.116A.969.969,0,0,1-139.354-109.777Z" transform="translate(154.306 122.627)" fill="#30169a"/>
        </g>
        <g id="g9581" transform="translate(38.731 17.471)">
          <path id="path9583" d="M-66.543-156.228a.969.969,0,0,1-.937-.724.969.969,0,0,1,.693-1.182,9.138,9.138,0,0,0,6.9-8.778,8.987,8.987,0,0,0-3.325-6.955.969.969,0,0,1-.134-1.364.969.969,0,0,1,1.364-.134,10.918,10.918,0,0,1,4.033,8.453A11.077,11.077,0,0,1-66.3-156.26.971.971,0,0,1-66.543-156.228Zm1.4-6.692c-2.387,0-5.788-2.069-10.326-6.272a.969.969,0,0,1-.188-1.183,7.4,7.4,0,0,1,6.467-3.768,7.308,7.308,0,0,1,7.367,7.23c0,1.85-.7,3.172-1.958,3.724A3.366,3.366,0,0,1-65.142-162.92Zm-8.407-7.143c6.238,5.634,8.453,5.334,8.994,5.1.692-.3.8-1.35.8-1.948a5.368,5.368,0,0,0-5.429-5.292A5.476,5.476,0,0,0-73.55-170.063Zm2.023-5.182c-1.291,0-1.47-.254-1.665-.529a1.069,1.069,0,0,1-.072-1.06c.554-1.071,3.716-1.1,4.075-1.1a11.468,11.468,0,0,1,2.661.312.969.969,0,0,1,.743.989.969.969,0,0,1-.834.913A39.371,39.371,0,0,1-71.526-175.245Z" transform="translate(75.779 177.936)" fill="#30169a"/>
        </g>
        <g id="g9585" transform="translate(12.465 10.029)">
          <path id="path9587" d="M-142.986,23.023a.97.97,0,0,1-.244-.031.969.969,0,0,1-.695-1.181C-142.341,15.7-136.506,7.8-131.89,2.258a3.931,3.931,0,0,0,.914-2.507V-9.031a.969.969,0,0,1,.969-.969.969.969,0,0,1,.969.969V-.249A5.873,5.873,0,0,1-130.4,3.5c-4.489,5.394-10.154,13.034-11.647,18.8A.969.969,0,0,1-142.986,23.023Z" transform="translate(143.955 10)" fill="#30169a"/>
        </g>
        <g id="g9589" transform="translate(17.903 10.029)">
          <path id="path9591" d="M10.325-513.044H-9.031a.969.969,0,0,1-.969-.969.969.969,0,0,1,.969-.969H10.325l.043-3.189a.969.969,0,0,1,.558-.877,17.012,17.012,0,0,0,9.845-15.285c0-4.45-4.265-12.025-12.01-21.331A5.873,5.873,0,0,1,7.4-559.41v-8.782a.969.969,0,0,1,.969-.969.969.969,0,0,1,.969.969v8.782a3.932,3.932,0,0,0,.914,2.508c5.683,6.828,12.458,16.287,12.458,22.57a18.947,18.947,0,0,1-10.4,16.767V-515A1.972,1.972,0,0,1,10.325-513.044Z" transform="translate(10 569.161)" fill="#30169a"/>
        </g>
        <g id="g9593" transform="translate(26.216 49.728)">
          <path id="path9595" d="M-178.8-1.451h-9.692a.969.969,0,0,1-.969-.969.969.969,0,0,1,.969-.969h9.692a4.076,4.076,0,0,0,2.36-.729,13.408,13.408,0,0,0,3.513-3.62,13.062,13.062,0,0,0,.944-1.7.969.969,0,0,1,1.285-.475.969.969,0,0,1,.475,1.285,15.008,15.008,0,0,1-1.084,1.954,15.338,15.338,0,0,1-4.019,4.142A6,6,0,0,1-178.8-1.451Z" transform="translate(189.462 10.002)" fill="#30169a"/>
        </g>
        <g id="g9597" transform="translate(15.863 35.378)">
          <path id="path9599" d="M19.291-99.351a.98.98,0,0,1-.1-.005.969.969,0,0,1-.862-1.065,13.085,13.085,0,0,0,.072-1.368c0-1.643-1.03-4.307-2.909-7.539a28.183,28.183,0,0,0-7.927,1A37.045,37.045,0,0,1-3.26-107.139c-1.327,0-2.529-.033-3.655-.1-1.453,2.878-1.769,4.545-1.769,5.448q0,.609.056,1.212A.969.969,0,0,1-9.5-99.523a.969.969,0,0,1-1.055-.875c-.043-.459-.065-.927-.065-1.392,0-1.715.767-4.04,2.281-6.909a.969.969,0,0,1,.927-.514c1.262.092,2.621.136,4.155.136a35.4,35.4,0,0,0,10.344-1.135,30.547,30.547,0,0,1,8.957-1.058.969.969,0,0,1,.832.472c2.3,3.85,3.463,6.88,3.463,9.007a15.029,15.029,0,0,1-.082,1.571A.969.969,0,0,1,19.291-99.351Z" transform="translate(10.623 111.269)" fill="#30169a"/>
        </g>
        <g id="g9601" transform="translate(24.781 60.051)">
          <path id="path9603" d="M4.459-8.062H-9.031A.969.969,0,0,1-10-9.031.969.969,0,0,1-9.031-10H4.459a.969.969,0,0,1,.969.969A.969.969,0,0,1,4.459-8.062Z" transform="translate(10 10)" fill="#30169a"/>
        </g>
        <g id="g9605" transform="translate(21.594 42.442)">
          <path id="path9607" d="M-45.824-28.919a2.826,2.826,0,0,1,2.842,2.8,2.826,2.826,0,0,1-2.842,2.8,2.826,2.826,0,0,1-2.842-2.8A2.826,2.826,0,0,1-45.824-28.919Zm0,3.666a.886.886,0,0,0,.9-.864.886.886,0,0,0-.9-.864.886.886,0,0,0-.9.864A.886.886,0,0,0-45.824-25.252Z" transform="translate(48.667 28.919)" fill="#30169a"/>
        </g>
        <g id="g9609" transform="translate(30.373 47.902)">
          <path id="path9611" d="M-45.824-28.919a2.826,2.826,0,0,1,2.842,2.8,2.826,2.826,0,0,1-2.842,2.8,2.826,2.826,0,0,1-2.842-2.8A2.826,2.826,0,0,1-45.824-28.919Zm0,3.666a.886.886,0,0,0,.9-.864.886.886,0,0,0-.9-.864.886.886,0,0,0-.9.864A.886.886,0,0,0-45.824-25.252Z" transform="translate(48.667 28.919)" fill="#30169a"/>
        </g>
        <g id="g9613" transform="translate(25.443 8.776)">
          <path id="path9615" d="M-104.03-3.4h-3.659a4.066,4.066,0,0,1-4.07-4.053v-1.58a.969.969,0,0,1,.969-.969.969.969,0,0,1,.969.969v1.58a2.126,2.126,0,0,0,2.132,2.115h3.659A2.126,2.126,0,0,0-101.9-7.451v-1.58A.969.969,0,0,1-100.93-10a.969.969,0,0,1,.969.969v1.58A4.066,4.066,0,0,1-104.03-3.4Z" transform="translate(111.758 10)" fill="#30169a"/>
        </g>
        <g id="g9617" transform="translate(23.545 0)">
          <path id="path9619" d="M-8.036-52.735a.966.966,0,0,1-.338-.061.969.969,0,0,1-.57-1.246l1.012-2.716A.554.554,0,0,0-8-57.279a.579.579,0,0,0-.48-.249H-19.043a.579.579,0,0,0-.481.25.553.553,0,0,0-.065.522l1.022,2.71a.969.969,0,0,1-.565,1.248.969.969,0,0,1-1.248-.565l-1.022-2.71a2.5,2.5,0,0,1,.284-2.308,2.522,2.522,0,0,1,2.075-1.086H-8.479a2.523,2.523,0,0,1,2.072,1.081,2.506,2.506,0,0,1,.291,2.3l-1.012,2.716A.969.969,0,0,1-8.036-52.735Z" transform="translate(21.563 59.466)" fill="#30169a"/>
        </g>
        <g id="g9621" transform="translate(21.321 4.793)">
          <path id="path9623" d="M-113.727-4.208h-14.25a2.9,2.9,0,0,1-2.9-2.9,2.9,2.9,0,0,1,2.9-2.9h5.262a.969.969,0,0,1,.969.969.969.969,0,0,1-.969.969h-5.262a.959.959,0,0,0-.958.958.959.959,0,0,0,.958.958h14.25a.959.959,0,0,0,.958-.958.959.959,0,0,0-.958-.958h-4.466a.969.969,0,0,1-.969-.969.969.969,0,0,1,.969-.969h4.466a2.9,2.9,0,0,1,2.9,2.9A2.9,2.9,0,0,1-113.727-4.208Z" transform="translate(130.873 10)" fill="#30169a"/>
        </g>
        <g id="g9625" transform="translate(7.981 38.176)">
          <path id="path9627" d="M-14.067-107.823a.969.969,0,0,1-.959-.839,17.061,17.061,0,0,0-1.58-5.318,19.7,19.7,0,0,0-6.827-7.326,20.065,20.065,0,0,0,1.351,9.057.969.969,0,0,1-.51,1.272.969.969,0,0,1-1.272-.51,22.179,22.179,0,0,1-1.314-11.591.969.969,0,0,1,.523-.691.969.969,0,0,1,.866,0,22.034,22.034,0,0,1,8.918,8.924,18.991,18.991,0,0,1,1.765,5.921.969.969,0,0,1-.83,1.09A.978.978,0,0,1-14.067-107.823Z" transform="translate(25.437 123.87)" fill="#30169a"/>
        </g>
        <g id="g9629" transform="translate(11.781 53.034)">
          <path id="path9631" d="M-34.883-34.721a.965.965,0,0,1-.63-.233,21.992,21.992,0,0,1-2.9-2.993.969.969,0,0,1,.156-1.361.969.969,0,0,1,1.361.156,20.051,20.051,0,0,0,2.646,2.727.969.969,0,0,1,.1,1.366A.967.967,0,0,1-34.883-34.721Z" transform="translate(38.626 39.519)" fill="#30169a"/>
        </g>
        <g id="g9633" transform="translate(12.609 46.993)">
          <path id="path9635" d="M-41.261-72.863a.969.969,0,0,1-.868-.538l-3.458-6.952a.969.969,0,0,1,.436-1.3.969.969,0,0,1,1.3.436l3.458,6.952a.969.969,0,0,1-.436,1.3A.965.965,0,0,1-41.261-72.863Z" transform="translate(45.689 81.754)" fill="#30169a"/>
        </g>
        <g id="g9637" transform="translate(4.167 54.631)">
          <path id="path9639" d="M-114.836-90.382c-4.587,0-8.32-2.776-8.32-6.187,0-2.144,1.445-4.1,3.864-5.236a.969.969,0,0,1,1.289.466.969.969,0,0,1-.466,1.289c-1.721.807-2.749,2.108-2.749,3.481,0,2.3,2.922,4.25,6.382,4.25a8.811,8.811,0,0,0,3.252-.6.969.969,0,0,1,1.26.538.969.969,0,0,1-.538,1.26A10.766,10.766,0,0,1-114.836-90.382Z" transform="translate(123.156 101.897)" fill="#30169a"/>
        </g>
        <g id="g9641" transform="translate(13.354 51.505)">
          <path id="path9643" d="M-108.934-98.994a5.25,5.25,0,0,1-3.8-1.465,5.2,5.2,0,0,1-1.475-3.788,9.357,9.357,0,0,1,2.962-6.445,9.446,9.446,0,0,1,6.473-2.943,5.25,5.25,0,0,1,3.8,1.464,5.2,5.2,0,0,1,1.475,3.788,9.358,9.358,0,0,1-2.962,6.446A9.446,9.446,0,0,1-108.934-98.994Zm4.159-12.7a7.615,7.615,0,0,0-5.107,2.38,7.528,7.528,0,0,0-2.391,5.071,3.353,3.353,0,0,0,.9,2.414,3.4,3.4,0,0,0,2.435.9,7.616,7.616,0,0,0,5.107-2.38,7.528,7.528,0,0,0,2.391-5.071,3.353,3.353,0,0,0-.9-2.414A3.405,3.405,0,0,0-104.775-111.7Z" transform="translate(114.21 113.635)" fill="#30169a"/>
        </g>
      </g>
    </g>
  </g>
</svg>
