<svg xmlns="http://www.w3.org/2000/svg" width="89" height="89" viewBox="0 0 89 89">
  <g id="Grupo_1100888" data-name="Grupo 1100888" transform="translate(-440.052 -6582)">
    <path id="Trazado_876648" data-name="Trazado 876648" d="M44.5,0A44.5,44.5,0,1,1,0,44.5,44.5,44.5,0,0,1,44.5,0Z" transform="translate(440.052 6582)" fill="#fff"/>
    <g id="alcoholismo" transform="translate(453.052 6594.994)">
      <path id="Trazado_876649" data-name="Trazado 876649" d="M47.282,35.418A13.809,13.809,0,0,0,39.77,32.1a11.009,11.009,0,0,0,2.079-11.024l-.009-.024A5.505,5.505,0,0,0,44.666,14.2a3.463,3.463,0,0,0-3.6-2.277l-.229-3.966a6.692,6.692,0,0,0-3.2-5.332,4.323,4.323,0,0,0-5.353.716,1.211,1.211,0,0,1-1.165.344l-1.451-.354a12.8,12.8,0,0,0-7.434.41,1,1,0,0,0,.683,1.879,10.833,10.833,0,0,1,6.277-.346l1.451.354a3.216,3.216,0,0,0,3.09-.912,2.306,2.306,0,0,1,2.86-.382,4.7,4.7,0,0,1,2.244,3.738l.269,4.67a3.292,3.292,0,0,0-.26.255,8.092,8.092,0,0,0-2.509-3.061l-1.163-.854a1,1,0,0,0-1.5.383,5.48,5.48,0,0,1-5.1,3.135l-3.018-.1a7.043,7.043,0,0,0-6.218,3.366,6.961,6.961,0,0,0-.992,4.184A3.506,3.506,0,0,0,17.769,20l-1.035-.9A7.106,7.106,0,0,1,18.959,7.058l.694-.253a1,1,0,0,0-.683-1.879l-.69.255a9.106,9.106,0,0,0-2.853,15.435l.138.12a3.494,3.494,0,0,0-1.14,3.939,5.4,5.4,0,0,0,6.565,3.417l.186.511a10.962,10.962,0,0,0,2.2,3.639A13.751,13.751,0,0,0,12,45.815V47a1,1,0,0,0,2,0V45.815a11.778,11.778,0,0,1,9.309-11.534A9.036,9.036,0,0,0,32,41a8.917,8.917,0,0,0,7.2-3.606,1,1,0,0,0-1.6-1.2A6.931,6.931,0,0,1,32,39a7.025,7.025,0,0,1-6.685-4.975l.152-.008A10.9,10.9,0,0,0,37.584,34h.6A11.817,11.817,0,0,1,50,45.815V61a1,1,0,0,0,2,0V45.815a13.82,13.82,0,0,0-4.718-10.4Zm-5.27-21.381a1.5,1.5,0,0,1,.776.847,3.505,3.505,0,0,1-1.634,4.281L39.968,15.91A1.5,1.5,0,0,1,41.38,13.9a1.473,1.473,0,0,1,.632.14ZM16.305,23.991a1.5,1.5,0,0,1,2.82-1.028l1.185,3.256A3.505,3.505,0,0,1,16.305,23.991ZM34.592,33.3a9.015,9.015,0,0,1-11.536-5.379l-2.431-6.678A5.023,5.023,0,0,1,25.344,14.5l.158,0,3.018.1a7.4,7.4,0,0,0,6.376-3.24l.26.19A6.141,6.141,0,0,1,37.291,14.4l2.681,7.365A9.013,9.013,0,0,1,34.592,33.3Z" fill="#30169a"/>
      <path id="Trazado_876650" data-name="Trazado 876650" d="M44,44a1,1,0,0,0-1,1V61a1,1,0,0,0,2,0V45A1,1,0,0,0,44,44Z" fill="#30169a"/>
      <path id="Trazado_876651" data-name="Trazado 876651" d="M30.15,26.089l1.282.6a1,1,0,1,0,.846-1.812l-.629-.293.173-1.506a1,1,0,1,0-1.986-.228L29.58,25.07A1,1,0,0,0,30.15,26.089Z" fill="#30169a"/>
      <path id="Trazado_876652" data-name="Trazado 876652" d="M34.926,27.067a4.393,4.393,0,0,1-4.595,1.672,1,1,0,0,0-.475,1.943,6.393,6.393,0,0,0,6.68-2.431,1,1,0,0,0-1.61-1.184Z" fill="#30169a"/>
      <path id="Trazado_876653" data-name="Trazado 876653" d="M35.049,15.161a1,1,0,0,0-.127,1.408,1.832,1.832,0,0,1-.23,2.576,1.263,1.263,0,0,1-1.779-.16.845.845,0,0,1,.1-1.166.937.937,0,0,1,.378.313,1,1,0,1,0,1.535-1.281c-.959-1.149-2.214-1.36-3.195-.541a2.814,2.814,0,0,0-.354,3.958,3.269,3.269,0,0,0,4.6.412,3.835,3.835,0,0,0,.483-5.393,1,1,0,0,0-1.41-.126Z" fill="#30169a"/>
      <path id="Trazado_876654" data-name="Trazado 876654" d="M26.59,18.239a1,1,0,0,0-.126,1.409,1.832,1.832,0,0,1-.229,2.575,1.264,1.264,0,0,1-1.779-.16.844.844,0,0,1,.1-1.166.941.941,0,0,1,.378.314,1,1,0,1,0,1.535-1.283c-.96-1.146-2.214-1.358-3.195-.541a2.815,2.815,0,0,0-.354,3.959,3.269,3.269,0,0,0,4.6.412A3.836,3.836,0,0,0,28,18.364a1.006,1.006,0,0,0-1.411-.125Z" fill="#30169a"/>
      <path id="Trazado_876655" data-name="Trazado 876655" d="M40,55.775V53.581a10.715,10.715,0,0,0-.552-3.4A8.749,8.749,0,0,1,39,47.419V45a1,1,0,0,0-1-1H34a1,1,0,0,0-1,1v2.419a8.749,8.749,0,0,1-.448,2.765,10.715,10.715,0,0,0-.552,3.4v1.005L31.586,55H31a1,1,0,0,0-1-1H21V47a1,1,0,0,0-2,0v8a1,1,0,0,0,1,1h9v4H19a5.006,5.006,0,0,1-5-5V51a1,1,0,0,0-2,0v4a7.009,7.009,0,0,0,7,7H38a3,3,0,0,0,3-3V58a2.983,2.983,0,0,0-1-2.225ZM37.6,51a8.724,8.724,0,0,1,.4,2.581v.2A2.979,2.979,0,0,0,36,53H34.828a2.992,2.992,0,0,0-.791.119A8.714,8.714,0,0,1,34.4,51ZM35,46h2v1.419A10.7,10.7,0,0,0,37.122,49H34.879A10.834,10.834,0,0,0,35,47.419Zm4,13a1,1,0,0,1-1,1H31V57h1a1,1,0,0,0,.707-.293l1.414-1.414A1,1,0,0,1,34.828,55H36a1,1,0,0,1,1,1,1,1,0,0,0,1,1,1,1,0,0,1,1,1Z" fill="#30169a"/>
      <path id="Trazado_876656" data-name="Trazado 876656" d="M53,23a3,3,0,1,0-3,3A3,3,0,0,0,53,23Zm-4,0a1,1,0,1,1,1,1A1,1,0,0,1,49,23Z" fill="#30169a"/>
      <path id="Trazado_876657" data-name="Trazado 876657" d="M58,3a3,3,0,1,0,3,3A3,3,0,0,0,58,3Zm0,4a1,1,0,1,1,1-1A1,1,0,0,1,58,7Z" fill="#30169a"/>
      <path id="Trazado_876658" data-name="Trazado 876658" d="M5,19a3,3,0,1,0,3-3A3,3,0,0,0,5,19Zm3-1a1,1,0,1,1-1,1A1,1,0,0,1,8,18Z" fill="#30169a"/>
      <path id="Trazado_876659" data-name="Trazado 876659" d="M50,10a1,1,0,0,0,1-1V8a1,1,0,0,0-2,0V9A1,1,0,0,0,50,10Z" fill="#30169a"/>
      <path id="Trazado_876660" data-name="Trazado 876660" d="M51,14V13a1,1,0,0,0-2,0v1a1,1,0,0,0,2,0Z" fill="#30169a"/>
      <path id="Trazado_876661" data-name="Trazado 876661" d="M52,12h1a1,1,0,0,0,0-2H52a1,1,0,0,0,0,2Z" fill="#30169a"/>
      <path id="Trazado_876662" data-name="Trazado 876662" d="M47,12h1a1,1,0,0,0,0-2H47a1,1,0,0,0,0,2Z" fill="#30169a"/>
      <path id="Trazado_876663" data-name="Trazado 876663" d="M10,28v1a1,1,0,0,0,2,0V28a1,1,0,0,0-2,0Z" fill="#30169a"/>
      <path id="Trazado_876664" data-name="Trazado 876664" d="M12,33a1,1,0,0,0-2,0v1a1,1,0,0,0,2,0Z" fill="#30169a"/>
      <path id="Trazado_876665" data-name="Trazado 876665" d="M13,32h1a1,1,0,0,0,0-2H13a1,1,0,0,0,0,2Z" fill="#30169a"/>
      <path id="Trazado_876666" data-name="Trazado 876666" d="M9,30H8a1,1,0,0,0,0,2H9a1,1,0,0,0,0-2Z" fill="#30169a"/>
      <path id="Trazado_876667" data-name="Trazado 876667" d="M56,31a1,1,0,0,0,1-1V29a1,1,0,0,0-2,0v1A1,1,0,0,0,56,31Z" fill="#30169a"/>
      <path id="Trazado_876668" data-name="Trazado 876668" d="M56,33a1,1,0,0,0-1,1v1a1,1,0,0,0,2,0V34A1,1,0,0,0,56,33Z" fill="#30169a"/>
      <path id="Trazado_876669" data-name="Trazado 876669" d="M59,31H58a1,1,0,0,0,0,2h1a1,1,0,0,0,0-2Z" fill="#30169a"/>
      <path id="Trazado_876670" data-name="Trazado 876670" d="M54,31H53a1,1,0,0,0,0,2h1a1,1,0,0,0,0-2Z" fill="#30169a"/>
      <path id="Trazado_876671" data-name="Trazado 876671" d="M7,6A1,1,0,0,0,8,5V4A1,1,0,0,0,6,4V5A1,1,0,0,0,7,6Z" fill="#30169a"/>
      <path id="Trazado_876672" data-name="Trazado 876672" d="M8,10V9A1,1,0,0,0,6,9v1a1,1,0,0,0,2,0Z" fill="#30169a"/>
      <path id="Trazado_876673" data-name="Trazado 876673" d="M9,8h1a1,1,0,0,0,0-2H9A1,1,0,0,0,9,8Z" fill="#30169a"/>
      <path id="Trazado_876674" data-name="Trazado 876674" d="M6,7A1,1,0,0,0,5,6H4A1,1,0,0,0,4,8H5A1,1,0,0,0,6,7Z" fill="#30169a"/>
      <circle id="Elipse_11491" data-name="Elipse 11491" cx="1" cy="1" r="1" transform="translate(55 17)" fill="#30169a"/>
      <circle id="Elipse_11492" data-name="Elipse 11492" cx="1" cy="1" r="1" transform="translate(5 24)" fill="#30169a"/>
      <circle id="Elipse_11493" data-name="Elipse 11493" cx="1" cy="1" r="1" transform="translate(44 3)" fill="#30169a"/>
      <circle id="Elipse_11494" data-name="Elipse 11494" cx="1" cy="1" r="1" transform="translate(46 30)" fill="#30169a"/>
    </g>
  </g>
</svg>
