<svg xmlns="http://www.w3.org/2000/svg" width="89" height="89" viewBox="0 0 89 89">
  <g id="Grupo_1098867" data-name="Grupo 1098867" transform="translate(-338 -2380)">
    <rect id="Rect치ngulo_400898" data-name="Rect치ngulo 400898" width="89" height="89" rx="44.5" transform="translate(338 2380)" fill="#fff"/>
    <rect id="Rect치ngulo_400907" data-name="Rect치ngulo 400907" width="89" height="89" rx="44.5" transform="translate(338 2380)" fill="none"/>
    <g id="aceite-de-girasol" transform="translate(348.295 2389)">
      <path id="Trazado_874520" data-name="Trazado 874520" d="M53.37,41.837a1.108,1.108,0,0,0-1.108,1.108v5.185A17.971,17.971,0,0,1,45.4,49.556a1.108,1.108,0,1,0,0,2.215,19.963,19.963,0,0,0,6.867-1.264v2.03A17.971,17.971,0,0,1,45.4,53.964a1.108,1.108,0,1,0,0,2.215,19.963,19.963,0,0,0,6.867-1.264v.976a3.069,3.069,0,0,1-2.343,2.84,22.916,22.916,0,0,1-13.544-.007,3.07,3.07,0,0,1-2.245-2.656,1.1,1.1,0,0,0-1.172-1.039A1.107,1.107,0,0,0,31.92,56.2a5.269,5.269,0,0,0,3.789,4.635c4.837,1.671,18.684,2.437,18.769-4.945V42.944a1.108,1.108,0,0,0-1.108-1.108Z" transform="translate(2.173 4.068)" fill="#30169a"/>
      <path id="Trazado_874521" data-name="Trazado 874521" d="M53.988,36.759c-.55-1.723-2.158-5.119-1.862-6.9A8.56,8.56,0,0,1,53.157,26.5,7.057,7.057,0,0,0,51.4,18.53l-2.226-2.1a1.233,1.233,0,0,1-.428-.925V13.1a2.385,2.385,0,0,0,1.392-2.028l-.087-3.9C50.031,2.886,35.974,2.992,36.1,7.2c0,.07.08,3.806.089,3.99a2.4,2.4,0,0,0,1.3,1.871v1.867c.006.728.026,1.1-.441,1.524-.068.071-1.922,1.811-2.317,2.189a7.137,7.137,0,0,0-2.157,4.322,1.112,1.112,0,1,0,2.222.076c.189-3.143,4.919-4.384,4.908-7.535,0-.043,0-1.566,0-1.605-.024-.023.11.02.178.031a16.978,16.978,0,0,0,6.651-.017c0,.128,0,1.678,0,1.7a3.5,3.5,0,0,0,1.144,2.449c1.708,1.621,4.029,3.33,3.824,5.831a9.74,9.74,0,0,1-1.1,3.4,8.989,8.989,0,0,0-.063,5.864c.369,1.221,1.974,4.9,1.85,5.972V41.38c0,.712,0,1.171,0,1.26a1.108,1.108,0,0,0,2.213-.061c-.076-1.744.232-4.29-.419-5.821ZM43.078,6.234a9.163,9.163,0,0,1,4.633.937,9.171,9.171,0,0,1-4.633.937,9.171,9.171,0,0,1-4.633-.937,9.163,9.163,0,0,1,4.633-.937Zm-4.05,5.12a2.044,2.044,0,0,1-.627-.366l-.031-1.4a15.432,15.432,0,0,0,9.522-.04l.032,1.44c-.322.342-1.973,1.042-4.759,1.042a10.9,10.9,0,0,1-4.137-.68Z" transform="translate(2.244 0)" fill="#30169a"/>
      <path id="Trazado_874522" data-name="Trazado 874522" d="M37.913,55.461a1.109,1.109,0,0,0,1.113-.637,10.23,10.23,0,0,0,.818-4.837,10.917,10.917,0,0,0,4.84-.8,1.108,1.108,0,0,0,.641-1.111,10.262,10.262,0,0,0-1.692-4.542,10.228,10.228,0,0,0,3.753-3.084,1.107,1.107,0,0,0,0-1.283,10.188,10.188,0,0,0-3.8-3.12,10.27,10.27,0,0,0,1.732-4.6,1.108,1.108,0,0,0-.642-1.112,10.241,10.241,0,0,0-4.779-.8,10.223,10.223,0,0,0-.793-4.783A1.107,1.107,0,0,0,38,24.106a10.236,10.236,0,0,0-4.6,1.722,10.219,10.219,0,0,0-3.108-3.8,1.109,1.109,0,0,0-1.285,0,10.261,10.261,0,0,0-3.084,3.74,10.26,10.26,0,0,0-4.538-1.708,1.1,1.1,0,0,0-1.115.639,10.281,10.281,0,0,0-.813,4.844,10.185,10.185,0,0,0-4.843.793,1.108,1.108,0,0,0-.642,1.112,10.316,10.316,0,0,0,1.686,4.542A10.225,10.225,0,0,0,11.91,39.07a1.107,1.107,0,0,0,0,1.281A10.193,10.193,0,0,0,15.7,43.48a10.242,10.242,0,0,0-1.729,4.592,1.108,1.108,0,0,0,.642,1.112,10.6,10.6,0,0,0,3.989.852,7.626,7.626,0,0,0,.791-.044,10.279,10.279,0,0,0,.793,4.783,1.108,1.108,0,0,0,1.111.645A10.233,10.233,0,0,0,25.9,53.7a10.231,10.231,0,0,0,3.107,3.794,1.106,1.106,0,0,0,1.284,0,10.239,10.239,0,0,0,3.091-3.737,10.266,10.266,0,0,0,4.533,1.7ZM28.32,46.72a7.124,7.124,0,0,1-4.033-11.578c3.321-4.119,10.48-2.744,12.056,2.3A7.132,7.132,0,0,1,28.32,46.72ZM37.3,53.106a6.165,6.165,0,0,1-3.4-1.9,5.632,5.632,0,0,0-.852-2.8,9.336,9.336,0,0,0,2.383-1.379,5.534,5.534,0,0,0,1.927,2.095,6.067,6.067,0,0,1-.053,3.98Zm1.445-5.717A3.491,3.491,0,0,1,37.1,45.3a9.041,9.041,0,0,0,1.077-1.879c2.755-.658,4.42,1.965,4.792,4.032a5.815,5.815,0,0,1-4.224-.066ZM45.043,39.8a6.132,6.132,0,0,1-3.357,2,5.62,5.62,0,0,0-2.84-.67,9.613,9.613,0,0,0-.006-2.748,5.627,5.627,0,0,0,2.747-.609A6.007,6.007,0,0,1,45.043,39.8Zm-2.071-7.74c-.367,2.025-2,4.7-4.787,4.03A9.242,9.242,0,0,0,37.1,34.21c.836-2.751,3.908-2.843,5.87-2.148Zm-5.594-5.6a6.134,6.134,0,0,1,.047,3.926,5.538,5.538,0,0,0-1.981,2.133,9.226,9.226,0,0,0-2.408-1.393,5.458,5.458,0,0,0,.858-2.7A6.06,6.06,0,0,1,37.377,26.458Zm-7.729-2.086C30.9,25.409,32.535,28,31.191,29.908c-.4,1.083-1.739.359-2.644.633-1.92-2.094-.511-4.795,1.1-6.169Zm-7.653,2.041a6.205,6.205,0,0,1,3.4,1.893,5.629,5.629,0,0,0,.851,2.809A9.293,9.293,0,0,0,23.862,32.5a5.536,5.536,0,0,0-1.911-2.084,6.086,6.086,0,0,1,.044-4Zm-1.442,5.732a3.483,3.483,0,0,1,1.638,2.082A9.277,9.277,0,0,0,21.107,36.1c-2.743.655-4.416-1.971-4.783-4.041a5.783,5.783,0,0,1,4.229.082Zm-6.3,7.571a6.138,6.138,0,0,1,3.339-2,5.683,5.683,0,0,0,2.869.679,8.669,8.669,0,0,0,.007,2.748,5.639,5.639,0,0,0-2.756.608,6,6,0,0,1-3.459-2.034Zm2.071,7.74c.251-1.593,1.722-4.329,4-4.108,1.175-.181,1.179,1.3,1.891,1.967-.818,2.727-3.894,2.856-5.888,2.141Zm5.6,5.614a6.174,6.174,0,0,1-.062-3.9,5.675,5.675,0,0,0,2.011-2.149A9.523,9.523,0,0,0,26.262,48.4a5.41,5.41,0,0,0-.858,2.7,6.063,6.063,0,0,1-3.484,1.968Zm7.733,2.075c-1.582-1.362-3.045-4.08-1.1-6.157a8.591,8.591,0,0,0,2.2,0c1.914,2.13.527,4.757-1.1,6.158Z" transform="translate(0 1.916)" fill="#30169a"/>
      <path id="Trazado_874523" data-name="Trazado 874523" d="M24.987,35.153a1.108,1.108,0,1,0,1.108,1.108,1.107,1.107,0,0,0-1.108-1.108Z" transform="translate(1.309 3.349)" fill="#30169a"/>
      <path id="Trazado_874524" data-name="Trazado 874524" d="M31.042,37.368a1.108,1.108,0,1,0-1.108-1.108,1.107,1.107,0,0,0,1.108,1.108Z" transform="translate(1.96 3.349)" fill="#30169a"/>
      <path id="Trazado_874525" data-name="Trazado 874525" d="M24.987,38.89A1.108,1.108,0,1,0,26.095,40a1.107,1.107,0,0,0-1.108-1.108Z" transform="translate(1.309 3.751)" fill="#30169a"/>
      <path id="Trazado_874526" data-name="Trazado 874526" d="M31.042,41.105A1.108,1.108,0,1,0,29.935,40a1.107,1.107,0,0,0,1.108,1.108Z" transform="translate(1.96 3.751)" fill="#30169a"/>
      <path id="Trazado_874527" data-name="Trazado 874527" d="M28.015,39.237a1.108,1.108,0,1,0-1.108-1.108,1.107,1.107,0,0,0,1.108,1.108Z" transform="translate(1.634 3.55)" fill="#30169a"/>
      <path id="Trazado_874528" data-name="Trazado 874528" d="M28.015,35.188a1.108,1.108,0,1,0-1.108-1.108,1.107,1.107,0,0,0,1.108,1.108Z" transform="translate(1.634 3.115)" fill="#30169a"/>
      <path id="Trazado_874529" data-name="Trazado 874529" d="M29.122,42.177a1.108,1.108,0,1,0-1.108,1.108,1.107,1.107,0,0,0,1.108-1.108Z" transform="translate(1.634 3.985)" fill="#30169a"/>
    </g>
  </g>
</svg>
