<svg xmlns="http://www.w3.org/2000/svg" width="89" height="89" viewBox="0 0 89 89">
  <g id="Grupo_1100897" data-name="Grupo 1100897" transform="translate(-1070.052 -6582)">
    <rect id="Rectángulo_400898" data-name="Rectángulo 400898" width="89" height="89" rx="44.5" transform="translate(1070.052 6582)" fill="#fff"/>
    <g id="medicamento" transform="translate(1088.052 6590.73)">
      <g id="Grupo_1100892" data-name="Grupo 1100892" transform="translate(20.287 14.18)">
        <g id="Grupo_1100891" data-name="Grupo 1100891" transform="translate(0 0)">
          <path id="Trazado_876683" data-name="Trazado 876683" d="M200.447,48.4a1.047,1.047,0,0,0-1.274-.755,8.47,8.47,0,0,0-5.289,3.99,1.047,1.047,0,1,0,1.813,1.047,6.391,6.391,0,0,1,3.994-3.008A1.047,1.047,0,0,0,200.447,48.4Z" transform="translate(-193.744 -47.609)" fill="#30169a"/>
        </g>
      </g>
      <g id="Grupo_1100894" data-name="Grupo 1100894" transform="translate(28.023 14.041)">
        <g id="Grupo_1100893" data-name="Grupo 1100893" transform="translate(0 0)">
          <path id="Trazado_876684" data-name="Trazado 876684" d="M268.879,46.306l-.048-.008a1.054,1.054,0,1,0,.048.008Z" transform="translate(-267.628 -46.286)" fill="#30169a"/>
        </g>
      </g>
      <g id="Grupo_1100896" data-name="Grupo 1100896" transform="translate(0 10.27)">
        <g id="Grupo_1100895" data-name="Grupo 1100895" transform="translate(0 0)">
          <path id="Trazado_876685" data-name="Trazado 876685" d="M48.267,40.9c-.771-.22-1.6-.415-2.488-.584a1.054,1.054,0,0,0-.153-.028,48.3,48.3,0,0,0-8.685-.739c-1.728,0-3.415.08-5.016.232L38.4,28.576A12.206,12.206,0,0,0,17.254,16.37L9.444,29.9l0,0,0,0L1.631,43.43A12.193,12.193,0,0,0,12.17,61.73,12.3,12.3,0,0,0,20.991,58a9.712,9.712,0,0,0,4.616,2.384A43.059,43.059,0,0,0,36.941,61.73a43.059,43.059,0,0,0,11.334-1.348c3.54-1.011,5.335-2.412,5.335-4.163V45.067s0,0,0-.006C53.611,43.313,51.813,41.913,48.267,40.9Zm-11.326.744c1.648,0,3.254.075,4.774.218l-13.3,5.871c-.789-.153-1.534-.328-2.223-.525-3.138-.9-3.825-1.854-3.825-2.147s.687-1.25,3.825-2.147A40.9,40.9,0,0,1,36.941,41.644ZM19.067,17.417A10.112,10.112,0,0,1,36.582,27.529L29.321,40.106l-.085.014L11.779,30.04Zm1.2,27.637s0,0,0,.006V55.62A10.188,10.188,0,0,1,7.146,58.29a10.144,10.144,0,0,1-3.7-13.813l7.288-12.623,15.417,8.9c-.181.047-.359.1-.533.145C22.073,41.912,20.275,43.31,20.272,45.055ZM51.517,56.219c0,.295-.686,1.255-3.816,2.15a40.947,40.947,0,0,1-10.759,1.267,40.948,40.948,0,0,1-10.759-1.267c-3.131-.894-3.816-1.855-3.816-2.15v-8.3a14.375,14.375,0,0,0,3.25,1.3c.822.235,1.716.44,2.665.616a1.039,1.039,0,0,0,.14.026,48.58,48.58,0,0,0,8.521.709,43,43,0,0,0,11.326-1.35,14.374,14.374,0,0,0,3.25-1.3Zm0-11.159v0c0,.3-.7,1.25-3.825,2.144a40.9,40.9,0,0,1-10.751,1.269c-1.577,0-3.116-.069-4.577-.2l13.268-5.856c.728.145,1.419.309,2.059.492,3.132.895,3.822,1.85,3.825,2.145Z" transform="translate(0 -10.27)" fill="#30169a"/>
        </g>
      </g>
    </g>
  </g>
</svg>
