<svg xmlns="http://www.w3.org/2000/svg" width="184.079" height="184.079" viewBox="0 0 184.079 184.079">
  <g id="Grupo_1100908" data-name="Grupo 1100908" transform="translate(3209 4602)">
    <g id="Grupo_1098883" data-name="Grupo 1098883" transform="translate(-3209 -4602)">
      <g id="Grupo_1098742" data-name="Grupo 1098742" transform="translate(0 0)">
        <rect id="Rect치ngulo_400898" data-name="Rect치ngulo 400898" width="184.079" height="184.079" rx="92" transform="translate(0)" fill="#59836b"/>
        <rect id="Rect치ngulo_400907" data-name="Rect치ngulo 400907" width="184.079" height="184.079" rx="72" fill="none"/>
      </g>
    </g>
    <g id="Grupo_1100907" data-name="Grupo 1100907" transform="translate(12.974 1054.999)">
      <g id="g4978" transform="translate(-3108.686 -5610.88)">
        <path id="path4980" d="M-63.193-145.518a1.784,1.784,0,0,1-1.785-1.785v-27.745a.683.683,0,0,0-.682-.683h-9.475a1.785,1.785,0,0,1-1.785-1.785,1.785,1.785,0,0,1,1.785-1.785h9.475a4.257,4.257,0,0,1,4.251,4.252V-147.3A1.785,1.785,0,0,1-63.193-145.518Z" transform="translate(76.92 179.3)" fill="#fff"/>
      </g>
      <g id="g4982" transform="translate(-3166.644 -5610.88)">
        <path id="path4984" d="M-49.066,23.781A1.785,1.785,0,0,1-50.851,22V-5.748A4.256,4.256,0,0,1-46.6-10h4.823a1.785,1.785,0,0,1,1.785,1.785,1.785,1.785,0,0,1-1.785,1.785H-46.6a.683.683,0,0,0-.682.683V22A1.785,1.785,0,0,1-49.066,23.781Z" transform="translate(50.851 10)" fill="#fff"/>
      </g>
      <g id="g4986" transform="translate(-3147.16 -5610.88)">
        <path id="path4988" d="M-146.567-6.431h-30.052A1.784,1.784,0,0,1-178.4-8.215,1.784,1.784,0,0,1-176.619-10h30.052a1.784,1.784,0,0,1,1.785,1.785A1.784,1.784,0,0,1-146.567-6.431Z" transform="translate(178.404 10)" fill="#fff"/>
      </g>
      <g id="g4990" transform="translate(-3158.812 -5621.492)">
        <path id="path4992" d="M-8.215,16.664A1.785,1.785,0,0,1-10,14.879V-8.215A1.785,1.785,0,0,1-8.215-10,1.785,1.785,0,0,1-6.431-8.215V14.879A1.785,1.785,0,0,1-8.215,16.664Z" transform="translate(10 10)" fill="#fff"/>
      </g>
      <g id="g4994" transform="translate(-3147.964 -5621.492)">
        <path id="path4996" d="M-8.215-192.109A1.785,1.785,0,0,1-10-193.893v-40.332a1.785,1.785,0,0,1,1.785-1.785,1.785,1.785,0,0,1,1.785,1.785v40.332A1.785,1.785,0,0,1-8.215-192.109Z" transform="translate(10 236.01)" fill="#fff"/>
      </g>
      <g id="g4998" transform="translate(-3158.812 -5589.976)">
        <path id="path5000" d="M-8.215,2.385A1.785,1.785,0,0,1-10,.6V-8.215A1.785,1.785,0,0,1-8.215-10,1.785,1.785,0,0,1-6.431-8.215V.6A1.785,1.785,0,0,1-8.215,2.385Z" transform="translate(10 10)" fill="#fff"/>
      </g>
      <g id="g5002" transform="translate(-3158.812 -5625)">
        <path id="path5004" d="M-63.577-29.656c4.042,0,7.208,2.325,7.208,5.292s-3.166,5.292-7.208,5.292-7.208-2.325-7.208-5.292S-67.619-29.656-63.577-29.656Zm0,7.015c2.188,0,3.639-1.037,3.639-1.723s-1.451-1.723-3.639-1.723-3.639,1.037-3.639,1.723S-65.765-22.641-63.577-22.641Z" transform="translate(70.785 29.656)" fill="#fff"/>
      </g>
      <g id="g5006" transform="translate(-3147.964 -5595.614)">
        <path id="path5008" d="M-8.215-72.975A1.785,1.785,0,0,1-10-74.759V-89.214A1.785,1.785,0,0,1-8.215-91a1.785,1.785,0,0,1,1.785,1.785v14.454A1.785,1.785,0,0,1-8.215-72.975Z" transform="translate(10 90.998)" fill="#fff"/>
      </g>
      <g id="g5010" transform="translate(-3137.117 -5595.614)">
        <path id="path5012" d="M-8.215,7.845A1.785,1.785,0,0,1-10,6.061V-8.215A1.785,1.785,0,0,1-8.215-10,1.785,1.785,0,0,1-6.431-8.215V6.061A1.785,1.785,0,0,1-8.215,7.845Z" transform="translate(10 10)" fill="#fff"/>
      </g>
      <g id="g5014" transform="translate(-3147.964 -5599.122)">
        <path id="path5016" d="M-63.577-29.656c4.042,0,7.208,2.325,7.208,5.292s-3.166,5.292-7.208,5.292-7.208-2.325-7.208-5.292S-67.619-29.656-63.577-29.656Zm0,7.015c2.188,0,3.639-1.037,3.639-1.723s-1.451-1.723-3.639-1.723-3.639,1.037-3.639,1.723S-65.765-22.641-63.577-22.641Z" transform="translate(70.785 29.656)" fill="#fff"/>
      </g>
      <g id="g5018" transform="translate(-3137.117 -5595.614)">
        <path id="path5020" d="M-8.215-72.153A1.785,1.785,0,0,1-10-73.938V-88.214A1.785,1.785,0,0,1-8.215-90a1.785,1.785,0,0,1,1.785,1.785v14.276A1.785,1.785,0,0,1-8.215-72.153Z" transform="translate(10 89.998)" fill="#fff"/>
      </g>
      <g id="g5022" transform="translate(-3126.27 -5595.614)">
        <path id="path5024" d="M-8.215,7.845A1.785,1.785,0,0,1-10,6.061V-8.215A1.785,1.785,0,0,1-8.215-10,1.785,1.785,0,0,1-6.431-8.215V6.061A1.785,1.785,0,0,1-8.215,7.845Z" transform="translate(10 10)" fill="#fff"/>
      </g>
      <g id="g5026" transform="translate(-3137.117 -5599.122)">
        <path id="path5028" d="M-63.576-29.656c4.042,0,7.208,2.325,7.208,5.292s-3.166,5.292-7.208,5.292-7.208-2.325-7.208-5.292S-67.618-29.656-63.576-29.656Zm0,7.015c2.188,0,3.639-1.037,3.639-1.723s-1.451-1.723-3.639-1.723-3.639,1.037-3.639,1.723S-65.763-22.641-63.576-22.641Z" transform="translate(70.784 29.656)" fill="#fff"/>
      </g>
      <g id="g5030" transform="translate(-3126.27 -5595.614)">
        <path id="path5032" d="M-8.215-72.153A1.785,1.785,0,0,1-10-73.938V-88.214A1.785,1.785,0,0,1-8.215-90a1.785,1.785,0,0,1,1.785,1.785v14.276A1.785,1.785,0,0,1-8.215-72.153Z" transform="translate(10 89.998)" fill="#fff"/>
      </g>
      <g id="g5034" transform="translate(-3115.423 -5595.614)">
        <path id="path5036" d="M-8.215,7.845A1.785,1.785,0,0,1-10,6.061V-8.215A1.785,1.785,0,0,1-8.215-10,1.785,1.785,0,0,1-6.431-8.215V6.061A1.785,1.785,0,0,1-8.215,7.845Z" transform="translate(10 10)" fill="#fff"/>
      </g>
      <g id="g5038" transform="translate(-3126.27 -5599.122)">
        <path id="path5040" d="M-63.577-29.656c4.042,0,7.208,2.325,7.208,5.292s-3.166,5.292-7.208,5.292-7.208-2.325-7.208-5.292S-67.619-29.656-63.577-29.656Zm0,7.015c2.188,0,3.639-1.037,3.639-1.723s-1.451-1.723-3.639-1.723-3.639,1.037-3.639,1.723S-65.765-22.641-63.577-22.641Z" transform="translate(70.785 29.656)" fill="#fff"/>
      </g>
      <g id="g5042" transform="translate(-3115.423 -5595.614)">
        <path id="path5044" d="M-8.215-72.153A1.785,1.785,0,0,1-10-73.938V-88.214A1.785,1.785,0,0,1-8.215-90a1.785,1.785,0,0,1,1.785,1.785v14.276A1.785,1.785,0,0,1-8.215-72.153Z" transform="translate(10 89.998)" fill="#fff"/>
      </g>
      <g id="g5046" transform="translate(-3104.575 -5595.614)">
        <path id="path5048" d="M-8.215,8.142A1.785,1.785,0,0,1-10,6.358V-8.215A1.785,1.785,0,0,1-8.215-10,1.785,1.785,0,0,1-6.431-8.215V6.358A1.785,1.785,0,0,1-8.215,8.142Z" transform="translate(10 10)" fill="#fff"/>
      </g>
      <g id="g5050" transform="translate(-3115.423 -5599.122)">
        <path id="path5052" d="M-63.577-29.656c4.042,0,7.208,2.325,7.208,5.292s-3.166,5.292-7.208,5.292-7.208-2.325-7.208-5.292S-67.619-29.656-63.577-29.656Zm0,7.015c2.188,0,3.639-1.037,3.639-1.723s-1.451-1.723-3.639-1.723-3.639,1.037-3.639,1.723S-65.765-22.641-63.577-22.641Z" transform="translate(70.785 29.656)" fill="#fff"/>
      </g>
      <g id="g5054" transform="translate(-3167.974 -5561.523)">
        <path id="path5056" d="M-378.548,28.826a4.238,4.238,0,0,1-3.006-1.243L-416.091-6.954a1.785,1.785,0,0,1,0-2.524,1.785,1.785,0,0,1,2.524,0l34.536,34.536a.684.684,0,0,0,.966,0l34.536-34.536a1.785,1.785,0,0,1,2.524,0,1.785,1.785,0,0,1,0,2.524l-34.536,34.536A4.24,4.24,0,0,1-378.548,28.826Z" transform="translate(416.614 10)" fill="#fff"/>
      </g>
      <g id="g5058" transform="translate(-3167.974 -5580.668)">
        <path id="path5060" d="M61.879-205.683H-5.749A4.256,4.256,0,0,1-10-209.934v-22.707a1.785,1.785,0,0,1,1.785-1.785,1.785,1.785,0,0,1,1.785,1.785v22.707a.683.683,0,0,0,.682.683H61.879a.683.683,0,0,0,.682-.683v-68.989a.683.683,0,0,0-.682-.682H-5.749a.683.683,0,0,0-.682.682v37.86a1.785,1.785,0,0,1-1.785,1.785A1.785,1.785,0,0,1-10-241.064v-37.86a4.256,4.256,0,0,1,4.251-4.251H61.879a4.256,4.256,0,0,1,4.251,4.251v68.989A4.256,4.256,0,0,1,61.879-205.683Z" transform="translate(10 283.175)" fill="#fff"/>
      </g>
      <g id="g5062" transform="translate(-3151.171 -5570.348)">
        <path id="path5064" d="M-176.2-58.244h-34.021A4.257,4.257,0,0,1-214.47-62.5v-6.321a4.256,4.256,0,0,1,4.252-4.251H-176.2a4.256,4.256,0,0,1,4.251,4.251V-62.5A4.256,4.256,0,0,1-176.2-58.244ZM-210.218-69.5a.683.683,0,0,0-.683.682V-62.5a.683.683,0,0,0,.683.683H-176.2a.683.683,0,0,0,.682-.683v-6.321a.683.683,0,0,0-.682-.682Z" transform="translate(214.47 73.068)" fill="#fff"/>
      </g>
      <g id="g5066" transform="translate(-3157.961 -5516.119)">
        <path id="path5068" d="M-.665-6.431h-7.55A1.785,1.785,0,0,1-10-8.215,1.785,1.785,0,0,1-8.215-10h7.55A1.785,1.785,0,0,1,1.119-8.215,1.785,1.785,0,0,1-.665-6.431Z" transform="translate(10 10)" fill="#fff"/>
      </g>
      <g id="g5070" transform="translate(-3112.976 -5516.119)">
        <path id="path5072" d="M-.665-6.431h-7.55A1.785,1.785,0,0,1-10-8.215,1.785,1.785,0,0,1-8.215-10h7.55A1.785,1.785,0,0,1,1.119-8.215,1.785,1.785,0,0,1-.665-6.431Z" transform="translate(10 10)" fill="#fff"/>
      </g>
      <g id="g5074" transform="translate(-3157.961 -5522.534)">
        <path id="path5076" d="M-5.106-6.431H-8.215A1.785,1.785,0,0,1-10-8.215,1.785,1.785,0,0,1-8.215-10h3.109A1.785,1.785,0,0,1-3.322-8.215,1.785,1.785,0,0,1-5.106-6.431Z" transform="translate(10 10)" fill="#fff"/>
      </g>
      <g id="g5078" transform="translate(-3136.75 -5551.596)">
        <path id="path5080" d="M1.9-6.431H-8.215A1.785,1.785,0,0,1-10-8.215,1.785,1.785,0,0,1-8.215-10H1.9A1.785,1.785,0,0,1,3.681-8.215,1.785,1.785,0,0,1,1.9-6.431Z" transform="translate(10 10)" fill="#fff"/>
      </g>
    </g>
  </g>
</svg>
