<svg xmlns="http://www.w3.org/2000/svg" width="52" height="52" viewBox="0 0 52 52">
  <g id="Grupo_1101079" data-name="Grupo 1101079" transform="translate(-224 -1112)">
    <rect id="Rect치ngulo_400898" data-name="Rect치ngulo 400898" width="52" height="52" rx="26" transform="translate(224 1112)" fill="#30169a"/>
    <g id="Grupo_1101072" data-name="Grupo 1101072">
      <rect id="Rect치ngulo_400907" data-name="Rect치ngulo 400907" width="52" height="52" rx="26" transform="translate(224 1112)" fill="none"/>
      <g id="verduras" transform="translate(230.364 1118.361)">
        <path id="Trazado_876857" data-name="Trazado 876857" d="M72.445,83.573a6.9,6.9,0,0,1-1.173,1.04,2.352,2.352,0,0,0-1.649-.685,2.306,2.306,0,0,0-.839.157l-.29.108a.44.44,0,0,0-.281.348v.011a16.8,16.8,0,0,1-10.069.017.44.44,0,0,0-.479.684A11.272,11.272,0,0,0,66.1,89.189a10.3,10.3,0,0,0,3.976-.81.43.43,0,0,0,.466.073l.069-.032.009,0a2.356,2.356,0,0,0,1.156-3.082,7.773,7.773,0,0,0,1.339-1.192.44.44,0,1,0-.67-.569ZM59.4,85.8a17.425,17.425,0,0,0,9.41-.521l.236.179-.153.786a.44.44,0,0,0,.278.5l.779.29-.012.452A10.027,10.027,0,0,1,59.4,85.8Zm11.427,1.335.01-.4a.44.44,0,0,0-.286-.424l-.723-.269.134-.689a.44.44,0,0,0-.166-.435l-.151-.114a1.476,1.476,0,0,1,1.181,2.327Z" transform="translate(-39.556 -58.899)" fill="#fff"/>
        <path id="Trazado_876858" data-name="Trazado 876858" d="M53.633,60.6a.44.44,0,1,0-.838.268,3.927,3.927,0,0,0,.718,1.312.44.44,0,1,0,.678-.561A3.055,3.055,0,0,1,53.633,60.6Z" transform="translate(-35.958 -41.588)" fill="#fff"/>
        <path id="Trazado_876859" data-name="Trazado 876859" d="M110.26,51.316a.44.44,0,0,0,.567-.256,10.464,10.464,0,0,0,.578-3.712,11.024,11.024,0,0,0-.2-1.9.44.44,0,1,0-.863.171,10.158,10.158,0,0,1,.185,1.754A9.5,9.5,0,0,1,110,50.749.44.44,0,0,0,110.26,51.316Z" transform="translate(-78.785 -30.202)" fill="#fff"/>
        <path id="Trazado_876860" data-name="Trazado 876860" d="M87.368,47.412h.021a.44.44,0,0,0,.439-.418,10.287,10.287,0,0,1,.154-1.35,9.678,9.678,0,0,1,.83-2.561.44.44,0,1,0-.789-.389,10.531,10.531,0,0,0-.906,2.791,11.2,11.2,0,0,0-.167,1.467.44.44,0,0,0,.418.461Z" transform="translate(-61.545 -28.218)" fill="#fff"/>
        <path id="Trazado_876861" data-name="Trazado 876861" d="M104.349,54.7a.419.419,0,0,0,.07.006.44.44,0,0,0,.434-.37c.124-.773.221-1.628.272-2.409a.44.44,0,1,0-.878-.058c-.029.437-.1,1.32-.263,2.327A.44.44,0,0,0,104.349,54.7Z" transform="translate(-74.295 -34.967)" fill="#fff"/>
        <path id="Trazado_876862" data-name="Trazado 876862" d="M105.5,40.37h.011a.44.44,0,0,0,.429-.45c-.009-.394-.031-.783-.065-1.19A.44.44,0,1,0,105,38.8c.033.389.053.761.063,1.137A.44.44,0,0,0,105.5,40.37Z" transform="translate(-75.057 -25.14)" fill="#fff"/>
        <path id="Trazado_876863" data-name="Trazado 876863" d="M94.016,50.727h0a.44.44,0,0,0,.44-.435,23.521,23.521,0,0,1,.417-3.772c.094-.488.2-.955.3-1.386a.44.44,0,1,0-.853-.215c-.113.448-.219.93-.316,1.435a24.442,24.442,0,0,0-.433,3.928.44.44,0,0,0,.435.445Z" transform="translate(-66.51 -29.826)" fill="#fff"/>
        <path id="Trazado_876864" data-name="Trazado 876864" d="M24.495,32.119l-3.653-2.445,0,0-7.814-5.23.114-3.615a5.869,5.869,0,0,1,1.316-3.6c.1.016.2.029.3.035.068,0,.136.007.2.007.084,0,.168,0,.251-.011-.017.112-.036.222-.046.336A5.438,5.438,0,0,0,20.092,23.5q.253.023.5.023a5.4,5.4,0,0,0,3.984-1.749,5.455,5.455,0,0,0,2.954,1.551c-.151.228-.281.39-.283.393a.44.44,0,1,0,.684.553c.01-.012.151-.189.32-.443.1.289.192.5.2.511a.44.44,0,0,0,.8-.363s-.087-.193-.176-.456c.118.005.237.012.352.012a4.907,4.907,0,0,0,3.591-1.314,6.054,6.054,0,0,0,1.461-4.878,8.582,8.582,0,0,0-2.331-4.724c-.635-.763-1.135-1.369-1.106-1.966a4.542,4.542,0,0,1,2.043-2.887.44.44,0,1,0-.415-.775,4.892,4.892,0,0,0-2.122,2.428l.3-2.3a.44.44,0,0,0-.872-.112l-.3,2.31A4.884,4.884,0,0,0,28.24,6.425a.44.44,0,1,0-.6.646,4.538,4.538,0,0,1,1.245,3.309c-.124.584-.76,1.043-1.566,1.621A10.982,10.982,0,0,0,24.9,14.169a.439.439,0,0,0-.06-.07,6.157,6.157,0,0,0-2.878-1.531,9.254,9.254,0,0,1,1.081-2.276.44.44,0,0,0-.722-.5,10.339,10.339,0,0,0-1.239,2.639,6.255,6.255,0,0,0-2.438.272,2.913,2.913,0,0,0-1.377-3.732,2.905,2.905,0,0,0-2.351-2.328A3.15,3.15,0,0,0,9.32,6.286,2.9,2.9,0,0,0,6.694,8.3a2.913,2.913,0,0,0-1.377,4.478,3.145,3.145,0,0,0,2.721,4.057,5.842,5.842,0,0,1,.846,3.711L8.4,25.614a.427.427,0,0,0,.212.416c-.065.123-.13.246-.189.367a2.459,2.459,0,0,1-1.02-1.6A.44.44,0,1,0,6.553,25a4.473,4.473,0,0,0,.309.884l-1.508-.612a.44.44,0,1,0-.331.815l1.508.611a4.463,4.463,0,0,0-.837.419.44.44,0,1,0,.469.744,2.452,2.452,0,0,1,1.846-.439,11.462,11.462,0,0,0-.424,1.7,2.422,2.422,0,0,0,1.492,2.658,4.029,4.029,0,0,0,.792.23l.745.136h0l6.4,1.167h0l6.51,1.188a1.316,1.316,0,0,0,.968-2.387ZM12.262,20.786l-.1,3.2a2.418,2.418,0,0,0-2.8.819l.4-4.193a6.878,6.878,0,0,0-.735-3.842,3.121,3.121,0,0,0,.79-.3c.023.016.047.031.07.046a7.518,7.518,0,0,1,.74,3.326.44.44,0,0,0,.412.447h.028A.44.44,0,0,0,11.5,19.9a7.51,7.51,0,0,1,1.005-2.964,3.124,3.124,0,0,0,.622-.254,3.135,3.135,0,0,0,.427.256,6.845,6.845,0,0,0-1.3,3.847ZM11.03,17a3.145,3.145,0,0,0,.412.054h0c-.08.162-.16.331-.236.514-.055-.2-.116-.388-.179-.568Zm9.141,5.632a4.559,4.559,0,0,1-4.13-4.955,4.8,4.8,0,0,1,.109-.642,3.147,3.147,0,0,0,1.916-2.4,3.876,3.876,0,0,0,.623.092,3.145,3.145,0,0,0,.628,1.467.441.441,0,0,0,.386.166,2.488,2.488,0,0,0,1.4-.721,2.549,2.549,0,0,0,1.684,1.1.458.458,0,0,0,.078.007.44.44,0,0,0,.389-.234,2.893,2.893,0,0,0,.276-1.268,1.711,1.711,0,0,0,.566-.06c.031.037.061.075.09.113a7.332,7.332,0,0,0-.311.693,6.057,6.057,0,0,0,.174,5.076,4.532,4.532,0,0,1-3.874,1.571Zm7.661-9.914a4.817,4.817,0,0,0,1.809-1.8l.265.034.006,0h.01l.259.033a4.814,4.814,0,0,0,1.294,2.2,7.736,7.736,0,0,1,2.134,4.262A5.164,5.164,0,0,1,32.4,21.6a4.59,4.59,0,0,1-3.988.992,4.591,4.591,0,0,1-3.608-1.967,5.168,5.168,0,0,1-.117-4.322,7.752,7.752,0,0,1,3.142-3.584Zm-6.8.591a5.313,5.313,0,0,1,2.737,1.044.908.908,0,0,1-.545-.084.44.44,0,0,0-.642.49,2.109,2.109,0,0,1,0,1.005,1.8,1.8,0,0,1-.967-1.023.44.44,0,0,0-.347-.3.452.452,0,0,0-.073-.006.441.441,0,0,0-.354.178,2.662,2.662,0,0,1-.984.811,1.532,1.532,0,0,1-.276-1.043.44.44,0,0,0-.512-.553,2.064,2.064,0,0,1-.788-.047A5.38,5.38,0,0,1,21.035,13.306ZM6.624,15.2a2.267,2.267,0,0,1-.4-2.345.44.44,0,0,0-.079-.456,2.034,2.034,0,0,1,1.02-3.323.44.44,0,0,0,.321-.329A2.019,2.019,0,0,1,9.56,7.164a.431.431,0,0,0,.418-.248,2.27,2.27,0,0,1,4.2.267.44.44,0,0,0,.383.3,2.028,2.028,0,0,1,1.863,1.831.44.44,0,0,0,.276.367,2.034,2.034,0,0,1,.592,3.425.44.44,0,0,0-.137.442,2.273,2.273,0,0,1,.072.511.444.444,0,0,0,0,.052c0,.05,0,.1,0,.151a2.269,2.269,0,0,1-1.58,2.02h0a2.262,2.262,0,0,1-2.184-.463.44.44,0,0,0-.539-.034,2.269,2.269,0,0,1-.784.339l-.017,0a2.242,2.242,0,0,1-1.633-.27l-.014-.008a2.331,2.331,0,0,1-.327-.241.44.44,0,0,0-.539-.034A2.266,2.266,0,0,1,6.624,15.2ZM24.167,33.377a.437.437,0,0,1-.482.265l-5.976-1.09.186-.459a.44.44,0,1,0-.815-.33l-.255.628-5.516-1.005.4-.986a.44.44,0,0,0-.815-.33l-.468,1.156-.4-.073a3.155,3.155,0,0,1-.619-.18,1.567,1.567,0,0,1-.955-1.7,9.181,9.181,0,0,1,1.578-3.893,1.563,1.563,0,0,1,1.285-.667,1.6,1.6,0,0,1,.186.013l-.884,2.18a.44.44,0,1,0,.815.33l.89-2.195c.049.029.1.056.146.087l3.911,2.616-.336.829a.44.44,0,1,0,.815.33l.266-.66,2.93,1.96L19.612,31.3a.44.44,0,1,0,.815.33l.374-.922L24,32.85a.438.438,0,0,1,.162.527Z" fill="#fff"/>
        <path id="Trazado_876865" data-name="Trazado 876865" d="M40.773,96.342a.439.439,0,0,0-.572.242l-.37.912a.44.44,0,1,0,.815.33l.37-.912A.44.44,0,0,0,40.773,96.342Z" transform="translate(-26.244 -68.551)" fill="#fff"/>
      </g>
    </g>
  </g>
</svg>
