<svg xmlns="http://www.w3.org/2000/svg" width="184.079" height="184.079" viewBox="0 0 184.079 184.079">
  <g id="Grupo_1100928" data-name="Grupo 1100928" transform="translate(1433 4602)">
    <g id="Grupo_1098883" data-name="Grupo 1098883" transform="translate(-1433 -4602)">
      <g id="Grupo_1098742" data-name="Grupo 1098742" transform="translate(0 0)">
        <rect id="Rect치ngulo_400898" data-name="Rect치ngulo 400898" width="184.079" height="184.079" rx="92" transform="translate(0)" fill="#59836b"/>
        <rect id="Rect치ngulo_400907" data-name="Rect치ngulo 400907" width="184.079" height="184.079" rx="72" fill="none"/>
      </g>
    </g>
    <g id="energia" transform="translate(-1396.8 -4579.55)">
      <g id="Grupo_1100925" data-name="Grupo 1100925" transform="translate(4.8 1.55)">
        <g id="Grupo_1100920" data-name="Grupo 1100920" transform="translate(26.158)">
          <g id="Grupo_1100911" data-name="Grupo 1100911" transform="translate(0 12.098)">
            <path id="Trazado_876690" data-name="Trazado 876690" d="M75.5,128.3H17.3c-1.308,0-1.962-.654-2.616-1.962L8.8,108.684V22.364l5.885-17C15.339,4.054,15.993,3.4,17.3,3.4H75.5c1.308,0,1.962.654,2.616,1.962l5.885,17v86.32L78.117,126.34C77.463,127.648,76.81,128.3,75.5,128.3Zm-56.239-5.885H73.54l5.232-15.041v-83.7L73.54,8.632H19.263L14.031,23.672v83.7Z" transform="translate(-8.8 -3.4)" fill="#fff"/>
          </g>
          <g id="Grupo_1100912" data-name="Grupo 1100912" transform="translate(0 12.098)">
            <path id="Trazado_876691" data-name="Trazado 876691" d="M80.733,9.285H12.07A3.089,3.089,0,0,1,8.8,6.016,2.813,2.813,0,0,1,11.416,3.4H80.079a2.813,2.813,0,0,1,2.616,2.616A2.288,2.288,0,0,1,80.733,9.285Z" transform="translate(-8.8 -3.4)" fill="#fff"/>
          </g>
          <g id="Grupo_1100913" data-name="Grupo 1100913" transform="translate(11.444)">
            <path id="Trazado_876692" data-name="Trazado 876692" d="M27.225,19.533a2.4,2.4,0,0,1-1.962-.654L11.531,6.455a2.452,2.452,0,0,1,0-3.924c.654-1.308,2.616-1.308,3.924,0L29.841,14.956a2.452,2.452,0,0,1,0,3.924c-1.308,0-1.962.654-2.616.654Z" transform="translate(-10.55 -1.55)" fill="#fff"/>
          </g>
          <g id="Grupo_1100916" data-name="Grupo 1100916" transform="translate(9.809 29.754)">
            <g id="Grupo_1100914" data-name="Grupo 1100914" transform="translate(7.847)">
              <path id="Trazado_876693" data-name="Trazado 876693" d="M66.431,11.332H14.116A2.813,2.813,0,0,1,11.5,8.716,2.813,2.813,0,0,1,14.116,6.1H66.431a2.813,2.813,0,0,1,2.616,2.616C69.7,10.024,67.739,11.332,66.431,11.332Z" transform="translate(-11.5 -6.1)" fill="#fff"/>
            </g>
            <g id="Grupo_1100915" data-name="Grupo 1100915">
              <path id="Trazado_876694" data-name="Trazado 876694" d="M13.57,11.332h-.654A2.4,2.4,0,0,1,10.3,8.716,2.813,2.813,0,0,1,12.916,6.1h.654a2.4,2.4,0,0,1,2.616,2.616A2.813,2.813,0,0,1,13.57,11.332Z" transform="translate(-10.3 -6.1)" fill="#fff"/>
            </g>
          </g>
          <g id="Grupo_1100919" data-name="Grupo 1100919" transform="translate(9.809 114.766)">
            <g id="Grupo_1100917" data-name="Grupo 1100917" transform="translate(7.847)">
              <path id="Trazado_876695" data-name="Trazado 876695" d="M66.431,24.331H14.116A2.813,2.813,0,0,1,11.5,21.716,2.813,2.813,0,0,1,14.116,19.1H66.431a2.813,2.813,0,0,1,2.616,2.616A2.813,2.813,0,0,1,66.431,24.331Z" transform="translate(-11.5 -19.1)" fill="#fff"/>
            </g>
            <g id="Grupo_1100918" data-name="Grupo 1100918">
              <path id="Trazado_876696" data-name="Trazado 876696" d="M13.57,24.331h-.654A2.4,2.4,0,0,1,10.3,21.716,2.813,2.813,0,0,1,12.916,19.1h.654a2.4,2.4,0,0,1,2.616,2.616A2.813,2.813,0,0,1,13.57,24.331Z" transform="translate(-10.3 -19.1)" fill="#fff"/>
            </g>
          </g>
        </g>
        <g id="Grupo_1100921" data-name="Grupo 1100921" transform="translate(0 2.943)">
          <path id="Trazado_876697" data-name="Trazado 876697" d="M15.263,22.926A10.329,10.329,0,0,1,4.8,12.463,10.329,10.329,0,0,1,15.263,2c5.885.654,10.463,5.232,10.463,11.117C25.726,18.348,21.148,22.926,15.263,22.926Zm0-15.041c-2.616,0-4.578,2.616-4.578,5.232,0,1.962,1.962,3.924,4.578,3.924a4.47,4.47,0,0,0,4.578-4.578,4.913,4.913,0,0,0-4.578-4.578Z" transform="translate(-4.8 -2)" fill="#fff"/>
        </g>
        <g id="Grupo_1100922" data-name="Grupo 1100922" transform="translate(5.885 29.1)">
          <path id="Trazado_876698" data-name="Trazado 876698" d="M10.932,16.463A5.158,5.158,0,0,1,5.7,11.232,5.158,5.158,0,0,1,10.932,6a5.158,5.158,0,0,1,5.232,5.232C15.509,13.847,13.547,16.463,10.932,16.463Z" transform="translate(-5.7 -6)" fill="#fff"/>
        </g>
        <g id="Grupo_1100923" data-name="Grupo 1100923" transform="translate(23.542 0.981)">
          <path id="Trazado_876699" data-name="Trazado 876699" d="M11.67,8.239A3.089,3.089,0,0,1,8.4,4.97,3.5,3.5,0,0,1,11.67,1.7a3.5,3.5,0,0,1,3.27,3.27A3.5,3.5,0,0,1,11.67,8.239Z" transform="translate(-8.4 -1.7)" fill="#fff"/>
        </g>
        <g id="Grupo_1100924" data-name="Grupo 1100924" transform="translate(17.656 22.561)">
          <path id="Trazado_876700" data-name="Trazado 876700" d="M10.77,10.885A3.5,3.5,0,0,1,7.5,7.616C7.5,5.654,9.462,5,10.77,5a3.5,3.5,0,0,1,3.27,3.27C14.039,10.232,12.078,10.885,10.77,10.885Z" transform="translate(-7.5 -5)" fill="#fff"/>
        </g>
      </g>
      <g id="Grupo_1100926" data-name="Grupo 1100926" transform="translate(29.977 31.416)">
        <path id="Trazado_876701" data-name="Trazado 876701" d="M11.593,63.552A2.4,2.4,0,0,1,9.631,62.9c-1.308-1.308-1.308-3.27,0-3.924.654-.654,17-17.656,30.735-13.733C61.946,51.127,79.6,7.967,79.6,7.967a1.963,1.963,0,0,1,3.27-1.308c1.962.654,1.962,1.962,1.962,3.924-.654,1.962-19.618,48.391-45.776,41.2-8.5-2.616-20.926,7.847-25.5,12.425,0-.654-1.308-.654-1.962-.654Z" transform="translate(-8.65 -6.117)" fill="#fff"/>
      </g>
      <g id="Grupo_1100927" data-name="Grupo 1100927" transform="translate(30.047 55.897)">
        <path id="Trazado_876702" data-name="Trazado 876702" d="M11.533,75.511c-.654,0-.654,0-1.308-.654a3.145,3.145,0,0,1-1.308-3.924c1.962-3.27,17.656-30.081,31.389-25.5,21.58,5.885,39.236-34,39.236-34a2.389,2.389,0,0,1,3.27-1.308c1.962.654,1.962,2.616,1.962,3.924C84.12,16,64.5,59.163,39,51.315,31.805,49.354,20.034,64.394,14.149,74.2a3.4,3.4,0,0,1-2.616,1.308Z" transform="translate(-8.661 -9.861)" fill="#fff"/>
      </g>
    </g>
  </g>
</svg>
