<svg xmlns="http://www.w3.org/2000/svg" xmlns:xlink="http://www.w3.org/1999/xlink" width="400" height="148" viewBox="0 0 400 148">
  <defs>
    <clipPath id="clip-path">
      <rect id="mujer-forma-tiro-completo-corriendo-al-aire-libre" width="400" height="148" rx="13" transform="translate(180 1668)" fill="#ebebfd"/>
    </clipPath>
  </defs>
  <g id="Grupo_1100744" data-name="Grupo 1100744" transform="translate(-180 -1668)">
    <rect id="mujer-forma-tiro-completo-corriendo-al-aire-libre-2" data-name="mujer-forma-tiro-completo-corriendo-al-aire-libre" width="400" height="148" rx="13" transform="translate(180 1668)" fill="#ebebfd"/>
    <g id="Enmascarar_grupo_1098720" data-name="Enmascarar grupo 1098720" clip-path="url(#clip-path)">
      <g id="Grupo_1100742" data-name="Grupo 1100742" transform="translate(74.732 1648.326)">
        <path id="Unión_15" data-name="Unión 15" d="M93.674,48.114,40.351,0,0,44.91l93.651,84.5.023-.026.023.026,93.651-84.5L147,0Z" transform="translate(121.835 187.348) rotate(-90)" fill="#d0d1fa"/>
        <path id="Unión_16" data-name="Unión 16" d="M0,32.875,68.792,94.614l.479-.531,68.247-61.25L107.952.1,68.883,35.167,29.7,0Z" transform="translate(52.855 162.484) rotate(-90)" fill="#d0d1fa"/>
        <path id="Unión_17" data-name="Unión 17" d="M0,24.989,52.141,71.919l.363-.4,51.728-46.558L81.823.079,52.21,26.732,22.509,0Z" transform="translate(0 145.841) rotate(-90)" fill="#d0d1fa"/>
      </g>
      <g id="Grupo_1100743" data-name="Grupo 1100743" transform="translate(404.071 1742)">
        <path id="Unión_15-2" data-name="Unión 15" d="M93.674,48.114,40.351,0,0,44.91l93.651,84.5.023-.026.023.026,93.651-84.5L147,0Z" transform="translate(121.835 187.348) rotate(-90)" fill="#d0d1fa"/>
        <path id="Unión_16-2" data-name="Unión 16" d="M0,32.875,68.792,94.614l.479-.531,68.247-61.25L107.952.1,68.883,35.167,29.7,0Z" transform="translate(52.855 162.484) rotate(-90)" fill="#d0d1fa"/>
        <path id="Unión_17-2" data-name="Unión 17" d="M0,24.989,52.141,71.919l.363-.4,51.728-46.558L81.823.079,52.21,26.732,22.509,0Z" transform="translate(0 145.841) rotate(-90)" fill="#d0d1fa"/>
      </g>
    </g>
    <g id="alimentos-saludables" transform="translate(232.453 1684.672)">
      <path id="Trazado_876380" data-name="Trazado 876380" d="M132.036,90.2l-5.165,1.089,2.991-4.358-3.7-2.537L122.582,89.6a16.658,16.658,0,0,0-2.52-3.765l2.694-6.014a59.943,59.943,0,0,0,5.251-24.409,35.829,35.829,0,0,0-3.782-16A30.03,30.03,0,0,0,78.735,29.242,35.8,35.8,0,0,1,89.175,6.407L86,3.232a40.574,40.574,0,0,0-7.9,11.228A22.476,22.476,0,0,0,57.272.328a2.246,2.246,0,0,0-2.246,2.246A22.479,22.479,0,0,0,74.77,24.85a40.709,40.709,0,0,0-.526,4.581l-.087-.069a30.116,30.116,0,0,0-26.7-5.517A26.839,26.839,0,0,0,22.466,7.065H11.238A2.246,2.246,0,0,0,8.992,9.31V20.538A26.752,26.752,0,0,0,20.542,42.664c-7.105,2.9-12.207,9.961-14.846,20.66A66.529,66.529,0,0,0,5.247,92.1a28.885,28.885,0,0,0,3.178,7.976l-2.671.544A7.186,7.186,0,0,0,7.2,114.852h99.1a16.584,16.584,0,0,0,11.811-4.892l1.262-1.262a16.6,16.6,0,0,0,4.572-8.534l4.669,4.99,3.278-3.072-5.686-6.062,6.755-1.422ZM59.668,4.979a18,18,0,0,1,15.4,15.4A18.007,18.007,0,0,1,59.668,4.979ZM71.345,32.867l3.615,2.9a2.246,2.246,0,0,0,2.807,0l3.611-2.895a25.543,25.543,0,0,1,38.833,8.551,31.319,31.319,0,0,1,3.306,13.992,55.419,55.419,0,0,1-4.857,22.57L116.5,82.8a16.581,16.581,0,0,0-12.277-2.275L62.661,89.006A28.741,28.741,0,0,0,62.1,78.793a66.651,66.651,0,0,0-13.159-25.6c-5.288-6.263-10.912-10.105-16.6-11.436.056-.111.107-.225.161-.342a25.393,25.393,0,0,1,22.876-14.14A25.663,25.663,0,0,1,71.34,32.867ZM13.484,20.538V11.556h8.982A22.365,22.365,0,0,1,43.192,25.333a29.711,29.711,0,0,0-7.756,5l-3.988-3.989v-10.3H26.957v5.807l-7.395-7.395-3.175,3.175,7.395,7.395H17.975v4.491h10.3l4.042,4.043A30.208,30.208,0,0,0,28.5,39.4c-.293.573-.573,1.191-.852,1.84h-.377A22.293,22.293,0,0,1,13.484,20.538ZM9.63,91.076a61.6,61.6,0,0,1,.424-26.686c1.784-7.222,5.733-16.258,14.428-18.288s16.235,4.3,21.036,9.983A61.71,61.71,0,0,1,57.737,79.821a24.293,24.293,0,0,1,.189,10.154l-4.81.981a20.213,20.213,0,1,0-35.141,7.171l-4.828.986A24.4,24.4,0,0,1,9.63,91.076Zm13.541,5.989a15.383,15.383,0,0,1-4.783-8.033,15.719,15.719,0,1,1,29.578,2.974Zm93.025,8.457-1.26,1.262a12.126,12.126,0,0,1-8.636,3.577H7.2a2.695,2.695,0,0,1-.538-5.344L36.734,98.88a17.279,17.279,0,0,1-.9,3.988l4.228,1.513a21.666,21.666,0,0,0,1.264-6.437L52.307,95.7a17.492,17.492,0,0,1-.981,5.232l4.23,1.513a22.068,22.068,0,0,0,1.255-7.667L67.8,92.531A17.619,17.619,0,0,1,66.8,99l4.231,1.51a22.167,22.167,0,0,0,1.194-8.877l10.961-2.246a17.582,17.582,0,0,1-.914,7.673l4.23,1.509a22.019,22.019,0,0,0,1.079-10.08l12.914-2.635A17.8,17.8,0,0,1,100,91.94l-.225.856,4.343,1.138.225-.857a22.256,22.256,0,0,0,.559-8.127l.225-.047A12.21,12.21,0,0,1,116.2,105.5Zm0,0" transform="translate(0)" fill="#30169a"/>
      <path id="Trazado_876381" data-name="Trazado 876381" d="M458.992,131.982a39.5,39.5,0,0,1,1.534,3.874l4.266-1.433a44.658,44.658,0,0,0-1.706-4.309Zm0,0" transform="translate(-330.157 -93.355)" fill="#30169a"/>
      <path id="Trazado_876382" data-name="Trazado 876382" d="M338.526,48.327q-1.622,0-3.229.137l.379,4.474c.948-.079,1.9-.12,2.85-.12a34.281,34.281,0,0,1,29.316,16.254L371.66,66.7A38.751,38.751,0,0,0,338.526,48.327Zm0,0" transform="translate(-241.182 -34.526)" fill="#30169a"/>
    </g>
    <g id="ensalada-de-frutas" transform="translate(396.965 1648.375)">
      <g id="Grupo_1100738" data-name="Grupo 1100738" transform="translate(0 36.625)">
        <g id="Grupo_1100737" data-name="Grupo 1100737">
          <path id="Trazado_876383" data-name="Trazado 876383" d="M123.628,69.7l-2.406-9.942a2.2,2.2,0,0,0-3.947-.736l-3.66,5.276c-.452-.189-.906-.369-1.36-.548A21.669,21.669,0,0,0,84.43,55.434a22.18,22.18,0,0,0-1.9-5.935l-2.7-5.587a2.2,2.2,0,0,0-2.939-1.023l-5.59,2.7-.127.064A22.494,22.494,0,0,0,64.655,40l-5.384-3.087a2.2,2.2,0,0,0-3,.814l-3.091,5.386a22.24,22.24,0,0,0-2.618,7.227,17.105,17.105,0,0,0-9.722,6.967A21.74,21.74,0,0,0,23.6,55.795a2.2,2.2,0,0,0,1.4,4.174A17.3,17.3,0,0,1,47.127,71.742a8.49,8.49,0,0,0-2.937,3.422A11.607,11.607,0,0,0,33.1,78.419a2.2,2.2,0,1,0,3.112,3.112A7.416,7.416,0,0,1,43.408,79.5a8.495,8.495,0,0,0,.938,3.252c-5.028,1.24-8.366,4-8.367,7.358v2.616a17.06,17.06,0,0,1-4.426.866,11.315,11.315,0,0,0-15.325-7.473,17.265,17.265,0,0,1,3.26-23.091,2.2,2.2,0,1,0-2.8-3.394A21.663,21.663,0,0,0,12.58,88.574a11.281,11.281,0,0,0-2.8,4.7C6.92,90.866,4.4,87.7,4.4,84a10.183,10.183,0,0,1,2.418-6.255A2.2,2.2,0,1,0,3.348,75.04,14.46,14.46,0,0,0,0,83.989S0,84,0,84a66.365,66.365,0,0,0,113.942,46.267,2.2,2.2,0,1,0-3.155-3.069A61.966,61.966,0,0,1,5.432,95.268a32.407,32.407,0,0,0,4.879,3.863A62.733,62.733,0,0,0,25.36,106a107.666,107.666,0,0,0,12.4,3.155,147.4,147.4,0,0,0,25.02,2.6c1.14.025,2.347.039,3.588.039,1.9,0,3.8-.033,5.662-.1h.024c1.5-.053,2.876-.12,4.2-.2,2.5-.151,5.034-.367,7.538-.643,4.444-.491,8.755-1.171,12.815-2.023,12.664-2.653,22.69-6.815,28.995-12.034.613-.508,1.186-1.026,1.721-1.548a61.2,61.2,0,0,1-12.664,27.579,2.2,2.2,0,1,0,3.428,2.76A66.531,66.531,0,0,0,132.728,84.08c0-.027,0-.053,0-.08C132.73,78.865,129.586,73.932,123.628,69.7ZM25.546,101.43a58.866,58.866,0,0,1-11.84-5.36,6.931,6.931,0,0,1,13.821-.08c.015.176.022.361.022.566A6.861,6.861,0,0,1,25.546,101.43Zm10.433,2.865h0q-3.061-.67-5.924-1.474a11.4,11.4,0,0,0,1.8-4.842,21.464,21.464,0,0,0,4.122-.658Zm48.74-44.013a17.145,17.145,0,0,1,9.022-2.547,17.33,17.33,0,0,1,16.335,11.657l-1.583,2.283-3.795-4.8a2.193,2.193,0,0,0-3.595.212l0,0L88.013,88.289A8.482,8.482,0,0,0,83.5,86.684a8.558,8.558,0,0,0,.1-2.768,2.2,2.2,0,1,0-4.366.555A4.107,4.107,0,1,1,76.7,81.186a2.2,2.2,0,1,0,1.654-4.079,8.567,8.567,0,0,0-1.812-.511A22.522,22.522,0,0,0,84.719,60.281Zm-11.5-10.726,3.609-1.745,1.744,3.606a18.087,18.087,0,0,1-4.445,21.468,8.495,8.495,0,0,0-1.876-2.829c-.031-.031-.063-.059-.094-.09A17.25,17.25,0,0,0,67.017,54.49,17.978,17.978,0,0,1,73.217,49.555ZM70.341,76.071a4.105,4.105,0,1,1-1.2-2.9A4.082,4.082,0,0,1,70.341,76.071ZM56.995,45.306l1.995-3.476,3.476,1.993a17.818,17.818,0,0,1,4.945,4.17,22.285,22.285,0,0,0-3.942,3.892,17.161,17.161,0,0,0-8.282-2.148A17.94,17.94,0,0,1,56.995,45.306ZM44.472,59.794a12.874,12.874,0,0,1,23.536,7.218c0,.247-.009.492-.023.736a8.495,8.495,0,0,0-9.741,5.4c-.111-.125-.226-.249-.346-.369a8.522,8.522,0,0,0-6.607-2.47A21.577,21.577,0,0,0,44.472,59.794ZM54.786,81.7a4.173,4.173,0,0,1-.709.565A27.652,27.652,0,0,0,50.5,82.04c-.374,0-.742.009-1.107.024a4.052,4.052,0,0,1-.417-.36,4.114,4.114,0,0,1,0-5.811,4.011,4.011,0,0,1,1.447-.934A4.107,4.107,0,0,1,54.786,81.7Zm3.281,13.252a2.2,2.2,0,0,0,2.559,1.009v11.324a142.877,142.877,0,0,1-20.246-2.121V96A22.019,22.019,0,0,0,50.5,98.178a27.343,27.343,0,0,0,3.967-.285,2.2,2.2,0,1,0-.641-4.354,22.88,22.88,0,0,1-3.326.238c-6.28,0-10.123-2.375-10.123-3.668s3.843-3.668,10.123-3.668,10.123,2.375,10.123,3.668c0,.515-.683,1.238-1.741,1.843A2.2,2.2,0,0,0,58.066,94.954ZM64.8,88.636c-.611-1.995-2.45-3.694-5.11-4.867a4.1,4.1,0,0,1,5.11,4.867Zm4.3,18.736c-.912.016-1.828.024-2.741.024-.452,0-.9,0-1.338-.006v-3.652a8.432,8.432,0,0,0,4.177,1.394A8.464,8.464,0,0,0,69.106,107.372Zm.618-6.623a4.109,4.109,0,1,1,2.9-1.2A4.079,4.079,0,0,1,69.724,100.749Zm6.26,6.354c-.8.049-1.615.092-2.464.13a4.11,4.11,0,1,1,8.173-.587C79.79,106.835,77.877,106.989,75.985,107.1Zm7.028-7.822a4.109,4.109,0,1,1,2.9-1.2A4.08,4.08,0,0,1,83.012,99.282Zm11.238,5.536c-2.635.518-5.375.961-8.181,1.327a8.62,8.62,0,0,0-.645-2.808A8.521,8.521,0,0,0,90.9,91.984L98.792,79.2Zm30.211-12.932L119.14,85.15a2.2,2.2,0,0,0-3.454,2.728l5.4,6.835c-5.21,3.7-12.924,6.863-22.186,9.091l5.383-30.359,7.6,9.622a2.2,2.2,0,1,0,3.453-2.728l-3.994-5.054,4.8-6.919c.021-.026.041-.055.061-.083l1.892-2.727,6.371,26.325ZM127.8,86.93l-2.362-9.76A10.647,10.647,0,0,1,128.329,84,8.6,8.6,0,0,1,127.8,86.93Z" transform="translate(0 -36.625)" fill="#30169a"/>
        </g>
      </g>
      <g id="Grupo_1100740" data-name="Grupo 1100740" transform="translate(91.729 59.008)">
        <g id="Grupo_1100739" data-name="Grupo 1100739">
          <path id="Trazado_876384" data-name="Trazado 876384" d="M354.863,123.3a2.2,2.2,0,1,0,3.361,2.126A2.218,2.218,0,0,0,354.863,123.3Z" transform="translate(-353.841 -122.964)" fill="#30169a"/>
        </g>
      </g>
    </g>
  </g>
</svg>
