<svg xmlns="http://www.w3.org/2000/svg" width="52" height="52" viewBox="0 0 52 52">
  <g id="Grupo_1101080" data-name="Grupo 1101080" transform="translate(-224 -1295)">
    <rect id="Rect치ngulo_400898" data-name="Rect치ngulo 400898" width="52" height="52" rx="26" transform="translate(224 1295)" fill="#30169a"/>
    <g id="Grupo_1101074" data-name="Grupo 1101074">
      <rect id="Rect치ngulo_400907" data-name="Rect치ngulo 400907" width="52" height="52" rx="26" transform="translate(224 1295)" fill="none"/>
      <g id="logistica" transform="translate(234 1305)">
        <path id="Trazado_876877" data-name="Trazado 876877" d="M35.558,52a1.558,1.558,0,1,0,1.558,1.558A1.56,1.56,0,0,0,35.558,52Zm0,2.077a.519.519,0,1,1,.519-.519A.52.52,0,0,1,35.558,54.077Z" transform="translate(-16.347 -25.002)" fill="#fff"/>
        <path id="Trazado_876878" data-name="Trazado 876878" d="M11.558,52a1.558,1.558,0,1,0,1.558,1.558A1.56,1.56,0,0,0,11.558,52Zm0,2.077a.519.519,0,1,1,.519-.519A.52.52,0,0,1,11.558,54.077Z" transform="translate(-4.808 -25.002)" fill="#fff"/>
        <path id="Trazado_876879" data-name="Trazado 876879" d="M13.558,13.115A1.558,1.558,0,1,0,12,11.558,1.56,1.56,0,0,0,13.558,13.115Zm0-2.077a.519.519,0,1,1-.519.519A.52.52,0,0,1,13.558,11.038Z" transform="translate(-5.77 -4.808)" fill="#fff"/>
        <path id="Trazado_876880" data-name="Trazado 876880" d="M53.558,36a1.558,1.558,0,1,0,1.558,1.558A1.56,1.56,0,0,0,53.558,36Zm0,2.077a.519.519,0,1,1,.519-.519A.52.52,0,0,1,53.558,38.077Z" transform="translate(-25.002 -17.309)" fill="#fff"/>
        <path id="Trazado_876881" data-name="Trazado 876881" d="M29.052,16.652c.008-.186.023-.372.023-.557a12.936,12.936,0,0,0-1.859-6.682,6.255,6.255,0,0,0,.82-3.081v-.1a6.226,6.226,0,0,0-11.624-3.1,13.129,13.129,0,0,0-5.881,1.248A3.632,3.632,0,0,0,4.88,8.93l.215.287a12.9,12.9,0,0,0-1.961,6.36H2.077a1.039,1.039,0,0,0-1.038,1.038V27A1.039,1.039,0,0,0,0,28.037v1.038a1.039,1.039,0,0,0,1.038,1.038H3.471a3.627,3.627,0,0,0,6.558,0h5.9a3.627,3.627,0,0,0,6.557,0h1.394a1.039,1.039,0,0,0,1.038-1.038v-1.43a1.582,1.582,0,0,0-.046-.378l-.332-1.329A12.981,12.981,0,0,0,26.6,23.7l1.953,2.6,2.908-3.877a3.631,3.631,0,0,0-2.411-5.777ZM21.806,1.038A5.2,5.2,0,0,1,27,6.23v.1a5.214,5.214,0,0,1-1.11,3.208l-4.082,5.2-4.082-5.2a5.213,5.213,0,0,1-1.11-3.208v-.1A5.2,5.2,0,0,1,21.806,1.038ZM7.788,4.154A2.6,2.6,0,0,1,9.865,8.307L7.788,11.076,5.711,8.307A2.6,2.6,0,0,1,7.788,4.154ZM2.077,16.614H6.23V20.57l2.6-1.3,2.6,1.3V16.614h4.154V27H10.028a3.627,3.627,0,0,0-6.558,0H2.077Zm5.192,0h3.115V18.89l-1.558-.779-1.558.779Zm9.346,3.115h4.9a.519.519,0,0,1,.5.393l.161.645H19.73a1.039,1.039,0,0,0-1.038,1.038v1.038a1.039,1.039,0,0,0,1.038,1.038h3.229L23.737,27H22.489a3.625,3.625,0,0,0-5.875-.981ZM22.7,22.845H19.73V21.806h2.71ZM1.038,29.075V28.037H3.157a3.266,3.266,0,0,0,0,1.038ZM6.75,31.152a2.6,2.6,0,1,1,2.6-2.6A2.6,2.6,0,0,1,6.75,31.152Zm3.593-2.077a3.266,3.266,0,0,0,0-1.038h5.275a3.266,3.266,0,0,0,0,1.038Zm8.868,2.077a2.6,2.6,0,1,1,2.6-2.6A2.6,2.6,0,0,1,19.21,31.152ZM22.8,29.075a3.266,3.266,0,0,0,0-1.038h1.08v1.038ZM24.26,24.8l-1.234-4.934a1.556,1.556,0,0,0-1.511-1.18h-4.9V16.614a1.039,1.039,0,0,0-1.038-1.038H4.172a11.865,11.865,0,0,1,1.592-5.467l2.023,2.7L10.7,8.93a3.655,3.655,0,0,0,.727-2.181,3.605,3.605,0,0,0-.327-1.5,11.784,11.784,0,0,1,4.842-1.093,6.2,6.2,0,0,0-.361,2.072v.1a6.257,6.257,0,0,0,1.331,3.849l4.9,6.235,4.761-6.06A11.91,11.91,0,0,1,28.037,16.1c0,.187-.015.376-.023.564a3.63,3.63,0,0,0-2.365,5.769l.3.4A11.961,11.961,0,0,1,24.26,24.8Zm6.373-3-2.077,2.769-2.077-2.769a2.6,2.6,0,1,1,4.154,0Z" fill="#fff"/>
        <path id="Trazado_876882" data-name="Trazado 876882" d="M38.154,12.307A4.154,4.154,0,1,0,34,8.154,4.158,4.158,0,0,0,38.154,12.307Zm0-7.269a3.115,3.115,0,1,1-3.115,3.115A3.118,3.118,0,0,1,38.154,5.038Z" transform="translate(-16.347 -1.923)" fill="#fff"/>
        <path id="Trazado_876883" data-name="Trazado 876883" d="M24,26h1.038v1.038H24Z" transform="translate(-11.539 -12.501)" fill="#fff"/>
        <path id="Trazado_876884" data-name="Trazado 876884" d="M28,26h1.038v1.038H28Z" transform="translate(-13.462 -12.501)" fill="#fff"/>
        <path id="Trazado_876885" data-name="Trazado 876885" d="M32,26h1.038v1.038H32Z" transform="translate(-15.386 -12.501)" fill="#fff"/>
      </g>
    </g>
  </g>
</svg>
