<svg xmlns="http://www.w3.org/2000/svg" width="52" height="52" viewBox="0 0 52 52">
  <g id="Grupo_1101076" data-name="Grupo 1101076" transform="translate(-224 -1392)">
    <rect id="Rectángulo_400898" data-name="Rectángulo 400898" width="52" height="52" rx="26" transform="translate(224 1392)" fill="#30169a"/>
    <g id="Grupo_1101075" data-name="Grupo 1101075" transform="translate(99.215 -5.004)">
      <g id="g847" transform="translate(162.847 1420.543)">
        <path id="path849" d="M-13.772-6.449a.476.476,0,0,1-.448-.314,4.378,4.378,0,0,1-.022-2.92.476.476,0,0,1,.606-.294.476.476,0,0,1,.294.606,3.423,3.423,0,0,0,.017,2.283.476.476,0,0,1-.285.61A.475.475,0,0,1-13.772-6.449Z" transform="translate(14.482 10.003)" fill="#fff"/>
      </g>
      <g id="g851" transform="translate(156.183 1418.569)">
        <path id="path853" d="M-2.174-7.129H-9.208A.476.476,0,0,1-9.685-7.6a.476.476,0,0,1,.476-.476h7.034a.484.484,0,0,0,.483-.483.484.484,0,0,0-.483-.483h-7.35A.476.476,0,0,1-10-9.524.476.476,0,0,1-9.524-10h7.35A1.437,1.437,0,0,1-.739-8.564,1.437,1.437,0,0,1-2.174-7.129Z" transform="translate(10 10)" fill="#fff"/>
      </g>
      <g id="g855" transform="translate(137.145 1418.569)">
        <path id="path857" d="M-332.048-42.856h-23.14a3.7,3.7,0,0,1-2.645-1.1,3.7,3.7,0,0,1-1.078-2.656,3.753,3.753,0,0,1,3.759-3.687h13.646a.476.476,0,0,1,.476.476.476.476,0,0,1-.476.476h-13.646a2.8,2.8,0,0,0-2.807,2.744,2.752,2.752,0,0,0,.8,1.976,2.751,2.751,0,0,0,1.968.822h23.14a.484.484,0,0,0,.483-.483.484.484,0,0,0-.483-.483h-23.14a1.806,1.806,0,0,1-1.8-1.8,1.806,1.806,0,0,1,1.8-1.8h13.366a.476.476,0,0,1,.476.476.476.476,0,0,1-.476.476h-13.366a.853.853,0,0,0-.852.852.853.853,0,0,0,.852.852h23.14a1.437,1.437,0,0,1,1.436,1.436A1.437,1.437,0,0,1-332.048-42.856Z" transform="translate(358.912 50.303)" fill="#fff"/>
      </g>
      <g id="g859" transform="translate(165.01 1433.476)">
        <path id="path861" d="M-14.207-6.449a.476.476,0,0,1-.45-.32,4.378,4.378,0,0,1,.022-2.92.476.476,0,0,1,.61-.285.476.476,0,0,1,.285.61,3.423,3.423,0,0,0-.017,2.283.476.476,0,0,1-.294.606A.476.476,0,0,1-14.207-6.449Z" transform="translate(14.897 10.003)" fill="#fff"/>
      </g>
      <g id="g863" transform="translate(135.24 1431.557)">
        <path id="path865" d="M-89.168-42.856h-26.949a3.7,3.7,0,0,1-2.645-1.1,3.7,3.7,0,0,1-1.078-2.656,3.753,3.753,0,0,1,3.759-3.687h1.947a.476.476,0,0,1,.476.476.476.476,0,0,1-.476.476h-1.947a2.8,2.8,0,0,0-2.806,2.744,2.752,2.752,0,0,0,.8,1.976,2.751,2.751,0,0,0,1.968.822h26.949a.484.484,0,0,0,.483-.483.484.484,0,0,0-.483-.483h-26.949a1.806,1.806,0,0,1-1.8-1.8,1.806,1.806,0,0,1,1.8-1.8h1.983a.476.476,0,0,1,.476.476.476.476,0,0,1-.476.476h-1.983a.853.853,0,0,0-.852.852.853.853,0,0,0,.852.852h26.949a1.437,1.437,0,0,1,1.436,1.436A1.437,1.437,0,0,1-89.168-42.856Z" transform="translate(119.84 50.303)" fill="#fff"/>
      </g>
      <g id="g867" transform="translate(142.735 1431.557)">
        <path id="path869" d="M-362.368-7.129h-22.7a.476.476,0,0,1-.476-.476.476.476,0,0,1,.476-.476h22.7a.484.484,0,0,0,.483-.483.484.484,0,0,0-.483-.483h-4.821a.476.476,0,0,1-.476-.476.476.476,0,0,1,.476-.476h4.821a1.437,1.437,0,0,1,1.436,1.436A1.437,1.437,0,0,1-362.368-7.129Z" transform="translate(385.546 10)" fill="#fff"/>
      </g>
      <g id="g871" transform="translate(142.784 1431.557)">
        <path id="path873" d="M5.8-9.048H-9.524A.476.476,0,0,1-10-9.524.476.476,0,0,1-9.524-10H5.8a.476.476,0,0,1,.476.476A.476.476,0,0,1,5.8-9.048Z" transform="translate(10 10)" fill="#fff"/>
      </g>
      <g id="g875" transform="translate(136.396 1426.988)">
        <path id="path877" d="M-9.526-61.942a.475.475,0,0,1-.162-.029.476.476,0,0,1-.286-.61,3.418,3.418,0,0,0,0-2.32.476.476,0,0,1,.286-.61.476.476,0,0,1,.61.286,4.372,4.372,0,0,1,0,2.968A.476.476,0,0,1-9.526-61.942Z" transform="translate(10.003 65.539)" fill="#fff"/>
      </g>
      <g id="g879" transform="translate(135.24 1425.063)">
        <path id="path881" d="M-140.069-98.652a.476.476,0,0,1-.476-.476.476.476,0,0,1,.476-.476,2.8,2.8,0,0,0,2.806-2.744,2.752,2.752,0,0,0-.8-1.976,2.751,2.751,0,0,0-1.968-.822h-26.949a.484.484,0,0,0-.483.483.484.484,0,0,0,.483.483h26.949a1.806,1.806,0,0,1,1.8,1.8,1.806,1.806,0,0,1-1.8,1.8H-160.4a.476.476,0,0,1-.476-.476.476.476,0,0,1,.476-.476h20.366a.853.853,0,0,0,.852-.852.853.853,0,0,0-.852-.852h-26.949a1.437,1.437,0,0,1-1.436-1.436,1.437,1.437,0,0,1,1.436-1.436h26.949a3.7,3.7,0,0,1,2.644,1.1,3.7,3.7,0,0,1,1.078,2.656A3.753,3.753,0,0,1-140.069-98.652Z" transform="translate(168.418 106.098)" fill="#fff"/>
      </g>
      <g id="g883" transform="translate(135.24 1429.638)">
        <path id="path885" d="M-114.134-47.431h-4.27a1.437,1.437,0,0,1-1.436-1.436A1.437,1.437,0,0,1-118.4-50.3h4.27a.476.476,0,0,1,.476.476.476.476,0,0,1-.476.476h-4.27a.484.484,0,0,0-.483.483.484.484,0,0,0,.483.483h4.27a.476.476,0,0,1,.476.476A.476.476,0,0,1-114.134-47.431Z" transform="translate(119.84 50.303)" fill="#fff"/>
      </g>
      <g id="g887" transform="translate(141.93 1413.183)">
        <path id="path889" d="M-9.526-116.771a.476.476,0,0,1-.136-.02.476.476,0,0,1-.321-.592l1.6-5.385a.476.476,0,0,1,.592-.321.476.476,0,0,1,.321.592l-1.6,5.385A.476.476,0,0,1-9.526-116.771Z" transform="translate(10.003 123.109)" fill="#fff"/>
      </g>
      <g id="g891" transform="translate(158.107 1413.183)">
        <path id="path893" d="M-7.927-3.665a.476.476,0,0,1-.456-.341l-1.6-5.385a.476.476,0,0,1,.321-.592.476.476,0,0,1,.592.321l1.6,5.385a.476.476,0,0,1-.321.592A.476.476,0,0,1-7.927-3.665Z" transform="translate(10.003 10.003)" fill="#fff"/>
      </g>
      <g id="g895" transform="translate(136.035 1406.501)">
        <path id="path897" d="M-121.484-44.321a6.941,6.941,0,0,1-1.762-.227l-12.634-3.318a1.143,1.143,0,0,1-.863-1.119,1.143,1.143,0,0,1,.863-1.119l5.527-1.452a.476.476,0,0,1,.581.34.476.476,0,0,1-.34.581l-5.527,1.452a.192.192,0,0,0-.153.2.192.192,0,0,0,.153.2L-123-45.469a6,6,0,0,0,3.041,0l12.634-3.318a.192.192,0,0,0,.153-.2.192.192,0,0,0-.153-.2L-119.963-52.5a6,6,0,0,0-3.041,0l-4.7,1.234a.476.476,0,0,1-.581-.34.476.476,0,0,1,.34-.581l4.7-1.234a6.951,6.951,0,0,1,3.525,0l12.634,3.318a1.143,1.143,0,0,1,.863,1.119,1.143,1.143,0,0,1-.863,1.119l-12.634,3.318A6.941,6.941,0,0,1-121.484-44.321Z" transform="translate(136.743 53.65)" fill="#fff"/>
      </g>
      <g id="g899" transform="translate(151.733 1410.896)">
        <path id="path901" d="M-6.129-2.755a.476.476,0,0,1-.476-.476v-3L-9.844-9.171a.476.476,0,0,1-.033-.673A.476.476,0,0,1-9.2-9.877L-5.809-6.8a.476.476,0,0,1,.156.353v3.215A.476.476,0,0,1-6.129-2.755Z" transform="translate(10 10)" fill="#fff"/>
      </g>
      <g id="g903" transform="translate(153.758 1417.189)">
        <path id="path905" d="M-64.335-91.763h-2.74a.476.476,0,0,1-.476-.476c0-1.082.133-4.611,1.846-4.611s1.846,3.53,1.846,4.611A.476.476,0,0,1-64.335-91.763Zm-2.255-.952h1.769c-.066-1.694-.465-3.183-.885-3.183S-66.526-94.409-66.59-92.715Z" transform="translate(67.552 96.85)" fill="#fff"/>
      </g>
      <g id="g907" transform="translate(140.471 1426.982)">
        <path id="path909" d="M-57.088-137.766a.476.476,0,0,1-.246-.069.476.476,0,0,1-.23-.407v-7.683a.476.476,0,0,1,.476-.476h2.265a.476.476,0,0,1,.476.476v6.495a.476.476,0,0,1-.255.422l-2.265,1.188A.476.476,0,0,1-57.088-137.766Zm.476-7.683v6.419l1.312-.689v-5.731Z" transform="translate(57.564 146.401)" fill="#fff"/>
      </g>
      <g id="g911" transform="translate(149.83 1408.622)">
        <path id="path913" d="M-48.125-54.677a2.275,2.275,0,0,1-1.19-.343.476.476,0,0,1-.227-.406v-1.353A1.419,1.419,0,0,1-48.124-58.2a1.419,1.419,0,0,1,1.417,1.417v1.353a.476.476,0,0,1-.228.406A2.283,2.283,0,0,1-48.125-54.677Zm-.464-1.04a1.274,1.274,0,0,0,.93,0v-1.06a.466.466,0,0,0-.465-.465.466.466,0,0,0-.465.465Z" transform="translate(49.541 58.196)" fill="#fff"/>
      </g>
    </g>
  </g>
</svg>
