<svg xmlns="http://www.w3.org/2000/svg" width="465.445" height="295.302" viewBox="0 0 465.445 295.302">
  <g id="Grupo_1101081" data-name="Grupo 1101081" transform="translate(-409.195 -1942.35)">
    <path id="Trazado_875092" data-name="Trazado 875092" d="M147.5,0A147.5,147.5,0,1,1,0,147.5,147.5,147.5,0,0,1,147.5,0Z" transform="translate(411.889 1942.651)" fill="#454858"/>
    <path id="Trazado_874530" data-name="Trazado 874530" d="M3795.668-9757v137.758L3683.71-9507.284s-73.912-68.372-31.017-161.864S3795.668-9757,3795.668-9757Z" transform="translate(-3230.111 11699.651)" fill="#242798"/>
    <path id="Trazado_874531" data-name="Trazado 874531" d="M3795.668-9617.961v-139.328s-26.392-.642-50.823,7.056-46.9,23.733-46.9,23.733Z" transform="translate(-3230.111 11699.651)" fill="#00883c"/>
    <path id="Trazado_876890" data-name="Trazado 876890" d="M10.169,0H6.5V-14.162L2.12-12.81v-2.958L9.775-18.51h.394ZM28.615-7.643a9.364,9.364,0,0,1-1.587,5.865A5.539,5.539,0,0,1,22.382.254a5.578,5.578,0,0,1-4.621-1.993,9.09,9.09,0,0,1-1.638-5.713v-3.4a9.241,9.241,0,0,1,1.606-5.878,5.581,5.581,0,0,1,4.627-2.006,5.586,5.586,0,0,1,4.621,1.987,9.062,9.062,0,0,1,1.638,5.707Zm-3.669-3.741a6.769,6.769,0,0,0-.628-3.349,2.124,2.124,0,0,0-1.961-1.048,2.086,2.086,0,0,0-1.911,1,6.334,6.334,0,0,0-.654,3.12v4.5A7.105,7.105,0,0,0,20.408-3.8a2.1,2.1,0,0,0,1.974,1.1,2.06,2.06,0,0,0,1.942-1.055,6.935,6.935,0,0,0,.622-3.228ZM31.04-14.93a3.655,3.655,0,0,1,1.1-2.761,4.006,4.006,0,0,1,2.895-1.06,4.069,4.069,0,0,1,2.92,1.047,3.724,3.724,0,0,1,1.1,2.837v.914a3.608,3.608,0,0,1-1.1,2.755,4.048,4.048,0,0,1-2.895,1.041A4.074,4.074,0,0,1,32.151-11.2a3.7,3.7,0,0,1-1.111-2.825Zm2.438.993a1.726,1.726,0,0,0,.438,1.232,1.5,1.5,0,0,0,1.149.466,1.434,1.434,0,0,0,1.13-.473,1.836,1.836,0,0,0,.419-1.264v-.945a1.8,1.8,0,0,0-.419-1.239,1.464,1.464,0,0,0-1.155-.473,1.468,1.468,0,0,0-1.13.466,1.835,1.835,0,0,0-.432,1.3Zm6.4,9.4a3.608,3.608,0,0,1,1.117-2.761,4.062,4.062,0,0,1,2.895-1.047A4.1,4.1,0,0,1,46.8-7.306a3.7,3.7,0,0,1,1.111,2.85v.914A3.635,3.635,0,0,1,46.82-.793,4.024,4.024,0,0,1,43.913.254,4.072,4.072,0,0,1,40.98-.8a3.681,3.681,0,0,1-1.1-2.793Zm2.438,1.006a1.712,1.712,0,0,0,.457,1.2,1.486,1.486,0,0,0,1.143.5q1.549,0,1.549-1.724v-.971a1.741,1.741,0,0,0-.432-1.232,1.483,1.483,0,0,0-1.143-.466,1.483,1.483,0,0,0-1.143.466,1.8,1.8,0,0,0-.432,1.271ZM35.788-1.384,34-2.349,43.024-16.8l1.79.965Z" transform="translate(504.889 1995.651)" fill="#12263f"/>
    <path id="Trazado_876891" data-name="Trazado 876891" d="M4.989-10.867H6.944a2.755,2.755,0,0,0,2.069-.7,2.559,2.559,0,0,0,.673-1.854,2.262,2.262,0,0,0-.667-1.739,2.583,2.583,0,0,0-1.834-.622,2.707,2.707,0,0,0-1.765.578,1.847,1.847,0,0,0-.711,1.5H1.041a4.512,4.512,0,0,1,.781-2.6,5.2,5.2,0,0,1,2.184-1.8A7.288,7.288,0,0,1,7.1-18.738a6.911,6.911,0,0,1,4.6,1.4,4.786,4.786,0,0,1,1.663,3.866,3.889,3.889,0,0,1-.774,2.336A5.031,5.031,0,0,1,10.55-9.5a4.593,4.593,0,0,1,2.33,1.676,4.546,4.546,0,0,1,.768,2.641,4.866,4.866,0,0,1-1.8,3.948A7.223,7.223,0,0,1,7.1.254a6.849,6.849,0,0,1-4.526-1.46A4.768,4.768,0,0,1,.813-5.065H4.481a2.126,2.126,0,0,0,.781,1.7,2.877,2.877,0,0,0,1.923.66A2.891,2.891,0,0,0,9.236-3.4,2.388,2.388,0,0,0,9.979-5.23Q9.979-8,6.932-8H4.989ZM28.615-7.643a9.364,9.364,0,0,1-1.587,5.865A5.539,5.539,0,0,1,22.382.254a5.578,5.578,0,0,1-4.621-1.993,9.09,9.09,0,0,1-1.638-5.713v-3.4a9.241,9.241,0,0,1,1.606-5.878,5.581,5.581,0,0,1,4.627-2.006,5.586,5.586,0,0,1,4.621,1.987,9.062,9.062,0,0,1,1.638,5.707Zm-3.669-3.741a6.769,6.769,0,0,0-.628-3.349,2.124,2.124,0,0,0-1.961-1.048,2.086,2.086,0,0,0-1.911,1,6.334,6.334,0,0,0-.654,3.12v4.5A7.105,7.105,0,0,0,20.408-3.8a2.1,2.1,0,0,0,1.974,1.1,2.06,2.06,0,0,0,1.942-1.055,6.935,6.935,0,0,0,.622-3.228ZM31.04-14.93a3.655,3.655,0,0,1,1.1-2.761,4.006,4.006,0,0,1,2.895-1.06,4.069,4.069,0,0,1,2.92,1.047,3.724,3.724,0,0,1,1.1,2.837v.914a3.608,3.608,0,0,1-1.1,2.755,4.048,4.048,0,0,1-2.895,1.041A4.074,4.074,0,0,1,32.151-11.2a3.7,3.7,0,0,1-1.111-2.825Zm2.438.993a1.726,1.726,0,0,0,.438,1.232,1.5,1.5,0,0,0,1.149.466,1.434,1.434,0,0,0,1.13-.473,1.836,1.836,0,0,0,.419-1.264v-.945a1.8,1.8,0,0,0-.419-1.239,1.464,1.464,0,0,0-1.155-.473,1.468,1.468,0,0,0-1.13.466,1.835,1.835,0,0,0-.432,1.3Zm6.4,9.4a3.608,3.608,0,0,1,1.117-2.761,4.062,4.062,0,0,1,2.895-1.047A4.1,4.1,0,0,1,46.8-7.306a3.7,3.7,0,0,1,1.111,2.85v.914A3.635,3.635,0,0,1,46.82-.793,4.024,4.024,0,0,1,43.913.254,4.072,4.072,0,0,1,40.98-.8a3.681,3.681,0,0,1-1.1-2.793Zm2.438,1.006a1.712,1.712,0,0,0,.457,1.2,1.486,1.486,0,0,0,1.143.5q1.549,0,1.549-1.724v-.971a1.741,1.741,0,0,0-.432-1.232,1.483,1.483,0,0,0-1.143-.466,1.483,1.483,0,0,0-1.143.466,1.8,1.8,0,0,0-.432,1.271ZM35.788-1.384,34-2.349,43.024-16.8l1.79.965Z" transform="translate(448.889 2084.651)" fill="#fff"/>
    <path id="Trazado_876892" data-name="Trazado 876892" d="M11.21-18.675v3.021h-.355a6.233,6.233,0,0,0-4.005,1.295,5.261,5.261,0,0,0-1.822,3.491,5,5,0,0,1,3.72-1.5,4.708,4.708,0,0,1,3.834,1.727A6.921,6.921,0,0,1,14-6.094a6.808,6.808,0,0,1-.781,3.263A5.6,5.6,0,0,1,11.013-.559,6.418,6.418,0,0,1,7.782.254,5.994,5.994,0,0,1,3.066-1.777,7.885,7.885,0,0,1,1.27-7.2v-1.32a11.866,11.866,0,0,1,1.136-5.313A8.331,8.331,0,0,1,5.668-17.4,9.561,9.561,0,0,1,10.6-18.675ZM7.63-9.407a2.931,2.931,0,0,0-1.612.462A2.786,2.786,0,0,0,4.951-7.722v1.115a4.94,4.94,0,0,0,.724,2.87A2.338,2.338,0,0,0,7.706-2.7a2.313,2.313,0,0,0,1.911-.931,3.8,3.8,0,0,0,.73-2.414A3.791,3.791,0,0,0,9.61-8.482,2.4,2.4,0,0,0,7.63-9.407ZM28.615-7.643a9.364,9.364,0,0,1-1.587,5.865A5.539,5.539,0,0,1,22.382.254a5.578,5.578,0,0,1-4.621-1.993,9.09,9.09,0,0,1-1.638-5.713v-3.4a9.241,9.241,0,0,1,1.606-5.878,5.581,5.581,0,0,1,4.627-2.006,5.586,5.586,0,0,1,4.621,1.987,9.062,9.062,0,0,1,1.638,5.707Zm-3.669-3.741a6.769,6.769,0,0,0-.628-3.349,2.124,2.124,0,0,0-1.961-1.048,2.086,2.086,0,0,0-1.911,1,6.334,6.334,0,0,0-.654,3.12v4.5A7.105,7.105,0,0,0,20.408-3.8a2.1,2.1,0,0,0,1.974,1.1,2.06,2.06,0,0,0,1.942-1.055,6.935,6.935,0,0,0,.622-3.228ZM31.04-14.93a3.655,3.655,0,0,1,1.1-2.761,4.006,4.006,0,0,1,2.895-1.06,4.069,4.069,0,0,1,2.92,1.047,3.724,3.724,0,0,1,1.1,2.837v.914a3.608,3.608,0,0,1-1.1,2.755,4.048,4.048,0,0,1-2.895,1.041A4.074,4.074,0,0,1,32.151-11.2a3.7,3.7,0,0,1-1.111-2.825Zm2.438.993a1.726,1.726,0,0,0,.438,1.232,1.5,1.5,0,0,0,1.149.466,1.434,1.434,0,0,0,1.13-.473,1.836,1.836,0,0,0,.419-1.264v-.945a1.8,1.8,0,0,0-.419-1.239,1.464,1.464,0,0,0-1.155-.473,1.468,1.468,0,0,0-1.13.466,1.835,1.835,0,0,0-.432,1.3Zm6.4,9.4a3.608,3.608,0,0,1,1.117-2.761,4.062,4.062,0,0,1,2.895-1.047A4.1,4.1,0,0,1,46.8-7.306a3.7,3.7,0,0,1,1.111,2.85v.914A3.635,3.635,0,0,1,46.82-.793,4.024,4.024,0,0,1,43.913.254,4.072,4.072,0,0,1,40.98-.8a3.681,3.681,0,0,1-1.1-2.793Zm2.438,1.006a1.712,1.712,0,0,0,.457,1.2,1.486,1.486,0,0,0,1.143.5q1.549,0,1.549-1.724v-.971a1.741,1.741,0,0,0-.432-1.232,1.483,1.483,0,0,0-1.143-.466,1.483,1.483,0,0,0-1.143.466,1.8,1.8,0,0,0-.432,1.271ZM35.788-1.384,34-2.349,43.024-16.8l1.79.965Z" transform="translate(594.889 2141.651)" fill="#fff"/>
    <path id="Trazado_876893" data-name="Trazado 876893" d="M0,0H121V21H0Z" transform="translate(734.64 2054.35)" fill="#00883c"/>
    <path id="Trazado_876856" data-name="Trazado 876856" d="M0,0H140V21H0Z" transform="translate(734.64 2079.35)" fill="#454858"/>
    <path id="Trazado_876894" data-name="Trazado 876894" d="M0,0H121V21H0Z" transform="translate(734.64 2104.35)" fill="#242798"/>
    <path id="Trazado_876895" data-name="Trazado 876895" d="M3.359-4.008V0H1.016V-11.375H5.453a5.134,5.134,0,0,1,2.254.469A3.454,3.454,0,0,1,9.2-9.574a3.714,3.714,0,0,1,.523,1.965A3.266,3.266,0,0,1,8.582-4.973a4.767,4.767,0,0,1-3.168.965Zm0-1.9H5.453a2.059,2.059,0,0,0,1.418-.437,1.591,1.591,0,0,0,.488-1.25,1.876,1.876,0,0,0-.492-1.352,1.839,1.839,0,0,0-1.359-.531H3.359Zm12.578-.43a6.134,6.134,0,0,0-.812-.062,1.654,1.654,0,0,0-1.68.867V0H11.188V-8.453H13.32l.063,1.008a2.092,2.092,0,0,1,1.883-1.164,2.366,2.366,0,0,1,.7.1ZM16.391-4.3a5.013,5.013,0,0,1,.484-2.242A3.546,3.546,0,0,1,18.27-8.07a4.069,4.069,0,0,1,2.113-.539,3.849,3.849,0,0,1,2.793,1.047,4.2,4.2,0,0,1,1.207,2.844l.016.578A4.418,4.418,0,0,1,23.313-1.02,3.775,3.775,0,0,1,20.4.156,3.793,3.793,0,0,1,17.48-1.016,4.5,4.5,0,0,1,16.391-4.2Zm2.258.16A3.16,3.16,0,0,0,19.1-2.3a1.5,1.5,0,0,0,1.3.638,1.5,1.5,0,0,0,1.281-.63,3.457,3.457,0,0,0,.461-2.015A3.128,3.128,0,0,0,21.68-6.14a1.5,1.5,0,0,0-1.3-.649,1.474,1.474,0,0,0-1.281.646A3.516,3.516,0,0,0,18.648-4.144Zm9.844-6.387v2.078h1.445V-6.8H28.492v4.219a1.007,1.007,0,0,0,.18.672.9.9,0,0,0,.688.2,3.6,3.6,0,0,0,.664-.055V-.047a4.648,4.648,0,0,1-1.367.2,2.156,2.156,0,0,1-2.422-2.4V-6.8H25V-8.453h1.234v-2.078ZM35.086.156A4.15,4.15,0,0,1,32.059-.984a4.054,4.054,0,0,1-1.168-3.039v-.219a5.106,5.106,0,0,1,.492-2.277,3.612,3.612,0,0,1,1.395-1.547,3.914,3.914,0,0,1,2.059-.543,3.508,3.508,0,0,1,2.73,1.094,4.444,4.444,0,0,1,1,3.1v.922H33.18a2.1,2.1,0,0,0,.66,1.328,2,2,0,0,0,1.395.5,2.437,2.437,0,0,0,2.039-.945l1.109,1.242A3.389,3.389,0,0,1,37.008-.246,4.511,4.511,0,0,1,35.086.156Zm-.258-6.945a1.411,1.411,0,0,0-1.09.455,2.357,2.357,0,0,0-.535,1.3h3.141v-.181a1.681,1.681,0,0,0-.406-1.165A1.456,1.456,0,0,0,34.828-6.789ZM42.281,0H40.023V-8.453h2.258Zm-.664-11.883h2.461L41.914-9.461H40.078ZM46.3-8.453l.07.977A2.951,2.951,0,0,1,48.8-8.609a2.453,2.453,0,0,1,2,.789,3.682,3.682,0,0,1,.672,2.359V0H49.219V-5.419a1.47,1.47,0,0,0-.312-1.045,1.4,1.4,0,0,0-1.039-.325,1.553,1.553,0,0,0-1.43.814V0H44.18V-8.453ZM58.086,0a2.507,2.507,0,0,1-.227-.758,2.732,2.732,0,0,1-2.133.914,3,3,0,0,1-2.059-.719,2.312,2.312,0,0,1-.816-1.812,2.389,2.389,0,0,1,1-2.062,4.915,4.915,0,0,1,2.879-.727h1.039v-.484a1.393,1.393,0,0,0-.3-.937,1.183,1.183,0,0,0-.949-.352,1.345,1.345,0,0,0-.895.273.929.929,0,0,0-.324.75H53.039a2.268,2.268,0,0,1,.453-1.359,3,3,0,0,1,1.281-.98,4.669,4.669,0,0,1,1.859-.355,3.689,3.689,0,0,1,2.48.785,2.747,2.747,0,0,1,.918,2.207v3.664a4.041,4.041,0,0,0,.336,1.82V0ZM56.219-1.57a1.945,1.945,0,0,0,.922-.223,1.462,1.462,0,0,0,.625-.6V-3.844h-.844q-1.7,0-1.8,1.172l-.008.133a.9.9,0,0,0,.3.7A1.153,1.153,0,0,0,56.219-1.57Zm10.125-.766a.727.727,0,0,0-.41-.652,4.659,4.659,0,0,0-1.316-.426Q61.6-4.047,61.6-5.977a2.323,2.323,0,0,1,.934-1.879,3.766,3.766,0,0,1,2.441-.754,4.053,4.053,0,0,1,2.574.758,2.388,2.388,0,0,1,.965,1.969H66.258a1.092,1.092,0,0,0-.312-.8A1.322,1.322,0,0,0,64.969-7a1.351,1.351,0,0,0-.883.258.814.814,0,0,0-.312.656.7.7,0,0,0,.355.605,3.657,3.657,0,0,0,1.2.4A9.8,9.8,0,0,1,66.75-4.7,2.336,2.336,0,0,1,68.539-2.43a2.2,2.2,0,0,1-.992,1.871,4.28,4.28,0,0,1-2.562.715A4.47,4.47,0,0,1,63.1-.223,3.166,3.166,0,0,1,61.8-1.262a2.414,2.414,0,0,1-.469-1.426h2.141a1.179,1.179,0,0,0,.445.922,1.766,1.766,0,0,0,1.109.32,1.635,1.635,0,0,0,.98-.246A.766.766,0,0,0,66.344-2.336ZM9.945,20.211A4.025,4.025,0,0,1,8.59,23.1a4.76,4.76,0,0,1-3.223,1.055,4.28,4.28,0,0,1-3.441-1.473A6.038,6.038,0,0,1,.672,18.641v-.7a6.819,6.819,0,0,1,.578-2.891A4.332,4.332,0,0,1,2.9,13.137a4.629,4.629,0,0,1,2.5-.668A4.637,4.637,0,0,1,8.57,13.523a4.326,4.326,0,0,1,1.391,2.961H7.617A2.376,2.376,0,0,0,7,14.887a2.271,2.271,0,0,0-1.605-.5,1.991,1.991,0,0,0-1.754.84,4.707,4.707,0,0,0-.6,2.605V18.7a5.038,5.038,0,0,0,.559,2.7,1.954,1.954,0,0,0,1.762.852,2.314,2.314,0,0,0,1.621-.5A2.241,2.241,0,0,0,7.6,20.211ZM16.234,24a2.507,2.507,0,0,1-.227-.758,2.732,2.732,0,0,1-2.133.914,3,3,0,0,1-2.059-.719A2.312,2.312,0,0,1,11,21.625a2.389,2.389,0,0,1,1-2.062,4.915,4.915,0,0,1,2.879-.727h1.039v-.484a1.393,1.393,0,0,0-.3-.937,1.183,1.183,0,0,0-.949-.352,1.345,1.345,0,0,0-.895.273.929.929,0,0,0-.324.75H11.188a2.268,2.268,0,0,1,.453-1.359,3,3,0,0,1,1.281-.98,4.669,4.669,0,0,1,1.859-.355,3.689,3.689,0,0,1,2.48.785,2.747,2.747,0,0,1,.918,2.207v3.664a4.041,4.041,0,0,0,.336,1.82V24Zm-1.867-1.57a1.945,1.945,0,0,0,.922-.223,1.462,1.462,0,0,0,.625-.6V20.156H15.07q-1.7,0-1.8,1.172l-.008.133a.9.9,0,0,0,.3.7A1.153,1.153,0,0,0,14.367,22.43Zm10.3-4.766a6.134,6.134,0,0,0-.812-.062,1.654,1.654,0,0,0-1.68.867V24H19.914V15.547h2.133l.063,1.008a2.092,2.092,0,0,1,1.883-1.164,2.366,2.366,0,0,1,.7.1Zm8.7,2.188A5.119,5.119,0,0,1,32.5,23.02a2.872,2.872,0,0,1-2.422,1.137,2.639,2.639,0,0,1-2.2-1.055l-.1.9H25.75V12h2.258v4.3a2.571,2.571,0,0,1,2.055-.914,2.9,2.9,0,0,1,2.426,1.137,5.126,5.126,0,0,1,.879,3.2Zm-2.258-.172A3.381,3.381,0,0,0,30.7,17.8a1.372,1.372,0,0,0-1.211-.592,1.489,1.489,0,0,0-1.484.885v3.346a1.509,1.509,0,0,0,1.5.893,1.4,1.4,0,0,0,1.438-1.081A5.6,5.6,0,0,0,31.109,19.679Zm3.3.016a5.013,5.013,0,0,1,.484-2.242,3.546,3.546,0,0,1,1.395-1.523,4.069,4.069,0,0,1,2.113-.539,3.849,3.849,0,0,1,2.793,1.047A4.2,4.2,0,0,1,42.4,19.281l.016.578a4.418,4.418,0,0,1-1.086,3.121,4.209,4.209,0,0,1-5.832,0,4.5,4.5,0,0,1-1.09-3.187Zm2.258.16a3.16,3.16,0,0,0,.453,1.843,1.628,1.628,0,0,0,2.578.008,3.457,3.457,0,0,0,.461-2.015A3.128,3.128,0,0,0,39.7,17.86a1.5,1.5,0,0,0-1.3-.649,1.474,1.474,0,0,0-1.281.646A3.516,3.516,0,0,0,36.664,19.856Zm9.344-3.387a2.818,2.818,0,0,1,2.258-1.078q2.75,0,2.789,3.2V24H48.8V18.636a1.577,1.577,0,0,0-.312-1.077,1.338,1.338,0,0,0-1.039-.348,1.536,1.536,0,0,0-1.437.767V24H43.75V12h2.258ZM55.141,24H52.875V15.547h2.266Zm-2.4-10.641a1.112,1.112,0,0,1,.34-.836,1.465,1.465,0,0,1,1.848,0,1.193,1.193,0,0,1,0,1.68,1.448,1.448,0,0,1-1.836,0A1.108,1.108,0,0,1,52.742,13.359Zm3.906,6.352a5.094,5.094,0,0,1,.887-3.148,2.877,2.877,0,0,1,2.426-1.172A2.589,2.589,0,0,1,62,16.313V12h2.266V24H62.227l-.109-.9a2.657,2.657,0,0,1-2.172,1.055,2.869,2.869,0,0,1-2.395-1.176A5.258,5.258,0,0,1,56.648,19.711Zm2.258.161A3.355,3.355,0,0,0,59.32,21.7a1.348,1.348,0,0,0,1.2.636A1.51,1.51,0,0,0,62,21.449V18.1a1.489,1.489,0,0,0-1.461-.887Q58.906,17.211,58.906,19.872Zm11.859-2.208a6.134,6.134,0,0,0-.812-.062,1.654,1.654,0,0,0-1.68.867V24H66.016V15.547h2.133l.063,1.008a2.092,2.092,0,0,1,1.883-1.164,2.366,2.366,0,0,1,.7.1ZM76.516,24a2.507,2.507,0,0,1-.227-.758,2.732,2.732,0,0,1-2.133.914,3,3,0,0,1-2.059-.719,2.312,2.312,0,0,1-.816-1.812,2.389,2.389,0,0,1,1-2.062,4.915,4.915,0,0,1,2.879-.727H76.2v-.484a1.393,1.393,0,0,0-.3-.937,1.183,1.183,0,0,0-.949-.352,1.345,1.345,0,0,0-.895.273.929.929,0,0,0-.324.75H71.469a2.268,2.268,0,0,1,.453-1.359,3,3,0,0,1,1.281-.98,4.669,4.669,0,0,1,1.859-.355,3.689,3.689,0,0,1,2.48.785,2.747,2.747,0,0,1,.918,2.207v3.664a4.041,4.041,0,0,0,.336,1.82V24Zm-1.867-1.57a1.945,1.945,0,0,0,.922-.223,1.462,1.462,0,0,0,.625-.6V20.156h-.844q-1.7,0-1.8,1.172l-.008.133a.9.9,0,0,0,.3.7A1.153,1.153,0,0,0,74.648,22.43Zm8.25-8.961v2.078h1.445V17.2H82.9v4.219a1.007,1.007,0,0,0,.18.672.9.9,0,0,0,.688.2,3.6,3.6,0,0,0,.664-.055v1.711a4.648,4.648,0,0,1-1.367.2,2.156,2.156,0,0,1-2.422-2.4V17.2H79.406V15.547h1.234V13.469ZM85.016,19.7a5.013,5.013,0,0,1,.484-2.242,3.546,3.546,0,0,1,1.395-1.523,4.069,4.069,0,0,1,2.113-.539A3.849,3.849,0,0,1,91.8,16.438a4.2,4.2,0,0,1,1.207,2.844l.016.578a4.418,4.418,0,0,1-1.086,3.121,4.209,4.209,0,0,1-5.832,0,4.5,4.5,0,0,1-1.09-3.187Zm2.258.16a3.16,3.16,0,0,0,.453,1.843,1.628,1.628,0,0,0,2.578.008,3.457,3.457,0,0,0,.461-2.015A3.128,3.128,0,0,0,90.3,17.86a1.5,1.5,0,0,0-1.3-.649,1.474,1.474,0,0,0-1.281.646A3.516,3.516,0,0,0,87.273,19.856Zm11.719,1.808a.727.727,0,0,0-.41-.652,4.659,4.659,0,0,0-1.316-.426q-3.016-.633-3.016-2.562a2.323,2.323,0,0,1,.934-1.879,3.766,3.766,0,0,1,2.441-.754,4.053,4.053,0,0,1,2.574.758,2.388,2.388,0,0,1,.965,1.969H98.906a1.092,1.092,0,0,0-.312-.8A1.322,1.322,0,0,0,97.617,17a1.351,1.351,0,0,0-.883.258.814.814,0,0,0-.312.656.7.7,0,0,0,.355.605,3.657,3.657,0,0,0,1.2.4A9.8,9.8,0,0,1,99.4,19.3a2.336,2.336,0,0,1,1.789,2.273,2.2,2.2,0,0,1-.992,1.871,4.28,4.28,0,0,1-2.562.715,4.47,4.47,0,0,1-1.887-.379,3.166,3.166,0,0,1-1.293-1.039,2.414,2.414,0,0,1-.469-1.426h2.141a1.179,1.179,0,0,0,.445.922,1.766,1.766,0,0,0,1.109.32,1.635,1.635,0,0,0,.98-.246A.766.766,0,0,0,98.992,21.664ZM3.359,46.117H8.336V48H1.016V36.625H3.359ZM11.969,48H9.711V39.547h2.258ZM11.3,36.117h2.461L11.6,38.539H9.766Zm10.219,7.734a5.07,5.07,0,0,1-.887,3.129,2.843,2.843,0,0,1-2.395,1.176,2.633,2.633,0,0,1-2.07-.891V51.25H13.914v-11.7h2.094l.078.828a2.654,2.654,0,0,1,2.141-.984,2.862,2.862,0,0,1,2.43,1.156,5.207,5.207,0,0,1,.867,3.188Zm-2.258-.172a3.345,3.345,0,0,0-.418-1.826,1.36,1.36,0,0,0-1.215-.643,1.478,1.478,0,0,0-1.461.815V45.5a1.5,1.5,0,0,0,1.477.839Q19.266,46.336,19.266,43.679ZM25.3,48H23.039V39.547H25.3Zm-2.4-10.641a1.112,1.112,0,0,1,.34-.836,1.465,1.465,0,0,1,1.848,0,1.193,1.193,0,0,1,0,1.68,1.448,1.448,0,0,1-1.836,0A1.108,1.108,0,0,1,22.906,37.359Zm3.906,6.352a5.094,5.094,0,0,1,.887-3.148,2.877,2.877,0,0,1,2.426-1.172,2.589,2.589,0,0,1,2.039.922V36H34.43V48H32.391l-.109-.9a2.657,2.657,0,0,1-2.172,1.055,2.869,2.869,0,0,1-2.395-1.176A5.258,5.258,0,0,1,26.813,43.711Zm2.258.161a3.355,3.355,0,0,0,.414,1.829,1.348,1.348,0,0,0,1.2.636,1.51,1.51,0,0,0,1.477-.887V42.1a1.489,1.489,0,0,0-1.461-.887Q29.07,41.211,29.07,43.872Zm6.758-.176a5.013,5.013,0,0,1,.484-2.242,3.546,3.546,0,0,1,1.395-1.523,4.069,4.069,0,0,1,2.113-.539,3.849,3.849,0,0,1,2.793,1.047,4.2,4.2,0,0,1,1.207,2.844l.016.578A4.418,4.418,0,0,1,42.75,46.98a4.209,4.209,0,0,1-5.832,0,4.5,4.5,0,0,1-1.09-3.187Zm2.258.16a3.16,3.16,0,0,0,.453,1.843,1.628,1.628,0,0,0,2.578.008,3.457,3.457,0,0,0,.461-2.015,3.128,3.128,0,0,0-.461-1.831,1.5,1.5,0,0,0-1.3-.649,1.474,1.474,0,0,0-1.281.646A3.516,3.516,0,0,0,38.086,43.856ZM49.8,45.664a.727.727,0,0,0-.41-.652,4.659,4.659,0,0,0-1.316-.426q-3.016-.633-3.016-2.562A2.323,2.323,0,0,1,46,40.145a3.766,3.766,0,0,1,2.441-.754,4.053,4.053,0,0,1,2.574.758,2.388,2.388,0,0,1,.965,1.969H49.719a1.092,1.092,0,0,0-.312-.8A1.322,1.322,0,0,0,48.43,41a1.351,1.351,0,0,0-.883.258.814.814,0,0,0-.312.656.7.7,0,0,0,.355.605,3.657,3.657,0,0,0,1.2.4,9.8,9.8,0,0,1,1.422.379A2.336,2.336,0,0,1,52,45.57a2.205,2.205,0,0,1-.992,1.871,4.28,4.28,0,0,1-2.562.715,4.47,4.47,0,0,1-1.887-.379,3.166,3.166,0,0,1-1.293-1.039,2.414,2.414,0,0,1-.469-1.426h2.141a1.179,1.179,0,0,0,.445.922,1.766,1.766,0,0,0,1.109.32,1.635,1.635,0,0,0,.98-.246A.766.766,0,0,0,49.8,45.664Zm3.766,1.227a1.137,1.137,0,0,1,.363-.875,1.412,1.412,0,0,1,1.828,0,1.137,1.137,0,0,1,.363.875,1.121,1.121,0,0,1-.359.863,1.435,1.435,0,0,1-1.836,0A1.121,1.121,0,0,1,53.57,46.891Z" transform="translate(753.64 2071.35)" fill="#fff"/>
  </g>
</svg>
