<svg xmlns="http://www.w3.org/2000/svg" width="85" height="85" viewBox="0 0 85 85">
  <g id="Grupo_1099890" data-name="Grupo 1099890" transform="translate(-710 -5961)">
    <g id="Grupo_1098883" data-name="Grupo 1098883" transform="translate(-309 -803)">
      <g id="Grupo_1098742" data-name="Grupo 1098742" transform="translate(1019 6764)">
        <rect id="Rect치ngulo_400898" data-name="Rect치ngulo 400898" width="85" height="85" rx="42.5" transform="translate(0 0)" fill="#30169a" opacity="0.859"/>
        <rect id="Rect치ngulo_400907" data-name="Rect치ngulo 400907" width="85" height="85" rx="42.5" transform="translate(0 0)" fill="none"/>
      </g>
    </g>
    <path id="Trazado_874989" data-name="Trazado 874989" d="M60,21.5c0-4.136-2.587-7.5-5.768-7.5s-5.767,3.365-5.767,7.5a7.834,7.834,0,0,0,3.372,6.831l-.7,21.742a3.1,3.1,0,1,0,6.193,0l-.7-21.742A7.834,7.834,0,0,0,60,21.5Zm-4.772,5.3a1,1,0,0,0-.62.958l.722,22.382a1.09,1.09,0,0,1-.308.8,1.125,1.125,0,0,1-1.579,0,1.088,1.088,0,0,1-.308-.8l.722-22.382a1,1,0,0,0-.62-.958c-1.632-.669-2.772-2.849-2.772-5.3,0-2.982,1.725-5.5,3.767-5.5S58,18.519,58,21.5c0,2.45-1.14,4.629-2.772,5.3Z" transform="translate(722.5 5976.863)" fill="#fff"/>
    <path id="Trazado_874990" data-name="Trazado 874990" d="M55.159,22.534A3.073,3.073,0,0,1,54.047,24.4a1,1,0,0,0,1.2,1.6,5.022,5.022,0,0,0,1.878-3.076,1,1,0,0,0-1.962-.391Z" transform="translate(722.5 5976.863)" fill="#fff"/>
    <path id="Trazado_874991" data-name="Trazado 874991" d="M10.848,15.359a1,1,0,1,0-1.985.247l.876,7.043A1.963,1.963,0,0,1,7.783,24.56H7.234c-.005,0-.01,0-.015,0s-.011,0-.017,0a.97.97,0,0,0-.177.042.947.947,0,0,0-.194.046.942.942,0,0,0-.159.107,1,1,0,0,0-.154.111.984.984,0,0,0-.108.161,1.011,1.011,0,0,0-.1.159.993.993,0,0,0-.04.2.935.935,0,0,0-.035.175c0,.006,0,.01,0,.016s0,.01,0,.016L7.014,49.6a1.151,1.151,0,0,1-.324.84,1.171,1.171,0,0,1-1.638,0,1.147,1.147,0,0,1-.324-.837l.779-24.016c0-.006,0-.01,0-.016s0-.01,0-.016a1.023,1.023,0,0,0-.035-.175.979.979,0,0,0-.04-.2,1.011,1.011,0,0,0-.1-.159.984.984,0,0,0-.108-.161.942.942,0,0,0-.154-.111.942.942,0,0,0-.159-.107,1.017,1.017,0,0,0-.194-.046.97.97,0,0,0-.177-.042c-.006,0-.011,0-.017,0s-.01,0-.015,0h-.55A1.965,1.965,0,0,1,2,22.649l.877-7.043a1,1,0,1,0-1.985-.247L.008,22.47A.852.852,0,0,0,0,22.594a3.954,3.954,0,0,0,3.475,3.917L2.728,49.546a3.144,3.144,0,1,0,6.285,0L8.266,26.511a3.955,3.955,0,0,0,3.475-3.917.851.851,0,0,0-.008-.124Z" transform="translate(722.5 5976.863)" fill="#fff"/>
    <path id="Trazado_874992" data-name="Trazado 874992" d="M6.066,24.453a1,1,0,0,0,1-1v-7.97a1,1,0,0,0-2,0v7.97A1,1,0,0,0,6.066,24.453Z" transform="translate(722.5 5976.863)" fill="#fff"/>
    <path id="Trazado_874993" data-name="Trazado 874993" d="M51.537.156a1,1,0,0,0-1.381.307l-7,11a1,1,0,0,0,1.688,1.074l7-11A1,1,0,0,0,51.537.156Z" transform="translate(722.5 5976.863)" fill="#fff"/>
    <path id="Trazado_874994" data-name="Trazado 874994" d="M45.545,4.136a2.772,2.772,0,1,0-2.773,2.773,2.775,2.775,0,0,0,2.773-2.773Zm-2.773.773a.773.773,0,1,1,.773-.773A.773.773,0,0,1,42.772,4.909Z" transform="translate(722.5 5976.863)" fill="#fff"/>
    <path id="Trazado_874995" data-name="Trazado 874995" d="M49,9.228a2.772,2.772,0,1,0,2.772-2.773A2.776,2.776,0,0,0,49,9.228Zm3.545,0a.772.772,0,1,1-.773-.773A.773.773,0,0,1,52.545,9.228Z" transform="translate(722.5 5976.863)" fill="#fff"/>
    <g id="Grupo_1100066" data-name="Grupo 1100066" transform="translate(722.5 5976.863)">
      <path id="Trazado_874996" data-name="Trazado 874996" d="M33.3,14.625a1.009,1.009,0,0,1,.127.008,16.168,16.168,0,0,1,7.022,29.425,1,1,0,0,1-1.381-.26L30.273,31.1a1,1,0,0,1-.167-.715l2.2-14.907A1,1,0,0,1,33.3,14.625Zm6.83,27.193a14.178,14.178,0,0,0-5.988-25.044l-2,13.513Z" fill="#fff"/>
      <path id="Trazado_874997" data-name="Trazado 874997" d="M15.209,25.772a1,1,0,0,1,.437.1l12.561,6.11a1,1,0,0,1,.385.33l8.274,11.949a1,1,0,0,1-.262,1.4A15.271,15.271,0,0,1,14.309,26.335,1,1,0,0,1,15.209,25.772ZM27.1,33.667,15.7,28.125A13.269,13.269,0,0,0,34.624,44.538Z" fill="#fff"/>
      <path id="Trazado_874998" data-name="Trazado 874998" d="M26.8,10.906a15.171,15.171,0,0,1,1.913.121,1,1,0,0,1,.863,1.138L27.507,26.146a1,1,0,0,1-1.427.753L13.563,20.811a1,1,0,0,1-.462-1.337,15.223,15.223,0,0,1,13.7-8.569Zm.642,2.016A13.223,13.223,0,0,0,15.37,19.466L25.728,24.5Z" fill="#fff"/>
      <path id="Trazado_874999" data-name="Trazado 874999" d="M24,17H22V15h2Z" fill="#fff"/>
      <path id="Trazado_875000" data-name="Trazado 875000" d="M24,10H22V8h2Z" fill="#fff"/>
      <path id="Trazado_875001" data-name="Trazado 875001" d="M24,6H22V4h2Z" fill="#fff"/>
      <path id="Trazado_875002" data-name="Trazado 875002" d="M28,6H26V4h2Z" fill="#fff"/>
      <path id="Trazado_875003" data-name="Trazado 875003" d="M32,6H30V4h2Z" fill="#fff"/>
      <path id="Trazado_875004" data-name="Trazado 875004" d="M36,6H34V4h2Z" fill="#fff"/>
    </g>
  </g>
</svg>
