<svg xmlns="http://www.w3.org/2000/svg" width="65" height="65" viewBox="0 0 65 65">
  <g id="Grupo_1100745" data-name="Grupo 1100745" transform="translate(-1030.052 -2996)">
    <rect id="Rect치ngulo_400898" data-name="Rect치ngulo 400898" width="65" height="65" rx="32.5" transform="translate(1030.052 2996)" fill="#30169a" opacity="0.859"/>
    <rect id="Rect치ngulo_400907" data-name="Rect치ngulo 400907" width="65" height="65" rx="32.5" transform="translate(1030.052 2996)" fill="none"/>
    <g id="churrasco" transform="translate(1040.052 3006)">
      <path id="Trazado_873094" data-name="Trazado 873094" d="M38.356,6.581A22.473,22.473,0,0,0,.463,17.91a.658.658,0,0,0,1.289.266,21.172,21.172,0,1,1-.436,4.292c0-.446.014-.9.042-1.339a.658.658,0,0,0-1.314-.082c-.029.47-.044.948-.044,1.421A22.468,22.468,0,0,0,38.356,38.356a22.469,22.469,0,0,0,0-31.775Z" transform="translate(0)" fill="#fff"/>
      <path id="Trazado_873095" data-name="Trazado 873095" d="M50.306,85.161a11.977,11.977,0,0,0,3.015,3.36,4.176,4.176,0,0,1,.545,2.254,4.174,4.174,0,0,0,3.185,4.236,6.666,6.666,0,0,1,2.611,1.356,4.864,4.864,0,0,0,3.078,1.1,4.925,4.925,0,0,0,.912-.087,3.272,3.272,0,0,0,1.878.591,3.315,3.315,0,0,0,3.047-2.049,8.734,8.734,0,0,0,2.917.5,9.559,9.559,0,0,0,4.1-.96.658.658,0,0,0-.563-1.19,8,8,0,0,1-6.466.244,75.679,75.679,0,0,1-10.506-4.561c-3.288-1.684-5.512-3.517-6.61-5.448a6.03,6.03,0,0,1-.1-5.89,12.331,12.331,0,0,1,5.983-5.709,9.661,9.661,0,0,1,7.439-.647,9.21,9.21,0,0,1,4.571,4.145,9.567,9.567,0,0,0,4.6,4.224c6.657,2.64,6.749,5.635,6.24,7.658a9.027,9.027,0,0,1-2.779,4.4.658.658,0,1,0,.879.98,10.709,10.709,0,0,0,2.865-4.076,9.934,9.934,0,0,0,3.37-3.107,5.883,5.883,0,0,0,.452-6.028,4.822,4.822,0,0,0,.789-2.6,4.9,4.9,0,0,0-.68-2.542,4.158,4.158,0,0,1-.48-3.03,4.174,4.174,0,0,0-2.4-4.725,6.666,6.666,0,0,1-2.336-1.788A4.9,4.9,0,0,0,74.6,64.333a9.589,9.589,0,0,0-4.038-1.72.658.658,0,1,0-.244,1.294,8.071,8.071,0,0,1,3.749,1.685A9.21,9.21,0,0,1,77.038,71a9.568,9.568,0,0,0,2.977,5.492c5.435,4.664,4.547,7.525,3.406,9.272a8.081,8.081,0,0,1-1.781,1.914A5.7,5.7,0,0,0,80.394,83.3l.366-.211a1.975,1.975,0,0,0-1.975-3.42l-1.7.981a21.922,21.922,0,0,0-2.3-1.1l1.266-.731a1.975,1.975,0,1,0-1.975-3.42l-2.731,1.576c-.316-.416-.608-.853-.9-1.3q-.151-.226-.306-.457l3.9-2.273a1.975,1.975,0,1,0-1.977-3.419l-4.63,2.7a9.386,9.386,0,0,0-2.11-1.164l1.974-1.14a1.975,1.975,0,1,0-1.975-3.42L60,69.576a1.986,1.986,0,0,0-.946,1.311,13.828,13.828,0,0,0-1.686.574,6.186,6.186,0,0,1,1.94-4.229,12.52,12.52,0,0,1,8.119-3.5.658.658,0,1,0-.076-1.314,13.865,13.865,0,0,0-8.988,3.9c-.064.066-.127.133-.188.2a6.366,6.366,0,0,0-7.7,6.223,6.32,6.32,0,0,0,.915,3.289,11.641,11.641,0,0,0-1.231,2.035,7.355,7.355,0,0,0,.144,7.1ZM65.53,96.654a1.973,1.973,0,0,1-1.871-2.6c1.362.572,2.528,1.007,3.678,1.424A1.989,1.989,0,0,1,65.53,96.654Zm-3.083-3.126a3.282,3.282,0,0,0,.137,2.617,3.558,3.558,0,0,1-2.091-.8,7.967,7.967,0,0,0-3.13-1.613,2.857,2.857,0,0,1-2.181-2.9A5.524,5.524,0,0,0,55.13,89.8q1.069.68,2.33,1.327C59.44,92.145,61.052,92.911,62.447,93.528ZM79.36,73.638a12.229,12.229,0,0,1-1.017-2.853,1.537,1.537,0,0,1,1.8,1.513A1.527,1.527,0,0,1,79.36,73.638Zm1.513,1.854a6.871,6.871,0,0,1-.764-.765A2.852,2.852,0,0,0,78,69.513a9.839,9.839,0,0,0-2.218-4.1c.067-.007.134-.013.2-.017a3.558,3.558,0,0,1,2.893,1.232,7.968,7.968,0,0,0,2.8,2.132,2.858,2.858,0,0,1,1.645,3.234,5.47,5.47,0,0,0,.632,3.985,3.583,3.583,0,0,1,.5,1.859,3.508,3.508,0,0,1-.243,1.253A18.405,18.405,0,0,0,80.873,75.492Zm-1.429,5.315a.658.658,0,1,1,.658,1.14l-.635.367a11.014,11.014,0,0,0-1.112-.878Zm-4.709-4.267a.658.658,0,0,1,.658,1.14l-2.048,1.183a6.55,6.55,0,0,1-1.116-.876ZM72.72,70.668a.658.658,0,1,1,.656,1.141l-4.012,2.338a11.125,11.125,0,0,0-.882-1.009Zm-6.743-3.024a.658.658,0,0,1,.658,1.14l-3.108,1.794a10.041,10.041,0,0,0-2.543-.052ZM51.795,72.737a5.052,5.052,0,0,1,5.047-5.047c.133,0,.267.006.4.016a7.051,7.051,0,0,0-1.178,4.37,14.478,14.478,0,0,0-3.76,2.867A5.019,5.019,0,0,1,51.795,72.737Z" transform="translate(-44.993 -56.939)" fill="#fff"/>
      <path id="Trazado_873096" data-name="Trazado 873096" d="M138.008,222.512a.658.658,0,0,0-.928.069l-4.266,4.948a.658.658,0,1,1-.992-.866l7.244-8.4a.658.658,0,1,1,.992.866l-.971,1.126a.658.658,0,1,0,1,.86l.969-1.124a1.975,1.975,0,1,0-2.982-2.589l-7.244,8.4a1.961,1.961,0,0,0-.48,1.433,1.883,1.883,0,0,0,.674,1.353,2.041,2.041,0,0,0,2.788-.2l4.268-4.95a.658.658,0,0,0-.069-.928Z" transform="translate(-118.902 -197.697)" fill="#fff"/>
      <path id="Trazado_873097" data-name="Trazado 873097" d="M231.035,278.6a1.991,1.991,0,0,0,2.786-.195l2.285-2.628a1.975,1.975,0,0,0-2.981-2.591l-2.285,2.628A1.977,1.977,0,0,0,231.035,278.6Zm.8-1.922,2.285-2.628a.658.658,0,0,1,.994.864l-2.285,2.628a.658.658,0,0,1-.994-.864Z" transform="translate(-210.139 -248.587)" fill="#fff"/>
      <path id="Trazado_873098" data-name="Trazado 873098" d="M97.973,201.013a1.977,1.977,0,0,0-2.786.195l-4.031,4.637a1.975,1.975,0,0,0,2.981,2.591l4.031-4.637A1.977,1.977,0,0,0,97.973,201.013Zm-.8,1.922-4.031,4.637a.658.658,0,0,1-.994-.864l4.031-4.637a.658.658,0,1,1,.994.864Z" transform="translate(-82.714 -182.93)" fill="#fff"/>
      <path id="Trazado_873099" data-name="Trazado 873099" d="M273.025,302.845a1.975,1.975,0,0,0-3.46-1.158l-5.182,5.961a1.961,1.961,0,0,0-.48,1.433,1.893,1.893,0,0,0,.674,1.353,2.033,2.033,0,0,0,2.786-.195l5.182-5.961A1.962,1.962,0,0,0,273.025,302.845Zm-1.473.57-5.182,5.961a.658.658,0,1,1-.993-.864l5.182-5.961a.658.658,0,1,1,.993.864Z" transform="translate(-240.736 -274.59)" fill="#fff"/>
      <path id="Trazado_873100" data-name="Trazado 873100" d="M196.339,187.912a.658.658,0,0,0-.658-.658h0a.658.658,0,1,0,.659.658Z" transform="translate(-177.906 -170.819)" fill="#fff"/>
      <path id="Trazado_873101" data-name="Trazado 873101" d="M347.68,377.254a.658.658,0,1,0,.659.658.658.658,0,0,0-.659-.658Z" transform="translate(-316.565 -344.144)" fill="#fff"/>
      <path id="Trazado_873102" data-name="Trazado 873102" d="M367.681,355.57a.658.658,0,1,0,0-1.316h0a.658.658,0,0,0,0,1.316Z" transform="translate(-334.81 -323.162)" fill="#fff"/>
      <path id="Trazado_873103" data-name="Trazado 873103" d="M308.681,110.571a.658.658,0,1,0,0-1.316h0a.658.658,0,0,0,0,1.316Z" transform="translate(-280.988 -99.665)" fill="#fff"/>
      <path id="Trazado_873104" data-name="Trazado 873104" d="M280.339,100.912a.658.658,0,0,0-.658-.658h0a.658.658,0,1,0,.659.658Z" transform="translate(-254.533 -91.455)" fill="#fff"/>
      <path id="Trazado_873105" data-name="Trazado 873105" d="M219.48,361.51a.658.658,0,0,0,0-1.317h0a.658.658,0,0,0,0,1.317Z" transform="translate(-199.616 -328.58)" fill="#fff"/>
      <path id="Trazado_873106" data-name="Trazado 873106" d="M201.489,337.275a.658.658,0,1,0,.659.658.658.658,0,0,0-.659-.658Z" transform="translate(-183.205 -307.674)" fill="#fff"/>
      <path id="Trazado_873107" data-name="Trazado 873107" d="M185.481,361.337a.658.658,0,1,0,.659.658.658.658,0,0,0-.659-.658Z" transform="translate(-168.602 -329.624)" fill="#fff"/>
    </g>
  </g>
</svg>
