<svg xmlns="http://www.w3.org/2000/svg" xmlns:xlink="http://www.w3.org/1999/xlink" width="295.184" height="464.043" viewBox="0 0 295.184 464.043">
  <defs>
    <clipPath id="clip-path">
      <rect id="Rectángulo_402192" data-name="Rectángulo 402192" width="200.888" height="464.043" fill="none"/>
    </clipPath>
  </defs>
  <g id="Grupo_1100082" data-name="Grupo 1100082" transform="translate(-1125 -2350.731)">
    <g id="Grupo_1100080" data-name="Grupo 1100080">
      <rect id="Rectángulo_401079" data-name="Rectángulo 401079" width="156.195" height="336.416" rx="78.098" transform="translate(1125 2408.231)" fill="#787cf0"/>
      <g id="Grupo_1100079" data-name="Grupo 1100079" transform="translate(-3781.049 11719.982)">
        <path id="Unión_15" data-name="Unión 15" d="M130.2,113,56.084,179.87,0,117.45,130.165,0l.032.036L130.229,0,260.394,117.45,204.31,179.87Z" transform="translate(4940.839 -9354.089)" fill="#ebebfd"/>
        <path id="Unión_16" data-name="Unión 16" d="M0,85.81,95.614,0l.666.738,94.856,85.131-41.095,45.491L95.74,82.624,41.276,131.5Z" transform="translate(4975.468 -9202.487)" fill="#ebebfd"/>
      </g>
      <g id="Grupo_1100076" data-name="Grupo 1100076" transform="translate(1199.693 2350.731)">
        <g id="Grupo_1100077" data-name="Grupo 1100077" transform="translate(0 0)">
          <g id="Grupo_1100076-2" data-name="Grupo 1100076" clip-path="url(#clip-path)">
            <path id="Trazado_875021" data-name="Trazado 875021" d="M61.1,278.838s-1.8,42.8-9.818,61.6a109.581,109.581,0,0,1-22.678,41.207c-17.423,19.912-11.892,42.59,0,51.716l65.821-15.487L111.02,296.192,75.067,268.721Z" transform="translate(-15.066 -231.13)" fill="#3c2025"/>
            <path id="Trazado_875022" data-name="Trazado 875022" d="M778.951,404.8s.6,47.015,5.162,55.312c0,0,7.9,20.811,25.17,34.517,18.239,14.479,17.72,51.631,0,64.076H727.442l2.766-145.469,20.9-3.928Z" transform="translate(-625.68 -348.174)" fill="#3c2025"/>
            <rect id="Rectángulo_402191" data-name="Rectángulo 402191" width="33.264" height="47.291" transform="translate(83.162 98.526)" fill="#f7b098"/>
            <path id="Trazado_875023" data-name="Trazado 875023" d="M489.217,913.755s13.067-1.245,14.727-12.238h33.263s1.169,9.126,14.444,12.238l-27.172,44.18L506.848,954.2Z" transform="translate(-420.78 -775.404)" fill="#f7b098"/>
            <path id="Trazado_875024" data-name="Trazado 875024" d="M163.4,1280.257l11.87-223.366-15.027-78.206a10.08,10.08,0,0,1,6.13-11.252l41.531-16.74s10.786,31.879,25.444,34.57c0,0,17.7,4.01,31.25-36.3,0,0,29.267,12.062,37.958,15.764,11.222,4.779,13.251,1.292,14.539,19.5l-16.2,135.651,21.643,160.38Z" transform="translate(-137.669 -816.215)" fill="#f7eae7"/>
            <path id="Trazado_875025" data-name="Trazado 875025" d="M53.693,186.67c-.233.323-.438.687-.643,1.039-.184.37-.387.724-.557,1.1s-.354.741-.511,1.122l-.468,1.141c-.159.378-.287.772-.432,1.156s-.292.768-.412,1.162c-.239.789-.521,1.56-.748,2.352l-.671,2.375-.6,2.4c-.215.793-.364,1.607-.545,2.41-.161.808-.377,1.6-.518,2.416l-.464,2.429c-.075.405-.16.808-.227,1.215l-.2,1.222c-.271,1.627-.571,3.248-.777,4.888-.475,3.267-.887,6.544-1.328,9.823-.194,1.642-.4,3.284-.615,4.927l-.665,4.953-.336,2.476-.395,2.468c-.257,1.645-.473,3.3-.785,4.932a196.855,196.855,0,0,1-4.064,19.569c-.466,1.6-.875,3.23-1.425,4.811l-.783,2.389c-.288.787-.594,1.567-.891,2.352-.564,1.582-1.287,3.1-1.95,4.643-.339.768-.728,1.513-1.093,2.27l-.555,1.131c-.183.379-.393.742-.588,1.114l-1.194,2.22-1.267,2.177c-.416.731-.87,1.435-1.313,2.147s-.883,1.427-1.35,2.121-.917,1.4-1.386,2.094l-1.429,2.058q-1.441,2.052-2.954,4.052c-4.018,5.331-8.327,10.373-12.017,15.8-.912,1.362-1.8,2.741-2.6,4.163a44.934,44.934,0,0,0-2.187,4.382,32.589,32.589,0,0,0-2.5,9.492l-.241-.009a28.929,28.929,0,0,1,1.585-9.92,38.825,38.825,0,0,1,1.925-4.686q1.1-2.279,2.414-4.442t2.721-4.238c.949-1.38,1.922-2.738,2.9-4.086,1.96-2.7,3.972-5.335,5.932-8a164.036,164.036,0,0,0,10.955-16.418c.2-.358.417-.708.6-1.072l.572-1.09c.375-.729.776-1.447,1.135-2.185.7-1.482,1.447-2.949,2.089-4.463.33-.753.67-1.5.992-2.26l.919-2.293c.643-1.519,1.149-3.09,1.712-4.643a102.711,102.711,0,0,0,4.557-19.3c.259-1.636.4-3.29.574-4.937l.233-2.474c.068-.825.1-1.654.155-2.481l.287-4.964c.1-1.664.2-3.328.32-4.992.3-3.322.649-6.644,1.213-9.938q.769-4.951,1.954-9.836c.089-.408.192-.814.3-1.218l.329-1.212c.23-.806.427-1.618.693-2.415l.757-2.4.867-2.363c.3-.784.63-1.557.956-2.329.16-.387.356-.762.532-1.142s.352-.761.551-1.132l.6-1.108c.2-.368.434-.722.649-1.082a12.933,12.933,0,0,1,1.519-2.026Z" transform="translate(0 -160.417)" fill="#3c2025"/>
            <path id="Trazado_875026" data-name="Trazado 875026" d="M627.746,704.31v12.446C620,734.041,594.483,731.9,594.483,731.9V704.31Z" transform="translate(-511.32 -605.784)" fill="#f68870"/>
            <path id="Trazado_875027" data-name="Trazado 875027" d="M401.918,261.47h0a36.367,36.367,0,0,1-34.165-38.444l3.181-53.974,72.609,4.279-3.181,53.974a36.367,36.367,0,0,1-38.444,34.165" transform="translate(-316.253 -145.404)" fill="#f7b098"/>
            <path id="Trazado_875028" data-name="Trazado 875028" d="M163.4,1280.257l11.87-223.366-15.027-78.206a10.08,10.08,0,0,1,6.13-11.252l41.531-16.74s10.786,31.879,25.444,34.57c0,0,17.7,4.01,31.25-36.3,0,0,29.267,12.062,37.958,15.764,11.222,4.779,13.251,1.292,14.539,19.5l-16.2,135.651,21.643,160.38Z" transform="translate(-137.669 -816.215)" fill="#fbb949"/>
            <path id="Trazado_875029" data-name="Trazado 875029" d="M376.969,25.988s12.581,29.7,31.506,35.148l27.844-4.507s-5.185-41.276-31.528-48.121c0,0-30.7-20.949-61.4,2.9,0,0-13.067,12.238-14.312,36.3,0,0,22.346-5.072,47.886-21.722" transform="translate(-283.048 -0.001)" fill="#3c2025"/>
            <path id="Trazado_875030" data-name="Trazado 875030" d="M652.317,1824.605c1.113-1.2,2.2-2.4,3.267-3.613s2.135-2.417,3.191-3.63c2.111-2.426,4.178-4.881,6.241-7.341,1.021-1.239,2.059-2.465,3.069-3.716l3.069-3.73c.253-.313.523-.615.775-.93l.763-.94q.768-.937,1.558-1.862c1.04-1.243,2.072-2.5,3.195-3.7-.337.746-.7,1.477-1.072,2.206s-.745,1.455-1.147,2.165-.82,1.409-1.242,2.107-.844,1.4-1.3,2.073c-.9,1.363-1.814,2.713-2.8,4.016-.489.653-.969,1.313-1.48,1.95l-1.541,1.9a77.63,77.63,0,0,1-6.738,7.113c-1.207,1.1-2.443,2.177-3.742,3.175-.645.5-1.308.986-1.984,1.449a24.461,24.461,0,0,1-2.087,1.3" transform="translate(-561.064 -1544.025)" fill="#e4903b"/>
            <path id="Trazado_875031" data-name="Trazado 875031" d="M274.139,2142.56c-.143,10.5-.528,20.99-.987,31.471s-.989,20.957-1.6,31.427-1.278,20.936-1.992,31.4l-2.2,31.4c-.092-2.623-.186-5.251-.2-7.877-.018-1.313-.016-2.626-.022-3.939s-.008-2.627,0-3.939l.1-7.875c.049-2.624.134-5.247.2-7.871q.483-15.738,1.4-31.452t2.2-31.4c.858-10.459,1.829-20.911,3.093-31.34" transform="translate(-229.763 -1842.837)" fill="#e4903b"/>
            <path id="Trazado_875032" data-name="Trazado 875032" d="M232.6,704.467c-1.393,2.838-3.619,8.214-2.842,12.294l-8.85,3.043s-3.317-12.444-3.594-17.561c-.2-3.694,2.192-11.564,3.54-15.658l4.279-.573-3.811,12.559a2.764,2.764,0,0,0,.323,2.376c.407.582,1.028.859,1.894-.365,1.67-2.358,4.077-10.731,5.25-15.061l3.244-.437L228,699.146a1.9,1.9,0,0,0,.235,1.616c.352.5.95.714,1.887-.74a5.3,5.3,0,0,0,.646-1.461l3.82-13.822,3.873-.518-4.116,15.6a25.044,25.044,0,0,1-1.743,4.647" transform="translate(-186.904 -588.505)" fill="#ecd288"/>
            <path id="Trazado_875033" data-name="Trazado 875033" d="M243.084,919.881l8.85-3.042,17.331,51.855-9.587,4.886Z" transform="translate(-209.079 -788.582)" fill="#ecd288"/>
            <path id="Trazado_875034" data-name="Trazado 875034" d="M786.131,1162.687l59.6-12.03-7.052-33.187,8.939-162.786L791.8,936.278s1.244,31.435-14.934,42.843Z" transform="translate(-668.19 -805.302)" fill="#c38460"/>
            <path id="Trazado_875035" data-name="Trazado 875035" d="M189.721,954.895s3.162,30.076,15.953,40.447l-5.254,177.55-60.773-7.882,10.37-40.239-13.69-149.062Z" transform="translate(-117.257 -821.315)" fill="#c38460"/>
            <path id="Trazado_875036" data-name="Trazado 875036" d="M50.737,1080.992l-9.632,3.174L25.617,1202.254l14.1,37.888,20.742-21.3Z" transform="translate(-22.034 -929.772)" fill="#c38460"/>
            <path id="Trazado_875037" data-name="Trazado 875037" d="M1134.986,1067.858l12.217,127.8s-.927,25.167-12.217,30.975l-24.012-35.4Z" transform="translate(-955.56 -918.475)" fill="#c38460"/>
            <path id="Trazado_875038" data-name="Trazado 875038" d="M79,1548.048l22.955-47.015,22.678.553-18.253,81.585s-17.423,0-27.379-35.123" transform="translate(-67.944 -1291.053)" fill="#f7b098"/>
            <path id="Trazado_875039" data-name="Trazado 875039" d="M150.166,1224.257l31.389,11.27s2.489,5.877,4.978,12.238-.691,15.764-.691,15.764l-22.678-.553s-11.615-20.05-13-38.718" transform="translate(-129.159 -1052.996)" fill="#f7b098"/>
            <path id="Trazado_875040" data-name="Trazado 875040" d="M150.166,971.708l.035-.067L162.2,949.03l14.058-18.391s7.928-.83-2.719,16.732l-12.207,28.345Z" transform="translate(-129.159 -800.447)" fill="#f7b098"/>
            <path id="Trazado_875041" data-name="Trazado 875041" d="M207.2,1077.569s8.115-19.509,13.369-22.692l7.744,3.869s.069-8.85-2.938-10.647-12.687-.968-12.687-.968l-15.072,27.241Z" transform="translate(-169.969 -900.484)" fill="#f7b098"/>
            <path id="Trazado_875042" data-name="Trazado 875042" d="M274.282,1129.3s11.4-17.365,12.963-18.983v-2.766l-7.744-3.869s-4.442,1.5-13.369,22.692Z" transform="translate(-228.903 -949.287)" fill="#f7b098"/>
            <path id="Trazado_875043" data-name="Trazado 875043" d="M331.411,1172.612l9.425-11.155a6.432,6.432,0,0,0,1.292-6.024,6.234,6.234,0,0,0-4.771-4.323s-5.737,5.747-12.963,18.983Z" transform="translate(-279.014 -990.081)" fill="#f7b098"/>
            <path id="Trazado_875044" data-name="Trazado 875044" d="M16.112,1751.861s-3.745,21.329,25.921,36.54c0,0,7.68.9,3.739-17.354a20.978,20.978,0,0,1,3.111,21.837s-20.742,43.293-36.92,25.87c0,0-14.519-14.312-9.541-41.484,0,0,3.941-11.2,13.69-25.409" transform="translate(-1.189 -1506.793)" fill="#c38460"/>
            <path id="Trazado_875045" data-name="Trazado 875045" d="M543.014,343.517a17.635,17.635,0,0,1,1.636,1.915,20.306,20.306,0,0,1,1.4,2.122,17.96,17.96,0,0,1,1.115,2.327c.078.2.147.412.217.62a6.352,6.352,0,0,1,.191.633l.166.647c.045.22.077.445.113.669l.052.337.022.346c.012.232.03.461.034.7-.012.242-.031.485-.05.728l-.113.685a16.215,16.215,0,0,1-.744,2.543,36.716,36.716,0,0,1-2.151,4.625c-.4.74-.825,1.466-1.252,2.189s-.877,1.428-1.339,2.127l-.7,1.044-.1.158c-.02.052-.053.1-.072.152a1.222,1.222,0,0,0-.089.327,1.428,1.428,0,0,0,.511,1.279,8.156,8.156,0,0,0,.941.537l1.095.591q1.093.595,2.175,1.213c.72.415,1.44.831,2.151,1.267s1.423.87,2.12,1.336c-.809-.222-1.6-.472-2.4-.727s-1.58-.524-2.366-.8-1.565-.559-2.341-.85l-1.164-.441-.581-.223a3.631,3.631,0,0,1-.7-.339,3.406,3.406,0,0,1-1.417-3.871,4.136,4.136,0,0,1,.16-.423c.065-.126.148-.282.206-.381l.623-1.06c.414-.707.827-1.412,1.227-2.125s.807-1.419,1.189-2.136.766-1.431,1.13-2.15c.183-.359.356-.721.531-1.082s.339-.725.489-1.088a17.669,17.669,0,0,0,.8-2.172l.134-.531c.025-.168.049-.337.081-.506.014-.178.017-.362.027-.544l.013-.275-.016-.28a12.493,12.493,0,0,0-.314-2.285,22.77,22.77,0,0,0-.679-2.3,38.24,38.24,0,0,0-1.961-4.53" transform="translate(-463.792 -295.463)" fill="#f68872"/>
            <path id="Trazado_875046" data-name="Trazado 875046" d="M428.232,298.942a39.91,39.91,0,0,0-4.841-1.528,22.041,22.041,0,0,0-4.737-.625h-.589c-.2,0-.392.02-.588.026s-.393.018-.588.038-.393.029-.588.058a20.973,20.973,0,0,0-2.352.42,40.479,40.479,0,0,0-4.8,1.612,11.2,11.2,0,0,1,4.151-3.394,11.753,11.753,0,0,1,1.28-.518c.219-.072.438-.151.662-.211l.676-.165c.225-.063.457-.083.686-.124s.46-.073.692-.091c.464-.047.929-.057,1.394-.061a13.1,13.1,0,0,1,5.338,1.257,12.936,12.936,0,0,1,2.31,1.409,10.8,10.8,0,0,1,1.016.881,7.238,7.238,0,0,1,.878,1.017" transform="translate(-351.913 -253.198)" fill="#270d11"/>
            <path id="Trazado_875047" data-name="Trazado 875047" d="M657.849,400.065a20.065,20.065,0,0,1,4.182-4.949,16.441,16.441,0,0,1,2.727-1.92,10.145,10.145,0,0,1,3.312-1.2,6.566,6.566,0,0,1,1.907-.032,6.251,6.251,0,0,1,.969.217,8.739,8.739,0,0,1,.851.335,12.232,12.232,0,0,1,2.919,1.849,13.937,13.937,0,0,1,2.278,2.5,14.239,14.239,0,0,1,.89,1.413,12.291,12.291,0,0,1,.719,1.527l-.4-.325c-.021,0,.017.013.035.019s.049.014.074.022a1.524,1.524,0,0,0,.168.033,2.618,2.618,0,0,0,.37.025,4.063,4.063,0,0,0,.794-.086,4.983,4.983,0,0,0,.812-.241c.137-.048.27-.107.408-.161s.267-.126.405-.187a5.959,5.959,0,0,1-.619.666,5.431,5.431,0,0,1-.751.555,3.971,3.971,0,0,1-.89.4,3.3,3.3,0,0,1-.5.111,2.639,2.639,0,0,1-.27.026c-.048,0-.093,0-.145,0a1.091,1.091,0,0,1-.182-.016l-.207-.036-.19-.29c-.257-.392-.582-.809-.895-1.2s-.656-.764-1-1.124a16.011,16.011,0,0,0-2.235-1.93,12.4,12.4,0,0,0-2.508-1.381c-.214-.081-.462-.175-.629-.226a3.868,3.868,0,0,0-.577-.118,5.154,5.154,0,0,0-1.25.018,10.237,10.237,0,0,0-2.667.813,24.672,24.672,0,0,0-2.659,1.4c-1.757,1.052-3.473,2.253-5.242,3.484" transform="translate(-565.822 -337.089)" fill="#270d11"/>
            <path id="Trazado_875048" data-name="Trazado 875048" d="M405.7,389.264a44.032,44.032,0,0,0-4.991-3.949,19.756,19.756,0,0,0-2.648-1.488,11.006,11.006,0,0,0-2.746-.883c-.23-.047-.461-.062-.69-.093s-.458-.029-.686-.031-.456.007-.68.038l-.339.033-.364.068a12.65,12.65,0,0,0-2.8.776,7.834,7.834,0,0,0-2.375,1.491,6.649,6.649,0,0,0-.927,1.055l-.195.295c-.061.1-.116.2-.175.306l-.153.313c-.046.1-.094.225-.12.286l-.27.63-.446-.078a1.125,1.125,0,0,1-.252-.072c-.065-.025-.121-.054-.18-.082a2.205,2.205,0,0,1-.305-.2,2.784,2.784,0,0,1-.475-.469,3.674,3.674,0,0,1-.585-1.064c-.073-.182-.111-.371-.166-.552-.038-.186-.078-.37-.108-.553a8.024,8.024,0,0,1-.071-1.1c.078.167.152.333.222.5s.165.32.239.48.171.308.257.457.184.291.294.418a3.155,3.155,0,0,0,.661.677,1.64,1.64,0,0,0,.358.2,1.306,1.306,0,0,0,.169.055c.025,0,.051.01.071.01s.061,0,.009-.009l-.716.552c.021-.2.045-.335.075-.494s.071-.3.112-.447.092-.29.144-.433l.172-.422a7.349,7.349,0,0,1,.434-.8c.082-.127.159-.261.248-.383l.279-.36A8.449,8.449,0,0,1,388.8,381.7a7.639,7.639,0,0,1,.81-.373l.413-.168c.138-.054.279-.09.419-.135l.843-.255.852-.172.427-.084.461-.054a7.688,7.688,0,0,1,.926-.044,8.955,8.955,0,0,1,1.82.206,10.563,10.563,0,0,1,1.715.523,12.55,12.55,0,0,1,1.571.777,15.044,15.044,0,0,1,2.723,2.044A18.379,18.379,0,0,1,404,386.45c.33.442.64.9.924,1.367a12.528,12.528,0,0,1,.781,1.448" transform="translate(-329.382 -327.201)" fill="#270d11"/>
            <path id="Trazado_875049" data-name="Trazado 875049" d="M450.978,397.09a4.258,4.258,0,1,1-4.259-4.259,4.259,4.259,0,0,1,4.259,4.259" transform="translate(-380.565 -337.878)" fill="#270d11"/>
            <path id="Trazado_875050" data-name="Trazado 875050" d="M717.554,408.943a4.259,4.259,0,1,1-4.259-4.258,4.259,4.259,0,0,1,4.259,4.258" transform="translate(-609.85 -348.074)" fill="#270d11"/>
            <path id="Trazado_875051" data-name="Trazado 875051" d="M534.2,615.955h14.346a2.268,2.268,0,0,1,2.227,2.706c-.717,3.638-2.888,9.653-9.4,9.654s-8.683-6.016-9.4-9.654a2.268,2.268,0,0,1,2.227-2.706" transform="translate(-457.514 -529.789)" fill="#a52b13"/>
            <path id="Trazado_875052" data-name="Trazado 875052" d="M1056.2,258.656a19.95,19.95,0,0,1,1.019,2.021l.445,1.037.416,1.048c.266.7.516,1.411.766,2.121s.469,1.428.688,2.146l.635,2.162.565,2.179c.2.726.35,1.459.527,2.188s.339,1.462.483,2.2c.613,2.936,1.144,5.889,1.565,8.854l.328,2.223.266,2.23c.18,1.487.315,2.978.432,4.469s.212,2.993.318,4.469.186,2.968.3,4.451l.424,4.443c.184,1.476.4,2.948.6,4.421a88.653,88.653,0,0,0,4.5,17.22l.8,2.073c.262.691.577,1.361.863,2.042.563,1.366,1.226,2.684,1.847,4.017a72.427,72.427,0,0,0,4.366,7.625,52.128,52.128,0,0,0,5.474,6.8c2.028,2.109,4.182,4.153,6.321,6.233s4.272,4.2,6.3,6.427a70.293,70.293,0,0,1,5.729,7.025c.887,1.228,1.693,2.518,2.456,3.829a38.4,38.4,0,0,1,2.054,4.058,34.67,34.67,0,0,1,1.543,4.267,32.192,32.192,0,0,1,.92,4.418l-.237.047a40.631,40.631,0,0,0-1.436-4.206,40.073,40.073,0,0,0-1.9-3.985,50.428,50.428,0,0,0-4.92-7.287q-1.374-1.72-2.866-3.347-1.475-1.641-3.039-3.208c-2.078-2.1-4.23-4.131-6.392-6.182s-4.332-4.121-6.378-6.37c-1.027-1.119-2-2.307-2.936-3.514-.45-.617-.913-1.224-1.346-1.852l-1.26-1.907a61.85,61.85,0,0,1-4.214-8.059l-.849-2.1c-.292-.7-.52-1.417-.772-2.127s-.51-1.418-.726-2.139l-.654-2.159c-1.7-5.768-2.9-11.629-4.016-17.5l-.817-4.411-.766-4.425c-.464-2.956-.908-5.931-1.291-8.87l-1.146-8.837-.289-2.208-.329-2.2c-.2-1.471-.435-2.934-.669-4.4-.108-.735-.255-1.46-.373-2.193s-.235-1.466-.382-2.192l-.416-2.185-.444-2.179-.484-2.171c-.171-.721-.343-1.443-.531-2.16l-.284-1.076-.307-1.069c-.214-.708-.431-1.425-.7-2.107Z" transform="translate(-908.268 -222.473)" fill="#3c2025"/>
            <path id="Trazado_875053" data-name="Trazado 875053" d="M671.086,185.706c.511,1.694,1.051,3.36,1.642,5.005.289.825.606,1.638.913,2.455.159.406.325.81.477,1.218s.323.811.473,1.221a38.511,38.511,0,0,0,2.094,4.824,26.046,26.046,0,0,0,3,4.319c.579.66,1.156,1.317,1.761,1.947.585.647,1.208,1.256,1.814,1.88q1.886,1.805,3.92,3.428a62.561,62.561,0,0,0,8.718,5.807l-.047.111a28.411,28.411,0,0,1-4.938-2.028,30.425,30.425,0,0,1-4.529-2.877,32.894,32.894,0,0,1-7.226-7.872c-.972-1.494-1.887-3.008-2.809-4.52s-1.892-3.012-2.678-4.616c-.191-.4-.377-.808-.552-1.218s-.331-.828-.481-1.248c-.3-.84-.571-1.69-.8-2.551s-.431-1.73-.582-2.609a18.077,18.077,0,0,1-.288-2.659Z" transform="translate(-577.105 -159.728)" fill="#3c2025"/>
            <path id="Trazado_875054" data-name="Trazado 875054" d="M403.681,175.569c-1.47,1.571-3.051,3.017-4.66,4.43q-1.208,1.058-2.455,2.069c-.825.682-1.673,1.335-2.538,1.967-1.732,1.261-3.552,2.4-5.286,3.653s-3.425,2.56-5.118,3.874c-.843.661-1.693,1.316-2.555,1.953s-1.743,1.249-2.636,1.844-1.788,1.187-2.687,1.774-1.829,1.127-2.765,1.658a54.348,54.348,0,0,1-5.8,2.84,26.6,26.6,0,0,1-6.207,1.792l-.027-.118a65.026,65.026,0,0,0,11.4-5.63c1.834-1.066,3.667-2.145,5.475-3.269l5.428-3.385c.9-.576,1.8-1.147,2.68-1.756s1.74-1.237,2.584-1.892c1.692-1.3,3.269-2.755,4.9-4.13q1.226-1.029,2.489-2.01l1.261-.985,1.27-.974c1.7-1.292,3.4-2.578,5.172-3.8Z" transform="translate(-310.453 -150.931)" fill="#3c2025"/>
            <path id="Trazado_875055" data-name="Trazado 875055" d="M47.866,1743.137a2.382,2.382,0,0,0-.685.117,1.991,1.991,0,0,0-.582.28,2.257,2.257,0,0,0-.752.914c-.4.833-.832,1.681-1.269,2.507q-1.318,2.484-2.779,4.871t-3.033,4.706c-1.055,1.546-2.137,3.066-3.325,4.578a25.834,25.834,0,0,1,1.88-5.394A48.651,48.651,0,0,1,40,1750.73a54.142,54.142,0,0,1,3.189-4.667c.579-.75,1.166-1.48,1.812-2.2a2.713,2.713,0,0,1,1.376-.864,2.208,2.208,0,0,1,1.491.139" transform="translate(-30.484 -1499.111)" fill="#b37455"/>
            <path id="Trazado_875056" data-name="Trazado 875056" d="M235.893,1895.258a12.69,12.69,0,0,1,2.093,2.538,17.869,17.869,0,0,1,1.514,2.964,20.073,20.073,0,0,1,.938,3.222,20.788,20.788,0,0,1,.366,3.353,22.329,22.329,0,0,1-.175,3.374,26.948,26.948,0,0,1-.659,3.309c-.161.537-.309,1.081-.495,1.609s-.365,1.065-.565,1.564c-.39,1.016-.787,2.032-1.2,3.043-.835,2.018-1.722,4.028-2.766,5.982a29.743,29.743,0,0,1-3.729,5.533,43.4,43.4,0,0,1-4.712,4.615c-1.659,1.414-3.33,2.8-5.051,4.136,1.4-1.668,2.889-3.258,4.341-4.866a61.115,61.115,0,0,0,4.149-4.9,51.741,51.741,0,0,0,5.819-11.3c.4-1,.812-1.995,1.2-3,.2-.507.387-.994.57-1.484s.333-.991.5-1.488a28.435,28.435,0,0,0,.741-3.039,27.133,27.133,0,0,0,.365-3.1,21.284,21.284,0,0,0-.088-3.129,20.34,20.34,0,0,0-1.587-6.112c-.215-.489-.45-.972-.712-1.442a12.561,12.561,0,0,0-.856-1.378" transform="translate(-190.472 -1630.13)" fill="#b37455"/>
            <path id="Trazado_875057" data-name="Trazado 875057" d="M154.792,1904c2.14,2.042,4.318,3.965,6.559,5.8a83.041,83.041,0,0,0,6.951,5.122q1.8,1.183,3.672,2.242c.309.183.627.348.942.52s.632.344.954.511l.481.251a.552.552,0,0,0,.118.053,1.66,1.66,0,0,0,.168.05,1.6,1.6,0,0,0,.713,0,2.449,2.449,0,0,0,1.339-.96,7.647,7.647,0,0,0,.969-1.776,27.3,27.3,0,0,0,1.175-4.188,17.982,17.982,0,0,1,.048,2.227,13.5,13.5,0,0,1-.261,2.249,7.771,7.771,0,0,1-.8,2.23,4.5,4.5,0,0,1-.793,1.026,3.426,3.426,0,0,1-1.2.745,3.271,3.271,0,0,1-1.461.153,3.447,3.447,0,0,1-.369-.067,2.311,2.311,0,0,1-.4-.13l-.513-.217c-.685-.281-1.367-.6-2.037-.933a38.759,38.759,0,0,1-3.9-2.227,41.858,41.858,0,0,1-6.922-5.654,39.523,39.523,0,0,1-2.955-3.338c-.457-.586-.9-1.181-1.316-1.8a20.416,20.416,0,0,1-1.165-1.9" transform="translate(-133.138 -1637.648)" fill="#b37455"/>
            <path id="Trazado_875058" data-name="Trazado 875058" d="M470.685,954.895l-7.7,3v45.951l11.551,13.6-11.551,13.851,16.963,141.412,6.687-177.365s-11.718-8.089-15.953-40.447" transform="translate(-398.221 -821.315)" fill="#b37455"/>
            <path id="Trazado_875059" data-name="Trazado 875059" d="M791.8,936.278l9.861,3.252,1.209,45.784L788.9,999.482l12.765,12.886-15.531,150.319-9.265-183.566s15.764-10.578,14.934-42.843" transform="translate(-668.19 -805.302)" fill="#b37455"/>
            <path id="Trazado_875060" data-name="Trazado 875060" d="M868.8,1705.312l24.683-7.571,20.12,31.528-2.282,21.986L889.122,1744Z" transform="translate(-747.259 -1460.245)" fill="#f7b098"/>
            <path id="Trazado_875061" data-name="Trazado 875061" d="M983.335,1868.345a96.013,96.013,0,0,1,19.824,24.728s8.781,18.61-7.744,28.151c0,0-18.371,8.919-29.478-10.164s-10.07-20.949-10.07-20.949-1.456-6.744,1.968-10.632a12.5,12.5,0,0,0,6.467,11.185s9.541,2.9,15.487-.968c0,0,7.052-4.7,3.545-21.352" transform="translate(-821.887 -1606.982)" fill="#c38460"/>
            <path id="Trazado_875062" data-name="Trazado 875062" d="M1154.112,1868.345a48.341,48.341,0,0,1,8.034,6.149,56.063,56.063,0,0,1,6.785,7.567,41.627,41.627,0,0,1,5.084,8.857,30.753,30.753,0,0,1,1.535,4.886,22.8,22.8,0,0,1,.505,5.059,43.79,43.79,0,0,0-1.5-4.764,47.072,47.072,0,0,0-2.046-4.484,64.51,64.51,0,0,0-5.276-8.3c-1.956-2.646-4.068-5.186-6.271-7.665s-4.494-4.9-6.851-7.305" transform="translate(-992.663 -1606.982)" fill="#b37455"/>
            <path id="Trazado_875063" data-name="Trazado 875063" d="M953.449,1947.941a5.953,5.953,0,0,0-.6.83l-.252.441-.214.46-.108.228-.087.238-.174.472c-.113.315-.176.648-.266.968a3.249,3.249,0,0,0-.095.491l-.078.494a4.8,4.8,0,0,0-.069.493l-.027.5-.028.5-.013.248.013.25.05.994.012.248.034.247.07.493.14.984c.161.648.305,1.3.477,1.936.219.631.424,1.264.63,1.9.249.62.519,1.232.776,1.847l.195.46.23.447.462.892c.309.594.59,1.2.955,1.768l1.03,1.731c.337.578.725,1.157,1.085,1.735l2.194,3.461c.731,1.151,1.468,2.293,2.228,3.415s1.527,2.234,2.331,3.31,1.642,2.121,2.528,3.112a28.408,28.408,0,0,0,2.829,2.774,20.994,20.994,0,0,0,3.23,2.23,19.269,19.269,0,0,0,7.545,2.262c.666.086,1.34.1,2.015.14.675,0,1.354.017,2.033-.018.34-.015.681-.018,1.021-.042l1.021-.08c.684-.039,1.361-.143,2.047-.2a32.637,32.637,0,0,1-4.034.9c-.681.131-1.374.175-2.066.254-.695.036-1.391.091-2.093.077a20.683,20.683,0,0,1-4.2-.443,18.574,18.574,0,0,1-4.039-1.388,19.927,19.927,0,0,1-3.645-2.245,27.444,27.444,0,0,1-3.135-2.869,50.807,50.807,0,0,1-5.139-6.6c-1.541-2.3-2.967-4.653-4.372-7.009-.346-.6-.7-1.167-1.04-1.782l-1-1.841a20.615,20.615,0,0,1-.914-1.89l-.426-.96-.211-.48-.177-.5c-.233-.664-.477-1.322-.7-1.989-.18-.683-.361-1.365-.527-2.047-.127-.7-.223-1.4-.334-2.092l-.063-1.061-.03-.529-.013-.264.014-.266.06-1.061.015-.264.042-.263.085-.524.085-.522c.024-.174.087-.343.128-.515l.141-.51a3.523,3.523,0,0,1,.166-.5,8.206,8.206,0,0,1,2.255-3.471" transform="translate(-817.5 -1675.444)" fill="#b37455"/>
            <path id="Trazado_875064" data-name="Trazado 875064" d="M716.8,504.449c0,2.553-3.482,4.624-7.778,4.624s-7.778-2.07-7.778-4.624,3.482-4.623,7.778-4.623,7.778,2.07,7.778,4.623" transform="translate(-603.148 -429.905)" fill="#f8a88e"/>
            <path id="Trazado_875065" data-name="Trazado 875065" d="M398.51,495.552c0,2.553-3.482,4.623-7.778,4.623s-7.778-2.07-7.778-4.623,3.482-4.623,7.778-4.623,7.778,2.07,7.778,4.623" transform="translate(-329.383 -422.253)" fill="#f8a88e"/>
            <path id="Trazado_875066" data-name="Trazado 875066" d="M899.932,427.044s5.411-7.62,12.051-3.05,1.476,20.536-12.051,24.683Z" transform="translate(-774.04 -363.426)" fill="#f7b098"/>
            <path id="Trazado_875067" data-name="Trazado 875067" d="M843.094,385.033a278.642,278.642,0,0,1,5.255,44.664c.553,22.54-2.489,49.919,4.287,55.035s15.768-15.066,24.2-14.032l-12.341-3.411s-5.084,9.562-6.882,7.626-1.659-23.507-1.59-38.58,1.128-39.113-1.641-50.334Z" transform="translate(-725.153 -331.171)" fill="#3c2025"/>
            <path id="Trazado_875068" data-name="Trazado 875068" d="M831.657,338.426a99.841,99.841,0,0,1,2.932,13.635c.337,2.3.647,4.6.8,6.924s.187,4.652.205,6.979c.015,1.163.044,2.324.069,3.486.007.581.039,1.16.061,1.74s.037,1.16.072,1.739l.168,3.48c.019.581.077,1.162.094,1.742l.051,1.742c.133,4.644.209,9.287.147,13.921l-.243,13.889-.29,13.85c-.04,2.3-.051,4.6.013,6.89.028,1.143.074,2.283.173,3.407.048.562.112,1.12.19,1.666.04.273.085.543.139.806.024.134.058.259.087.389l.107.42a36.885,36.885,0,0,1,1.138,6.963,15.128,15.128,0,0,0,.478,3.341,8.8,8.8,0,0,0,1.687,2.907l-.175.166a11.708,11.708,0,0,1-1.211-1.287,7.453,7.453,0,0,1-.938-1.542,14.976,14.976,0,0,1-.883-3.453,40.9,40.9,0,0,0-1.659-6.628l-.139-.414c-.047-.149-.1-.3-.14-.449-.087-.3-.161-.595-.229-.891-.138-.592-.235-1.181-.325-1.769-.178-1.176-.3-2.346-.4-3.515-.19-2.339-.276-4.669-.337-7-.209-9.313.4-18.571.866-27.818.244-4.623.62-9.239.824-13.858.046-1.155.084-2.309.1-3.463l.021-1.732-.053-1.732c-.015-.578-.043-1.154-.076-1.731s-.086-1.153-.148-1.728-.111-1.15-.179-1.725l-.238-1.72c-.16-1.146-.354-2.288-.539-3.43l-.27-1.713c-.095-.571-.184-1.141-.264-1.713-.331-2.285-.571-4.58-.811-6.877-.469-4.6-.919-9.2-1.111-13.856Z" transform="translate(-715.112 -291.084)" fill="#3c2025"/>
            <path id="Trazado_875069" data-name="Trazado 875069" d="M685.925,309.895a12.774,12.774,0,0,1,2.4-1.379,18.935,18.935,0,0,1,2.594-.943,19.387,19.387,0,0,1,5.508-.734c.469.02.938.036,1.407.085.234.022.468.05.7.087s.467.061.7.113a14.31,14.31,0,0,1,2.721.8,11.926,11.926,0,0,1,2.47,1.38,9.249,9.249,0,0,1,1.975,1.97c-.872-.334-1.684-.665-2.518-.916a23.85,23.85,0,0,0-2.482-.62c-.831-.149-1.657-.28-2.495-.353-.419-.03-.836-.081-1.257-.089-.419-.032-.842-.037-1.263-.049-1.691-.021-3.4.046-5.132.183s-3.485.312-5.324.462" transform="translate(-589.971 -263.915)" fill="#270d11"/>
            <path id="Trazado_875070" data-name="Trazado 875070" d="M211.557,1073.722c.967-2.135,2.012-4.225,3.084-6.3.529-1.042,1.086-2.068,1.63-3.1l1.674-3.077,1.717-3.054c.588-1.01,1.16-2.027,1.762-3.029l.446-.754c.152-.261.306-.515.475-.76a14.622,14.622,0,0,1,1.082-1.417,8.811,8.811,0,0,1,1.3-1.223,3.518,3.518,0,0,1,1.61-.724,3.707,3.707,0,0,0-1.449.917,9.206,9.206,0,0,0-1.114,1.307,14.584,14.584,0,0,0-.925,1.452c-.14.25-.277.5-.4.755l-.4.78c-.529,1.042-1.087,2.068-1.63,3.1l-1.676,3.078-1.719,3.055c-.587,1.01-1.161,2.028-1.763,3.031-1.19,2.012-2.407,4.01-3.7,5.963" transform="translate(-181.962 -903.359)" fill="#f68870"/>
            <path id="Trazado_875071" data-name="Trazado 875071" d="M268.784,1116.786c1.058-2.419,2.221-4.787,3.433-7.129s2.487-4.652,3.834-6.926c.687-1.13,1.381-2.255,2.136-3.352.383-.545.776-1.085,1.222-1.606a4.107,4.107,0,0,1,.8-.75,5.447,5.447,0,0,1,.928-.5,2.55,2.55,0,0,1,1.1-.187,3.032,3.032,0,0,1,.545.071c.177.038.342.1.512.155a8.082,8.082,0,0,1,1.768,1.022,21.6,21.6,0,0,1,2.9,2.723,31.241,31.241,0,0,0-3.146-2.355,7.715,7.715,0,0,0-1.71-.828,2.316,2.316,0,0,0-1.7.052,4.767,4.767,0,0,0-.783.481,3.627,3.627,0,0,0-.61.628c-.395.492-.762,1.03-1.118,1.575-.717,1.088-1.4,2.208-2.069,3.337s-1.341,2.258-2,3.393L272.833,1110c-1.327,2.273-2.66,4.544-4.049,6.79" transform="translate(-231.184 -942.966)" fill="#f68870"/>
            <path id="Trazado_875072" data-name="Trazado 875072" d="M334.257,1167.622a37.163,37.163,0,0,1,1.915-4.764,44.8,44.8,0,0,1,2.469-4.512,29.76,29.76,0,0,1,3.092-4.135,16.872,16.872,0,0,1,1.883-1.785,8.376,8.376,0,0,1,2.223-1.317,11.46,11.46,0,0,0-1.925,1.646,24.53,24.53,0,0,0-1.641,1.911c-.513.666-1.011,1.345-1.481,2.044s-.941,1.4-1.386,2.118-.892,1.436-1.325,2.163-.857,1.462-1.287,2.193Z" transform="translate(-287.498 -990.081)" fill="#f68870"/>
            <path id="Trazado_875073" data-name="Trazado 875073" d="M880.933,1728.41s0-15.335,15.395-26.2l-2.85-4.465-24.683,7.571Z" transform="translate(-747.259 -1460.244)" fill="#f68870"/>
            <path id="Trazado_875074" data-name="Trazado 875074" d="M1034.552,374.767c.369,2.144.665,4.3.934,6.454s.505,4.317.72,6.479l.3,3.246.259,3.249c.093,1.083.152,2.167.222,3.252s.117,2.17.167,3.255c.087,2.171.132,4.344.19,6.516l.059,3.258.08,3.257.223,6.511.067,1.628.109,1.622.226,3.24c.1,1.077.251,2.15.374,3.224l.193,1.61c.064.537.168,1.068.25,1.6l.508,3.2.638,3.175c.19,1.063.474,2.1.729,3.152s.5,2.1.829,3.126l.456,1.551c.155.516.281,1.041.463,1.549l1.022,3.067a97.158,97.158,0,0,0,11.711,23.044l-.1.073a76.5,76.5,0,0,1-12.827-22.686,86.745,86.745,0,0,1-3.4-12.651l-.579-3.223-.415-3.247c-.061-.542-.144-1.081-.187-1.625l-.115-1.632c-.07-1.088-.167-2.173-.214-3.261-.052-2.177-.127-4.356-.152-6.523-.014-1.085-.047-2.17-.072-3.254s-.089-2.168-.132-3.253c-.093-2.168-.263-4.333-.42-6.5l-.521-6.489c-.159-2.163-.321-4.326-.453-6.491l-.427-6.493-.842-13Z" transform="translate(-889.726 -322.341)" fill="#270d11"/>
            <path id="Trazado_875075" data-name="Trazado 875075" d="M755.2,1068.266s-7.928-25.632,0-30.516c0,0,4.065-.275,4.522,9.036,0,0,1.854,3.159,3.183,1.3s-3.044-16.922.353-22.725,6.6-2.915,6.6-2.915,3.411,2.958,3.134,10.375c0,0,1.2,3.176,2.766-1.156s-.738-20.834,6.084-19.451,5.07,8.094,4.149,16.768c0,0-.092,2.314,1.659,2.775s5.9-4.7,7.651.092,4.7,14.15-5.347,21.226,6.459-1.867,6,3.111-3.554,12.011-26.715,15.362Z" transform="translate(-646.526 -870.547)" fill="#425735"/>
            <path id="Trazado_875076" data-name="Trazado 875076" d="M917.418,315.386c.367,2.009.661,4.029.925,6.052q.2,1.517.372,3.038c.119,1.013.225,2.028.325,3.043l.283,3.047.236,3.051c.148,2.035.262,4.072.324,6.112.036,1.02.05,2.04.062,3.06s.035,2.04.033,3.06l.014,6.119c.02,4.077.1,8.154.1,12.234,0,2.04,0,4.08-.035,6.12s-.1,4.077-.173,6.114c-.143,4.074-.3,8.146-.488,12.213s-.384,8.129-.454,12.189c-.024,2.029-.04,4.06.081,6.083.031.505.063,1.011.109,1.515s.1,1.007.157,1.51a19.154,19.154,0,0,0,.617,2.97l-.113.042a16.467,16.467,0,0,1-.888-2.946c-.214-1-.375-2.02-.49-3.039-.234-2.038-.363-4.084-.423-6.128-.124-4.09-.018-8.174.118-12.251.087-2.038.174-4.074.292-6.109l.348-6.1.681-12.2c.085-2.034.191-4.069.21-6.1.025-1.018.006-2.036.01-3.054s-.019-2.036-.047-3.054-.066-2.035-.113-3.052l-.181-3.05c-.133-2.032-.268-4.063-.427-6.092l-.773-12.184L917.3,315.4Z" transform="translate(-788.977 -271.267)" fill="#270d11"/>
            <path id="Trazado_875077" data-name="Trazado 875077" d="M630.361,1267.178l41.077,15.014s-4.763,17.457-30.863,13.828c0,0-17.819-8.872-10.213-28.842" transform="translate(-540.555 -1089.912)" fill="#df472a"/>
            <path id="Trazado_875078" data-name="Trazado 875078" d="M494.667,1136.569s6.7,4.721,9.5-3.578c0,0,10.351-.725,5.961-9.4-.245-.484,2.612-11.961-7.989-11.063,0,0-4.794-7.452-11.339-.05,0,0-8.481-7.348-13.367,2.885,0,0-9.772,3.828-3.5,10.9,0,0-4.794,7.443,2.489,10.117,0,0,.83,8.389,8.942,4.517,0,0,7.191,3.872,9.311-4.333" transform="translate(-405.823 -954.038)" fill="#324425"/>
            <path id="Trazado_875079" data-name="Trazado 875079" d="M555.345,1219.932l5.534,4.542,4.517,19.15,6.8-.163-4.036-18.986,4.036-13.8-5.419-2.082-2.581,10.88-7.1-6.3-1.383,2.04,6.2,5.093-5.737-2.95Z" transform="translate(-477.658 -1039.521)" fill="#949a4b"/>
            <path id="Trazado_875080" data-name="Trazado 875080" d="M496.7,1287.559s4.016,1.027,3.844-3.4c0,0,4.761-2.2,1.13-5.51-.2-.185-.913-6.121-5.761-3.793,0,0-3.6-2.661-5.367,2.012,0,0-5.327-1.949-5.8,3.763,0,0-3.93,3.563.3,5.78,0,0-.929,4.378,2.992,4.334,0,0,1.9,3.815,5.036.529,0,0,4.093.538,3.622-3.719" transform="translate(-415.511 -1095.872)" fill="#435733"/>
            <path id="Trazado_875081" data-name="Trazado 875081" d="M535.857,1331.862l3.43,1.153,5.572,8.238,3.185-1.3-5.316-8.247-.57-7.246-2.934-.011.734,5.6-4.486-1.7-.287,1.212,3.843,1.294-3.24-.364Z" transform="translate(-460.317 -1139.173)" fill="#949a4b"/>
            <path id="Trazado_875082" data-name="Trazado 875082" d="M1104.812,1073.887s.827-21.2,7-20.465,3.422,13.091,3.422,13.091,7.456-10.6,11.052-7.19-4.056,10.693-4.056,10.693,7.283-3.411,8.573,1.66-16.409,8.481-16.409,8.481Z" transform="translate(-950.26 -906.043)" fill="#a9b158"/>
            <path id="Trazado_875083" data-name="Trazado 875083" d="M906.463,1217.442s15.944-35.768,26.822-39.917,14.842,5.07,13.92,7.928-5.9,20-25.535,32.634Z" transform="translate(-779.658 -1011.893)" fill="#f36938"/>
            <path id="Trazado_875084" data-name="Trazado 875084" d="M1049.969,1498.065s7.467-7.813,10.164-5.531.069,6.015-.83,7.813-3.319,8.988-5.462,12.584-4.245,7.03-10.578,8.5Z" transform="translate(-897.32 -1283.384)" fill="#f7b098"/>
            <path id="Trazado_875085" data-name="Trazado 875085" d="M535.371,1611.731s3.664,10.382,8.435,14.8,6.153,6.217,11.477,7.254c0,0-8.366,4.771-15.349-2.454,0,0-8.228-7.571-7.813-13.724s3.25-5.877,3.25-5.877" transform="translate(-457.67 -1386.265)" fill="#f7b098"/>
            <path id="Trazado_875086" data-name="Trazado 875086" d="M521.208,1391.989s.545,42.075,24.1,49.321c0,0,28.4,6.231,51.49-10.131,0,0,9.423-15.88,11.348-43.086Z" transform="translate(-448.296 -1193.913)" fill="#290f13"/>
            <path id="Trazado_875087" data-name="Trazado 875087" d="M805.311,1645.41s-6.361,13.482-20.12,8.158c0,0-7.951-4.7-11.961-16.524,0,0-1.142-3.692,2.184-5.189,2.95-1.328,5.45,2.737,6.32,4.428,1.074,2.087,6.914,12.1,11.547,12.653s12.03-3.526,12.03-3.526" transform="translate(-664.9 -1403.349)" fill="#f7b098"/>
            <path id="Trazado_875088" data-name="Trazado 875088" d="M630.672,1602.983s4.425,8.783,7.329,13.138a24.368,24.368,0,0,0,14.519,9.887s-7.121,4.978-15.349,1.244c0,0-7.4-3.539-11.754-16.663-.138-.415-2.7-6.844.588-8.53a3.592,3.592,0,0,1,4.667.923" transform="translate(-537 -1377.519)" fill="#f7b098"/>
            <path id="Trazado_875089" data-name="Trazado 875089" d="M132.392,588.707s4.761,3.9,15.517-1.2,11.171-1.016,17.013-2.053,9.783-10.371,4.183-13-15.862-7.689-22.658-2.911-7.971,6.852-15.023,7.958-14.381,2.351-9.334,7.882,6.706,2.558,10.3,3.319" transform="translate(-103.573 -488.176)" fill="#f36938"/>
            <path id="Trazado_875090" data-name="Trazado 875090" d="M981.035,1944.672a9.626,9.626,0,0,0,1.266,1.851,10.467,10.467,0,0,0,1.595,1.521,10.023,10.023,0,0,0,1.815,1.139,15.785,15.785,0,0,0,2.069.682,20.147,20.147,0,0,0,8.657.3,10.889,10.889,0,0,0,7.031-4.373c.1-.147.208-.29.3-.443l.278-.46c.166-.316.334-.634.487-.968a16.1,16.1,0,0,0,.782-2.063,23.828,23.828,0,0,0,.888-4.4,16.829,16.829,0,0,1-.169,4.576,16.275,16.275,0,0,1-.582,2.253,10.653,10.653,0,0,1-1,2.151,11.261,11.261,0,0,1-7.744,5.211,18.418,18.418,0,0,1-9.267-.655,14.208,14.208,0,0,1-2.162-.92,10.384,10.384,0,0,1-1.873-1.472,10.053,10.053,0,0,1-1.442-1.827,7.852,7.852,0,0,1-.93-2.1" transform="translate(-843.798 -1666.422)" fill="#b37455"/>
            <path id="Trazado_875091" data-name="Trazado 875091" d="M1045.979,1225.591c-1.887,2.656-4.276,4.2-5.338,3.445s-.392-3.518,1.494-6.175,4.276-4.2,5.338-3.446.392,3.519-1.494,6.175" transform="translate(-894.632 -1048.667)" fill="#eca37a"/>
          </g>
        </g>
      </g>
      <g id="Grupo_1100078" data-name="Grupo 1100078" transform="translate(1173.79 2683.365)">
        <path id="Unión_15-2" data-name="Unión 15" d="M56.483,29.011,24.331,0,0,27.079,56.469,78.032l.014-.016.014.016,56.469-50.953L88.635,0Z" transform="translate(0 44.786)" fill="#95dbb3"/>
        <path id="Unión_16-2" data-name="Unión 16" d="M0,19.823,41.48,57.049l.289-.32L82.92,19.8,65.092.062,41.534,21.2,17.907,0Z" transform="translate(15.023 0)" fill="#95dbb3"/>
      </g>
    </g>
    <g id="Grupo_1100081" data-name="Grupo 1100081" transform="translate(1367.653 2796.761) rotate(-90)">
      <rect id="Rectángulo_401081" data-name="Rectángulo 401081" width="2.46" height="2.459" transform="translate(0 0.001)" fill="#30169a" stroke="#30169a" stroke-linejoin="round" stroke-width="2"/>
      <rect id="Rectángulo_401082" data-name="Rectángulo 401082" width="2.46" height="2.46" transform="translate(0 14.873)" fill="#30169a" stroke="#30169a" stroke-linejoin="round" stroke-width="2"/>
      <rect id="Rectángulo_401083" data-name="Rectángulo 401083" width="2.46" height="2.46" transform="translate(0 29.746)" fill="#30169a" stroke="#30169a" stroke-linejoin="round" stroke-width="2"/>
      <rect id="Rectángulo_401084" data-name="Rectángulo 401084" width="2.46" height="2.459" transform="translate(13.466 0.001)" fill="#30169a" stroke="#30169a" stroke-linejoin="round" stroke-width="2"/>
      <rect id="Rectángulo_401085" data-name="Rectángulo 401085" width="2.46" height="2.46" transform="translate(13.466 14.873)" fill="#30169a" stroke="#30169a" stroke-linejoin="round" stroke-width="2"/>
      <rect id="Rectángulo_401086" data-name="Rectángulo 401086" width="2.46" height="2.46" transform="translate(13.466 29.746)" fill="#30169a" stroke="#30169a" stroke-linejoin="round" stroke-width="2"/>
      <rect id="Rectángulo_401087" data-name="Rectángulo 401087" width="2.46" height="2.459" transform="translate(26.932 0.001)" fill="#30169a" stroke="#30169a" stroke-linejoin="round" stroke-width="2"/>
      <rect id="Rectángulo_401088" data-name="Rectángulo 401088" width="2.46" height="2.46" transform="translate(26.932 14.873)" fill="#30169a" stroke="#30169a" stroke-linejoin="round" stroke-width="2"/>
      <rect id="Rectángulo_401089" data-name="Rectángulo 401089" width="2.46" height="2.46" transform="translate(26.932 29.746)" fill="#30169a" stroke="#30169a" stroke-linejoin="round" stroke-width="2"/>
      <rect id="Rectángulo_401090" data-name="Rectángulo 401090" width="2.46" height="2.459" transform="translate(40.399 0.001)" fill="#30169a" stroke="#30169a" stroke-linejoin="round" stroke-width="2"/>
      <rect id="Rectángulo_401091" data-name="Rectángulo 401091" width="2.46" height="2.46" transform="translate(40.399 14.873)" fill="#30169a" stroke="#30169a" stroke-linejoin="round" stroke-width="2"/>
      <rect id="Rectángulo_401092" data-name="Rectángulo 401092" width="2.46" height="2.46" transform="translate(40.399 29.746)" fill="#30169a" stroke="#30169a" stroke-linejoin="round" stroke-width="2"/>
      <rect id="Rectángulo_401093" data-name="Rectángulo 401093" width="2.46" height="2.459" transform="translate(53.865 0.001)" fill="#30169a" stroke="#30169a" stroke-linejoin="round" stroke-width="2"/>
      <rect id="Rectángulo_401094" data-name="Rectángulo 401094" width="2.46" height="2.46" transform="translate(53.865 14.873)" fill="#30169a" stroke="#30169a" stroke-linejoin="round" stroke-width="2"/>
      <rect id="Rectángulo_401095" data-name="Rectángulo 401095" width="2.46" height="2.46" transform="translate(53.865 29.746)" fill="#30169a" stroke="#30169a" stroke-linejoin="round" stroke-width="2"/>
      <rect id="Rectángulo_401096" data-name="Rectángulo 401096" width="2.459" height="2.459" transform="translate(67.332 0.001)" fill="#30169a" stroke="#30169a" stroke-linejoin="round" stroke-width="2"/>
      <rect id="Rectángulo_401097" data-name="Rectángulo 401097" width="2.46" height="2.46" transform="translate(67.331 14.873)" fill="#30169a" stroke="#30169a" stroke-linejoin="round" stroke-width="2"/>
      <rect id="Rectángulo_401098" data-name="Rectángulo 401098" width="2.459" height="2.46" transform="translate(67.332 29.746)" fill="#30169a" stroke="#30169a" stroke-linejoin="round" stroke-width="2"/>
      <rect id="Rectángulo_401099" data-name="Rectángulo 401099" width="2.459" height="2.459" transform="translate(80.798 0.001)" fill="#30169a" stroke="#30169a" stroke-linejoin="round" stroke-width="2"/>
      <rect id="Rectángulo_401100" data-name="Rectángulo 401100" width="2.46" height="2.46" transform="translate(80.796 14.873)" fill="#30169a" stroke="#30169a" stroke-linejoin="round" stroke-width="2"/>
      <rect id="Rectángulo_401101" data-name="Rectángulo 401101" width="2.459" height="2.46" transform="translate(80.798 29.746)" fill="#30169a" stroke="#30169a" stroke-linejoin="round" stroke-width="2"/>
      <rect id="Rectángulo_401102" data-name="Rectángulo 401102" width="2.459" height="2.459" transform="translate(94.264 0.001)" fill="#30169a" stroke="#30169a" stroke-linejoin="round" stroke-width="2"/>
      <rect id="Rectángulo_401103" data-name="Rectángulo 401103" width="2.46" height="2.46" transform="translate(94.264 14.873)" fill="#30169a" stroke="#30169a" stroke-linejoin="round" stroke-width="2"/>
      <rect id="Rectángulo_401104" data-name="Rectángulo 401104" width="2.459" height="2.46" transform="translate(94.264 29.746)" fill="#30169a" stroke="#30169a" stroke-linejoin="round" stroke-width="2"/>
      <rect id="Rectángulo_401105" data-name="Rectángulo 401105" width="2.459" height="2.459" transform="translate(107.731 0.001)" fill="#30169a" stroke="#30169a" stroke-linejoin="round" stroke-width="2"/>
      <rect id="Rectángulo_401106" data-name="Rectángulo 401106" width="2.46" height="2.46" transform="translate(107.729 14.873)" fill="#30169a" stroke="#30169a" stroke-linejoin="round" stroke-width="2"/>
      <rect id="Rectángulo_401107" data-name="Rectángulo 401107" width="2.459" height="2.46" transform="translate(107.731 29.746)" fill="#30169a" stroke="#30169a" stroke-linejoin="round" stroke-width="2"/>
      <rect id="Rectángulo_401108" data-name="Rectángulo 401108" width="2.46" height="2.459" transform="translate(121.196 0.001)" fill="#30169a" stroke="#30169a" stroke-linejoin="round" stroke-width="2"/>
      <rect id="Rectángulo_401109" data-name="Rectángulo 401109" width="2.46" height="2.46" transform="translate(121.195 14.873)" fill="#30169a" stroke="#30169a" stroke-linejoin="round" stroke-width="2"/>
      <rect id="Rectángulo_401110" data-name="Rectángulo 401110" width="2.46" height="2.46" transform="translate(121.196 29.746)" fill="#30169a" stroke="#30169a" stroke-linejoin="round" stroke-width="2"/>
      <rect id="Rectángulo_401111" data-name="Rectángulo 401111" width="2.46" height="2.459" transform="translate(134.662 0.001)" fill="#30169a" stroke="#30169a" stroke-linejoin="round" stroke-width="2"/>
      <rect id="Rectángulo_401112" data-name="Rectángulo 401112" width="2.46" height="2.46" transform="translate(134.662 14.873)" fill="#30169a" stroke="#30169a" stroke-linejoin="round" stroke-width="2"/>
      <rect id="Rectángulo_401113" data-name="Rectángulo 401113" width="2.46" height="2.46" transform="translate(134.662 29.746)" fill="#30169a" stroke="#30169a" stroke-linejoin="round" stroke-width="2"/>
    </g>
  </g>
</svg>
