<svg xmlns="http://www.w3.org/2000/svg" width="85" height="85" viewBox="0 0 85 85">
  <g id="Grupo_1099007" data-name="Grupo 1099007" transform="translate(-638 -444)">
    <circle id="Elipse_11472" data-name="Elipse 11472" cx="42.5" cy="42.5" r="42.5" transform="translate(638 444)" fill="#30169a"/>
    <g id="fruta" transform="translate(654.049 458.466)">
      <path id="Trazado_873117" data-name="Trazado 873117" d="M53.471,26.8a25.71,25.71,0,0,0-7.58-18.3.782.782,0,0,0-1.106,0l-27.3,27.3c-2.03-1.072-3.885-.761-6.013-.388a8.079,8.079,0,0,0-3.515-4.9.782.782,0,1,0-.742,1.377A6.391,6.391,0,0,1,9.761,35.2a7.426,7.426,0,0,0-7.026,2.087c-2.477-9.032.5-22.583,12.033-22.567a12.157,12.157,0,0,1,11.351,8.17.782.782,0,0,0,1.475-.52,13.769,13.769,0,0,0-5.278-6.91A8.182,8.182,0,0,1,23.7,12.233L24.735,10.8a1.738,1.738,0,0,0-2.116-2.574L20.163,9.344a7.924,7.924,0,0,1,1.753-5.383,1.442,1.442,0,0,0-1.77-2.154c-2.187,1-4.3,1.885-5.469,4.162C13.513,3.709,11.383,2.8,9.207,1.807a1.442,1.442,0,0,0-1.77,2.154A7.928,7.928,0,0,1,9.19,9.344L6.734,8.223A1.738,1.738,0,0,0,4.619,10.8L5.65,12.233a8.181,8.181,0,0,1,1.4,3.275C-.124,20.385-.9,31.239,1.56,38.815A12.791,12.791,0,0,0,1.21,50.37a.782.782,0,0,0,1.4-.707C.715,45.936,1.281,39.612,5.184,37.34c1.709-.994,3.207-.767,5.01-.406a10.372,10.372,0,0,1,.109,1.511.782.782,0,1,0,1.564,0,12.238,12.238,0,0,0-.09-1.5c1.843-.339,3.395-.673,5.155.332,4.951,2.827,4.959,12.446-.018,15.222a5.65,5.65,0,0,1-4.6.419,4.2,4.2,0,0,0-2.584,0,5.585,5.585,0,0,1-4.869-.7A.782.782,0,1,0,4,53.529a7.215,7.215,0,0,0,6.209.88,2.641,2.641,0,0,1,1.627,0,7.245,7.245,0,0,0,5.845-.542,7.794,7.794,0,0,0,1.674-1.261,10.362,10.362,0,0,0,13.236-.41A25.882,25.882,0,0,0,53.471,26.8ZM6.92,11.32,5.889,9.885q-.086-.27.2-.238c1.17.534,2.384,1.016,3.517,1.625a.782.782,0,0,0,1.152-.689c0-2.684-.073-4.9-1.779-7.162,2.541,1.16,4.919,2.554,4.919,5.768a.782.782,0,0,0,1.564,0c0-3.2,2.378-4.608,4.919-5.768C18.672,5.688,18.6,7.9,18.6,10.583a.782.782,0,0,0,1.153.689c1.133-.61,2.347-1.091,3.517-1.625q.281-.032.2.238L22.434,11.32A9.752,9.752,0,0,0,20.9,14.627a13.732,13.732,0,0,0-12.438.037A9.749,9.749,0,0,0,6.92,11.32ZM20.353,51.405c2.57-3.723,2.451-10.065-.444-13.61A8.73,8.73,0,0,1,25.723,35.6a8.814,8.814,0,1,1-5.37,15.8Zm14.011-1.246a10.332,10.332,0,0,0,1.409-3.147A21.828,21.828,0,0,0,48.966,31.1a.782.782,0,1,0-1.534-.307A20.272,20.272,0,0,1,36.073,45.179a10.489,10.489,0,0,0-10.35-11.14,10.28,10.28,0,0,0-6.8,2.542L42.443,13.056a20.07,20.07,0,0,1,5.383,13.971.782.782,0,0,0,1.564.017A21.622,21.622,0,0,0,43.549,11.95l1.781-1.781a24.324,24.324,0,0,1-10.966,39.99Z" transform="translate(0 0)" fill="#fff"/>
      <path id="Trazado_873118" data-name="Trazado 873118" d="M347.549,324.487a.782.782,0,0,0-1.106,1.106l1.181,1.181a.782.782,0,0,0,1.106-1.106Z" transform="translate(-310.11 -288.944)" fill="#fff"/>
      <path id="Trazado_873119" data-name="Trazado 873119" d="M377.012,283.5l-1.522-.678a.782.782,0,1,0-.637,1.429l1.522.678a.782.782,0,1,0,.637-1.429Z" transform="translate(-335.346 -251.765)" fill="#fff"/>
      <path id="Trazado_873120" data-name="Trazado 873120" d="M387.863,233.675l-1.656-.083h-.04a.782.782,0,0,0-.039,1.563l1.656.083h.04a.782.782,0,0,0,.039-1.563Z" transform="translate(-345.197 -207.732)" fill="#fff"/>
      <path id="Trazado_873121" data-name="Trazado 873121" d="M378.478,180.558a.781.781,0,0,0,.249-.041l1.563-.524a.782.782,0,0,0-.5-1.483l-1.562.524a.782.782,0,0,0,.248,1.524Z" transform="translate(-338.309 -158.359)" fill="#fff"/>
      <path id="Trazado_873122" data-name="Trazado 873122" d="M119.219,190.175a.78.78,0,0,0,.553-.229l1.723-1.723a.782.782,0,1,0-1.106-1.106l-1.17,1.17-1.17-1.17a.782.782,0,1,0-1.106,1.106l1.723,1.723A.78.78,0,0,0,119.219,190.175Z" transform="translate(-104.542 -165.899)" fill="#fff"/>
      <path id="Trazado_873123" data-name="Trazado 873123" d="M186.862,190.175a.78.78,0,0,0,.553-.229l1.723-1.723a.782.782,0,0,0-1.106-1.106l-1.17,1.17-1.17-1.17a.782.782,0,1,0-1.106,1.106l1.723,1.723A.78.78,0,0,0,186.862,190.175Z" transform="translate(-165.131 -165.899)" fill="#fff"/>
      <path id="Trazado_873124" data-name="Trazado 873124" d="M86.24,234.479l-1.17,1.17-1.17-1.17a.782.782,0,0,0-1.106,1.106l1.723,1.723a.782.782,0,0,0,1.106,0l1.723-1.723a.782.782,0,1,0-1.106-1.106Z" transform="translate(-73.954 -208.322)" fill="#fff"/>
      <path id="Trazado_873125" data-name="Trazado 873125" d="M152.161,237.309a.782.782,0,0,0,1.106,0l1.723-1.723a.782.782,0,0,0-1.106-1.106l-1.17,1.17-1.17-1.17a.782.782,0,0,0-1.106,1.106Z" transform="translate(-134.544 -208.323)" fill="#fff"/>
      <circle id="Elipse_11474" data-name="Elipse 11474" cx="0.782" cy="0.782" r="0.782" transform="translate(26.691 38.133)" fill="#fff"/>
    </g>
  </g>
</svg>
